%TF.GenerationSoftware,KiCad,Pcbnew,8.0.8*%
%TF.CreationDate,2025-07-11T17:58:52+08:00*%
%TF.ProjectId,pcb_badge,7063625f-6261-4646-9765-2e6b69636164,rev?*%
%TF.SameCoordinates,Original*%
%TF.FileFunction,Legend,Bot*%
%TF.FilePolarity,Positive*%
%FSLAX46Y46*%
G04 Gerber Fmt 4.6, Leading zero omitted, Abs format (unit mm)*
G04 Created by KiCad (PCBNEW 8.0.8) date 2025-07-11 17:58:52*
%MOMM*%
%LPD*%
G01*
G04 APERTURE LIST*
G04 Aperture macros list*
%AMRoundRect*
0 Rectangle with rounded corners*
0 $1 Rounding radius*
0 $2 $3 $4 $5 $6 $7 $8 $9 X,Y pos of 4 corners*
0 Add a 4 corners polygon primitive as box body*
4,1,4,$2,$3,$4,$5,$6,$7,$8,$9,$2,$3,0*
0 Add four circle primitives for the rounded corners*
1,1,$1+$1,$2,$3*
1,1,$1+$1,$4,$5*
1,1,$1+$1,$6,$7*
1,1,$1+$1,$8,$9*
0 Add four rect primitives between the rounded corners*
20,1,$1+$1,$2,$3,$4,$5,0*
20,1,$1+$1,$4,$5,$6,$7,0*
20,1,$1+$1,$6,$7,$8,$9,0*
20,1,$1+$1,$8,$9,$2,$3,0*%
G04 Aperture macros list end*
%ADD10C,0.000000*%
%ADD11C,0.150000*%
%ADD12C,0.300000*%
%ADD13C,0.120000*%
%ADD14C,0.250000*%
%ADD15C,0.127000*%
%ADD16C,0.152400*%
%ADD17R,1.700000X1.700000*%
%ADD18O,1.700000X1.700000*%
%ADD19R,3.000000X3.000000*%
%ADD20C,3.000000*%
%ADD21RoundRect,0.155000X0.212500X0.155000X-0.212500X0.155000X-0.212500X-0.155000X0.212500X-0.155000X0*%
%ADD22RoundRect,0.150000X-0.150000X0.587500X-0.150000X-0.587500X0.150000X-0.587500X0.150000X0.587500X0*%
%ADD23RoundRect,0.160000X0.160000X-0.197500X0.160000X0.197500X-0.160000X0.197500X-0.160000X-0.197500X0*%
%ADD24RoundRect,0.075000X-0.075000X0.662500X-0.075000X-0.662500X0.075000X-0.662500X0.075000X0.662500X0*%
%ADD25RoundRect,0.075000X-0.662500X0.075000X-0.662500X-0.075000X0.662500X-0.075000X0.662500X0.075000X0*%
%ADD26RoundRect,0.237500X-0.300000X-0.237500X0.300000X-0.237500X0.300000X0.237500X-0.300000X0.237500X0*%
%ADD27R,1.805236X0.612132*%
%ADD28RoundRect,0.250000X-0.250000X0.250000X-0.250000X-0.250000X0.250000X-0.250000X0.250000X0.250000X0*%
%ADD29RoundRect,0.160000X-0.160000X0.197500X-0.160000X-0.197500X0.160000X-0.197500X0.160000X0.197500X0*%
%ADD30RoundRect,0.250000X0.400000X0.625000X-0.400000X0.625000X-0.400000X-0.625000X0.400000X-0.625000X0*%
%ADD31C,0.750000*%
%ADD32R,1.300000X0.300000*%
%ADD33O,1.800000X1.200000*%
%ADD34O,2.000000X1.200000*%
%ADD35RoundRect,0.160000X-0.197500X-0.160000X0.197500X-0.160000X0.197500X0.160000X-0.197500X0.160000X0*%
%ADD36RoundRect,0.237500X-0.237500X0.300000X-0.237500X-0.300000X0.237500X-0.300000X0.237500X0.300000X0*%
%ADD37RoundRect,0.150000X-0.587500X-0.150000X0.587500X-0.150000X0.587500X0.150000X-0.587500X0.150000X0*%
%ADD38RoundRect,0.160000X0.197500X0.160000X-0.197500X0.160000X-0.197500X-0.160000X0.197500X-0.160000X0*%
%ADD39RoundRect,0.155000X-0.212500X-0.155000X0.212500X-0.155000X0.212500X0.155000X-0.212500X0.155000X0*%
%ADD40RoundRect,0.155000X-0.155000X0.212500X-0.155000X-0.212500X0.155000X-0.212500X0.155000X0.212500X0*%
%ADD41RoundRect,0.150000X0.587500X0.150000X-0.587500X0.150000X-0.587500X-0.150000X0.587500X-0.150000X0*%
%ADD42RoundRect,0.150000X-0.850000X-0.150000X0.850000X-0.150000X0.850000X0.150000X-0.850000X0.150000X0*%
%ADD43RoundRect,0.250000X-0.300000X-0.300000X0.300000X-0.300000X0.300000X0.300000X-0.300000X0.300000X0*%
%ADD44RoundRect,0.150000X-0.150000X0.850000X-0.150000X-0.850000X0.150000X-0.850000X0.150000X0.850000X0*%
%ADD45RoundRect,0.237500X0.300000X0.237500X-0.300000X0.237500X-0.300000X-0.237500X0.300000X-0.237500X0*%
%ADD46C,1.800000*%
%ADD47RoundRect,0.102000X3.725000X3.050000X-3.725000X3.050000X-3.725000X-3.050000X3.725000X-3.050000X0*%
%ADD48R,2.700000X3.600000*%
%ADD49RoundRect,0.155000X0.155000X-0.212500X0.155000X0.212500X-0.155000X0.212500X-0.155000X-0.212500X0*%
%ADD50R,1.100000X1.300000*%
%ADD51RoundRect,0.150000X0.150000X-0.587500X0.150000X0.587500X-0.150000X0.587500X-0.150000X-0.587500X0*%
%ADD52RoundRect,0.250000X0.250000X0.250000X-0.250000X0.250000X-0.250000X-0.250000X0.250000X-0.250000X0*%
%ADD53R,0.355600X0.558800*%
%ADD54R,0.558800X0.355600*%
%ADD55RoundRect,0.250000X0.300000X0.300000X-0.300000X0.300000X-0.300000X-0.300000X0.300000X-0.300000X0*%
G04 APERTURE END LIST*
D10*
G36*
X130130629Y-95513529D02*
G01*
X129558550Y-95513529D01*
X129558550Y-94941450D01*
X130130629Y-94941450D01*
X130130629Y-95513529D01*
G37*
G36*
X127842313Y-89220746D02*
G01*
X128414392Y-89220746D01*
X128414392Y-89792825D01*
X126698197Y-89792825D01*
X126698197Y-89220746D01*
X127270276Y-89220746D01*
X127270276Y-88648667D01*
X127842313Y-88648667D01*
X127842313Y-89220746D01*
G37*
G36*
X135279254Y-86360394D02*
G01*
X134707175Y-86360394D01*
X134707175Y-85788315D01*
X135279254Y-85788315D01*
X135279254Y-86360394D01*
G37*
G36*
X130130629Y-93225255D02*
G01*
X129558550Y-93225255D01*
X129558550Y-92653177D01*
X130130629Y-92653177D01*
X130130629Y-93225255D01*
G37*
D11*
X89000000Y-93500000D02*
X102000000Y-93500000D01*
X102000000Y-100500000D01*
X89000000Y-100500000D01*
X89000000Y-93500000D01*
D10*
G36*
X131274745Y-96085608D02*
G01*
X130702706Y-96085608D01*
X130702706Y-95513529D01*
X131274745Y-95513529D01*
X131274745Y-96085608D01*
G37*
G36*
X131846823Y-90936941D02*
G01*
X131274745Y-90936941D01*
X131274745Y-90364862D01*
X130130629Y-90364862D01*
X130130629Y-89792825D01*
X131846823Y-89792825D01*
X131846823Y-90936941D01*
G37*
D11*
X87000000Y-117000000D02*
X143000000Y-117000000D01*
X143000000Y-119000000D01*
X87000000Y-119000000D01*
X87000000Y-117000000D01*
G36*
X87000000Y-117000000D02*
G01*
X143000000Y-117000000D01*
X143000000Y-119000000D01*
X87000000Y-119000000D01*
X87000000Y-117000000D01*
G37*
D10*
G36*
X138139606Y-92653177D02*
G01*
X136995490Y-92653177D01*
X136995490Y-92081099D01*
X138139606Y-92081099D01*
X138139606Y-92653177D01*
G37*
G36*
X135851333Y-85788315D02*
G01*
X135279254Y-85788315D01*
X135279254Y-85216236D01*
X134707175Y-85216236D01*
X134707175Y-84644157D01*
X135851333Y-84644157D01*
X135851333Y-85788315D01*
G37*
G36*
X135851333Y-93797294D02*
G01*
X135279254Y-93797294D01*
X135279254Y-93225255D01*
X135851333Y-93225255D01*
X135851333Y-93797294D01*
G37*
G36*
X129558550Y-90364862D02*
G01*
X130130629Y-90364862D01*
X130130629Y-90936941D01*
X128414392Y-90936941D01*
X128414392Y-90364862D01*
X128986471Y-90364862D01*
X128986471Y-89220746D01*
X129558550Y-89220746D01*
X129558550Y-90364862D01*
G37*
D11*
X89500000Y-97500000D02*
X101000000Y-97500000D01*
X101000000Y-100000000D01*
X89500000Y-100000000D01*
X89500000Y-97500000D01*
D10*
G36*
X131846823Y-95513529D02*
G01*
X131274745Y-95513529D01*
X131274745Y-94941450D01*
X130130629Y-94941450D01*
X130130629Y-94369371D01*
X131846823Y-94369371D01*
X131846823Y-95513529D01*
G37*
G36*
X135851333Y-87504510D02*
G01*
X135279254Y-87504510D01*
X135279254Y-86360394D01*
X135851333Y-86360394D01*
X135851333Y-87504510D01*
G37*
D11*
X91000000Y-109500000D02*
X139000000Y-109500000D01*
X139000000Y-117500000D01*
X91000000Y-117500000D01*
X91000000Y-109500000D01*
G36*
X91000000Y-109500000D02*
G01*
X139000000Y-109500000D01*
X139000000Y-117500000D01*
X91000000Y-117500000D01*
X91000000Y-109500000D01*
G37*
D10*
G36*
X131274745Y-91509020D02*
G01*
X130702706Y-91509020D01*
X130702706Y-90936941D01*
X131274745Y-90936941D01*
X131274745Y-91509020D01*
G37*
G36*
X131274745Y-87504510D02*
G01*
X130702706Y-87504510D01*
X130702706Y-86932431D01*
X131274745Y-86932431D01*
X131274745Y-87504510D01*
G37*
G36*
X132990980Y-94941450D02*
G01*
X132418901Y-94941450D01*
X132418901Y-94369371D01*
X132990980Y-94369371D01*
X132990980Y-94941450D01*
G37*
G36*
X136423412Y-95513529D02*
G01*
X135279254Y-95513529D01*
X135279254Y-94941450D01*
X136423412Y-94941450D01*
X136423412Y-95513529D01*
G37*
G36*
X132990980Y-90364862D02*
G01*
X132418901Y-90364862D01*
X132418901Y-89792825D01*
X132990980Y-89792825D01*
X132990980Y-90364862D01*
G37*
D11*
X93000000Y-87700000D02*
X118500000Y-87700000D01*
X118500000Y-88500000D01*
X93000000Y-88500000D01*
X93000000Y-87700000D01*
G36*
X93000000Y-87700000D02*
G01*
X118500000Y-87700000D01*
X118500000Y-88500000D01*
X93000000Y-88500000D01*
X93000000Y-87700000D01*
G37*
D10*
G36*
X134135138Y-93797294D02*
G01*
X133563059Y-93797294D01*
X133563059Y-93225255D01*
X134135138Y-93225255D01*
X134135138Y-93797294D01*
G37*
G36*
X126126118Y-89220746D02*
G01*
X125554039Y-89220746D01*
X125554039Y-88648667D01*
X126126118Y-88648667D01*
X126126118Y-89220746D01*
G37*
D11*
X101000000Y-98000000D02*
X101500000Y-98000000D01*
X101500000Y-99500000D01*
X101000000Y-99500000D01*
X101000000Y-98000000D01*
X102000000Y-97000000D02*
X89000000Y-97000000D01*
X87000000Y-107000000D02*
X143000000Y-107000000D01*
X143000000Y-110000000D01*
X87000000Y-110000000D01*
X87000000Y-107000000D01*
G36*
X87000000Y-107000000D02*
G01*
X143000000Y-107000000D01*
X143000000Y-110000000D01*
X87000000Y-110000000D01*
X87000000Y-107000000D01*
G37*
D10*
G36*
X127842313Y-91509020D02*
G01*
X129558550Y-91509020D01*
X129558550Y-92081099D01*
X126698197Y-92081099D01*
X126698197Y-91509020D01*
X127270276Y-91509020D01*
X127270276Y-90936941D01*
X127842313Y-90936941D01*
X127842313Y-91509020D01*
G37*
G36*
X131274745Y-93225255D02*
G01*
X131846823Y-93225255D01*
X131846823Y-93797294D01*
X130702706Y-93797294D01*
X130702706Y-92653177D01*
X130130629Y-92653177D01*
X130130629Y-92081099D01*
X131274745Y-92081099D01*
X131274745Y-93225255D01*
G37*
G36*
X136995490Y-93225255D02*
G01*
X135851333Y-93225255D01*
X135851333Y-92653177D01*
X136995490Y-92653177D01*
X136995490Y-93225255D01*
G37*
G36*
X127842313Y-86932431D02*
G01*
X124981961Y-86932431D01*
X124981961Y-84644157D01*
X125554039Y-84644157D01*
X125554039Y-86360394D01*
X127270276Y-86360394D01*
X127270276Y-84644157D01*
X125554039Y-84644157D01*
X124981961Y-84644157D01*
X124981961Y-84072078D01*
X127842313Y-84072078D01*
X127842313Y-86360394D01*
X127842313Y-86932431D01*
G37*
D11*
X105000000Y-93500000D02*
X118000000Y-93500000D01*
X118000000Y-100500000D01*
X105000000Y-100500000D01*
X105000000Y-93500000D01*
D10*
G36*
X140427922Y-86932431D02*
G01*
X137567569Y-86932431D01*
X137567569Y-84644157D01*
X138139606Y-84644157D01*
X138139606Y-86360394D01*
X139855843Y-86360394D01*
X139855843Y-84644157D01*
X138139606Y-84644157D01*
X137567569Y-84644157D01*
X137567569Y-84072078D01*
X140427922Y-84072078D01*
X140427922Y-86360394D01*
X140427922Y-86932431D01*
G37*
D11*
X105000000Y-97000000D02*
X118000000Y-97000000D01*
D10*
G36*
X130130629Y-87504510D02*
G01*
X129558550Y-87504510D01*
X129558550Y-86932431D01*
X130130629Y-86932431D01*
X130130629Y-87504510D01*
G37*
G36*
X126698197Y-96085608D02*
G01*
X125554039Y-96085608D01*
X125554039Y-95513529D01*
X126698197Y-95513529D01*
X126698197Y-96085608D01*
G37*
G36*
X137567569Y-91509020D02*
G01*
X136995490Y-91509020D01*
X136995490Y-92081099D01*
X135851333Y-92081099D01*
X135851333Y-90936941D01*
X137567569Y-90936941D01*
X137567569Y-91509020D01*
G37*
G36*
X127842313Y-93225255D02*
G01*
X128414392Y-93225255D01*
X128414392Y-93797294D01*
X129558550Y-93797294D01*
X129558550Y-94369371D01*
X127842313Y-94369371D01*
X127842313Y-93797294D01*
X127270276Y-93797294D01*
X127270276Y-92653177D01*
X127842313Y-92653177D01*
X127842313Y-93225255D01*
G37*
G36*
X131846823Y-85788315D02*
G01*
X131274745Y-85788315D01*
X131274745Y-85216236D01*
X130702706Y-85216236D01*
X130702706Y-84644157D01*
X131846823Y-84644157D01*
X131846823Y-85788315D01*
G37*
D11*
X87000000Y-81000000D02*
X120000000Y-81000000D01*
X120000000Y-102500000D01*
X87000000Y-102500000D01*
X87000000Y-81000000D01*
D10*
G36*
X128986471Y-97229724D02*
G01*
X127270276Y-97229724D01*
X127270276Y-96085608D01*
X127842313Y-96085608D01*
X127842313Y-96657687D01*
X128414392Y-96657687D01*
X128414392Y-96085608D01*
X127842313Y-96085608D01*
X127270276Y-96085608D01*
X127270276Y-95513529D01*
X128986471Y-95513529D01*
X128986471Y-96657687D01*
X128986471Y-97229724D01*
G37*
D11*
X93500000Y-81000000D02*
X118500000Y-81000000D01*
X118500000Y-82000000D01*
X93500000Y-82000000D01*
X93500000Y-81000000D01*
G36*
X93500000Y-81000000D02*
G01*
X118500000Y-81000000D01*
X118500000Y-82000000D01*
X93500000Y-82000000D01*
X93500000Y-81000000D01*
G37*
D10*
G36*
X130702706Y-84072078D02*
G01*
X130702706Y-84644157D01*
X129558550Y-84644157D01*
X129558550Y-84072078D01*
X130702706Y-84072078D01*
G37*
G36*
X143288274Y-89220746D02*
G01*
X143288274Y-89792825D01*
X143288274Y-91509020D01*
X143288274Y-95513529D01*
X143288274Y-100090118D01*
X143288274Y-102378391D01*
X122121609Y-102378391D01*
X122121609Y-98945961D01*
X124409882Y-98945961D01*
X124409882Y-99518039D01*
X124981961Y-99518039D01*
X124981961Y-98945961D01*
X125554039Y-98945961D01*
X125554039Y-99518039D01*
X125554039Y-100090118D01*
X127270276Y-100090118D01*
X127842313Y-100090118D01*
X128414392Y-100090118D01*
X128414392Y-99518039D01*
X127842313Y-99518039D01*
X127842313Y-100090118D01*
X127270276Y-100090118D01*
X127270276Y-99518039D01*
X126698197Y-99518039D01*
X126698197Y-98945961D01*
X126126118Y-98945961D01*
X126126118Y-98373882D01*
X124981961Y-98373882D01*
X124981961Y-98945961D01*
X124409882Y-98945961D01*
X122121609Y-98945961D01*
X122121609Y-91509020D01*
X124409882Y-91509020D01*
X124409882Y-92653177D01*
X125554039Y-92653177D01*
X125554039Y-92081099D01*
X126698197Y-92081099D01*
X126698197Y-93225255D01*
X126126118Y-93225255D01*
X126126118Y-93797294D01*
X125554039Y-93797294D01*
X125554039Y-93225255D01*
X124981961Y-93225255D01*
X124981961Y-93797294D01*
X124409882Y-93797294D01*
X124409882Y-94369371D01*
X124981961Y-94369371D01*
X124981961Y-93797294D01*
X125554039Y-93797294D01*
X125554039Y-94369371D01*
X126698197Y-94369371D01*
X126698197Y-94941450D01*
X124981961Y-94941450D01*
X124981961Y-96085608D01*
X125554039Y-96085608D01*
X125554039Y-96657687D01*
X124409882Y-96657687D01*
X124409882Y-97801803D01*
X126126118Y-97801803D01*
X126126118Y-96657687D01*
X126698197Y-96657687D01*
X126698197Y-97801803D01*
X127270276Y-97801803D01*
X127270276Y-98945961D01*
X127842313Y-98945961D01*
X127842313Y-98373882D01*
X129558550Y-98373882D01*
X129558550Y-98945961D01*
X130130629Y-98945961D01*
X130130629Y-99518039D01*
X129558550Y-99518039D01*
X129558550Y-100090118D01*
X130130629Y-100090118D01*
X130130629Y-99518039D01*
X130702706Y-99518039D01*
X130702706Y-100090118D01*
X132418901Y-100090118D01*
X132418901Y-99518039D01*
X133563059Y-99518039D01*
X133563059Y-100090118D01*
X135279254Y-100090118D01*
X135279254Y-99518039D01*
X135851333Y-99518039D01*
X135851333Y-100090118D01*
X136423412Y-100090118D01*
X136995490Y-100090118D01*
X141000000Y-100090118D01*
X141000000Y-96085608D01*
X136995490Y-96085608D01*
X136995490Y-98945961D01*
X136995490Y-100090118D01*
X136423412Y-100090118D01*
X136423412Y-99518039D01*
X135851333Y-99518039D01*
X135851333Y-98945961D01*
X136423412Y-98945961D01*
X136423412Y-96657687D01*
X135851333Y-96657687D01*
X135851333Y-97229724D01*
X135279254Y-97229724D01*
X135279254Y-97801803D01*
X134707175Y-97801803D01*
X134707175Y-98373882D01*
X135851333Y-98373882D01*
X135851333Y-98945961D01*
X134135138Y-98945961D01*
X134135138Y-99518039D01*
X133563059Y-99518039D01*
X133563059Y-98945961D01*
X132990980Y-98945961D01*
X132990980Y-98373882D01*
X133563059Y-98373882D01*
X134135138Y-98373882D01*
X134135138Y-97229724D01*
X134707175Y-97229724D01*
X134707175Y-96657687D01*
X133563059Y-96657687D01*
X133563059Y-97229724D01*
X133563059Y-98373882D01*
X132990980Y-98373882D01*
X132990980Y-97801803D01*
X131846823Y-97801803D01*
X131846823Y-99518039D01*
X131274745Y-99518039D01*
X131274745Y-98373882D01*
X129558550Y-98373882D01*
X129558550Y-96657687D01*
X131274745Y-96657687D01*
X131274745Y-97229724D01*
X131846823Y-97229724D01*
X131846823Y-96657687D01*
X132418901Y-96657687D01*
X132418901Y-97229724D01*
X132990980Y-97229724D01*
X132990980Y-96657687D01*
X132418901Y-96657687D01*
X131846823Y-96657687D01*
X131274745Y-96657687D01*
X131274745Y-96085608D01*
X132418901Y-96085608D01*
X132418901Y-95513529D01*
X132990980Y-95513529D01*
X132990980Y-94941450D01*
X134135138Y-94941450D01*
X134135138Y-94369371D01*
X134707175Y-94369371D01*
X134707175Y-96657687D01*
X135279254Y-96657687D01*
X135279254Y-96085608D01*
X136423412Y-96085608D01*
X136423412Y-95513529D01*
X139855843Y-95513529D01*
X139855843Y-94941450D01*
X139283764Y-94941450D01*
X139283764Y-93225255D01*
X139855843Y-93225255D01*
X140427922Y-93225255D01*
X140427922Y-95513529D01*
X141000000Y-95513529D01*
X141000000Y-93225255D01*
X140427922Y-93225255D01*
X140427922Y-92653177D01*
X139855843Y-92653177D01*
X139855843Y-93225255D01*
X139283764Y-93225255D01*
X138711685Y-93225255D01*
X138711685Y-94941450D01*
X136423412Y-94941450D01*
X136423412Y-93797294D01*
X136995490Y-93797294D01*
X136995490Y-94369371D01*
X137567569Y-94369371D01*
X137567569Y-93797294D01*
X136995490Y-93797294D01*
X136995490Y-93225255D01*
X138139606Y-93225255D01*
X138139606Y-92653177D01*
X138711685Y-92653177D01*
X138711685Y-92081099D01*
X141000000Y-92081099D01*
X141000000Y-91509020D01*
X140427922Y-91509020D01*
X140427922Y-90936941D01*
X139855843Y-90936941D01*
X139855843Y-91509020D01*
X138711685Y-91509020D01*
X138711685Y-90936941D01*
X139283764Y-90936941D01*
X139855843Y-90936941D01*
X139855843Y-90364862D01*
X139283764Y-90364862D01*
X139283764Y-90936941D01*
X138711685Y-90936941D01*
X137567569Y-90936941D01*
X137567569Y-90364862D01*
X135279254Y-90364862D01*
X135279254Y-89792825D01*
X134707175Y-89792825D01*
X134707175Y-90364862D01*
X134135138Y-90364862D01*
X134135138Y-89220746D01*
X135279254Y-89220746D01*
X135279254Y-89792825D01*
X135851333Y-89792825D01*
X135851333Y-89220746D01*
X136423412Y-89220746D01*
X136423412Y-88648667D01*
X135279254Y-88648667D01*
X135279254Y-88076588D01*
X134135138Y-88076588D01*
X134135138Y-89220746D01*
X133563059Y-89220746D01*
X133563059Y-88648667D01*
X131846823Y-88648667D01*
X131846823Y-89220746D01*
X130130629Y-89220746D01*
X130130629Y-88648667D01*
X128414392Y-88648667D01*
X128414392Y-88076588D01*
X128986471Y-88076588D01*
X130702706Y-88076588D01*
X130702706Y-88648667D01*
X131846823Y-88648667D01*
X131846823Y-88076588D01*
X132418901Y-88076588D01*
X132990980Y-88076588D01*
X132990980Y-86932431D01*
X132418901Y-86932431D01*
X132418901Y-88076588D01*
X131846823Y-88076588D01*
X131846823Y-86932431D01*
X131274745Y-86932431D01*
X131274745Y-86360394D01*
X132418901Y-86360394D01*
X132418901Y-85788315D01*
X132990980Y-85788315D01*
X132990980Y-85216236D01*
X133563059Y-85216236D01*
X133563059Y-84644157D01*
X134135138Y-84644157D01*
X134135138Y-85216236D01*
X134707175Y-85216236D01*
X134707175Y-85788315D01*
X133563059Y-85788315D01*
X133563059Y-86360394D01*
X134135138Y-86360394D01*
X134135138Y-86932431D01*
X133563059Y-86932431D01*
X133563059Y-87504510D01*
X134135138Y-87504510D01*
X134135138Y-86932431D01*
X134707175Y-86932431D01*
X134707175Y-87504510D01*
X135279254Y-87504510D01*
X135279254Y-88076588D01*
X136423412Y-88076588D01*
X136995490Y-88076588D01*
X136995490Y-88648667D01*
X137567569Y-88648667D01*
X137567569Y-89220746D01*
X136995490Y-89220746D01*
X136995490Y-89792825D01*
X138139606Y-89792825D01*
X138139606Y-90364862D01*
X138711685Y-90364862D01*
X138711685Y-89792825D01*
X140427922Y-89792825D01*
X140427922Y-90936941D01*
X141000000Y-90936941D01*
X141000000Y-89792825D01*
X140427922Y-89792825D01*
X140427922Y-89220746D01*
X141000000Y-89220746D01*
X141000000Y-88076588D01*
X140427922Y-88076588D01*
X140427922Y-89220746D01*
X139855843Y-89220746D01*
X139855843Y-88076588D01*
X136995490Y-88076588D01*
X136423412Y-88076588D01*
X136423412Y-84644157D01*
X135851333Y-84644157D01*
X135851333Y-83500000D01*
X136995490Y-83500000D01*
X136995490Y-87504510D01*
X141000000Y-87504510D01*
X141000000Y-83500000D01*
X136995490Y-83500000D01*
X135851333Y-83500000D01*
X134135138Y-83500000D01*
X134135138Y-84072078D01*
X133563059Y-84072078D01*
X133563059Y-83500000D01*
X131846823Y-83500000D01*
X131846823Y-84072078D01*
X130702706Y-84072078D01*
X130702706Y-83500000D01*
X129558550Y-83500000D01*
X129558550Y-84072078D01*
X128986471Y-84072078D01*
X128986471Y-86360394D01*
X129558550Y-86360394D01*
X129558550Y-86932431D01*
X128986471Y-86932431D01*
X128986471Y-87504510D01*
X128986471Y-88076588D01*
X128414392Y-88076588D01*
X125554039Y-88076588D01*
X125554039Y-88648667D01*
X124981961Y-88648667D01*
X124981961Y-89220746D01*
X125554039Y-89220746D01*
X125554039Y-89792825D01*
X126126118Y-89792825D01*
X126126118Y-90364862D01*
X127270276Y-90364862D01*
X127270276Y-90936941D01*
X126126118Y-90936941D01*
X126126118Y-91509020D01*
X125554039Y-91509020D01*
X125554039Y-90936941D01*
X124981961Y-90936941D01*
X124981961Y-91509020D01*
X124409882Y-91509020D01*
X122121609Y-91509020D01*
X122121609Y-89792825D01*
X124409882Y-89792825D01*
X124409882Y-90364862D01*
X124981961Y-90364862D01*
X124981961Y-89792825D01*
X124409882Y-89792825D01*
X122121609Y-89792825D01*
X122121609Y-87504510D01*
X124409882Y-87504510D01*
X128414392Y-87504510D01*
X128414392Y-83500000D01*
X124409882Y-83500000D01*
X124409882Y-87504510D01*
X122121609Y-87504510D01*
X122121609Y-81211726D01*
X143288274Y-81211726D01*
X143288274Y-87504510D01*
X143288274Y-89220746D01*
G37*
G36*
X130702706Y-85788315D02*
G01*
X131274745Y-85788315D01*
X131274745Y-86360394D01*
X130130629Y-86360394D01*
X130130629Y-85788315D01*
X129558550Y-85788315D01*
X129558550Y-85216236D01*
X130702706Y-85216236D01*
X130702706Y-85788315D01*
G37*
G36*
X140427922Y-99518039D02*
G01*
X137567569Y-99518039D01*
X137567569Y-97229724D01*
X138139606Y-97229724D01*
X138139606Y-98945961D01*
X139855843Y-98945961D01*
X139855843Y-97229724D01*
X138139606Y-97229724D01*
X137567569Y-97229724D01*
X137567569Y-96657687D01*
X140427922Y-96657687D01*
X140427922Y-98945961D01*
X140427922Y-99518039D01*
G37*
D11*
X118000000Y-81000000D02*
X120000000Y-81000000D01*
X120000000Y-88500000D01*
X118000000Y-88500000D01*
X118000000Y-81000000D01*
G36*
X118000000Y-81000000D02*
G01*
X120000000Y-81000000D01*
X120000000Y-88500000D01*
X118000000Y-88500000D01*
X118000000Y-81000000D01*
G37*
X120000000Y-88500000D02*
X87000000Y-88500000D01*
D10*
G36*
X132990980Y-85216236D02*
G01*
X132418901Y-85216236D01*
X132418901Y-84644157D01*
X132990980Y-84644157D01*
X132990980Y-85216236D01*
G37*
D11*
X105500000Y-94500000D02*
X106000000Y-94500000D01*
X106000000Y-96000000D01*
X105500000Y-96000000D01*
X105500000Y-94500000D01*
D10*
G36*
X135279254Y-92081099D02*
G01*
X135851333Y-92081099D01*
X135851333Y-92653177D01*
X135279254Y-92653177D01*
X135279254Y-93225255D01*
X134135138Y-93225255D01*
X134135138Y-92653177D01*
X133563059Y-92653177D01*
X133563059Y-93225255D01*
X131846823Y-93225255D01*
X131846823Y-92653177D01*
X132418901Y-92653177D01*
X132990980Y-92653177D01*
X132990980Y-92081099D01*
X132418901Y-92081099D01*
X132418901Y-92653177D01*
X131846823Y-92653177D01*
X131846823Y-92081099D01*
X131274745Y-92081099D01*
X131274745Y-91509020D01*
X132418901Y-91509020D01*
X132418901Y-90936941D01*
X132990980Y-90936941D01*
X133563059Y-90936941D01*
X133563059Y-92081099D01*
X134135138Y-92081099D01*
X134135138Y-92653177D01*
X134707175Y-92653177D01*
X134707175Y-91509020D01*
X134135138Y-91509020D01*
X134135138Y-90936941D01*
X133563059Y-90936941D01*
X132990980Y-90936941D01*
X132990980Y-90364862D01*
X134135138Y-90364862D01*
X134135138Y-90936941D01*
X134707175Y-90936941D01*
X134707175Y-90364862D01*
X135279254Y-90364862D01*
X135279254Y-91509020D01*
X135279254Y-92081099D01*
G37*
G36*
X127270276Y-94369371D02*
G01*
X126698197Y-94369371D01*
X126698197Y-93797294D01*
X127270276Y-93797294D01*
X127270276Y-94369371D01*
G37*
D11*
X106000000Y-94000000D02*
X117500000Y-94000000D01*
X117500000Y-96500000D01*
X106000000Y-96500000D01*
X106000000Y-94000000D01*
D10*
G36*
X135279254Y-94369371D02*
G01*
X134707175Y-94369371D01*
X134707175Y-93797294D01*
X135279254Y-93797294D01*
X135279254Y-94369371D01*
G37*
D11*
X87000000Y-81000000D02*
X94200000Y-81000000D01*
X94200000Y-88500000D01*
X87000000Y-88500000D01*
X87000000Y-81000000D01*
G36*
X87000000Y-81000000D02*
G01*
X94200000Y-81000000D01*
X94200000Y-88500000D01*
X87000000Y-88500000D01*
X87000000Y-81000000D01*
G37*
D10*
G36*
X138711685Y-92081099D02*
G01*
X138139606Y-92081099D01*
X138139606Y-91509020D01*
X138711685Y-91509020D01*
X138711685Y-92081099D01*
G37*
D12*
G36*
X114464009Y-37939002D02*
G01*
X113874528Y-37939002D01*
X113874528Y-38830000D01*
X114906210Y-38830000D01*
X114906210Y-37329371D01*
X113874528Y-37329371D01*
X113874528Y-37605976D01*
X114609089Y-37605976D01*
X114609089Y-38553394D01*
X114171650Y-38553394D01*
X114171650Y-38215607D01*
X114464009Y-38215607D01*
X114464009Y-37939002D01*
G37*
G36*
X113394225Y-38830000D02*
G01*
X113691346Y-38830000D01*
X113691346Y-37329371D01*
X113394225Y-37329371D01*
X113394225Y-38830000D01*
G37*
G36*
X112820498Y-37605976D02*
G01*
X113203349Y-37605976D01*
X113203349Y-37329371D01*
X112171667Y-37329371D01*
X112171667Y-37605976D01*
X112523377Y-37605976D01*
X112523377Y-38830000D01*
X112820498Y-38830000D01*
X112820498Y-37605976D01*
G37*
G36*
X111468248Y-38830000D02*
G01*
X111171127Y-38830000D01*
X111171127Y-38215607D01*
X111090160Y-38215607D01*
X110728558Y-38830000D01*
X110428140Y-38830000D01*
X110781681Y-38215607D01*
X110436566Y-38215607D01*
X110436566Y-37939002D01*
X110733688Y-37939002D01*
X111171127Y-37939002D01*
X111171127Y-37605976D01*
X110733688Y-37605976D01*
X110733688Y-37939002D01*
X110436566Y-37939002D01*
X110436566Y-37329371D01*
X111468248Y-37329371D01*
X111468248Y-38830000D01*
G37*
G36*
X109956263Y-37605976D02*
G01*
X109956263Y-37939002D01*
X109221702Y-37939002D01*
X109221702Y-38215607D01*
X109956263Y-38215607D01*
X109956263Y-38553394D01*
X109221702Y-38553394D01*
X109221702Y-38830000D01*
X110253384Y-38830000D01*
X110253384Y-37329371D01*
X109221702Y-37329371D01*
X109221702Y-37605976D01*
X109956263Y-37605976D01*
G37*
G36*
X108281978Y-37329371D02*
G01*
X107992184Y-37329371D01*
X108318614Y-38830000D01*
X108681681Y-38830000D01*
X109032658Y-37329371D01*
X108725645Y-37329371D01*
X108513154Y-38419305D01*
X108281978Y-37329371D01*
G37*
G36*
X107526535Y-37849975D02*
G01*
X107526535Y-38126580D01*
X107823656Y-38126580D01*
X107823656Y-37849975D01*
X107526535Y-37849975D01*
G37*
G36*
X107526535Y-38553394D02*
G01*
X107526535Y-38830000D01*
X107823656Y-38830000D01*
X107823656Y-38553394D01*
X107526535Y-38553394D01*
G37*
G36*
X114906210Y-41350000D02*
G01*
X113874528Y-41350000D01*
X113874528Y-41073394D01*
X114171650Y-41073394D01*
X114609089Y-41073394D01*
X114609089Y-40735607D01*
X114171650Y-40735607D01*
X114171650Y-41073394D01*
X113874528Y-41073394D01*
X113874528Y-40459002D01*
X114609089Y-40459002D01*
X114609089Y-40125976D01*
X113874528Y-40125976D01*
X113874528Y-39849371D01*
X114906210Y-39849371D01*
X114906210Y-41350000D01*
G37*
G36*
X113691346Y-40125976D02*
G01*
X113691346Y-39849371D01*
X112643911Y-39849371D01*
X112643911Y-41350000D01*
X113691346Y-41350000D01*
X113691346Y-41073394D01*
X112941032Y-41073394D01*
X112941032Y-40735607D01*
X113691346Y-40735607D01*
X113691346Y-40459002D01*
X112941032Y-40459002D01*
X112941032Y-40125976D01*
X113691346Y-40125976D01*
G37*
G36*
X112476482Y-41350000D02*
G01*
X111559839Y-41350000D01*
X111444801Y-41212979D01*
X111444801Y-41073394D01*
X111741922Y-41073394D01*
X112179361Y-41073394D01*
X112179361Y-40125976D01*
X111741922Y-40125976D01*
X111741922Y-41073394D01*
X111444801Y-41073394D01*
X111444801Y-39986392D01*
X111560938Y-39849371D01*
X112476482Y-39849371D01*
X112476482Y-41350000D01*
G37*
G36*
X111261618Y-41350000D02*
G01*
X110229937Y-41350000D01*
X110229937Y-41073394D01*
X110527058Y-41073394D01*
X110964497Y-41073394D01*
X110964497Y-40125976D01*
X110527058Y-40125976D01*
X110527058Y-41073394D01*
X110229937Y-41073394D01*
X110229937Y-39849371D01*
X111261618Y-39849371D01*
X111261618Y-41350000D01*
G37*
G36*
X109749633Y-41073394D02*
G01*
X109015073Y-41073394D01*
X109015073Y-41350000D01*
X110046755Y-41350000D01*
X110046755Y-39849371D01*
X109015073Y-39849371D01*
X109015073Y-40125976D01*
X109749633Y-40125976D01*
X109749633Y-41073394D01*
G37*
G36*
X108534769Y-41073394D02*
G01*
X107800209Y-41073394D01*
X107800209Y-41350000D01*
X108831891Y-41350000D01*
X108831891Y-39849371D01*
X107800209Y-39849371D01*
X107800209Y-40125976D01*
X108534769Y-40125976D01*
X108534769Y-41073394D01*
G37*
G36*
X107617027Y-40735607D02*
G01*
X107617027Y-39849371D01*
X106585345Y-39849371D01*
X106585345Y-40125976D01*
X107319905Y-40125976D01*
X107319905Y-40459002D01*
X106585345Y-40459002D01*
X106585345Y-41350000D01*
X107617027Y-41350000D01*
X107617027Y-41073394D01*
X106882466Y-41073394D01*
X106882466Y-40735607D01*
X107617027Y-40735607D01*
G37*
G36*
X105651849Y-40125976D02*
G01*
X106402163Y-40125976D01*
X106402163Y-39849371D01*
X105354727Y-39849371D01*
X105354727Y-41350000D01*
X105651849Y-41350000D01*
X105651849Y-40125976D01*
G37*
G36*
X105187299Y-41350000D02*
G01*
X104155617Y-41350000D01*
X104155617Y-41073394D01*
X104452739Y-41073394D01*
X104890177Y-41073394D01*
X104890177Y-40735607D01*
X104452739Y-40735607D01*
X104452739Y-41073394D01*
X104155617Y-41073394D01*
X104155617Y-40459002D01*
X104890177Y-40459002D01*
X104890177Y-40125976D01*
X104155617Y-40125976D01*
X104155617Y-39849371D01*
X105187299Y-39849371D01*
X105187299Y-41350000D01*
G37*
G36*
X103675314Y-41350000D02*
G01*
X103972435Y-41350000D01*
X103972435Y-39849371D01*
X102940753Y-39849371D01*
X102940753Y-40125976D01*
X103675314Y-40125976D01*
X103675314Y-40459002D01*
X102940753Y-40459002D01*
X102940753Y-40735607D01*
X103675314Y-40735607D01*
X103675314Y-41350000D01*
G37*
G36*
X114149668Y-42369371D02*
G01*
X113859874Y-42369371D01*
X114186304Y-43870000D01*
X114549371Y-43870000D01*
X114900348Y-42369371D01*
X114593335Y-42369371D01*
X114380844Y-43459305D01*
X114149668Y-42369371D01*
G37*
G36*
X112659665Y-43593394D02*
G01*
X112659665Y-43870000D01*
X113691346Y-43870000D01*
X113691346Y-42979002D01*
X112956786Y-42979002D01*
X112956786Y-42645976D01*
X113691346Y-42645976D01*
X113691346Y-42369371D01*
X112659665Y-42369371D01*
X112659665Y-43255607D01*
X113394225Y-43255607D01*
X113394225Y-43593394D01*
X112659665Y-43593394D01*
G37*
G36*
X112179361Y-43593394D02*
G01*
X112179361Y-43870000D01*
X112476482Y-43870000D01*
X112476482Y-43593394D01*
X112179361Y-43593394D01*
G37*
G36*
X111691364Y-43870000D02*
G01*
X111988485Y-43870000D01*
X111988485Y-42369371D01*
X111691364Y-42369371D01*
X111691364Y-43870000D01*
G37*
G36*
X111203367Y-43593394D02*
G01*
X110468806Y-43593394D01*
X110468806Y-43870000D01*
X111500488Y-43870000D01*
X111500488Y-42369371D01*
X110468806Y-42369371D01*
X110468806Y-42645976D01*
X111203367Y-42645976D01*
X111203367Y-43593394D01*
G37*
G36*
X110285624Y-43870000D02*
G01*
X109988503Y-43870000D01*
X109988503Y-43255607D01*
X109907536Y-43255607D01*
X109545935Y-43870000D01*
X109245516Y-43870000D01*
X109599057Y-43255607D01*
X109253942Y-43255607D01*
X109253942Y-42979002D01*
X109551064Y-42979002D01*
X109988503Y-42979002D01*
X109988503Y-42645976D01*
X109551064Y-42645976D01*
X109551064Y-42979002D01*
X109253942Y-42979002D01*
X109253942Y-42369371D01*
X110285624Y-42369371D01*
X110285624Y-43870000D01*
G37*
D11*
G36*
X102483390Y-92660000D02*
G01*
X102118491Y-92660000D01*
X102118491Y-91840809D01*
X101139078Y-91840809D01*
X101139078Y-91027969D01*
X101503976Y-91027969D01*
X101503976Y-91503265D01*
X102118491Y-91503265D01*
X102118491Y-91027969D01*
X101503976Y-91027969D01*
X101139078Y-91027969D01*
X101139078Y-90690425D01*
X102483390Y-90690425D01*
X102483390Y-92660000D01*
G37*
G36*
X100863572Y-92660000D02*
G01*
X99519259Y-92660000D01*
X99519259Y-91027969D01*
X99884158Y-91027969D01*
X99884158Y-92322456D01*
X100498673Y-92322456D01*
X100498673Y-91027969D01*
X99884158Y-91027969D01*
X99519259Y-91027969D01*
X99519259Y-90690425D01*
X100863572Y-90690425D01*
X100863572Y-92660000D01*
G37*
G36*
X98275086Y-91760209D02*
G01*
X98434821Y-92660000D01*
X98882274Y-92660000D01*
X99232029Y-90690425D01*
X98846614Y-90690425D01*
X98660501Y-92006894D01*
X98462176Y-90690425D01*
X98088973Y-90690425D01*
X97890648Y-92006894D01*
X97705023Y-90690425D01*
X97319608Y-90690425D01*
X97669364Y-92660000D01*
X98116328Y-92660000D01*
X98275086Y-91760209D01*
G37*
G36*
X96694346Y-91027969D02*
G01*
X96694346Y-91503265D01*
X95714932Y-91503265D01*
X95714932Y-91840809D01*
X96694346Y-91840809D01*
X96694346Y-92322456D01*
X95714932Y-92322456D01*
X95714932Y-92660000D01*
X97059245Y-92660000D01*
X97059245Y-90690425D01*
X95714932Y-90690425D01*
X95714932Y-91027969D01*
X96694346Y-91027969D01*
G37*
G36*
X95439426Y-92660000D02*
G01*
X95074528Y-92660000D01*
X95074528Y-91840809D01*
X94942148Y-91840809D01*
X94460013Y-92660000D01*
X94095114Y-92660000D01*
X94566503Y-91840809D01*
X94095114Y-91840809D01*
X94095114Y-91027969D01*
X94460013Y-91027969D01*
X94460013Y-91503265D01*
X95074528Y-91503265D01*
X95074528Y-91027969D01*
X94460013Y-91027969D01*
X94095114Y-91027969D01*
X94095114Y-90690425D01*
X95439426Y-90690425D01*
X95439426Y-92660000D01*
G37*
G36*
X93125958Y-92660000D02*
G01*
X91781646Y-92660000D01*
X91781646Y-91027969D01*
X92146544Y-91027969D01*
X92146544Y-92322456D01*
X92761059Y-92322456D01*
X92761059Y-91027969D01*
X92146544Y-91027969D01*
X91781646Y-91027969D01*
X91781646Y-90690425D01*
X93125958Y-90690425D01*
X93125958Y-92660000D01*
G37*
G36*
X91141241Y-92660000D02*
G01*
X91506140Y-92660000D01*
X91506140Y-90690425D01*
X90161827Y-90690425D01*
X90161827Y-91027969D01*
X91141241Y-91027969D01*
X91141241Y-91503265D01*
X90161827Y-91503265D01*
X90161827Y-91840809D01*
X91141241Y-91840809D01*
X91141241Y-92660000D01*
G37*
G36*
X89521422Y-92660000D02*
G01*
X89886321Y-92660000D01*
X89886321Y-90690425D01*
X88542008Y-90690425D01*
X88542008Y-91027969D01*
X89521422Y-91027969D01*
X89521422Y-91503265D01*
X88542008Y-91503265D01*
X88542008Y-91840809D01*
X89521422Y-91840809D01*
X89521422Y-92660000D01*
G37*
G36*
X143129936Y-105509616D02*
G01*
X142410885Y-105509616D01*
X142410885Y-105847159D01*
X143129936Y-105847159D01*
X143129936Y-105509616D01*
G37*
G36*
X137983251Y-106660000D02*
G01*
X137618352Y-106660000D01*
X137618352Y-105840809D01*
X136638938Y-105840809D01*
X136638938Y-105027969D01*
X137003837Y-105027969D01*
X137003837Y-105503265D01*
X137618352Y-105503265D01*
X137618352Y-105027969D01*
X137003837Y-105027969D01*
X136638938Y-105027969D01*
X136638938Y-104690425D01*
X137983251Y-104690425D01*
X137983251Y-106660000D01*
G37*
G36*
X135384019Y-104690425D02*
G01*
X135019120Y-104690425D01*
X135019120Y-106660000D01*
X136363432Y-106660000D01*
X136363432Y-104690425D01*
X135998534Y-104690425D01*
X135998534Y-106322456D01*
X135384019Y-106322456D01*
X135384019Y-104690425D01*
G37*
G36*
X134233146Y-105027969D02*
G01*
X134743614Y-105027969D01*
X134743614Y-104690425D01*
X133399301Y-104690425D01*
X133399301Y-105027969D01*
X133868247Y-105027969D01*
X133868247Y-106660000D01*
X134233146Y-106660000D01*
X134233146Y-105027969D01*
G37*
G36*
X131565037Y-105675212D02*
G01*
X131565037Y-106660000D01*
X131929936Y-106660000D01*
X131929936Y-105675212D01*
X132405721Y-104690425D01*
X132028610Y-104690425D01*
X131730146Y-105315687D01*
X131423865Y-104690425D01*
X131069713Y-104690425D01*
X131565037Y-105675212D01*
G37*
G36*
X130810327Y-106660000D02*
G01*
X129466014Y-106660000D01*
X129466014Y-105027969D01*
X129830913Y-105027969D01*
X129830913Y-106322456D01*
X130445428Y-106322456D01*
X130445428Y-105027969D01*
X129830913Y-105027969D01*
X129466014Y-105027969D01*
X129466014Y-104690425D01*
X130810327Y-104690425D01*
X130810327Y-106660000D01*
G37*
G36*
X128211095Y-104690425D02*
G01*
X127846196Y-104690425D01*
X127846196Y-106660000D01*
X129190508Y-106660000D01*
X129190508Y-104690425D01*
X128825610Y-104690425D01*
X128825610Y-106322456D01*
X128211095Y-106322456D01*
X128211095Y-104690425D01*
G37*
G36*
X127570690Y-106660000D02*
G01*
X127205791Y-106660000D01*
X127205791Y-105840809D01*
X127073411Y-105840809D01*
X126591276Y-106660000D01*
X126226377Y-106660000D01*
X126697766Y-105840809D01*
X126226377Y-105840809D01*
X126226377Y-105027969D01*
X126591276Y-105027969D01*
X126591276Y-105503265D01*
X127205791Y-105503265D01*
X127205791Y-105027969D01*
X126591276Y-105027969D01*
X126226377Y-105027969D01*
X126226377Y-104690425D01*
X127570690Y-104690425D01*
X127570690Y-106660000D01*
G37*
G36*
X125257222Y-106660000D02*
G01*
X123912909Y-106660000D01*
X123912909Y-105933133D01*
X123974872Y-105840809D01*
X124277808Y-105840809D01*
X124277808Y-106322456D01*
X124892323Y-106322456D01*
X124892323Y-105840809D01*
X124277808Y-105840809D01*
X123974872Y-105840809D01*
X124083390Y-105679120D01*
X123912909Y-105427062D01*
X123912909Y-105027969D01*
X124277808Y-105027969D01*
X124277808Y-105503265D01*
X124892323Y-105503265D01*
X124892323Y-105027969D01*
X124277808Y-105027969D01*
X123912909Y-105027969D01*
X123912909Y-104690425D01*
X125257222Y-104690425D01*
X125257222Y-106660000D01*
G37*
G36*
X123637403Y-106660000D02*
G01*
X123272504Y-106660000D01*
X123272504Y-105840809D01*
X122657989Y-105840809D01*
X122657989Y-106660000D01*
X122293090Y-106660000D01*
X122293090Y-105027969D01*
X122657989Y-105027969D01*
X122657989Y-105503265D01*
X123272504Y-105503265D01*
X123272504Y-105027969D01*
X122657989Y-105027969D01*
X122293090Y-105027969D01*
X122293090Y-104690425D01*
X123637403Y-104690425D01*
X123637403Y-106660000D01*
G37*
G36*
X121507117Y-105027969D02*
G01*
X122017584Y-105027969D01*
X122017584Y-104690425D01*
X120673272Y-104690425D01*
X120673272Y-105027969D01*
X121142218Y-105027969D01*
X121142218Y-106660000D01*
X121507117Y-106660000D01*
X121507117Y-105027969D01*
G37*
G36*
X119887298Y-105027969D02*
G01*
X120397766Y-105027969D01*
X120397766Y-104690425D01*
X119053453Y-104690425D01*
X119053453Y-105027969D01*
X119522400Y-105027969D01*
X119522400Y-106660000D01*
X119887298Y-106660000D01*
X119887298Y-105027969D01*
G37*
G36*
X118413049Y-105027969D02*
G01*
X118413049Y-105503265D01*
X117433635Y-105503265D01*
X117433635Y-105840809D01*
X118413049Y-105840809D01*
X118413049Y-106322456D01*
X117433635Y-106322456D01*
X117433635Y-106660000D01*
X118777947Y-106660000D01*
X118777947Y-104690425D01*
X117433635Y-104690425D01*
X117433635Y-105027969D01*
X118413049Y-105027969D01*
G37*
G36*
X117158129Y-106660000D02*
G01*
X116793230Y-106660000D01*
X116793230Y-105840809D01*
X116660850Y-105840809D01*
X116178715Y-106660000D01*
X115813816Y-106660000D01*
X116285205Y-105840809D01*
X115813816Y-105840809D01*
X115813816Y-105027969D01*
X116178715Y-105027969D01*
X116178715Y-105503265D01*
X116793230Y-105503265D01*
X116793230Y-105027969D01*
X116178715Y-105027969D01*
X115813816Y-105027969D01*
X115813816Y-104690425D01*
X117158129Y-104690425D01*
X117158129Y-106660000D01*
G37*
G36*
X114673202Y-105675212D02*
G01*
X114673202Y-106660000D01*
X115038101Y-106660000D01*
X115038101Y-105675212D01*
X115513886Y-104690425D01*
X115136775Y-104690425D01*
X114838310Y-105315687D01*
X114532030Y-104690425D01*
X114177878Y-104690425D01*
X114673202Y-105675212D01*
G37*
G36*
X112859943Y-106660000D02*
G01*
X113224842Y-106660000D01*
X113224842Y-104690425D01*
X112859943Y-104690425D01*
X112859943Y-106660000D01*
G37*
G36*
X112209280Y-106660000D02*
G01*
X112574179Y-106660000D01*
X112574179Y-104690425D01*
X112209280Y-104690425D01*
X111594765Y-105794403D01*
X111594765Y-104690425D01*
X111229866Y-104690425D01*
X111229866Y-106660000D01*
X111594765Y-106660000D01*
X112209280Y-105522805D01*
X112209280Y-106660000D01*
G37*
G36*
X109750243Y-105027969D02*
G01*
X110260711Y-105027969D01*
X110260711Y-104690425D01*
X108916398Y-104690425D01*
X108916398Y-105027969D01*
X109385344Y-105027969D01*
X109385344Y-106660000D01*
X109750243Y-106660000D01*
X109750243Y-105027969D01*
G37*
G36*
X108275993Y-106660000D02*
G01*
X108640892Y-106660000D01*
X108640892Y-104690425D01*
X108275993Y-104690425D01*
X108275993Y-105503265D01*
X107661478Y-105503265D01*
X107661478Y-104690425D01*
X107296580Y-104690425D01*
X107296580Y-106660000D01*
X107661478Y-106660000D01*
X107661478Y-105840809D01*
X108275993Y-105840809D01*
X108275993Y-106660000D01*
G37*
G36*
X106656175Y-106660000D02*
G01*
X107021074Y-106660000D01*
X107021074Y-104690425D01*
X106656175Y-104690425D01*
X106656175Y-106660000D01*
G37*
G36*
X106370411Y-105840809D02*
G01*
X106370411Y-104690425D01*
X105026098Y-104690425D01*
X105026098Y-105027969D01*
X106005512Y-105027969D01*
X106005512Y-105503265D01*
X105026098Y-105503265D01*
X105026098Y-106660000D01*
X106370411Y-106660000D01*
X106370411Y-106322456D01*
X105390997Y-106322456D01*
X105390997Y-105840809D01*
X106370411Y-105840809D01*
G37*
G36*
X103546475Y-105027969D02*
G01*
X104056942Y-105027969D01*
X104056942Y-104690425D01*
X102712630Y-104690425D01*
X102712630Y-105027969D01*
X103181576Y-105027969D01*
X103181576Y-106660000D01*
X103546475Y-106660000D01*
X103546475Y-105027969D01*
G37*
G36*
X102437124Y-106660000D02*
G01*
X101092811Y-106660000D01*
X101092811Y-105027969D01*
X101457710Y-105027969D01*
X101457710Y-106322456D01*
X102072225Y-106322456D01*
X102072225Y-105027969D01*
X101457710Y-105027969D01*
X101092811Y-105027969D01*
X101092811Y-104690425D01*
X102437124Y-104690425D01*
X102437124Y-106660000D01*
G37*
G36*
X100817305Y-106660000D02*
G01*
X100452407Y-106660000D01*
X100452407Y-105840809D01*
X99472993Y-105840809D01*
X99472993Y-105027969D01*
X99837892Y-105027969D01*
X99837892Y-105503265D01*
X100452407Y-105503265D01*
X100452407Y-105027969D01*
X99837892Y-105027969D01*
X99472993Y-105027969D01*
X99472993Y-104690425D01*
X100817305Y-104690425D01*
X100817305Y-106660000D01*
G37*
G36*
X98503837Y-105840809D02*
G01*
X98503837Y-104690425D01*
X97159524Y-104690425D01*
X97159524Y-105027969D01*
X98138938Y-105027969D01*
X98138938Y-105503265D01*
X97159524Y-105503265D01*
X97159524Y-106660000D01*
X98503837Y-106660000D01*
X98503837Y-106322456D01*
X97524423Y-106322456D01*
X97524423Y-105840809D01*
X98503837Y-105840809D01*
G37*
G36*
X96519120Y-106322456D02*
G01*
X95539706Y-106322456D01*
X95539706Y-106660000D01*
X96884019Y-106660000D01*
X96884019Y-104690425D01*
X96519120Y-104690425D01*
X96519120Y-106322456D01*
G37*
G36*
X95264200Y-106660000D02*
G01*
X93919887Y-106660000D01*
X93919887Y-105027969D01*
X94284786Y-105027969D01*
X94284786Y-106322456D01*
X94899301Y-106322456D01*
X94899301Y-105027969D01*
X94284786Y-105027969D01*
X93919887Y-105027969D01*
X93919887Y-104690425D01*
X95264200Y-104690425D01*
X95264200Y-106660000D01*
G37*
G36*
X93133914Y-105027969D02*
G01*
X93644381Y-105027969D01*
X93644381Y-104690425D01*
X92300069Y-104690425D01*
X92300069Y-105027969D01*
X92769015Y-105027969D01*
X92769015Y-106660000D01*
X93133914Y-106660000D01*
X93133914Y-105027969D01*
G37*
G36*
X87206140Y-105847159D02*
G01*
X87206140Y-106191053D01*
X87518771Y-106191053D01*
X87518771Y-105847159D01*
X87862665Y-105847159D01*
X87862665Y-105509616D01*
X87518771Y-105509616D01*
X87518771Y-105221898D01*
X87206140Y-105221898D01*
X87206140Y-105509616D01*
X86893509Y-105509616D01*
X86893509Y-105847159D01*
X87206140Y-105847159D01*
G37*
G36*
X90642672Y-57251632D02*
G01*
X90265317Y-57251632D01*
X90265317Y-57830000D01*
X90937473Y-57830000D01*
X90937473Y-56845212D01*
X90265317Y-56845212D01*
X90265317Y-57013984D01*
X90755024Y-57013984D01*
X90755024Y-57661228D01*
X90447766Y-57661228D01*
X90447766Y-57420404D01*
X90642672Y-57420404D01*
X90642672Y-57251632D01*
G37*
G36*
X89945115Y-57013984D02*
G01*
X89945115Y-57251632D01*
X89455408Y-57251632D01*
X89455408Y-57420404D01*
X89945115Y-57420404D01*
X89945115Y-57661228D01*
X89455408Y-57661228D01*
X89455408Y-57830000D01*
X90127564Y-57830000D01*
X90127564Y-56845212D01*
X89455408Y-56845212D01*
X89455408Y-57013984D01*
X89945115Y-57013984D01*
G37*
G36*
X89135205Y-57830000D02*
G01*
X89317655Y-57830000D01*
X89317655Y-56845212D01*
X89135205Y-56845212D01*
X88827948Y-57397201D01*
X88827948Y-56845212D01*
X88645498Y-56845212D01*
X88645498Y-57830000D01*
X88827948Y-57830000D01*
X89135205Y-57261402D01*
X89135205Y-57830000D01*
G37*
G36*
X88325296Y-57013984D02*
G01*
X88325296Y-57251632D01*
X87835589Y-57251632D01*
X87835589Y-57420404D01*
X88325296Y-57420404D01*
X88325296Y-57661228D01*
X87835589Y-57661228D01*
X87835589Y-57830000D01*
X88507745Y-57830000D01*
X88507745Y-56845212D01*
X87835589Y-56845212D01*
X87835589Y-57013984D01*
X88325296Y-57013984D01*
G37*
G36*
X87697836Y-57830000D02*
G01*
X87515387Y-57830000D01*
X87515387Y-57420404D01*
X87449197Y-57420404D01*
X87208129Y-57830000D01*
X87025680Y-57830000D01*
X87261374Y-57420404D01*
X87025680Y-57420404D01*
X87025680Y-57013984D01*
X87208129Y-57013984D01*
X87208129Y-57251632D01*
X87515387Y-57251632D01*
X87515387Y-57013984D01*
X87208129Y-57013984D01*
X87025680Y-57013984D01*
X87025680Y-56845212D01*
X87697836Y-56845212D01*
X87697836Y-57830000D01*
G37*
G36*
X86887927Y-57830000D02*
G01*
X86705478Y-57830000D01*
X86705478Y-57420404D01*
X86398220Y-57420404D01*
X86398220Y-57830000D01*
X86215771Y-57830000D01*
X86215771Y-57013984D01*
X86398220Y-57013984D01*
X86398220Y-57251632D01*
X86705478Y-57251632D01*
X86705478Y-57013984D01*
X86398220Y-57013984D01*
X86215771Y-57013984D01*
X86215771Y-56845212D01*
X86887927Y-56845212D01*
X86887927Y-57830000D01*
G37*
G36*
X85895568Y-57661228D02*
G01*
X85405861Y-57661228D01*
X85405861Y-57830000D01*
X86078018Y-57830000D01*
X86078018Y-56845212D01*
X85895568Y-56845212D01*
X85895568Y-57661228D01*
G37*
G36*
X77751632Y-48142464D02*
G01*
X77751632Y-48519819D01*
X78330000Y-48519819D01*
X78330000Y-47847663D01*
X77345212Y-47847663D01*
X77345212Y-48519819D01*
X77513984Y-48519819D01*
X77513984Y-48030112D01*
X78161228Y-48030112D01*
X78161228Y-48337370D01*
X77920404Y-48337370D01*
X77920404Y-48142464D01*
X77751632Y-48142464D01*
G37*
G36*
X78330000Y-48840021D02*
G01*
X78330000Y-48657572D01*
X77345212Y-48657572D01*
X77345212Y-48840021D01*
X77897201Y-49147279D01*
X77345212Y-49147279D01*
X77345212Y-49329728D01*
X78330000Y-49329728D01*
X78330000Y-49147279D01*
X77761402Y-48840021D01*
X78330000Y-48840021D01*
G37*
G36*
X78330000Y-50067097D02*
G01*
X78243538Y-50139638D01*
X77431674Y-50139638D01*
X77345212Y-50066365D01*
X77345212Y-49649931D01*
X77513984Y-49649931D01*
X77513984Y-49957188D01*
X78161228Y-49957188D01*
X78161228Y-49649931D01*
X77513984Y-49649931D01*
X77345212Y-49649931D01*
X77345212Y-49467481D01*
X78330000Y-49467481D01*
X78330000Y-50067097D01*
G37*
G36*
X77345212Y-56050559D02*
G01*
X77345212Y-56227635D01*
X78330000Y-56013434D01*
X78330000Y-55783846D01*
X77345212Y-55553524D01*
X77345212Y-55742080D01*
X78103098Y-55889847D01*
X77345212Y-56050559D01*
G37*
G36*
X78161228Y-56540021D02*
G01*
X78161228Y-57029728D01*
X78330000Y-57029728D01*
X78330000Y-56357572D01*
X77345212Y-56357572D01*
X77345212Y-57029728D01*
X77513984Y-57029728D01*
X77513984Y-56540021D01*
X78161228Y-56540021D01*
G37*
G36*
X78161228Y-57349931D02*
G01*
X78161228Y-57839638D01*
X78330000Y-57839638D01*
X78330000Y-57167481D01*
X77345212Y-57167481D01*
X77345212Y-57839638D01*
X77513984Y-57839638D01*
X77513984Y-57349931D01*
X78161228Y-57349931D01*
G37*
G36*
X77513984Y-50602896D02*
G01*
X77513984Y-50347663D01*
X77345212Y-50347663D01*
X77345212Y-51019819D01*
X77513984Y-51019819D01*
X77513984Y-50785346D01*
X78330000Y-50785346D01*
X78330000Y-50602896D01*
X77513984Y-50602896D01*
G37*
G36*
X78161228Y-51340021D02*
G01*
X78161228Y-51829728D01*
X78330000Y-51829728D01*
X78330000Y-51157572D01*
X77345212Y-51157572D01*
X77345212Y-51829728D01*
X77513984Y-51829728D01*
X77513984Y-51340021D01*
X78161228Y-51340021D01*
G37*
G36*
X78330000Y-52149931D02*
G01*
X78330000Y-51967481D01*
X77345212Y-51967481D01*
X77345212Y-52149931D01*
X77757250Y-52149931D01*
X77345212Y-52458409D01*
X77345212Y-52635485D01*
X77825150Y-52306490D01*
X78330000Y-52635485D01*
X78330000Y-52458409D01*
X77917962Y-52149931D01*
X78330000Y-52149931D01*
G37*
D12*
G36*
X139464009Y-140814002D02*
G01*
X138874528Y-140814002D01*
X138874528Y-141705000D01*
X139906210Y-141705000D01*
X139906210Y-140204371D01*
X138874528Y-140204371D01*
X138874528Y-140480976D01*
X139609089Y-140480976D01*
X139609089Y-141428394D01*
X139171650Y-141428394D01*
X139171650Y-141090607D01*
X139464009Y-141090607D01*
X139464009Y-140814002D01*
G37*
G36*
X138394225Y-141705000D02*
G01*
X138691346Y-141705000D01*
X138691346Y-140204371D01*
X138394225Y-140204371D01*
X138394225Y-141705000D01*
G37*
G36*
X137820498Y-140480976D02*
G01*
X138203349Y-140480976D01*
X138203349Y-140204371D01*
X137171667Y-140204371D01*
X137171667Y-140480976D01*
X137523377Y-140480976D01*
X137523377Y-141705000D01*
X137820498Y-141705000D01*
X137820498Y-140480976D01*
G37*
G36*
X136468248Y-141705000D02*
G01*
X136171127Y-141705000D01*
X136171127Y-141090607D01*
X136090160Y-141090607D01*
X135728558Y-141705000D01*
X135428140Y-141705000D01*
X135781681Y-141090607D01*
X135436566Y-141090607D01*
X135436566Y-140814002D01*
X135733688Y-140814002D01*
X136171127Y-140814002D01*
X136171127Y-140480976D01*
X135733688Y-140480976D01*
X135733688Y-140814002D01*
X135436566Y-140814002D01*
X135436566Y-140204371D01*
X136468248Y-140204371D01*
X136468248Y-141705000D01*
G37*
G36*
X134956263Y-140480976D02*
G01*
X134956263Y-140814002D01*
X134221702Y-140814002D01*
X134221702Y-141090607D01*
X134956263Y-141090607D01*
X134956263Y-141428394D01*
X134221702Y-141428394D01*
X134221702Y-141705000D01*
X135253384Y-141705000D01*
X135253384Y-140204371D01*
X134221702Y-140204371D01*
X134221702Y-140480976D01*
X134956263Y-140480976D01*
G37*
G36*
X133281978Y-140204371D02*
G01*
X132992184Y-140204371D01*
X133318614Y-141705000D01*
X133681681Y-141705000D01*
X134032658Y-140204371D01*
X133725645Y-140204371D01*
X133513154Y-141294305D01*
X133281978Y-140204371D01*
G37*
G36*
X132526535Y-140724975D02*
G01*
X132526535Y-141001580D01*
X132823656Y-141001580D01*
X132823656Y-140724975D01*
X132526535Y-140724975D01*
G37*
G36*
X132526535Y-141428394D02*
G01*
X132526535Y-141705000D01*
X132823656Y-141705000D01*
X132823656Y-141428394D01*
X132526535Y-141428394D01*
G37*
G36*
X139906210Y-144225000D02*
G01*
X138874528Y-144225000D01*
X138874528Y-143948394D01*
X139171650Y-143948394D01*
X139609089Y-143948394D01*
X139609089Y-143610607D01*
X139171650Y-143610607D01*
X139171650Y-143948394D01*
X138874528Y-143948394D01*
X138874528Y-143334002D01*
X139609089Y-143334002D01*
X139609089Y-143000976D01*
X138874528Y-143000976D01*
X138874528Y-142724371D01*
X139906210Y-142724371D01*
X139906210Y-144225000D01*
G37*
G36*
X138691346Y-143000976D02*
G01*
X138691346Y-142724371D01*
X137643911Y-142724371D01*
X137643911Y-144225000D01*
X138691346Y-144225000D01*
X138691346Y-143948394D01*
X137941032Y-143948394D01*
X137941032Y-143610607D01*
X138691346Y-143610607D01*
X138691346Y-143334002D01*
X137941032Y-143334002D01*
X137941032Y-143000976D01*
X138691346Y-143000976D01*
G37*
G36*
X137476482Y-144225000D02*
G01*
X136559839Y-144225000D01*
X136444801Y-144087979D01*
X136444801Y-143948394D01*
X136741922Y-143948394D01*
X137179361Y-143948394D01*
X137179361Y-143000976D01*
X136741922Y-143000976D01*
X136741922Y-143948394D01*
X136444801Y-143948394D01*
X136444801Y-142861392D01*
X136560938Y-142724371D01*
X137476482Y-142724371D01*
X137476482Y-144225000D01*
G37*
G36*
X136261618Y-144225000D02*
G01*
X135229937Y-144225000D01*
X135229937Y-143948394D01*
X135527058Y-143948394D01*
X135964497Y-143948394D01*
X135964497Y-143000976D01*
X135527058Y-143000976D01*
X135527058Y-143948394D01*
X135229937Y-143948394D01*
X135229937Y-142724371D01*
X136261618Y-142724371D01*
X136261618Y-144225000D01*
G37*
G36*
X134749633Y-143948394D02*
G01*
X134015073Y-143948394D01*
X134015073Y-144225000D01*
X135046755Y-144225000D01*
X135046755Y-142724371D01*
X134015073Y-142724371D01*
X134015073Y-143000976D01*
X134749633Y-143000976D01*
X134749633Y-143948394D01*
G37*
G36*
X133534769Y-143948394D02*
G01*
X132800209Y-143948394D01*
X132800209Y-144225000D01*
X133831891Y-144225000D01*
X133831891Y-142724371D01*
X132800209Y-142724371D01*
X132800209Y-143000976D01*
X133534769Y-143000976D01*
X133534769Y-143948394D01*
G37*
G36*
X132617027Y-143610607D02*
G01*
X132617027Y-142724371D01*
X131585345Y-142724371D01*
X131585345Y-143000976D01*
X132319905Y-143000976D01*
X132319905Y-143334002D01*
X131585345Y-143334002D01*
X131585345Y-144225000D01*
X132617027Y-144225000D01*
X132617027Y-143948394D01*
X131882466Y-143948394D01*
X131882466Y-143610607D01*
X132617027Y-143610607D01*
G37*
G36*
X130651849Y-143000976D02*
G01*
X131402163Y-143000976D01*
X131402163Y-142724371D01*
X130354727Y-142724371D01*
X130354727Y-144225000D01*
X130651849Y-144225000D01*
X130651849Y-143000976D01*
G37*
G36*
X130187299Y-144225000D02*
G01*
X129155617Y-144225000D01*
X129155617Y-143948394D01*
X129452739Y-143948394D01*
X129890177Y-143948394D01*
X129890177Y-143610607D01*
X129452739Y-143610607D01*
X129452739Y-143948394D01*
X129155617Y-143948394D01*
X129155617Y-143334002D01*
X129890177Y-143334002D01*
X129890177Y-143000976D01*
X129155617Y-143000976D01*
X129155617Y-142724371D01*
X130187299Y-142724371D01*
X130187299Y-144225000D01*
G37*
G36*
X128675314Y-144225000D02*
G01*
X128972435Y-144225000D01*
X128972435Y-142724371D01*
X127940753Y-142724371D01*
X127940753Y-143000976D01*
X128675314Y-143000976D01*
X128675314Y-143334002D01*
X127940753Y-143334002D01*
X127940753Y-143610607D01*
X128675314Y-143610607D01*
X128675314Y-144225000D01*
G37*
G36*
X139149668Y-145244371D02*
G01*
X138859874Y-145244371D01*
X139186304Y-146745000D01*
X139549371Y-146745000D01*
X139900348Y-145244371D01*
X139593335Y-145244371D01*
X139380844Y-146334305D01*
X139149668Y-145244371D01*
G37*
G36*
X137659665Y-146468394D02*
G01*
X137659665Y-146745000D01*
X138691346Y-146745000D01*
X138691346Y-145854002D01*
X137956786Y-145854002D01*
X137956786Y-145520976D01*
X138691346Y-145520976D01*
X138691346Y-145244371D01*
X137659665Y-145244371D01*
X137659665Y-146130607D01*
X138394225Y-146130607D01*
X138394225Y-146468394D01*
X137659665Y-146468394D01*
G37*
G36*
X137179361Y-146468394D02*
G01*
X137179361Y-146745000D01*
X137476482Y-146745000D01*
X137476482Y-146468394D01*
X137179361Y-146468394D01*
G37*
G36*
X136691364Y-146745000D02*
G01*
X136988485Y-146745000D01*
X136988485Y-145244371D01*
X136691364Y-145244371D01*
X136691364Y-146745000D01*
G37*
G36*
X136203367Y-146468394D02*
G01*
X135468806Y-146468394D01*
X135468806Y-146745000D01*
X136500488Y-146745000D01*
X136500488Y-145244371D01*
X135468806Y-145244371D01*
X135468806Y-145520976D01*
X136203367Y-145520976D01*
X136203367Y-146468394D01*
G37*
G36*
X135285624Y-146745000D02*
G01*
X134988503Y-146745000D01*
X134988503Y-146130607D01*
X134907536Y-146130607D01*
X134545935Y-146745000D01*
X134245516Y-146745000D01*
X134599057Y-146130607D01*
X134253942Y-146130607D01*
X134253942Y-145854002D01*
X134551064Y-145854002D01*
X134988503Y-145854002D01*
X134988503Y-145520976D01*
X134551064Y-145520976D01*
X134551064Y-145854002D01*
X134253942Y-145854002D01*
X134253942Y-145244371D01*
X135285624Y-145244371D01*
X135285624Y-146745000D01*
G37*
D11*
G36*
X117673481Y-92660000D02*
G01*
X117308582Y-92660000D01*
X117308582Y-91840809D01*
X116329169Y-91840809D01*
X116329169Y-91027969D01*
X116694067Y-91027969D01*
X116694067Y-91503265D01*
X117308582Y-91503265D01*
X117308582Y-91027969D01*
X116694067Y-91027969D01*
X116329169Y-91027969D01*
X116329169Y-90690425D01*
X117673481Y-90690425D01*
X117673481Y-92660000D01*
G37*
G36*
X116053663Y-92660000D02*
G01*
X114709350Y-92660000D01*
X114709350Y-91027969D01*
X115074249Y-91027969D01*
X115074249Y-92322456D01*
X115688764Y-92322456D01*
X115688764Y-91027969D01*
X115074249Y-91027969D01*
X114709350Y-91027969D01*
X114709350Y-90690425D01*
X116053663Y-90690425D01*
X116053663Y-92660000D01*
G37*
G36*
X113465177Y-91760209D02*
G01*
X113624912Y-92660000D01*
X114072365Y-92660000D01*
X114422120Y-90690425D01*
X114036705Y-90690425D01*
X113850592Y-92006894D01*
X113652267Y-90690425D01*
X113279064Y-90690425D01*
X113080739Y-92006894D01*
X112895114Y-90690425D01*
X112509699Y-90690425D01*
X112859455Y-92660000D01*
X113306419Y-92660000D01*
X113465177Y-91760209D01*
G37*
G36*
X111884437Y-91027969D02*
G01*
X111884437Y-91503265D01*
X110905023Y-91503265D01*
X110905023Y-91840809D01*
X111884437Y-91840809D01*
X111884437Y-92322456D01*
X110905023Y-92322456D01*
X110905023Y-92660000D01*
X112249336Y-92660000D01*
X112249336Y-90690425D01*
X110905023Y-90690425D01*
X110905023Y-91027969D01*
X111884437Y-91027969D01*
G37*
G36*
X110629517Y-92660000D02*
G01*
X110264619Y-92660000D01*
X110264619Y-91840809D01*
X110132239Y-91840809D01*
X109650104Y-92660000D01*
X109285205Y-92660000D01*
X109756594Y-91840809D01*
X109285205Y-91840809D01*
X109285205Y-91027969D01*
X109650104Y-91027969D01*
X109650104Y-91503265D01*
X110264619Y-91503265D01*
X110264619Y-91027969D01*
X109650104Y-91027969D01*
X109285205Y-91027969D01*
X109285205Y-90690425D01*
X110629517Y-90690425D01*
X110629517Y-92660000D01*
G37*
G36*
X108316049Y-92660000D02*
G01*
X106971737Y-92660000D01*
X106971737Y-91027969D01*
X107336635Y-91027969D01*
X107336635Y-92322456D01*
X107951150Y-92322456D01*
X107951150Y-91027969D01*
X107336635Y-91027969D01*
X106971737Y-91027969D01*
X106971737Y-90690425D01*
X108316049Y-90690425D01*
X108316049Y-92660000D01*
G37*
G36*
X106331332Y-92660000D02*
G01*
X106696231Y-92660000D01*
X106696231Y-90690425D01*
X106331332Y-90690425D01*
X105716817Y-91794403D01*
X105716817Y-90690425D01*
X105351918Y-90690425D01*
X105351918Y-92660000D01*
X105716817Y-92660000D01*
X106331332Y-91522805D01*
X106331332Y-92660000D01*
G37*
G36*
X77513984Y-53161863D02*
G01*
X77513984Y-52906630D01*
X77345212Y-52906630D01*
X77345212Y-53578786D01*
X77513984Y-53578786D01*
X77513984Y-53344313D01*
X78330000Y-53344313D01*
X78330000Y-53161863D01*
X77513984Y-53161863D01*
G37*
G36*
X78330000Y-53898988D02*
G01*
X78330000Y-53716539D01*
X77345212Y-53716539D01*
X77345212Y-53898988D01*
X77884989Y-54093161D01*
X77345212Y-54294906D01*
X77345212Y-54477355D01*
X78330000Y-54477355D01*
X78330000Y-54294906D01*
X77917962Y-54294906D01*
X78330000Y-54155443D01*
X78330000Y-54043092D01*
X77917962Y-53898988D01*
X78330000Y-53898988D01*
G37*
G36*
X77920404Y-54608514D02*
G01*
X77345212Y-54608514D01*
X77345212Y-55280670D01*
X77513984Y-55280670D01*
X77513984Y-54790963D01*
X77751632Y-54790963D01*
X77751632Y-55280670D01*
X78330000Y-55280670D01*
X78330000Y-54608514D01*
X78161228Y-54608514D01*
X78161228Y-55098221D01*
X77920404Y-55098221D01*
X77920404Y-54608514D01*
G37*
G36*
X109410956Y-86403265D02*
G01*
X108796441Y-86403265D01*
X108796441Y-85927969D01*
X109410956Y-85927969D01*
X109410956Y-86403265D01*
G37*
G36*
X115890230Y-86403265D02*
G01*
X115275715Y-86403265D01*
X115275715Y-85927969D01*
X115890230Y-85927969D01*
X115890230Y-86403265D01*
G37*
G36*
X117510048Y-87222456D02*
G01*
X116895533Y-87222456D01*
X116895533Y-86740809D01*
X117510048Y-86740809D01*
X117510048Y-87222456D01*
G37*
G36*
X117510048Y-86403265D02*
G01*
X116895533Y-86403265D01*
X116895533Y-85927969D01*
X117510048Y-85927969D01*
X117510048Y-86403265D01*
G37*
G36*
X104219330Y-83043265D02*
G01*
X103604815Y-83043265D01*
X103604815Y-82567969D01*
X104219330Y-82567969D01*
X104219330Y-83043265D01*
G37*
G36*
X106532798Y-83862456D02*
G01*
X105918283Y-83862456D01*
X105918283Y-82567969D01*
X106532798Y-82567969D01*
X106532798Y-83862456D01*
G37*
G36*
X112085903Y-83043265D02*
G01*
X111471388Y-83043265D01*
X111471388Y-82567969D01*
X112085903Y-82567969D01*
X112085903Y-83043265D01*
G37*
G36*
X118097169Y-87782222D02*
G01*
X94224951Y-87782222D01*
X94224951Y-87560000D01*
X106171318Y-87560000D01*
X106536217Y-87560000D01*
X106536217Y-87222456D01*
X106171318Y-87222456D01*
X106171318Y-87560000D01*
X94224951Y-87560000D01*
X94224951Y-86740809D01*
X105191905Y-86740809D01*
X106171318Y-86740809D01*
X106171318Y-87061256D01*
X106536217Y-87061256D01*
X106536217Y-86403265D01*
X105556803Y-86403265D01*
X105556803Y-85927969D01*
X106536217Y-85927969D01*
X106536217Y-85590425D01*
X106795603Y-85590425D01*
X107290928Y-86575212D01*
X107290928Y-87560000D01*
X107655826Y-87560000D01*
X107655826Y-86575212D01*
X107968532Y-85927969D01*
X108431542Y-85927969D01*
X108431542Y-86403265D01*
X108431542Y-86740809D01*
X108902930Y-86740809D01*
X108431542Y-87560000D01*
X108796441Y-87560000D01*
X109278576Y-86740809D01*
X109410956Y-86740809D01*
X109410956Y-87560000D01*
X109775854Y-87560000D01*
X109775854Y-85927969D01*
X110051360Y-85927969D01*
X111030774Y-85927969D01*
X111030774Y-86403265D01*
X110051360Y-86403265D01*
X110051360Y-86740809D01*
X111030774Y-86740809D01*
X111030774Y-87222456D01*
X110051360Y-87222456D01*
X110051360Y-87560000D01*
X111395673Y-87560000D01*
X111395673Y-85927969D01*
X111671179Y-85927969D01*
X112140125Y-85927969D01*
X112140125Y-87560000D01*
X112505024Y-87560000D01*
X112505024Y-85927969D01*
X113015491Y-85927969D01*
X113290997Y-85927969D01*
X113759944Y-85927969D01*
X113759944Y-87560000D01*
X114124842Y-87560000D01*
X114124842Y-85927969D01*
X114635310Y-85927969D01*
X114910816Y-85927969D01*
X114910816Y-86403265D01*
X114910816Y-87560000D01*
X115275715Y-87560000D01*
X115275715Y-86740809D01*
X115890230Y-86740809D01*
X115890230Y-87560000D01*
X116255129Y-87560000D01*
X116255129Y-85927969D01*
X116530635Y-85927969D01*
X116530635Y-86327062D01*
X116582175Y-86403265D01*
X116701116Y-86579120D01*
X116592598Y-86740809D01*
X116530635Y-86833133D01*
X116530635Y-87222456D01*
X116530635Y-87560000D01*
X117874947Y-87560000D01*
X117874947Y-85590425D01*
X116530635Y-85590425D01*
X116530635Y-85927969D01*
X116255129Y-85927969D01*
X116255129Y-85590425D01*
X114910816Y-85590425D01*
X114910816Y-85927969D01*
X114635310Y-85927969D01*
X114635310Y-85590425D01*
X113290997Y-85590425D01*
X113290997Y-85927969D01*
X113015491Y-85927969D01*
X113015491Y-85590425D01*
X111671179Y-85590425D01*
X111671179Y-85927969D01*
X111395673Y-85927969D01*
X111395673Y-85590425D01*
X110051360Y-85590425D01*
X110051360Y-85927969D01*
X109775854Y-85927969D01*
X109775854Y-85590425D01*
X108431542Y-85590425D01*
X108431542Y-85927969D01*
X107968532Y-85927969D01*
X108131612Y-85590425D01*
X107754501Y-85590425D01*
X107456036Y-86215687D01*
X107149755Y-85590425D01*
X106795603Y-85590425D01*
X106536217Y-85590425D01*
X105191905Y-85590425D01*
X105191905Y-86740809D01*
X94224951Y-86740809D01*
X94224951Y-82567969D01*
X94447173Y-82567969D01*
X95426587Y-82567969D01*
X95426587Y-83043265D01*
X94447173Y-83043265D01*
X94447173Y-83380809D01*
X95426587Y-83380809D01*
X95426587Y-83862456D01*
X94447173Y-83862456D01*
X94447173Y-84200000D01*
X95791486Y-84200000D01*
X96066992Y-84200000D01*
X96431891Y-84200000D01*
X96431891Y-83380809D01*
X97046406Y-83380809D01*
X97046406Y-84200000D01*
X97411304Y-84200000D01*
X97411304Y-82567969D01*
X97686810Y-82567969D01*
X98155757Y-82567969D01*
X98155757Y-84200000D01*
X98520655Y-84200000D01*
X98520655Y-82567969D01*
X99031123Y-82567969D01*
X100000279Y-82567969D01*
X100469225Y-82567969D01*
X100469225Y-84200000D01*
X100834124Y-84200000D01*
X101620097Y-84200000D01*
X102964410Y-84200000D01*
X102964410Y-82567969D01*
X103239916Y-82567969D01*
X103239916Y-83043265D01*
X103239916Y-83380809D01*
X104219330Y-83380809D01*
X104219330Y-84200000D01*
X104584228Y-84200000D01*
X104584228Y-82567969D01*
X105553384Y-82567969D01*
X105553384Y-83862456D01*
X105553384Y-84200000D01*
X106897697Y-84200000D01*
X106897697Y-82567969D01*
X107173203Y-82567969D01*
X107642149Y-82567969D01*
X107642149Y-84200000D01*
X108007048Y-84200000D01*
X108007048Y-82567969D01*
X108517515Y-82567969D01*
X109486671Y-82567969D01*
X110466085Y-82567969D01*
X110466085Y-83043265D01*
X109486671Y-83043265D01*
X109486671Y-83380809D01*
X110466085Y-83380809D01*
X110466085Y-83862456D01*
X109486671Y-83862456D01*
X109486671Y-84200000D01*
X110830983Y-84200000D01*
X110830983Y-82567969D01*
X111106489Y-82567969D01*
X111106489Y-83043265D01*
X111106489Y-83380809D01*
X111577878Y-83380809D01*
X111106489Y-84200000D01*
X111471388Y-84200000D01*
X111953524Y-83380809D01*
X112085903Y-83380809D01*
X112085903Y-84200000D01*
X112450802Y-84200000D01*
X112450802Y-82567969D01*
X112726308Y-82567969D01*
X113705722Y-82567969D01*
X113705722Y-83043265D01*
X112726308Y-83043265D01*
X112726308Y-83380809D01*
X113705722Y-83380809D01*
X113705722Y-83862456D01*
X112726308Y-83862456D01*
X112726308Y-84200000D01*
X114070621Y-84200000D01*
X114346127Y-84200000D01*
X114711025Y-84200000D01*
X114711025Y-83380809D01*
X115325540Y-83380809D01*
X115325540Y-84200000D01*
X115690439Y-84200000D01*
X115690439Y-82230425D01*
X115950802Y-82230425D01*
X116300558Y-84200000D01*
X116747522Y-84200000D01*
X116906280Y-83300209D01*
X117066015Y-84200000D01*
X117513468Y-84200000D01*
X117863224Y-82230425D01*
X117477808Y-82230425D01*
X117291695Y-83546894D01*
X117093370Y-82230425D01*
X116720167Y-82230425D01*
X116521842Y-83546894D01*
X116336217Y-82230425D01*
X115950802Y-82230425D01*
X115690439Y-82230425D01*
X115325540Y-82230425D01*
X115325540Y-83043265D01*
X114711025Y-83043265D01*
X114711025Y-82230425D01*
X114346127Y-82230425D01*
X114346127Y-84200000D01*
X114070621Y-84200000D01*
X114070621Y-82230425D01*
X112726308Y-82230425D01*
X112726308Y-82567969D01*
X112450802Y-82567969D01*
X112450802Y-82230425D01*
X111106489Y-82230425D01*
X111106489Y-82567969D01*
X110830983Y-82567969D01*
X110830983Y-82230425D01*
X109486671Y-82230425D01*
X109486671Y-82567969D01*
X108517515Y-82567969D01*
X108517515Y-82230425D01*
X107173203Y-82230425D01*
X107173203Y-82567969D01*
X106897697Y-82567969D01*
X106897697Y-82230425D01*
X105553384Y-82230425D01*
X105553384Y-82567969D01*
X104584228Y-82567969D01*
X104584228Y-82230425D01*
X103239916Y-82230425D01*
X103239916Y-82567969D01*
X102964410Y-82567969D01*
X102964410Y-82230425D01*
X102599511Y-82230425D01*
X102599511Y-83862456D01*
X101984996Y-83862456D01*
X101984996Y-82230425D01*
X101620097Y-82230425D01*
X101620097Y-84200000D01*
X100834124Y-84200000D01*
X100834124Y-82567969D01*
X101344591Y-82567969D01*
X101344591Y-82230425D01*
X100000279Y-82230425D01*
X100000279Y-82567969D01*
X99031123Y-82567969D01*
X99031123Y-82230425D01*
X97686810Y-82230425D01*
X97686810Y-82567969D01*
X97411304Y-82567969D01*
X97411304Y-82230425D01*
X97046406Y-82230425D01*
X97046406Y-83043265D01*
X96431891Y-83043265D01*
X96431891Y-82230425D01*
X96066992Y-82230425D01*
X96066992Y-84200000D01*
X95791486Y-84200000D01*
X95791486Y-82230425D01*
X94447173Y-82230425D01*
X94447173Y-82567969D01*
X94224951Y-82567969D01*
X94224951Y-82008203D01*
X118097169Y-82008203D01*
X118097169Y-87782222D01*
G37*
G36*
X142203570Y-76821478D02*
G01*
X142568469Y-76821478D01*
X142568469Y-74851903D01*
X142203570Y-74851903D01*
X141589055Y-75955881D01*
X141589055Y-74851903D01*
X141224157Y-74851903D01*
X141224157Y-76821478D01*
X141589055Y-76821478D01*
X142203570Y-75684283D01*
X142203570Y-76821478D01*
G37*
G36*
X140583752Y-75189447D02*
G01*
X140583752Y-75664743D01*
X139604338Y-75664743D01*
X139604338Y-76002287D01*
X140583752Y-76002287D01*
X140583752Y-76483934D01*
X139604338Y-76483934D01*
X139604338Y-76821478D01*
X140948651Y-76821478D01*
X140948651Y-74851903D01*
X139604338Y-74851903D01*
X139604338Y-75189447D01*
X140583752Y-75189447D01*
G37*
G36*
X138963933Y-75189447D02*
G01*
X138963933Y-75664743D01*
X137984519Y-75664743D01*
X137984519Y-76002287D01*
X138963933Y-76002287D01*
X138963933Y-76483934D01*
X137984519Y-76483934D01*
X137984519Y-76821478D01*
X139328832Y-76821478D01*
X139328832Y-74851903D01*
X137984519Y-74851903D01*
X137984519Y-75189447D01*
X138963933Y-75189447D01*
G37*
G36*
X137709013Y-76821478D02*
G01*
X136509781Y-76821478D01*
X136364701Y-76648554D01*
X136364701Y-75189447D01*
X136729600Y-75189447D01*
X136729600Y-76483934D01*
X137344115Y-76483934D01*
X137344115Y-75189447D01*
X136729600Y-75189447D01*
X136364701Y-75189447D01*
X136364701Y-75024827D01*
X136511247Y-74851903D01*
X137709013Y-74851903D01*
X137709013Y-76821478D01*
G37*
G36*
X135030646Y-76821478D02*
G01*
X135395545Y-76821478D01*
X135395545Y-74851903D01*
X135030646Y-74851903D01*
X135030646Y-75664743D01*
X134416131Y-75664743D01*
X134416131Y-74851903D01*
X134051233Y-74851903D01*
X134051233Y-76821478D01*
X134416131Y-76821478D01*
X134416131Y-76002287D01*
X135030646Y-76002287D01*
X135030646Y-76821478D01*
G37*
G36*
X133410828Y-75189447D02*
G01*
X133410828Y-75664743D01*
X132431414Y-75664743D01*
X132431414Y-76002287D01*
X133410828Y-76002287D01*
X133410828Y-76483934D01*
X132431414Y-76483934D01*
X132431414Y-76821478D01*
X133775727Y-76821478D01*
X133775727Y-74851903D01*
X132431414Y-74851903D01*
X132431414Y-75189447D01*
X133410828Y-75189447D01*
G37*
G36*
X131791009Y-76483934D02*
G01*
X130811595Y-76483934D01*
X130811595Y-76821478D01*
X132155908Y-76821478D01*
X132155908Y-74851903D01*
X131791009Y-74851903D01*
X131791009Y-76483934D01*
G37*
G36*
X130536090Y-76821478D02*
G01*
X130171191Y-76821478D01*
X130171191Y-76002287D01*
X129191777Y-76002287D01*
X129191777Y-75189447D01*
X129556676Y-75189447D01*
X129556676Y-75664743D01*
X130171191Y-75664743D01*
X130171191Y-75189447D01*
X129556676Y-75189447D01*
X129191777Y-75189447D01*
X129191777Y-74851903D01*
X130536090Y-74851903D01*
X130536090Y-76821478D01*
G37*
G36*
X128916271Y-76322734D02*
G01*
X128916271Y-75664743D01*
X127936857Y-75664743D01*
X127936857Y-75189447D01*
X128916271Y-75189447D01*
X128916271Y-74851903D01*
X127571958Y-74851903D01*
X127571958Y-76002287D01*
X128551372Y-76002287D01*
X128551372Y-76322734D01*
X128916271Y-76322734D01*
G37*
G36*
X128551372Y-76483934D02*
G01*
X128551372Y-76821478D01*
X128916271Y-76821478D01*
X128916271Y-76483934D01*
X128551372Y-76483934D01*
G37*
G36*
X142568469Y-79362287D02*
G01*
X142568469Y-78211903D01*
X141224157Y-78211903D01*
X141224157Y-78549447D01*
X142203570Y-78549447D01*
X142203570Y-79024743D01*
X141224157Y-79024743D01*
X141224157Y-80181478D01*
X142568469Y-80181478D01*
X142568469Y-79843934D01*
X141589055Y-79843934D01*
X141589055Y-79362287D01*
X142568469Y-79362287D01*
G37*
G36*
X140583752Y-79843934D02*
G01*
X139604338Y-79843934D01*
X139604338Y-80181478D01*
X140948651Y-80181478D01*
X140948651Y-78211903D01*
X139604338Y-78211903D01*
X139604338Y-78549447D01*
X140583752Y-78549447D01*
X140583752Y-79843934D01*
G37*
G36*
X139328832Y-80181478D02*
G01*
X138963933Y-80181478D01*
X138963933Y-79362287D01*
X138349418Y-79362287D01*
X138349418Y-80181478D01*
X137984519Y-80181478D01*
X137984519Y-78549447D01*
X138349418Y-78549447D01*
X138349418Y-79024743D01*
X138963933Y-79024743D01*
X138963933Y-78549447D01*
X138349418Y-78549447D01*
X137984519Y-78549447D01*
X137984519Y-78211903D01*
X139328832Y-78211903D01*
X139328832Y-80181478D01*
G37*
G36*
X137344115Y-80181478D02*
G01*
X137709013Y-80181478D01*
X137709013Y-78211903D01*
X137344115Y-78211903D01*
X136729600Y-79315881D01*
X136729600Y-78211903D01*
X136364701Y-78211903D01*
X136364701Y-80181478D01*
X136729600Y-80181478D01*
X137344115Y-79044283D01*
X137344115Y-80181478D01*
G37*
G36*
X135030646Y-80181478D02*
G01*
X135395545Y-80181478D01*
X135395545Y-78211903D01*
X135030646Y-78211903D01*
X134642300Y-79291457D01*
X134238811Y-78211903D01*
X133873912Y-78211903D01*
X133873912Y-80181478D01*
X134238811Y-80181478D01*
X134238811Y-79357402D01*
X134517736Y-80181478D01*
X134742440Y-80181478D01*
X135030646Y-79357402D01*
X135030646Y-80181478D01*
G37*
G36*
X133246697Y-78549447D02*
G01*
X133246697Y-79024743D01*
X132267283Y-79024743D01*
X132267283Y-79362287D01*
X133246697Y-79362287D01*
X133246697Y-79843934D01*
X132267283Y-79843934D01*
X132267283Y-80181478D01*
X133611595Y-80181478D01*
X133611595Y-78211903D01*
X132267283Y-78211903D01*
X132267283Y-78549447D01*
X133246697Y-78549447D01*
G37*
G36*
X131626878Y-78906041D02*
G01*
X131626878Y-79243585D01*
X131991777Y-79243585D01*
X131991777Y-78906041D01*
X131626878Y-78906041D01*
G37*
G36*
X131626878Y-79843934D02*
G01*
X131626878Y-80181478D01*
X131991777Y-80181478D01*
X131991777Y-79843934D01*
X131626878Y-79843934D01*
G37*
G36*
X90447766Y-55430212D02*
G01*
X90265317Y-55430212D01*
X90265317Y-56415000D01*
X90937473Y-56415000D01*
X90937473Y-55430212D01*
X90755024Y-55430212D01*
X90755024Y-56246228D01*
X90447766Y-56246228D01*
X90447766Y-55430212D01*
G37*
G36*
X90127564Y-55598984D02*
G01*
X90127564Y-55430212D01*
X89444905Y-55430212D01*
X89444905Y-56415000D01*
X90127564Y-56415000D01*
X90127564Y-56246228D01*
X89627355Y-56246228D01*
X89627355Y-56005404D01*
X90127564Y-56005404D01*
X90127564Y-55836632D01*
X89627355Y-55836632D01*
X89627355Y-55598984D01*
X90127564Y-55598984D01*
G37*
G36*
X80322644Y-65990505D02*
G01*
X80322644Y-66246228D01*
X80015386Y-66246228D01*
X80015386Y-65430212D01*
X79832937Y-65430212D01*
X79832937Y-66415000D01*
X80505093Y-66415000D01*
X80505093Y-65990505D01*
X80322644Y-65990505D01*
G37*
G36*
X79512735Y-66415000D02*
G01*
X79695184Y-66415000D01*
X79695184Y-65430212D01*
X79512735Y-65430212D01*
X79512735Y-66415000D01*
G37*
X104842857Y-50659580D02*
X104890476Y-50707200D01*
X104890476Y-50707200D02*
X105033333Y-50754819D01*
X105033333Y-50754819D02*
X105128571Y-50754819D01*
X105128571Y-50754819D02*
X105271428Y-50707200D01*
X105271428Y-50707200D02*
X105366666Y-50611961D01*
X105366666Y-50611961D02*
X105414285Y-50516723D01*
X105414285Y-50516723D02*
X105461904Y-50326247D01*
X105461904Y-50326247D02*
X105461904Y-50183390D01*
X105461904Y-50183390D02*
X105414285Y-49992914D01*
X105414285Y-49992914D02*
X105366666Y-49897676D01*
X105366666Y-49897676D02*
X105271428Y-49802438D01*
X105271428Y-49802438D02*
X105128571Y-49754819D01*
X105128571Y-49754819D02*
X105033333Y-49754819D01*
X105033333Y-49754819D02*
X104890476Y-49802438D01*
X104890476Y-49802438D02*
X104842857Y-49850057D01*
X103938095Y-49754819D02*
X104414285Y-49754819D01*
X104414285Y-49754819D02*
X104461904Y-50231009D01*
X104461904Y-50231009D02*
X104414285Y-50183390D01*
X104414285Y-50183390D02*
X104319047Y-50135771D01*
X104319047Y-50135771D02*
X104080952Y-50135771D01*
X104080952Y-50135771D02*
X103985714Y-50183390D01*
X103985714Y-50183390D02*
X103938095Y-50231009D01*
X103938095Y-50231009D02*
X103890476Y-50326247D01*
X103890476Y-50326247D02*
X103890476Y-50564342D01*
X103890476Y-50564342D02*
X103938095Y-50659580D01*
X103938095Y-50659580D02*
X103985714Y-50707200D01*
X103985714Y-50707200D02*
X104080952Y-50754819D01*
X104080952Y-50754819D02*
X104319047Y-50754819D01*
X104319047Y-50754819D02*
X104414285Y-50707200D01*
X104414285Y-50707200D02*
X104461904Y-50659580D01*
X102938095Y-50754819D02*
X103509523Y-50754819D01*
X103223809Y-50754819D02*
X103223809Y-49754819D01*
X103223809Y-49754819D02*
X103319047Y-49897676D01*
X103319047Y-49897676D02*
X103414285Y-49992914D01*
X103414285Y-49992914D02*
X103509523Y-50040533D01*
X104542857Y-42704819D02*
X104876190Y-42228628D01*
X105114285Y-42704819D02*
X105114285Y-41704819D01*
X105114285Y-41704819D02*
X104733333Y-41704819D01*
X104733333Y-41704819D02*
X104638095Y-41752438D01*
X104638095Y-41752438D02*
X104590476Y-41800057D01*
X104590476Y-41800057D02*
X104542857Y-41895295D01*
X104542857Y-41895295D02*
X104542857Y-42038152D01*
X104542857Y-42038152D02*
X104590476Y-42133390D01*
X104590476Y-42133390D02*
X104638095Y-42181009D01*
X104638095Y-42181009D02*
X104733333Y-42228628D01*
X104733333Y-42228628D02*
X105114285Y-42228628D01*
X103638095Y-41704819D02*
X104114285Y-41704819D01*
X104114285Y-41704819D02*
X104161904Y-42181009D01*
X104161904Y-42181009D02*
X104114285Y-42133390D01*
X104114285Y-42133390D02*
X104019047Y-42085771D01*
X104019047Y-42085771D02*
X103780952Y-42085771D01*
X103780952Y-42085771D02*
X103685714Y-42133390D01*
X103685714Y-42133390D02*
X103638095Y-42181009D01*
X103638095Y-42181009D02*
X103590476Y-42276247D01*
X103590476Y-42276247D02*
X103590476Y-42514342D01*
X103590476Y-42514342D02*
X103638095Y-42609580D01*
X103638095Y-42609580D02*
X103685714Y-42657200D01*
X103685714Y-42657200D02*
X103780952Y-42704819D01*
X103780952Y-42704819D02*
X104019047Y-42704819D01*
X104019047Y-42704819D02*
X104114285Y-42657200D01*
X104114285Y-42657200D02*
X104161904Y-42609580D01*
X102971428Y-41704819D02*
X102876190Y-41704819D01*
X102876190Y-41704819D02*
X102780952Y-41752438D01*
X102780952Y-41752438D02*
X102733333Y-41800057D01*
X102733333Y-41800057D02*
X102685714Y-41895295D01*
X102685714Y-41895295D02*
X102638095Y-42085771D01*
X102638095Y-42085771D02*
X102638095Y-42323866D01*
X102638095Y-42323866D02*
X102685714Y-42514342D01*
X102685714Y-42514342D02*
X102733333Y-42609580D01*
X102733333Y-42609580D02*
X102780952Y-42657200D01*
X102780952Y-42657200D02*
X102876190Y-42704819D01*
X102876190Y-42704819D02*
X102971428Y-42704819D01*
X102971428Y-42704819D02*
X103066666Y-42657200D01*
X103066666Y-42657200D02*
X103114285Y-42609580D01*
X103114285Y-42609580D02*
X103161904Y-42514342D01*
X103161904Y-42514342D02*
X103209523Y-42323866D01*
X103209523Y-42323866D02*
X103209523Y-42085771D01*
X103209523Y-42085771D02*
X103161904Y-41895295D01*
X103161904Y-41895295D02*
X103114285Y-41800057D01*
X103114285Y-41800057D02*
X103066666Y-41752438D01*
X103066666Y-41752438D02*
X102971428Y-41704819D01*
X107359580Y-44857142D02*
X107407200Y-44809523D01*
X107407200Y-44809523D02*
X107454819Y-44666666D01*
X107454819Y-44666666D02*
X107454819Y-44571428D01*
X107454819Y-44571428D02*
X107407200Y-44428571D01*
X107407200Y-44428571D02*
X107311961Y-44333333D01*
X107311961Y-44333333D02*
X107216723Y-44285714D01*
X107216723Y-44285714D02*
X107026247Y-44238095D01*
X107026247Y-44238095D02*
X106883390Y-44238095D01*
X106883390Y-44238095D02*
X106692914Y-44285714D01*
X106692914Y-44285714D02*
X106597676Y-44333333D01*
X106597676Y-44333333D02*
X106502438Y-44428571D01*
X106502438Y-44428571D02*
X106454819Y-44571428D01*
X106454819Y-44571428D02*
X106454819Y-44666666D01*
X106454819Y-44666666D02*
X106502438Y-44809523D01*
X106502438Y-44809523D02*
X106550057Y-44857142D01*
X106454819Y-45761904D02*
X106454819Y-45285714D01*
X106454819Y-45285714D02*
X106931009Y-45238095D01*
X106931009Y-45238095D02*
X106883390Y-45285714D01*
X106883390Y-45285714D02*
X106835771Y-45380952D01*
X106835771Y-45380952D02*
X106835771Y-45619047D01*
X106835771Y-45619047D02*
X106883390Y-45714285D01*
X106883390Y-45714285D02*
X106931009Y-45761904D01*
X106931009Y-45761904D02*
X107026247Y-45809523D01*
X107026247Y-45809523D02*
X107264342Y-45809523D01*
X107264342Y-45809523D02*
X107359580Y-45761904D01*
X107359580Y-45761904D02*
X107407200Y-45714285D01*
X107407200Y-45714285D02*
X107454819Y-45619047D01*
X107454819Y-45619047D02*
X107454819Y-45380952D01*
X107454819Y-45380952D02*
X107407200Y-45285714D01*
X107407200Y-45285714D02*
X107359580Y-45238095D01*
X106454819Y-46428571D02*
X106454819Y-46523809D01*
X106454819Y-46523809D02*
X106502438Y-46619047D01*
X106502438Y-46619047D02*
X106550057Y-46666666D01*
X106550057Y-46666666D02*
X106645295Y-46714285D01*
X106645295Y-46714285D02*
X106835771Y-46761904D01*
X106835771Y-46761904D02*
X107073866Y-46761904D01*
X107073866Y-46761904D02*
X107264342Y-46714285D01*
X107264342Y-46714285D02*
X107359580Y-46666666D01*
X107359580Y-46666666D02*
X107407200Y-46619047D01*
X107407200Y-46619047D02*
X107454819Y-46523809D01*
X107454819Y-46523809D02*
X107454819Y-46428571D01*
X107454819Y-46428571D02*
X107407200Y-46333333D01*
X107407200Y-46333333D02*
X107359580Y-46285714D01*
X107359580Y-46285714D02*
X107264342Y-46238095D01*
X107264342Y-46238095D02*
X107073866Y-46190476D01*
X107073866Y-46190476D02*
X106835771Y-46190476D01*
X106835771Y-46190476D02*
X106645295Y-46238095D01*
X106645295Y-46238095D02*
X106550057Y-46285714D01*
X106550057Y-46285714D02*
X106502438Y-46333333D01*
X106502438Y-46333333D02*
X106454819Y-46428571D01*
X101354819Y-48957142D02*
X100878628Y-48623809D01*
X101354819Y-48385714D02*
X100354819Y-48385714D01*
X100354819Y-48385714D02*
X100354819Y-48766666D01*
X100354819Y-48766666D02*
X100402438Y-48861904D01*
X100402438Y-48861904D02*
X100450057Y-48909523D01*
X100450057Y-48909523D02*
X100545295Y-48957142D01*
X100545295Y-48957142D02*
X100688152Y-48957142D01*
X100688152Y-48957142D02*
X100783390Y-48909523D01*
X100783390Y-48909523D02*
X100831009Y-48861904D01*
X100831009Y-48861904D02*
X100878628Y-48766666D01*
X100878628Y-48766666D02*
X100878628Y-48385714D01*
X100354819Y-49861904D02*
X100354819Y-49385714D01*
X100354819Y-49385714D02*
X100831009Y-49338095D01*
X100831009Y-49338095D02*
X100783390Y-49385714D01*
X100783390Y-49385714D02*
X100735771Y-49480952D01*
X100735771Y-49480952D02*
X100735771Y-49719047D01*
X100735771Y-49719047D02*
X100783390Y-49814285D01*
X100783390Y-49814285D02*
X100831009Y-49861904D01*
X100831009Y-49861904D02*
X100926247Y-49909523D01*
X100926247Y-49909523D02*
X101164342Y-49909523D01*
X101164342Y-49909523D02*
X101259580Y-49861904D01*
X101259580Y-49861904D02*
X101307200Y-49814285D01*
X101307200Y-49814285D02*
X101354819Y-49719047D01*
X101354819Y-49719047D02*
X101354819Y-49480952D01*
X101354819Y-49480952D02*
X101307200Y-49385714D01*
X101307200Y-49385714D02*
X101259580Y-49338095D01*
X101354819Y-50861904D02*
X101354819Y-50290476D01*
X101354819Y-50576190D02*
X100354819Y-50576190D01*
X100354819Y-50576190D02*
X100497676Y-50480952D01*
X100497676Y-50480952D02*
X100592914Y-50385714D01*
X100592914Y-50385714D02*
X100640533Y-50290476D01*
X102161904Y-42454819D02*
X102161904Y-43264342D01*
X102161904Y-43264342D02*
X102114285Y-43359580D01*
X102114285Y-43359580D02*
X102066666Y-43407200D01*
X102066666Y-43407200D02*
X101971428Y-43454819D01*
X101971428Y-43454819D02*
X101780952Y-43454819D01*
X101780952Y-43454819D02*
X101685714Y-43407200D01*
X101685714Y-43407200D02*
X101638095Y-43359580D01*
X101638095Y-43359580D02*
X101590476Y-43264342D01*
X101590476Y-43264342D02*
X101590476Y-42454819D01*
X100638095Y-42454819D02*
X101114285Y-42454819D01*
X101114285Y-42454819D02*
X101161904Y-42931009D01*
X101161904Y-42931009D02*
X101114285Y-42883390D01*
X101114285Y-42883390D02*
X101019047Y-42835771D01*
X101019047Y-42835771D02*
X100780952Y-42835771D01*
X100780952Y-42835771D02*
X100685714Y-42883390D01*
X100685714Y-42883390D02*
X100638095Y-42931009D01*
X100638095Y-42931009D02*
X100590476Y-43026247D01*
X100590476Y-43026247D02*
X100590476Y-43264342D01*
X100590476Y-43264342D02*
X100638095Y-43359580D01*
X100638095Y-43359580D02*
X100685714Y-43407200D01*
X100685714Y-43407200D02*
X100780952Y-43454819D01*
X100780952Y-43454819D02*
X101019047Y-43454819D01*
X101019047Y-43454819D02*
X101114285Y-43407200D01*
X101114285Y-43407200D02*
X101161904Y-43359580D01*
X100829567Y-44000000D02*
X101067662Y-44000000D01*
X100972424Y-43761905D02*
X101067662Y-44000000D01*
X101067662Y-44000000D02*
X100972424Y-44238095D01*
X101258138Y-43857143D02*
X101067662Y-44000000D01*
X101067662Y-44000000D02*
X101258138Y-44142857D01*
D13*
%TO.C,C40*%
X146384167Y-42640000D02*
X146615837Y-42640000D01*
X146384167Y-43360000D02*
X146615837Y-43360000D01*
%TO.C,Q90*%
X139440002Y-46825000D02*
X139440002Y-48500000D01*
X139440002Y-49150000D02*
X139440002Y-48500000D01*
X142560002Y-47850000D02*
X142560002Y-48500000D01*
X142560002Y-49150000D02*
X142560002Y-48500000D01*
%TO.C,R24*%
X83320000Y-63032379D02*
X83320000Y-63367621D01*
X84080000Y-63032379D02*
X84080000Y-63367621D01*
%TO.C,U3*%
X84390002Y-46390000D02*
X84390002Y-46840000D01*
X84390002Y-53610000D02*
X84390002Y-53160000D01*
X84840002Y-45100000D02*
X84840002Y-46390000D01*
X84840002Y-46390000D02*
X84390002Y-46390000D01*
X84840002Y-53610000D02*
X84390002Y-53610000D01*
X91160002Y-46390000D02*
X91610002Y-46390000D01*
X91160002Y-53610000D02*
X91610002Y-53610000D01*
X91610002Y-46390000D02*
X91610002Y-46840000D01*
X91610002Y-53610000D02*
X91610002Y-53160000D01*
%TO.C,C24*%
X94846269Y-145590000D02*
X94553735Y-145590000D01*
X94846269Y-146610000D02*
X94553735Y-146610000D01*
D11*
%TO.C,U1*%
X80600000Y-153300001D02*
X83400000Y-153300001D01*
X80600000Y-156699999D02*
X83400000Y-156699999D01*
D14*
X85028102Y-154025001D02*
G75*
G02*
X84778100Y-154025001I-125001J0D01*
G01*
X84778100Y-154025001D02*
G75*
G02*
X85028102Y-154025001I125001J0D01*
G01*
D13*
%TO.C,D9*%
X78550002Y-150650000D02*
X78550002Y-147390000D01*
X80250002Y-147390000D02*
X78550002Y-147390000D01*
X80250002Y-150650000D02*
X80250002Y-147390000D01*
%TO.C,R97*%
X130920002Y-53467621D02*
X130920002Y-53132379D01*
X131680002Y-53467621D02*
X131680002Y-53132379D01*
%TO.C,R164*%
X110272936Y-33090000D02*
X111727064Y-33090000D01*
X110272936Y-34910000D02*
X111727064Y-34910000D01*
%TO.C,C32*%
X82784167Y-45740000D02*
X83015837Y-45740000D01*
X82784167Y-46460000D02*
X83015837Y-46460000D01*
D14*
%TO.C,J1*%
X74500000Y-70470000D02*
X74500000Y-61530000D01*
X75980000Y-61530000D02*
X74500000Y-61530000D01*
X75980000Y-70470000D02*
X74500000Y-70470000D01*
X80080000Y-61530000D02*
X78220000Y-61530000D01*
X80080000Y-70470000D02*
X78220000Y-70470000D01*
D13*
%TO.C,R32*%
X148120000Y-131332379D02*
X148120000Y-131667621D01*
X148880000Y-131332379D02*
X148880000Y-131667621D01*
%TO.C,R10*%
X85767623Y-151220000D02*
X85432381Y-151220000D01*
X85767623Y-151980000D02*
X85432381Y-151980000D01*
%TO.C,C11*%
X77490000Y-154646267D02*
X77490000Y-154353733D01*
X78510000Y-154646267D02*
X78510000Y-154353733D01*
%TO.C,R36*%
X150320000Y-131332379D02*
X150320000Y-131667621D01*
X151080000Y-131332379D02*
X151080000Y-131667621D01*
%TO.C,Q9*%
X150850002Y-124940000D02*
X151500002Y-124940000D01*
X150850002Y-128060000D02*
X151500002Y-128060000D01*
X152150002Y-124940000D02*
X151500002Y-124940000D01*
X152150002Y-128060000D02*
X151500002Y-128060000D01*
X150577502Y-128340000D02*
X150097502Y-128340000D01*
X150337502Y-128010000D01*
X150577502Y-128340000D01*
G36*
X150577502Y-128340000D02*
G01*
X150097502Y-128340000D01*
X150337502Y-128010000D01*
X150577502Y-128340000D01*
G37*
%TO.C,R4*%
X92920000Y-41732379D02*
X92920000Y-42067621D01*
X93680000Y-41732379D02*
X93680000Y-42067621D01*
%TO.C,R35*%
X151420000Y-131332379D02*
X151420000Y-131667621D01*
X152180000Y-131332379D02*
X152180000Y-131667621D01*
%TO.C,R165*%
X149772936Y-113090000D02*
X151227064Y-113090000D01*
X149772936Y-114910000D02*
X151227064Y-114910000D01*
%TO.C,C25*%
X94846269Y-143890000D02*
X94553735Y-143890000D01*
X94846269Y-144910000D02*
X94553735Y-144910000D01*
%TO.C,R17*%
X82132381Y-57920000D02*
X82467623Y-57920000D01*
X82132381Y-58680000D02*
X82467623Y-58680000D01*
%TO.C,C30*%
X93215837Y-53540000D02*
X92984167Y-53540000D01*
X93215837Y-54260000D02*
X92984167Y-54260000D01*
%TO.C,C38*%
X86415837Y-43340000D02*
X86184167Y-43340000D01*
X86415837Y-44060000D02*
X86184167Y-44060000D01*
%TO.C,R19*%
X85132381Y-149620000D02*
X85467623Y-149620000D01*
X85132381Y-150380000D02*
X85467623Y-150380000D01*
%TO.C,R21*%
X89220000Y-41132379D02*
X89220000Y-41467621D01*
X89980000Y-41132379D02*
X89980000Y-41467621D01*
%TO.C,C60*%
X115690000Y-155146267D02*
X115690000Y-154853733D01*
X116710000Y-155146267D02*
X116710000Y-154853733D01*
%TO.C,Q99*%
X114940002Y-48350000D02*
X114940002Y-49000000D01*
X114940002Y-49650000D02*
X114940002Y-49000000D01*
X118060002Y-48350000D02*
X118060002Y-49000000D01*
X118060002Y-49650000D02*
X118060002Y-49000000D01*
X114990002Y-47837500D02*
X114660002Y-48077500D01*
X114660002Y-47597500D01*
X114990002Y-47837500D01*
G36*
X114990002Y-47837500D02*
G01*
X114660002Y-48077500D01*
X114660002Y-47597500D01*
X114990002Y-47837500D01*
G37*
%TO.C,R34*%
X152520000Y-131332379D02*
X152520000Y-131667621D01*
X153280000Y-131332379D02*
X153280000Y-131667621D01*
%TO.C,R31*%
X149220000Y-131332379D02*
X149220000Y-131667621D01*
X149980000Y-131332379D02*
X149980000Y-131667621D01*
%TO.C,C51*%
X104048335Y-48640000D02*
X103816665Y-48640000D01*
X104048335Y-49360000D02*
X103816665Y-49360000D01*
%TO.C,R20*%
X82732381Y-44420000D02*
X83067623Y-44420000D01*
X82732381Y-45180000D02*
X83067623Y-45180000D01*
%TO.C,R96*%
X127920002Y-56467621D02*
X127920002Y-56132379D01*
X128680002Y-56467621D02*
X128680002Y-56132379D01*
%TO.C,C20*%
X88446269Y-147290000D02*
X88153735Y-147290000D01*
X88446269Y-148310000D02*
X88153735Y-148310000D01*
%TO.C,R23*%
X92132381Y-138620000D02*
X92467623Y-138620000D01*
X92132381Y-139380000D02*
X92467623Y-139380000D01*
%TO.C,R6*%
X98720000Y-34332379D02*
X98720000Y-34667621D01*
X99480000Y-34332379D02*
X99480000Y-34667621D01*
%TO.C,R95*%
X124920002Y-59467621D02*
X124920002Y-59132379D01*
X125680002Y-59467621D02*
X125680002Y-59132379D01*
%TO.C,C21*%
X88640002Y-142415835D02*
X88640002Y-142184165D01*
X89360002Y-142415835D02*
X89360002Y-142184165D01*
%TO.C,Q91*%
X142940002Y-46825000D02*
X142940002Y-48500000D01*
X142940002Y-49150000D02*
X142940002Y-48500000D01*
X146060002Y-47850000D02*
X146060002Y-48500000D01*
X146060002Y-49150000D02*
X146060002Y-48500000D01*
%TO.C,Q94*%
X150825002Y-44060000D02*
X152500002Y-44060000D01*
X151850002Y-40940000D02*
X152500002Y-40940000D01*
X153150002Y-40940000D02*
X152500002Y-40940000D01*
X153150002Y-44060000D02*
X152500002Y-44060000D01*
%TO.C,C37*%
X88140000Y-40715835D02*
X88140000Y-40484165D01*
X88860000Y-40715835D02*
X88860000Y-40484165D01*
%TO.C,R11*%
X92467621Y-39420000D02*
X92132379Y-39420000D01*
X92467621Y-40180000D02*
X92132379Y-40180000D01*
%TO.C,Q915*%
X135940002Y-47850000D02*
X135940002Y-48500000D01*
X135940002Y-49150000D02*
X135940002Y-48500000D01*
X139060002Y-47850000D02*
X139060002Y-48500000D01*
X139060002Y-49150000D02*
X139060002Y-48500000D01*
X135990002Y-47337500D02*
X135660002Y-47577500D01*
X135660002Y-47097500D01*
X135990002Y-47337500D01*
G36*
X135990002Y-47337500D02*
G01*
X135660002Y-47577500D01*
X135660002Y-47097500D01*
X135990002Y-47337500D01*
G37*
%TO.C,R5*%
X91832381Y-137220000D02*
X92167623Y-137220000D01*
X91832381Y-137980000D02*
X92167623Y-137980000D01*
%TO.C,R90*%
X109920002Y-74467621D02*
X109920002Y-74132379D01*
X110680002Y-74467621D02*
X110680002Y-74132379D01*
%TO.C,Q98*%
X111440002Y-48350000D02*
X111440002Y-49000000D01*
X111440002Y-49650000D02*
X111440002Y-49000000D01*
X114560002Y-48350000D02*
X114560002Y-49000000D01*
X114560002Y-49650000D02*
X114560002Y-49000000D01*
X111490002Y-47837500D02*
X111160002Y-48077500D01*
X111160002Y-47597500D01*
X111490002Y-47837500D01*
G36*
X111490002Y-47837500D02*
G01*
X111160002Y-48077500D01*
X111160002Y-47597500D01*
X111490002Y-47837500D01*
G37*
%TO.C,C33*%
X90384165Y-43440000D02*
X90615835Y-43440000D01*
X90384165Y-44160000D02*
X90615835Y-44160000D01*
%TO.C,Q2*%
X95250002Y-138040000D02*
X95900002Y-138040000D01*
X95250002Y-141160000D02*
X95900002Y-141160000D01*
X96550002Y-138040000D02*
X95900002Y-138040000D01*
X96550002Y-141160000D02*
X95900002Y-141160000D01*
X97062502Y-138090000D02*
X96822502Y-137760000D01*
X97302502Y-137760000D01*
X97062502Y-138090000D01*
G36*
X97062502Y-138090000D02*
G01*
X96822502Y-137760000D01*
X97302502Y-137760000D01*
X97062502Y-138090000D01*
G37*
%TO.C,R166*%
X124272936Y-33090000D02*
X125727064Y-33090000D01*
X124272936Y-34910000D02*
X125727064Y-34910000D01*
%TO.C,C10*%
X80646267Y-157490000D02*
X80353733Y-157490000D01*
X80646267Y-158510000D02*
X80353733Y-158510000D01*
%TO.C,R92*%
X115920002Y-68467621D02*
X115920002Y-68132379D01*
X116680002Y-68467621D02*
X116680002Y-68132379D01*
%TO.C,R9*%
X129320000Y-34632379D02*
X129320000Y-34967621D01*
X130080000Y-34632379D02*
X130080000Y-34967621D01*
%TO.C,R16*%
X82467623Y-59020000D02*
X82132381Y-59020000D01*
X82467623Y-59780000D02*
X82132381Y-59780000D01*
%TO.C,Q911*%
X121940002Y-48350000D02*
X121940002Y-49000000D01*
X121940002Y-49650000D02*
X121940002Y-49000000D01*
X125060002Y-48350000D02*
X125060002Y-49000000D01*
X125060002Y-49650000D02*
X125060002Y-49000000D01*
X121990002Y-47837500D02*
X121660002Y-48077500D01*
X121660002Y-47597500D01*
X121990002Y-47837500D01*
G36*
X121990002Y-47837500D02*
G01*
X121660002Y-48077500D01*
X121660002Y-47597500D01*
X121990002Y-47837500D01*
G37*
%TO.C,Q912*%
X125440002Y-48350000D02*
X125440002Y-49000000D01*
X125440002Y-49650000D02*
X125440002Y-49000000D01*
X128560002Y-48350000D02*
X128560002Y-49000000D01*
X128560002Y-49650000D02*
X128560002Y-49000000D01*
X125490002Y-47837500D02*
X125160002Y-48077500D01*
X125160002Y-47597500D01*
X125490002Y-47837500D01*
G36*
X125490002Y-47837500D02*
G01*
X125160002Y-48077500D01*
X125160002Y-47597500D01*
X125490002Y-47837500D01*
G37*
%TO.C,U4*%
X141000000Y-42060000D02*
X144500000Y-42060000D01*
X142550000Y-31940000D02*
X144500000Y-31940000D01*
X146450000Y-31940000D02*
X144500000Y-31940000D01*
X146450000Y-42060000D02*
X144500000Y-42060000D01*
%TO.C,C1*%
X88415837Y-148890000D02*
X88184167Y-148890000D01*
X88415837Y-149610000D02*
X88184167Y-149610000D01*
%TO.C,C31*%
X83840002Y-55115835D02*
X83840002Y-54884165D01*
X84560002Y-55115835D02*
X84560002Y-54884165D01*
%TO.C,D2*%
X88890002Y-134750000D02*
X88890002Y-136750000D01*
X92750002Y-134750000D02*
X88890002Y-134750000D01*
X92750002Y-136750000D02*
X88890002Y-136750000D01*
%TO.C,Q914*%
X132440002Y-47850000D02*
X132440002Y-48500000D01*
X132440002Y-49150000D02*
X132440002Y-48500000D01*
X135560002Y-47850000D02*
X135560002Y-48500000D01*
X135560002Y-49150000D02*
X135560002Y-48500000D01*
X132490002Y-47337500D02*
X132160002Y-47577500D01*
X132160002Y-47097500D01*
X132490002Y-47337500D01*
G36*
X132490002Y-47337500D02*
G01*
X132160002Y-47577500D01*
X132160002Y-47097500D01*
X132490002Y-47337500D01*
G37*
%TO.C,U8*%
X122940000Y-39550000D02*
X122940000Y-41500000D01*
X122940000Y-43450000D02*
X122940000Y-41500000D01*
X133060000Y-39550000D02*
X133060000Y-41500000D01*
X133060000Y-43450000D02*
X133060000Y-41500000D01*
X122995000Y-38775000D02*
X122665000Y-39015000D01*
X122665000Y-38535000D01*
X122995000Y-38775000D01*
G36*
X122995000Y-38775000D02*
G01*
X122665000Y-39015000D01*
X122665000Y-38535000D01*
X122995000Y-38775000D01*
G37*
%TO.C,R3*%
X79532379Y-59620000D02*
X79867621Y-59620000D01*
X79532379Y-60380000D02*
X79867621Y-60380000D01*
%TO.C,C34*%
X90740000Y-42215835D02*
X90740000Y-41984165D01*
X91460000Y-42215835D02*
X91460000Y-41984165D01*
%TO.C,R162*%
X149772936Y-121090000D02*
X151227064Y-121090000D01*
X149772936Y-122910000D02*
X151227064Y-122910000D01*
D11*
%TO.C,U2*%
X90200002Y-139800001D02*
X93000002Y-139800001D01*
X90200002Y-143199999D02*
X93000002Y-143199999D01*
D14*
X94628104Y-140525001D02*
G75*
G02*
X94378102Y-140525001I-125001J0D01*
G01*
X94378102Y-140525001D02*
G75*
G02*
X94628104Y-140525001I125001J0D01*
G01*
D13*
%TO.C,R2*%
X83620000Y-65767621D02*
X83620000Y-65432379D01*
X84380000Y-65767621D02*
X84380000Y-65432379D01*
%TO.C,C22*%
X90953735Y-143890000D02*
X91246269Y-143890000D01*
X90953735Y-144910000D02*
X91246269Y-144910000D01*
%TO.C,C92*%
X152653733Y-128690000D02*
X152946267Y-128690000D01*
X152653733Y-129710000D02*
X152946267Y-129710000D01*
%TO.C,R1*%
X83620000Y-68267621D02*
X83620000Y-67932379D01*
X84380000Y-68267621D02*
X84380000Y-67932379D01*
%TO.C,R50*%
X103967621Y-42920000D02*
X103632379Y-42920000D01*
X103967621Y-43680000D02*
X103632379Y-43680000D01*
%TO.C,C50*%
X105240835Y-45390000D02*
X105009165Y-45390000D01*
X105240835Y-46110000D02*
X105009165Y-46110000D01*
%TO.C,R7*%
X130620002Y-34632379D02*
X130620002Y-34967621D01*
X131380002Y-34632379D02*
X131380002Y-34967621D01*
%TO.C,Q92*%
X146440002Y-46825000D02*
X146440002Y-48500000D01*
X146440002Y-49150000D02*
X146440002Y-48500000D01*
X149560002Y-47850000D02*
X149560002Y-48500000D01*
X149560002Y-49150000D02*
X149560002Y-48500000D01*
%TO.C,R18*%
X85467623Y-148520000D02*
X85132381Y-148520000D01*
X85467623Y-149280000D02*
X85132381Y-149280000D01*
%TO.C,R33*%
X153620000Y-131332379D02*
X153620000Y-131667621D01*
X154380000Y-131332379D02*
X154380000Y-131667621D01*
D15*
%TO.C,BT1*%
X87750000Y-107800000D02*
X142250000Y-107800000D01*
X87750000Y-130200000D02*
X87750000Y-107800000D01*
X89135000Y-108365000D02*
X89135000Y-109635000D01*
X89770000Y-109000000D02*
X88500000Y-109000000D01*
X140865000Y-128365000D02*
X140865000Y-129635000D01*
X141500000Y-129000000D02*
X140230000Y-129000000D01*
X142250000Y-130200000D02*
X87750000Y-130200000D01*
X142250000Y-130200000D02*
X142250000Y-107800000D01*
D13*
%TO.C,Q910*%
X118440002Y-48350000D02*
X118440002Y-49000000D01*
X118440002Y-49650000D02*
X118440002Y-49000000D01*
X121560002Y-48350000D02*
X121560002Y-49000000D01*
X121560002Y-49650000D02*
X121560002Y-49000000D01*
X118490002Y-47837500D02*
X118160002Y-48077500D01*
X118160002Y-47597500D01*
X118490002Y-47837500D01*
G36*
X118490002Y-47837500D02*
G01*
X118160002Y-48077500D01*
X118160002Y-47597500D01*
X118490002Y-47837500D01*
G37*
%TO.C,R93*%
X118920002Y-65467621D02*
X118920002Y-65132379D01*
X119680002Y-65467621D02*
X119680002Y-65132379D01*
%TO.C,C26*%
X90953735Y-145590000D02*
X91246269Y-145590000D01*
X90953735Y-146610000D02*
X91246269Y-146610000D01*
%TO.C,L20*%
X77200002Y-136200000D02*
X87800002Y-136200000D01*
X77200002Y-139400000D02*
X77200002Y-136200000D01*
X77200002Y-146800000D02*
X77200002Y-143600000D01*
X87800002Y-136200000D02*
X87800002Y-139400000D01*
X87800002Y-143600000D02*
X87800002Y-146800000D01*
X87800002Y-146800000D02*
X77200002Y-146800000D01*
%TO.C,R25*%
X83620000Y-70332379D02*
X83620000Y-70667621D01*
X84380000Y-70332379D02*
X84380000Y-70667621D01*
%TO.C,Q96*%
X151325002Y-37060000D02*
X153000002Y-37060000D01*
X152350002Y-33940000D02*
X153000002Y-33940000D01*
X153650002Y-33940000D02*
X153000002Y-33940000D01*
X153650002Y-37060000D02*
X153000002Y-37060000D01*
%TO.C,R167*%
X117272936Y-33090000D02*
X118727064Y-33090000D01*
X117272936Y-34910000D02*
X118727064Y-34910000D01*
%TO.C,R8*%
X99920000Y-34332379D02*
X99920000Y-34667621D01*
X100680000Y-34332379D02*
X100680000Y-34667621D01*
%TO.C,C80*%
X121540000Y-43884165D02*
X121540000Y-44115835D01*
X122260000Y-43884165D02*
X122260000Y-44115835D01*
%TO.C,C23*%
X94846269Y-147290000D02*
X94553735Y-147290000D01*
X94846269Y-148310000D02*
X94553735Y-148310000D01*
%TO.C,R22*%
X90067623Y-138620000D02*
X89732381Y-138620000D01*
X90067623Y-139380000D02*
X89732381Y-139380000D01*
%TO.C,R91*%
X112920002Y-71467621D02*
X112920002Y-71132379D01*
X113680002Y-71467621D02*
X113680002Y-71132379D01*
%TO.C,R61*%
X118967621Y-154120000D02*
X118632379Y-154120000D01*
X118967621Y-154880000D02*
X118632379Y-154880000D01*
%TO.C,R163*%
X149772936Y-117090000D02*
X151227064Y-117090000D01*
X149772936Y-118910000D02*
X151227064Y-118910000D01*
%TO.C,Y1*%
X87775000Y-39300000D02*
X84625000Y-39300000D01*
X87775000Y-43100000D02*
X87775000Y-39300000D01*
%TO.C,R94*%
X121920002Y-62467621D02*
X121920002Y-62132379D01*
X122680002Y-62467621D02*
X122680002Y-62132379D01*
%TO.C,Q1*%
X80602502Y-148650000D02*
X80602502Y-149300000D01*
X80602502Y-149950000D02*
X80602502Y-149300000D01*
X83722502Y-148650000D02*
X83722502Y-149300000D01*
X83722502Y-149950000D02*
X83722502Y-149300000D01*
X84002502Y-150702500D02*
X83672502Y-150462500D01*
X84002502Y-150222500D01*
X84002502Y-150702500D01*
G36*
X84002502Y-150702500D02*
G01*
X83672502Y-150462500D01*
X84002502Y-150222500D01*
X84002502Y-150702500D01*
G37*
%TO.C,R51*%
X101820000Y-49032379D02*
X101820000Y-49367621D01*
X102580000Y-49032379D02*
X102580000Y-49367621D01*
%TO.C,D1*%
X94750002Y-141650000D02*
X98010002Y-141650000D01*
X94750002Y-143350000D02*
X98010002Y-143350000D01*
X98010002Y-143350000D02*
X98010002Y-141650000D01*
%TO.C,Q93*%
X150325002Y-47560000D02*
X152000002Y-47560000D01*
X151350002Y-44440000D02*
X152000002Y-44440000D01*
X152650002Y-44440000D02*
X152000002Y-44440000D01*
X152650002Y-47560000D02*
X152000002Y-47560000D01*
%TO.C,Q97*%
X151825002Y-33560000D02*
X153500002Y-33560000D01*
X152850002Y-30440000D02*
X153500002Y-30440000D01*
X154150002Y-30440000D02*
X153500002Y-30440000D01*
X154150002Y-33560000D02*
X153500002Y-33560000D01*
%TO.C,R30*%
X91820000Y-43032379D02*
X91820000Y-43367621D01*
X92580000Y-43032379D02*
X92580000Y-43367621D01*
%TO.C,Q913*%
X128940002Y-47850000D02*
X128940002Y-48500000D01*
X128940002Y-49150000D02*
X128940002Y-48500000D01*
X132060002Y-47850000D02*
X132060002Y-48500000D01*
X132060002Y-49150000D02*
X132060002Y-48500000D01*
X128990002Y-47337500D02*
X128660002Y-47577500D01*
X128660002Y-47097500D01*
X128990002Y-47337500D01*
G36*
X128990002Y-47337500D02*
G01*
X128660002Y-47577500D01*
X128660002Y-47097500D01*
X128990002Y-47337500D01*
G37*
%TO.C,Q95*%
X151325002Y-40560000D02*
X153000002Y-40560000D01*
X152350002Y-37440000D02*
X153000002Y-37440000D01*
X153650002Y-37440000D02*
X153000002Y-37440000D01*
X153650002Y-40560000D02*
X153000002Y-40560000D01*
%TO.C,R14*%
X149867621Y-128720000D02*
X149532379Y-128720000D01*
X149867621Y-129480000D02*
X149532379Y-129480000D01*
D16*
%TO.C,U5*%
X100952600Y-44573600D02*
X100952600Y-45381093D01*
X100952600Y-47118907D02*
X100952600Y-47926400D01*
X100952600Y-47926400D02*
X101256030Y-47926400D01*
X101256030Y-44573600D02*
X100952600Y-44573600D01*
X103493970Y-47926400D02*
X103797400Y-47926400D01*
X103797400Y-44573600D02*
X103493970Y-44573600D01*
X103797400Y-45381093D02*
X103797400Y-44573600D01*
X103797400Y-47926400D02*
X103797400Y-47118907D01*
D10*
G36*
X102315437Y-48205800D02*
G01*
X101934437Y-48205800D01*
X101934437Y-47951800D01*
X102315437Y-47951800D01*
X102315437Y-48205800D01*
G37*
D13*
%TO.C,D18*%
X93950002Y-135500000D02*
X97810002Y-135500000D01*
X93950002Y-137500000D02*
X97810002Y-137500000D01*
X97810002Y-137500000D02*
X97810002Y-135500000D01*
%TD*%
%LPC*%
D17*
%TO.C,J5*%
X133500000Y-34500000D03*
D18*
X136040000Y-34500000D03*
X138580000Y-34500000D03*
%TD*%
D17*
%TO.C,J7*%
X117000000Y-44000000D03*
D18*
X117000000Y-41460000D03*
%TD*%
D19*
%TO.C,J2*%
X119592500Y-146250000D03*
D20*
X123472500Y-146250000D03*
%TD*%
D17*
%TO.C,J4*%
X91500000Y-34500000D03*
D18*
X94040000Y-34500000D03*
X96580000Y-34500000D03*
%TD*%
D17*
%TO.C,J3*%
X76000002Y-49000000D03*
D18*
X76000002Y-51540000D03*
X76000002Y-54080000D03*
X76000002Y-56620000D03*
%TD*%
D21*
%TO.C,C40*%
X147067502Y-43000000D03*
X145932502Y-43000000D03*
%TD*%
D22*
%TO.C,Q90*%
X140050002Y-47562500D03*
X141950002Y-47562500D03*
X141000002Y-49437500D03*
%TD*%
D23*
%TO.C,R24*%
X83700000Y-63797500D03*
X83700000Y-62602500D03*
%TD*%
D24*
%TO.C,U3*%
X85250002Y-45837500D03*
X85750002Y-45837500D03*
X86250002Y-45837500D03*
X86750002Y-45837500D03*
X87250002Y-45837500D03*
X87750002Y-45837500D03*
X88250002Y-45837500D03*
X88750002Y-45837500D03*
X89250002Y-45837500D03*
X89750002Y-45837500D03*
X90250002Y-45837500D03*
X90750002Y-45837500D03*
D25*
X92162502Y-47250000D03*
X92162502Y-47750000D03*
X92162502Y-48250000D03*
X92162502Y-48750000D03*
X92162502Y-49250000D03*
X92162502Y-49750000D03*
X92162502Y-50250000D03*
X92162502Y-50750000D03*
X92162502Y-51250000D03*
X92162502Y-51750000D03*
X92162502Y-52250000D03*
X92162502Y-52750000D03*
D24*
X90750002Y-54162500D03*
X90250002Y-54162500D03*
X89750002Y-54162500D03*
X89250002Y-54162500D03*
X88750002Y-54162500D03*
X88250002Y-54162500D03*
X87750002Y-54162500D03*
X87250002Y-54162500D03*
X86750002Y-54162500D03*
X86250002Y-54162500D03*
X85750002Y-54162500D03*
X85250002Y-54162500D03*
D25*
X83837502Y-52750000D03*
X83837502Y-52250000D03*
X83837502Y-51750000D03*
X83837502Y-51250000D03*
X83837502Y-50750000D03*
X83837502Y-50250000D03*
X83837502Y-49750000D03*
X83837502Y-49250000D03*
X83837502Y-48750000D03*
X83837502Y-48250000D03*
X83837502Y-47750000D03*
X83837502Y-47250000D03*
%TD*%
D26*
%TO.C,C24*%
X93837502Y-146100000D03*
X95562502Y-146100000D03*
%TD*%
D27*
%TO.C,U1*%
X83150483Y-154049999D03*
X83150483Y-155000000D03*
X83150483Y-155950001D03*
X80849517Y-155950001D03*
X80849517Y-154049999D03*
%TD*%
D28*
%TO.C,D9*%
X79400002Y-148150000D03*
X79400002Y-150650000D03*
%TD*%
D29*
%TO.C,R97*%
X131300002Y-52702500D03*
X131300002Y-53897500D03*
%TD*%
D30*
%TO.C,R164*%
X112550000Y-34000000D03*
X109450000Y-34000000D03*
%TD*%
D21*
%TO.C,C32*%
X83467502Y-46100000D03*
X82332502Y-46100000D03*
%TD*%
D31*
%TO.C,J1*%
X80810000Y-68900000D03*
X80810000Y-63100000D03*
D32*
X82070000Y-69350000D03*
X82070000Y-68550000D03*
X82070000Y-67250000D03*
X82070000Y-66250000D03*
X82070000Y-65750000D03*
X82070000Y-64750000D03*
X82070000Y-63450000D03*
X82070000Y-62650000D03*
X82070000Y-62950000D03*
X82070000Y-63750000D03*
X82070000Y-64250000D03*
X82070000Y-65250000D03*
X82070000Y-66750000D03*
X82070000Y-67750000D03*
X82070000Y-68250000D03*
X82070000Y-69050000D03*
D33*
X77130000Y-70330000D03*
D34*
X81310000Y-70330000D03*
D33*
X77130000Y-61670000D03*
D34*
X81310000Y-61670000D03*
%TD*%
D23*
%TO.C,R32*%
X148500000Y-132097500D03*
X148500000Y-130902500D03*
%TD*%
D35*
%TO.C,R10*%
X85002502Y-151600000D03*
X86197502Y-151600000D03*
%TD*%
D36*
%TO.C,C11*%
X78000000Y-153637500D03*
X78000000Y-155362500D03*
%TD*%
D23*
%TO.C,R36*%
X150700000Y-132097500D03*
X150700000Y-130902500D03*
%TD*%
D37*
%TO.C,Q9*%
X150562502Y-127450000D03*
X150562502Y-125550000D03*
X152437502Y-126500000D03*
%TD*%
D23*
%TO.C,R4*%
X93300000Y-42497500D03*
X93300000Y-41302500D03*
%TD*%
%TO.C,R35*%
X151800000Y-132097500D03*
X151800000Y-130902500D03*
%TD*%
D30*
%TO.C,R165*%
X152050000Y-114000000D03*
X148950000Y-114000000D03*
%TD*%
D26*
%TO.C,C25*%
X93837502Y-144400000D03*
X95562502Y-144400000D03*
%TD*%
D38*
%TO.C,R17*%
X82897502Y-58300000D03*
X81702502Y-58300000D03*
%TD*%
D39*
%TO.C,C30*%
X92532502Y-53900000D03*
X93667502Y-53900000D03*
%TD*%
%TO.C,C38*%
X85732502Y-43700000D03*
X86867502Y-43700000D03*
%TD*%
D38*
%TO.C,R19*%
X85897502Y-150000000D03*
X84702502Y-150000000D03*
%TD*%
D23*
%TO.C,R21*%
X89600000Y-41897500D03*
X89600000Y-40702500D03*
%TD*%
D36*
%TO.C,C60*%
X116200000Y-154137500D03*
X116200000Y-155862500D03*
%TD*%
D22*
%TO.C,Q99*%
X115550002Y-48062500D03*
X117450002Y-48062500D03*
X116500002Y-49937500D03*
%TD*%
D23*
%TO.C,R34*%
X152900000Y-132097500D03*
X152900000Y-130902500D03*
%TD*%
%TO.C,R31*%
X149600000Y-132097500D03*
X149600000Y-130902500D03*
%TD*%
D39*
%TO.C,C51*%
X103365000Y-49000000D03*
X104500000Y-49000000D03*
%TD*%
D38*
%TO.C,R20*%
X83497502Y-44800000D03*
X82302502Y-44800000D03*
%TD*%
D29*
%TO.C,R96*%
X128300002Y-55702500D03*
X128300002Y-56897500D03*
%TD*%
D26*
%TO.C,C20*%
X87437502Y-147800000D03*
X89162502Y-147800000D03*
%TD*%
D38*
%TO.C,R23*%
X92897502Y-139000000D03*
X91702502Y-139000000D03*
%TD*%
D23*
%TO.C,R6*%
X99100000Y-35097500D03*
X99100000Y-33902500D03*
%TD*%
D29*
%TO.C,R95*%
X125300002Y-58702500D03*
X125300002Y-59897500D03*
%TD*%
D40*
%TO.C,C21*%
X89000002Y-141732500D03*
X89000002Y-142867500D03*
%TD*%
D22*
%TO.C,Q91*%
X143550002Y-47562500D03*
X145450002Y-47562500D03*
X144500002Y-49437500D03*
%TD*%
D37*
%TO.C,Q94*%
X151562502Y-43450000D03*
X151562502Y-41550000D03*
X153437502Y-42500000D03*
%TD*%
D40*
%TO.C,C37*%
X88500000Y-40032500D03*
X88500000Y-41167500D03*
%TD*%
D35*
%TO.C,R11*%
X91702500Y-39800000D03*
X92897500Y-39800000D03*
%TD*%
D22*
%TO.C,Q915*%
X136550002Y-47562500D03*
X138450002Y-47562500D03*
X137500002Y-49437500D03*
%TD*%
D38*
%TO.C,R5*%
X92597502Y-137600000D03*
X91402502Y-137600000D03*
%TD*%
D29*
%TO.C,R90*%
X110300002Y-73702500D03*
X110300002Y-74897500D03*
%TD*%
D22*
%TO.C,Q98*%
X112050002Y-48062500D03*
X113950002Y-48062500D03*
X113000002Y-49937500D03*
%TD*%
D21*
%TO.C,C33*%
X91067500Y-43800000D03*
X89932500Y-43800000D03*
%TD*%
D41*
%TO.C,Q2*%
X96837502Y-138650000D03*
X96837502Y-140550000D03*
X94962502Y-139600000D03*
%TD*%
D30*
%TO.C,R166*%
X126550000Y-34000000D03*
X123450000Y-34000000D03*
%TD*%
D26*
%TO.C,C10*%
X79637500Y-158000000D03*
X81362500Y-158000000D03*
%TD*%
D29*
%TO.C,R92*%
X116300002Y-67702500D03*
X116300002Y-68897500D03*
%TD*%
D23*
%TO.C,R9*%
X129700000Y-35397500D03*
X129700000Y-34202500D03*
%TD*%
D35*
%TO.C,R16*%
X81702502Y-59400000D03*
X82897502Y-59400000D03*
%TD*%
D22*
%TO.C,Q911*%
X122550002Y-48062500D03*
X124450002Y-48062500D03*
X123500002Y-49937500D03*
%TD*%
%TO.C,Q912*%
X126050002Y-48062500D03*
X127950002Y-48062500D03*
X127000002Y-49937500D03*
%TD*%
D42*
%TO.C,U4*%
X142000000Y-41445000D03*
X142000000Y-40175000D03*
X142000000Y-38905000D03*
X142000000Y-37635000D03*
X142000000Y-36365000D03*
X142000000Y-35095000D03*
X142000000Y-33825000D03*
X142000000Y-32555000D03*
X147000000Y-32555000D03*
X147000000Y-33825000D03*
X147000000Y-35095000D03*
X147000000Y-36365000D03*
X147000000Y-37635000D03*
X147000000Y-38905000D03*
X147000000Y-40175000D03*
X147000000Y-41445000D03*
%TD*%
D39*
%TO.C,C1*%
X87732502Y-149250000D03*
X88867502Y-149250000D03*
%TD*%
D40*
%TO.C,C31*%
X84200002Y-54432500D03*
X84200002Y-55567500D03*
%TD*%
D43*
%TO.C,D2*%
X89700002Y-135750000D03*
X92500002Y-135750000D03*
%TD*%
D22*
%TO.C,Q914*%
X133050002Y-47562500D03*
X134950002Y-47562500D03*
X134000002Y-49437500D03*
%TD*%
D44*
%TO.C,U8*%
X123555000Y-39000000D03*
X124825000Y-39000000D03*
X126095000Y-39000000D03*
X127365000Y-39000000D03*
X128635000Y-39000000D03*
X129905000Y-39000000D03*
X131175000Y-39000000D03*
X132445000Y-39000000D03*
X132445000Y-44000000D03*
X131175000Y-44000000D03*
X129905000Y-44000000D03*
X128635000Y-44000000D03*
X127365000Y-44000000D03*
X126095000Y-44000000D03*
X124825000Y-44000000D03*
X123555000Y-44000000D03*
%TD*%
D38*
%TO.C,R3*%
X80297500Y-60000000D03*
X79102500Y-60000000D03*
%TD*%
D40*
%TO.C,C34*%
X91100000Y-41532500D03*
X91100000Y-42667500D03*
%TD*%
D30*
%TO.C,R162*%
X152050000Y-122000000D03*
X148950000Y-122000000D03*
%TD*%
D27*
%TO.C,U2*%
X92750485Y-140549999D03*
X92750485Y-141500000D03*
X92750485Y-142450001D03*
X90449519Y-142450001D03*
X90449519Y-140549999D03*
%TD*%
D29*
%TO.C,R2*%
X84000000Y-65002500D03*
X84000000Y-66197500D03*
%TD*%
D45*
%TO.C,C22*%
X91962502Y-144400000D03*
X90237502Y-144400000D03*
%TD*%
%TO.C,C92*%
X153662500Y-129200000D03*
X151937500Y-129200000D03*
%TD*%
D29*
%TO.C,R1*%
X84000000Y-67502500D03*
X84000000Y-68697500D03*
%TD*%
D35*
%TO.C,R50*%
X103202500Y-43300000D03*
X104397500Y-43300000D03*
%TD*%
D39*
%TO.C,C50*%
X104557500Y-45750000D03*
X105692500Y-45750000D03*
%TD*%
D23*
%TO.C,R7*%
X131000002Y-35397500D03*
X131000002Y-34202500D03*
%TD*%
D22*
%TO.C,Q92*%
X147050002Y-47562500D03*
X148950002Y-47562500D03*
X148000002Y-49437500D03*
%TD*%
D35*
%TO.C,R18*%
X84702502Y-148900000D03*
X85897502Y-148900000D03*
%TD*%
D23*
%TO.C,R33*%
X154000000Y-132097500D03*
X154000000Y-130902500D03*
%TD*%
D46*
%TO.C,BT1*%
X138450000Y-108550000D03*
D47*
X87125000Y-113500000D03*
X142875000Y-113500000D03*
X142875000Y-124500000D03*
X87125000Y-124500000D03*
%TD*%
D22*
%TO.C,Q910*%
X119050002Y-48062500D03*
X120950002Y-48062500D03*
X120000002Y-49937500D03*
%TD*%
D29*
%TO.C,R93*%
X119300002Y-64702500D03*
X119300002Y-65897500D03*
%TD*%
D45*
%TO.C,C26*%
X91962502Y-146100000D03*
X90237502Y-146100000D03*
%TD*%
D48*
%TO.C,L20*%
X78350002Y-141500000D03*
X86650002Y-141500000D03*
%TD*%
D23*
%TO.C,R25*%
X84000000Y-71097500D03*
X84000000Y-69902500D03*
%TD*%
D37*
%TO.C,Q96*%
X152062502Y-36450000D03*
X152062502Y-34550000D03*
X153937502Y-35500000D03*
%TD*%
D30*
%TO.C,R167*%
X119550000Y-34000000D03*
X116450000Y-34000000D03*
%TD*%
D23*
%TO.C,R8*%
X100300000Y-35097500D03*
X100300000Y-33902500D03*
%TD*%
D49*
%TO.C,C80*%
X121900000Y-44567500D03*
X121900000Y-43432500D03*
%TD*%
D26*
%TO.C,C23*%
X93837502Y-147800000D03*
X95562502Y-147800000D03*
%TD*%
D35*
%TO.C,R22*%
X89302502Y-139000000D03*
X90497502Y-139000000D03*
%TD*%
D29*
%TO.C,R91*%
X113300002Y-70702500D03*
X113300002Y-71897500D03*
%TD*%
D35*
%TO.C,R61*%
X118202500Y-154500000D03*
X119397500Y-154500000D03*
%TD*%
D30*
%TO.C,R163*%
X152050000Y-118000000D03*
X148950000Y-118000000D03*
%TD*%
D50*
%TO.C,Y1*%
X87025000Y-40150000D03*
X87025000Y-42250000D03*
X85375000Y-42250000D03*
X85375000Y-40150000D03*
%TD*%
D29*
%TO.C,R94*%
X122300002Y-61702500D03*
X122300002Y-62897500D03*
%TD*%
D51*
%TO.C,Q1*%
X83112502Y-150237500D03*
X81212502Y-150237500D03*
X82162502Y-148362500D03*
%TD*%
D23*
%TO.C,R51*%
X102200000Y-49797500D03*
X102200000Y-48602500D03*
%TD*%
D52*
%TO.C,D1*%
X97250002Y-142500000D03*
X94750002Y-142500000D03*
%TD*%
D37*
%TO.C,Q93*%
X151062502Y-46950000D03*
X151062502Y-45050000D03*
X152937502Y-46000000D03*
%TD*%
%TO.C,Q97*%
X152562502Y-32950000D03*
X152562502Y-31050000D03*
X154437502Y-32000000D03*
%TD*%
D23*
%TO.C,R30*%
X92200000Y-43797500D03*
X92200000Y-42602500D03*
%TD*%
D22*
%TO.C,Q913*%
X129550002Y-47562500D03*
X131450002Y-47562500D03*
X130500002Y-49437500D03*
%TD*%
D37*
%TO.C,Q95*%
X152062502Y-39950000D03*
X152062502Y-38050000D03*
X153937502Y-39000000D03*
%TD*%
D35*
%TO.C,R14*%
X149102500Y-129100000D03*
X150297500Y-129100000D03*
%TD*%
D53*
%TO.C,U5*%
X101624811Y-45030800D03*
X102124937Y-45030800D03*
X102625063Y-45030800D03*
X103125189Y-45030800D03*
D54*
X103340200Y-45749874D03*
X103340200Y-46250000D03*
X103340200Y-46750126D03*
D53*
X103125189Y-47469200D03*
X102625063Y-47469200D03*
X102124937Y-47469200D03*
X101624811Y-47469200D03*
D54*
X101409800Y-46750126D03*
X101409800Y-46250000D03*
X101409800Y-45749874D03*
%TD*%
D55*
%TO.C,D18*%
X97000002Y-136500000D03*
X94200002Y-136500000D03*
%TD*%
%LPD*%
M02*
