%TF.GenerationSoftware,KiCad,Pcbnew,8.0.8*%
%TF.CreationDate,2025-07-11T17:58:52+08:00*%
%TF.ProjectId,pcb_badge,7063625f-6261-4646-9765-2e6b69636164,rev?*%
%TF.SameCoordinates,Original*%
%TF.FileFunction,Legend,Top*%
%TF.FilePolarity,Positive*%
%FSLAX46Y46*%
G04 Gerber Fmt 4.6, Leading zero omitted, Abs format (unit mm)*
G04 Created by KiCad (PCBNEW 8.0.8) date 2025-07-11 17:58:52*
%MOMM*%
%LPD*%
G01*
G04 APERTURE LIST*
G04 Aperture macros list*
%AMRoundRect*
0 Rectangle with rounded corners*
0 $1 Rounding radius*
0 $2 $3 $4 $5 $6 $7 $8 $9 X,Y pos of 4 corners*
0 Add a 4 corners polygon primitive as box body*
4,1,4,$2,$3,$4,$5,$6,$7,$8,$9,$2,$3,0*
0 Add four circle primitives for the rounded corners*
1,1,$1+$1,$2,$3*
1,1,$1+$1,$4,$5*
1,1,$1+$1,$6,$7*
1,1,$1+$1,$8,$9*
0 Add four rect primitives between the rounded corners*
20,1,$1+$1,$2,$3,$4,$5,0*
20,1,$1+$1,$4,$5,$6,$7,0*
20,1,$1+$1,$6,$7,$8,$9,0*
20,1,$1+$1,$8,$9,$2,$3,0*%
G04 Aperture macros list end*
%ADD10C,0.150000*%
%ADD11C,0.000000*%
%ADD12C,0.200000*%
%ADD13C,0.120000*%
%ADD14C,0.100000*%
%ADD15C,0.152400*%
%ADD16R,1.700000X1.700000*%
%ADD17O,1.700000X1.700000*%
%ADD18RoundRect,0.160000X-0.222500X-0.160000X0.222500X-0.160000X0.222500X0.160000X-0.222500X0.160000X0*%
%ADD19R,2.200000X2.500000*%
%ADD20R,2.200000X1.550000*%
%ADD21R,1.524000X0.762000*%
%ADD22R,2.500000X2.200000*%
%ADD23R,1.550000X2.200000*%
%ADD24R,0.700000X1.400000*%
%ADD25R,3.000000X3.000000*%
%ADD26C,3.000000*%
%ADD27RoundRect,0.237500X-0.287500X-0.237500X0.287500X-0.237500X0.287500X0.237500X-0.287500X0.237500X0*%
%ADD28RoundRect,0.160000X0.160000X-0.197500X0.160000X0.197500X-0.160000X0.197500X-0.160000X-0.197500X0*%
%ADD29C,0.750000*%
%ADD30O,1.800000X1.200000*%
%ADD31O,2.000000X1.200000*%
%ADD32C,1.800000*%
G04 APERTURE END LIST*
D10*
X83000000Y-80500000D02*
X83000000Y-110500000D01*
X113000000Y-113000000D02*
X113000000Y-123000000D01*
X138000000Y-113000000D02*
X138000000Y-123000000D01*
X80500000Y-113000000D02*
X80500000Y-123000000D01*
X95500000Y-80500000D02*
X95500000Y-110500000D01*
X98000000Y-103000000D02*
X78000000Y-103000000D01*
D11*
G36*
X81724233Y-86866723D02*
G01*
X81762663Y-86870289D01*
X81799277Y-86876217D01*
X81833951Y-86884494D01*
X81866562Y-86895108D01*
X81882055Y-86901287D01*
X81896985Y-86908045D01*
X81911339Y-86915381D01*
X81925098Y-86923293D01*
X81938250Y-86931779D01*
X81950777Y-86940838D01*
X81962665Y-86950469D01*
X81973898Y-86960669D01*
X81984460Y-86971437D01*
X81994337Y-86982772D01*
X82003512Y-86994672D01*
X82011970Y-87007135D01*
X82019697Y-87020159D01*
X82026675Y-87033744D01*
X82032891Y-87047887D01*
X82038328Y-87062588D01*
X82042970Y-87077843D01*
X82046804Y-87093652D01*
X82049812Y-87110013D01*
X82051980Y-87126925D01*
X82053292Y-87144386D01*
X82053733Y-87162394D01*
X82053343Y-87179344D01*
X82052179Y-87195813D01*
X82050253Y-87211797D01*
X82047577Y-87227293D01*
X82044161Y-87242296D01*
X82040016Y-87256803D01*
X82035154Y-87270810D01*
X82029586Y-87284313D01*
X82023323Y-87297309D01*
X82016376Y-87309794D01*
X82008756Y-87321764D01*
X82000476Y-87333216D01*
X81991545Y-87344145D01*
X81981975Y-87354549D01*
X81971778Y-87364422D01*
X81960963Y-87373763D01*
X81949544Y-87382566D01*
X81937530Y-87390828D01*
X81924933Y-87398546D01*
X81911765Y-87405715D01*
X81898036Y-87412332D01*
X81883757Y-87418393D01*
X81868940Y-87423895D01*
X81853596Y-87428833D01*
X81837737Y-87433205D01*
X81821372Y-87437005D01*
X81804514Y-87440231D01*
X81787174Y-87442879D01*
X81769363Y-87444945D01*
X81751092Y-87446426D01*
X81732372Y-87447317D01*
X81713214Y-87447615D01*
X81585156Y-87447615D01*
X81556195Y-87448162D01*
X81529318Y-87449809D01*
X81504496Y-87452564D01*
X81481700Y-87456437D01*
X81460898Y-87461435D01*
X81442062Y-87467567D01*
X81425162Y-87474841D01*
X81417428Y-87478910D01*
X81410167Y-87483267D01*
X81403375Y-87487914D01*
X81397048Y-87492852D01*
X81391183Y-87498082D01*
X81385775Y-87503606D01*
X81380822Y-87509423D01*
X81376319Y-87515536D01*
X81372262Y-87521945D01*
X81368648Y-87528651D01*
X81365474Y-87535656D01*
X81362734Y-87542960D01*
X81360427Y-87550565D01*
X81358547Y-87558472D01*
X81357092Y-87566681D01*
X81356057Y-87575194D01*
X81355233Y-87593135D01*
X81355455Y-87602292D01*
X81356122Y-87611207D01*
X81357235Y-87619877D01*
X81358797Y-87628299D01*
X81360809Y-87636469D01*
X81363272Y-87644384D01*
X81366187Y-87652042D01*
X81369558Y-87659438D01*
X81373384Y-87666570D01*
X81377669Y-87673435D01*
X81382412Y-87680028D01*
X81387617Y-87686348D01*
X81393284Y-87692391D01*
X81399416Y-87698153D01*
X81406013Y-87703632D01*
X81413078Y-87708825D01*
X81420611Y-87713727D01*
X81428615Y-87718336D01*
X81437091Y-87722649D01*
X81446041Y-87726662D01*
X81455467Y-87730373D01*
X81465369Y-87733778D01*
X81475750Y-87736874D01*
X81486611Y-87739657D01*
X81497954Y-87742125D01*
X81509780Y-87744274D01*
X81522091Y-87746102D01*
X81534889Y-87747604D01*
X81548175Y-87748778D01*
X81561950Y-87749620D01*
X81576217Y-87750128D01*
X81590977Y-87750298D01*
X82042091Y-87750298D01*
X82042091Y-87889998D01*
X81593887Y-87889998D01*
X81571301Y-87889625D01*
X81549383Y-87888517D01*
X81528136Y-87886689D01*
X81507564Y-87884154D01*
X81487670Y-87880930D01*
X81468457Y-87877029D01*
X81449928Y-87872468D01*
X81432086Y-87867260D01*
X81414936Y-87861422D01*
X81398479Y-87854968D01*
X81382719Y-87847912D01*
X81367659Y-87840271D01*
X81353303Y-87832058D01*
X81339654Y-87823289D01*
X81326714Y-87813978D01*
X81314487Y-87804141D01*
X81302977Y-87793792D01*
X81292186Y-87782946D01*
X81282118Y-87771619D01*
X81272775Y-87759825D01*
X81264162Y-87747579D01*
X81256280Y-87734896D01*
X81249134Y-87721791D01*
X81242727Y-87708279D01*
X81237062Y-87694374D01*
X81232141Y-87680093D01*
X81227969Y-87665449D01*
X81224549Y-87650457D01*
X81221882Y-87635133D01*
X81219974Y-87619491D01*
X81218827Y-87603547D01*
X81218443Y-87587315D01*
X81218834Y-87571150D01*
X81219996Y-87555400D01*
X81221918Y-87540072D01*
X81224588Y-87525173D01*
X81227994Y-87510709D01*
X81232122Y-87496686D01*
X81236962Y-87483110D01*
X81242500Y-87469989D01*
X81248724Y-87457328D01*
X81255623Y-87445134D01*
X81263184Y-87433413D01*
X81271394Y-87422172D01*
X81280241Y-87411417D01*
X81289714Y-87401154D01*
X81299799Y-87391390D01*
X81310485Y-87382131D01*
X81321760Y-87373384D01*
X81333610Y-87365154D01*
X81346025Y-87357450D01*
X81358990Y-87350275D01*
X81372496Y-87343639D01*
X81386528Y-87337545D01*
X81401075Y-87332002D01*
X81416124Y-87327015D01*
X81431664Y-87322591D01*
X81447682Y-87318736D01*
X81464166Y-87315456D01*
X81481103Y-87312758D01*
X81498481Y-87310649D01*
X81516289Y-87309135D01*
X81534513Y-87308221D01*
X81553141Y-87307915D01*
X81681200Y-87307915D01*
X81708308Y-87307465D01*
X81733945Y-87306091D01*
X81758073Y-87303752D01*
X81780654Y-87300412D01*
X81801649Y-87296031D01*
X81821019Y-87290572D01*
X81838727Y-87283996D01*
X81854733Y-87276265D01*
X81862087Y-87271954D01*
X81869000Y-87267339D01*
X81875470Y-87262417D01*
X81881490Y-87257182D01*
X81887056Y-87251629D01*
X81892163Y-87245754D01*
X81896807Y-87239552D01*
X81900982Y-87233018D01*
X81904683Y-87226146D01*
X81907907Y-87218934D01*
X81910648Y-87211375D01*
X81912902Y-87203464D01*
X81914663Y-87195198D01*
X81915927Y-87186571D01*
X81916688Y-87177578D01*
X81916943Y-87168215D01*
X81916738Y-87159554D01*
X81916120Y-87151037D01*
X81915085Y-87142674D01*
X81913629Y-87134473D01*
X81911750Y-87126442D01*
X81909442Y-87118590D01*
X81906703Y-87110926D01*
X81903528Y-87103459D01*
X81899914Y-87096195D01*
X81895858Y-87089145D01*
X81891355Y-87082317D01*
X81886401Y-87075719D01*
X81880994Y-87069359D01*
X81875128Y-87063247D01*
X81868801Y-87057391D01*
X81862009Y-87051799D01*
X81854748Y-87046480D01*
X81847015Y-87041442D01*
X81838804Y-87036694D01*
X81830114Y-87032244D01*
X81820940Y-87028102D01*
X81811278Y-87024275D01*
X81801125Y-87020772D01*
X81790477Y-87017601D01*
X81779330Y-87014772D01*
X81767680Y-87012292D01*
X81755524Y-87010170D01*
X81742858Y-87008415D01*
X81729679Y-87007035D01*
X81715982Y-87006039D01*
X81701764Y-87005435D01*
X81687021Y-87005232D01*
X81230085Y-87005232D01*
X81230085Y-86865532D01*
X81684145Y-86865532D01*
X81724233Y-86866723D01*
G37*
D10*
X108000000Y-49000000D02*
G75*
G02*
X108500000Y-48500000I500000J0D01*
G01*
X98000000Y-115500000D02*
X78000000Y-115500000D01*
X83000000Y-113000000D02*
X83000000Y-123000000D01*
X105500000Y-120500000D02*
X100500000Y-120500000D01*
X100500000Y-118000000D01*
X105500000Y-118000000D01*
X105500000Y-120500000D01*
G36*
X105500000Y-120500000D02*
G01*
X100500000Y-120500000D01*
X100500000Y-118000000D01*
X105500000Y-118000000D01*
X105500000Y-120500000D01*
G37*
D11*
G36*
X105882881Y-48461365D02*
G01*
X105882881Y-48461365D01*
G75*
G02*
X106382881Y-48961365I19J-500035D01*
G01*
X106382881Y-49961365D01*
G75*
G02*
X105882881Y-50461365I-499981J-35D01*
G01*
X104882881Y-50461365D01*
G75*
G03*
X102382881Y-52961365I19J-2500035D01*
G01*
X102382881Y-55461365D01*
G75*
G02*
X101882881Y-55961365I-499981J-35D01*
G01*
X100882881Y-55961365D01*
G75*
G02*
X100382881Y-55461365I19J499965D01*
G01*
X100382881Y-52961365D01*
G75*
G02*
X104882881Y-48461365I4499999J5D01*
G01*
X105882881Y-48461365D01*
G37*
D10*
X140500000Y-120500000D02*
X100500000Y-120500000D01*
D11*
G36*
X155000000Y-82500000D02*
G01*
X147500000Y-82500000D01*
X147500000Y-82000000D01*
X148500000Y-82000000D01*
X148500000Y-81000000D01*
X149000000Y-81000000D01*
X149000000Y-82000000D01*
X150000000Y-82000000D01*
X150000000Y-81000000D01*
X150500000Y-81000000D01*
X150500000Y-82000000D01*
X151500000Y-82000000D01*
X151500000Y-81000000D01*
X152000000Y-81000000D01*
X152000000Y-82000000D01*
X153000000Y-82000000D01*
X153000000Y-81000000D01*
X153500000Y-81000000D01*
X153500000Y-82000000D01*
X154500000Y-82000000D01*
X154500000Y-81000000D01*
X153500000Y-81000000D01*
X153000000Y-81000000D01*
X152000000Y-81000000D01*
X151500000Y-81000000D01*
X150500000Y-81000000D01*
X150000000Y-81000000D01*
X149000000Y-81000000D01*
X148500000Y-81000000D01*
X147500000Y-81000000D01*
X147500000Y-80500000D01*
X155000000Y-80500000D01*
X155000000Y-82500000D01*
G37*
D10*
X108500000Y-76618384D02*
X156000000Y-76618384D01*
D11*
G36*
X106256116Y-57668852D02*
G01*
X106000000Y-57668852D01*
X106000000Y-56795727D01*
X104629193Y-56795727D01*
X104629193Y-56519237D01*
X106000000Y-56519237D01*
X106000000Y-55646112D01*
X106256116Y-55646112D01*
X106256116Y-57668852D01*
G37*
D10*
X108500000Y-78618384D02*
X156000000Y-78618384D01*
D11*
G36*
X82042091Y-90925561D02*
G01*
X81911123Y-90925561D01*
X81896544Y-90925867D01*
X81882281Y-90926777D01*
X81868345Y-90928283D01*
X81854745Y-90930376D01*
X81841489Y-90933047D01*
X81828589Y-90936286D01*
X81816054Y-90940084D01*
X81803892Y-90944434D01*
X81792114Y-90949324D01*
X81780729Y-90954747D01*
X81769748Y-90960694D01*
X81759178Y-90967154D01*
X81749031Y-90974120D01*
X81739316Y-90981582D01*
X81730041Y-90989531D01*
X81721218Y-90997958D01*
X81712855Y-91006854D01*
X81704962Y-91016210D01*
X81697549Y-91026017D01*
X81690624Y-91036265D01*
X81684199Y-91046947D01*
X81678282Y-91058052D01*
X81672883Y-91069571D01*
X81668012Y-91081496D01*
X81663678Y-91093818D01*
X81659890Y-91106527D01*
X81656659Y-91119614D01*
X81653994Y-91133071D01*
X81651905Y-91146888D01*
X81650400Y-91161056D01*
X81649490Y-91175566D01*
X81649185Y-91190410D01*
X81649185Y-91429064D01*
X81649490Y-91443651D01*
X81650400Y-91457938D01*
X81651905Y-91471913D01*
X81653994Y-91485567D01*
X81656659Y-91498888D01*
X81659890Y-91511866D01*
X81663678Y-91524490D01*
X81668012Y-91536749D01*
X81672883Y-91548634D01*
X81678282Y-91560132D01*
X81684199Y-91571234D01*
X81690624Y-91581929D01*
X81697549Y-91592206D01*
X81704962Y-91602055D01*
X81712855Y-91611464D01*
X81721218Y-91620424D01*
X81730041Y-91628923D01*
X81739316Y-91636952D01*
X81749031Y-91644498D01*
X81759178Y-91651552D01*
X81769748Y-91658103D01*
X81780729Y-91664140D01*
X81792114Y-91669653D01*
X81803892Y-91674631D01*
X81816054Y-91679063D01*
X81828589Y-91682938D01*
X81841489Y-91686247D01*
X81854745Y-91688978D01*
X81868345Y-91691121D01*
X81882281Y-91692664D01*
X81896544Y-91693598D01*
X81911123Y-91693912D01*
X82042091Y-91693912D01*
X82042091Y-91833612D01*
X81911123Y-91833612D01*
X81888717Y-91833137D01*
X81866803Y-91831723D01*
X81845396Y-91829384D01*
X81824509Y-91826137D01*
X81804158Y-91821997D01*
X81784355Y-91816979D01*
X81765117Y-91811098D01*
X81746457Y-91804371D01*
X81728389Y-91796813D01*
X81710928Y-91788438D01*
X81694089Y-91779264D01*
X81677886Y-91769304D01*
X81662332Y-91758575D01*
X81647444Y-91747091D01*
X81633234Y-91734869D01*
X81619717Y-91721924D01*
X81606908Y-91708271D01*
X81594822Y-91693926D01*
X81583471Y-91678904D01*
X81572872Y-91663221D01*
X81563038Y-91646892D01*
X81553983Y-91629933D01*
X81545723Y-91612358D01*
X81538271Y-91594184D01*
X81531642Y-91575426D01*
X81525850Y-91556099D01*
X81520909Y-91536219D01*
X81516835Y-91515802D01*
X81513641Y-91494862D01*
X81511342Y-91473415D01*
X81509952Y-91451478D01*
X81509485Y-91429064D01*
X81509485Y-91379587D01*
X81230085Y-91379587D01*
X81230085Y-91239887D01*
X81509485Y-91239887D01*
X81509485Y-91190411D01*
X81509960Y-91167997D01*
X81511374Y-91146059D01*
X81513711Y-91124612D01*
X81516954Y-91103672D01*
X81521089Y-91083255D01*
X81526099Y-91063375D01*
X81531968Y-91044048D01*
X81538680Y-91025290D01*
X81546219Y-91007116D01*
X81554570Y-90989541D01*
X81563715Y-90972582D01*
X81573639Y-90956253D01*
X81584327Y-90940570D01*
X81595762Y-90925548D01*
X81607928Y-90911203D01*
X81620809Y-90897550D01*
X81634389Y-90884605D01*
X81648652Y-90872383D01*
X81663583Y-90860900D01*
X81679165Y-90850170D01*
X81695382Y-90840211D01*
X81712218Y-90831036D01*
X81729658Y-90822662D01*
X81747685Y-90815103D01*
X81766283Y-90808376D01*
X81785436Y-90802496D01*
X81805129Y-90797478D01*
X81825345Y-90793338D01*
X81846068Y-90790090D01*
X81867283Y-90787752D01*
X81888973Y-90786338D01*
X81911123Y-90785863D01*
X82042091Y-90785863D01*
X82042091Y-90925561D01*
G37*
D10*
X98000000Y-120500000D02*
X78000000Y-120500000D01*
X105500000Y-115500000D02*
X100500000Y-115500000D01*
X100500000Y-113000000D01*
X105500000Y-113000000D01*
X105500000Y-115500000D01*
G36*
X105500000Y-115500000D02*
G01*
X100500000Y-115500000D01*
X100500000Y-113000000D01*
X105500000Y-113000000D01*
X105500000Y-115500000D01*
G37*
X130500000Y-113000000D02*
X130500000Y-123000000D01*
X93000000Y-80500000D02*
X93000000Y-110500000D01*
X140500000Y-118000000D02*
X100500000Y-118000000D01*
X103000000Y-113000000D02*
X103000000Y-123000000D01*
D11*
G36*
X79395899Y-86203148D02*
G01*
X79434330Y-86206714D01*
X79470944Y-86212642D01*
X79505618Y-86220919D01*
X79538228Y-86231533D01*
X79553721Y-86237712D01*
X79568652Y-86244470D01*
X79583005Y-86251806D01*
X79596765Y-86259718D01*
X79609916Y-86268204D01*
X79622444Y-86277263D01*
X79634332Y-86286894D01*
X79645564Y-86297094D01*
X79656127Y-86307862D01*
X79666003Y-86319197D01*
X79675179Y-86331097D01*
X79683637Y-86343560D01*
X79691363Y-86356584D01*
X79698342Y-86370169D01*
X79704557Y-86384312D01*
X79709994Y-86399013D01*
X79714637Y-86414268D01*
X79718470Y-86430077D01*
X79721479Y-86446438D01*
X79723647Y-86463350D01*
X79724959Y-86480811D01*
X79725400Y-86498819D01*
X79725009Y-86515769D01*
X79723846Y-86532238D01*
X79721920Y-86548222D01*
X79719244Y-86563717D01*
X79715827Y-86578720D01*
X79711683Y-86593227D01*
X79706821Y-86607234D01*
X79701252Y-86620738D01*
X79694989Y-86633734D01*
X79688043Y-86646219D01*
X79680423Y-86658189D01*
X79672143Y-86669640D01*
X79663212Y-86680570D01*
X79653642Y-86690973D01*
X79643444Y-86700847D01*
X79632630Y-86710187D01*
X79621211Y-86718990D01*
X79609197Y-86727253D01*
X79596600Y-86734970D01*
X79583432Y-86742139D01*
X79569703Y-86748756D01*
X79555424Y-86754818D01*
X79540607Y-86760319D01*
X79525263Y-86765258D01*
X79509403Y-86769629D01*
X79493039Y-86773430D01*
X79476181Y-86776656D01*
X79458841Y-86779304D01*
X79441030Y-86781370D01*
X79422758Y-86782850D01*
X79404039Y-86783741D01*
X79384881Y-86784039D01*
X79256823Y-86784039D01*
X79227861Y-86784586D01*
X79200985Y-86786233D01*
X79176163Y-86788989D01*
X79153367Y-86792861D01*
X79132565Y-86797859D01*
X79113729Y-86803991D01*
X79096829Y-86811266D01*
X79089095Y-86815334D01*
X79081834Y-86819692D01*
X79075042Y-86824339D01*
X79068715Y-86829277D01*
X79062850Y-86834507D01*
X79057442Y-86840031D01*
X79052489Y-86845848D01*
X79047986Y-86851961D01*
X79043929Y-86858370D01*
X79040315Y-86865076D01*
X79037141Y-86872081D01*
X79034401Y-86879385D01*
X79032094Y-86886990D01*
X79030214Y-86894896D01*
X79028759Y-86903106D01*
X79027724Y-86911619D01*
X79026900Y-86929560D01*
X79027122Y-86938717D01*
X79027789Y-86947632D01*
X79028902Y-86956302D01*
X79030464Y-86964724D01*
X79032476Y-86972894D01*
X79034939Y-86980809D01*
X79037854Y-86988467D01*
X79041225Y-86995863D01*
X79045051Y-87002995D01*
X79049336Y-87009860D01*
X79054079Y-87016453D01*
X79059284Y-87022773D01*
X79064951Y-87028816D01*
X79071083Y-87034578D01*
X79077680Y-87040057D01*
X79084745Y-87045249D01*
X79092278Y-87050152D01*
X79100282Y-87054761D01*
X79108758Y-87059074D01*
X79117708Y-87063087D01*
X79127134Y-87066798D01*
X79137036Y-87070202D01*
X79147417Y-87073298D01*
X79158278Y-87076081D01*
X79169621Y-87078549D01*
X79181447Y-87080699D01*
X79193758Y-87082526D01*
X79206556Y-87084028D01*
X79219842Y-87085202D01*
X79233617Y-87086045D01*
X79247884Y-87086553D01*
X79262644Y-87086723D01*
X79710848Y-87086723D01*
X79710848Y-87226423D01*
X79262644Y-87226423D01*
X79240057Y-87226050D01*
X79218139Y-87224942D01*
X79196893Y-87223113D01*
X79176320Y-87220579D01*
X79156426Y-87217354D01*
X79137213Y-87213454D01*
X79118684Y-87208892D01*
X79100843Y-87203685D01*
X79083692Y-87197847D01*
X79067235Y-87191392D01*
X79051475Y-87184337D01*
X79036416Y-87176695D01*
X79022060Y-87168482D01*
X79008410Y-87159713D01*
X78995470Y-87150402D01*
X78983244Y-87140565D01*
X78971733Y-87130216D01*
X78960942Y-87119371D01*
X78950874Y-87108044D01*
X78941532Y-87096250D01*
X78932918Y-87084004D01*
X78925037Y-87071321D01*
X78917891Y-87058216D01*
X78911484Y-87044703D01*
X78905818Y-87030799D01*
X78900898Y-87016517D01*
X78896726Y-87001873D01*
X78893305Y-86986881D01*
X78890639Y-86971557D01*
X78888730Y-86955916D01*
X78887583Y-86939971D01*
X78887200Y-86923739D01*
X78887590Y-86907573D01*
X78888753Y-86891824D01*
X78890675Y-86876496D01*
X78893345Y-86861597D01*
X78896750Y-86847133D01*
X78900879Y-86833109D01*
X78905718Y-86819534D01*
X78911256Y-86806413D01*
X78917481Y-86793752D01*
X78924380Y-86781558D01*
X78931940Y-86769837D01*
X78940150Y-86758596D01*
X78948998Y-86747840D01*
X78958470Y-86737577D01*
X78968556Y-86727813D01*
X78979242Y-86718555D01*
X78990516Y-86709807D01*
X79002367Y-86701578D01*
X79014781Y-86693873D01*
X79027747Y-86686699D01*
X79041252Y-86680062D01*
X79055284Y-86673969D01*
X79069831Y-86668426D01*
X79084881Y-86663439D01*
X79100421Y-86659014D01*
X79116439Y-86655159D01*
X79132922Y-86651880D01*
X79149859Y-86649182D01*
X79167238Y-86647073D01*
X79185045Y-86645558D01*
X79203269Y-86644645D01*
X79221898Y-86644339D01*
X79349956Y-86644339D01*
X79377064Y-86643889D01*
X79402702Y-86642514D01*
X79426830Y-86640176D01*
X79449411Y-86636836D01*
X79470405Y-86632455D01*
X79489776Y-86626996D01*
X79507483Y-86620420D01*
X79523490Y-86612689D01*
X79530843Y-86608378D01*
X79537757Y-86603763D01*
X79544226Y-86598841D01*
X79550246Y-86593606D01*
X79555812Y-86588053D01*
X79560919Y-86582178D01*
X79565563Y-86575976D01*
X79569738Y-86569442D01*
X79573440Y-86562571D01*
X79576664Y-86555358D01*
X79579405Y-86547799D01*
X79581658Y-86539888D01*
X79583419Y-86531622D01*
X79584683Y-86522995D01*
X79585445Y-86514002D01*
X79585700Y-86504639D01*
X79585495Y-86495978D01*
X79584876Y-86487461D01*
X79583841Y-86479098D01*
X79582386Y-86470897D01*
X79580506Y-86462866D01*
X79578199Y-86455015D01*
X79575459Y-86447351D01*
X79572285Y-86439883D01*
X79568671Y-86432620D01*
X79564614Y-86425570D01*
X79560111Y-86418741D01*
X79555158Y-86412143D01*
X79549750Y-86405784D01*
X79543885Y-86399671D01*
X79537558Y-86393815D01*
X79530766Y-86388223D01*
X79523505Y-86382904D01*
X79515771Y-86377866D01*
X79507561Y-86373118D01*
X79498871Y-86368669D01*
X79489696Y-86364526D01*
X79480035Y-86360699D01*
X79469882Y-86357196D01*
X79459233Y-86354026D01*
X79448086Y-86351196D01*
X79436437Y-86348717D01*
X79424281Y-86346595D01*
X79411615Y-86344840D01*
X79398435Y-86343460D01*
X79384738Y-86342464D01*
X79370520Y-86341860D01*
X79355777Y-86341657D01*
X78898842Y-86341657D01*
X78898842Y-86201957D01*
X79355777Y-86201957D01*
X79355777Y-86201956D01*
X79395899Y-86203148D01*
G37*
G36*
X79587662Y-98705387D02*
G01*
X79599303Y-98708297D01*
X79616766Y-98714118D01*
X79634228Y-98722849D01*
X79657512Y-98731580D01*
X79680795Y-98743222D01*
X79704078Y-98757774D01*
X79718631Y-98763595D01*
X79730272Y-98772326D01*
X79744824Y-98783968D01*
X79759376Y-98792699D01*
X79771018Y-98804341D01*
X79785570Y-98815982D01*
X79800122Y-98827624D01*
X79811764Y-98842176D01*
X79826316Y-98856728D01*
X79837958Y-98871280D01*
X79849599Y-98888743D01*
X79861241Y-98903295D01*
X79872883Y-98923668D01*
X79884524Y-98941130D01*
X79893256Y-98961503D01*
X79901987Y-98981876D01*
X79901987Y-98978966D01*
X79904897Y-98987697D01*
X79907808Y-98993518D01*
X79910718Y-99002249D01*
X79910718Y-99048816D01*
X79904897Y-99057547D01*
X79901987Y-99072099D01*
X79896166Y-99089562D01*
X79890345Y-99107024D01*
X79881614Y-99124487D01*
X79872883Y-99141949D01*
X79855420Y-99176874D01*
X79849599Y-99194337D01*
X79840868Y-99214709D01*
X79832137Y-99232172D01*
X79826316Y-99252545D01*
X79797212Y-99354409D01*
X79788481Y-99377693D01*
X79779749Y-99400976D01*
X79771018Y-99424260D01*
X79762287Y-99444632D01*
X79750645Y-99465005D01*
X79739003Y-99485378D01*
X79733183Y-99494109D01*
X79724451Y-99499930D01*
X79718631Y-99508662D01*
X79709899Y-99517393D01*
X79701168Y-99523214D01*
X79692437Y-99529034D01*
X79683706Y-99534855D01*
X79672064Y-99540676D01*
X79660422Y-99543587D01*
X79651691Y-99549407D01*
X79637139Y-99552318D01*
X79625497Y-99555228D01*
X79584751Y-99558139D01*
X79546916Y-99561049D01*
X79509081Y-99563960D01*
X79474156Y-99563960D01*
X79445051Y-99561049D01*
X79415947Y-99558139D01*
X79389753Y-99555228D01*
X79363560Y-99552318D01*
X79343187Y-99546497D01*
X79325724Y-99543587D01*
X79296620Y-99531945D01*
X79273337Y-99523214D01*
X79267516Y-99514482D01*
X79261695Y-99505751D01*
X79255874Y-99491199D01*
X79250053Y-99473737D01*
X79247143Y-99462095D01*
X79244233Y-99453364D01*
X79238412Y-99438812D01*
X79238412Y-99427170D01*
X79235501Y-99412618D01*
X79232591Y-99395155D01*
X79229681Y-99380603D01*
X79229681Y-99325305D01*
X79232591Y-99304932D01*
X79232591Y-99281649D01*
X79238412Y-99258366D01*
X79241322Y-99235082D01*
X79247143Y-99211799D01*
X79252964Y-99185605D01*
X79261695Y-99159412D01*
X79270426Y-99133218D01*
X79282068Y-99104114D01*
X79293710Y-99075010D01*
X79308262Y-99042995D01*
X79322814Y-99010980D01*
X79354828Y-98952772D01*
X79383933Y-98900385D01*
X79410126Y-98856728D01*
X79436320Y-98818893D01*
X79459603Y-98789789D01*
X79479976Y-98763595D01*
X79497439Y-98743222D01*
X79514901Y-98728670D01*
X79529453Y-98717028D01*
X79544006Y-98711207D01*
X79552737Y-98705387D01*
X79561468Y-98702476D01*
X79578931Y-98702476D01*
X79587662Y-98705387D01*
G37*
D10*
X98000000Y-90500000D02*
X83000000Y-90500000D01*
X139500000Y-139000000D02*
X137000000Y-140500000D01*
X137000000Y-137500000D01*
X139500000Y-139000000D01*
G36*
X139500000Y-139000000D02*
G01*
X137000000Y-140500000D01*
X137000000Y-137500000D01*
X139500000Y-139000000D01*
G37*
D11*
G36*
X82042091Y-84531377D02*
G01*
X81914033Y-84531377D01*
X81914033Y-83661163D01*
X81698662Y-83661163D01*
X81698662Y-84298544D01*
X81570604Y-84298544D01*
X81570604Y-83661162D01*
X81355233Y-83661162D01*
X81355233Y-84531377D01*
X81227175Y-84531377D01*
X81227175Y-83521462D01*
X82042091Y-83521462D01*
X82042091Y-84531377D01*
G37*
D10*
X108000000Y-77118384D02*
X108000000Y-78118384D01*
D11*
G36*
X105058153Y-70740170D02*
G01*
X105087718Y-70742065D01*
X105116596Y-70745198D01*
X105144769Y-70749549D01*
X105172217Y-70755099D01*
X105198922Y-70761826D01*
X105224863Y-70769711D01*
X105250022Y-70778733D01*
X105274379Y-70788872D01*
X105297916Y-70800108D01*
X105320612Y-70812420D01*
X105342450Y-70825789D01*
X105363410Y-70840193D01*
X105383472Y-70855613D01*
X105402617Y-70872029D01*
X105420827Y-70889420D01*
X105438081Y-70907765D01*
X105454362Y-70927046D01*
X105469649Y-70947241D01*
X105483924Y-70968330D01*
X105497166Y-70990294D01*
X105509358Y-71013111D01*
X105520480Y-71036761D01*
X105530513Y-71061225D01*
X105539437Y-71086482D01*
X105547234Y-71112511D01*
X105553883Y-71139293D01*
X105559367Y-71166807D01*
X105563665Y-71195033D01*
X105566760Y-71223951D01*
X105568630Y-71253540D01*
X105569258Y-71283781D01*
X105569258Y-72197651D01*
X105569512Y-72209536D01*
X105570270Y-72221173D01*
X105571522Y-72232555D01*
X105573260Y-72243672D01*
X105575475Y-72254517D01*
X105578160Y-72265080D01*
X105581305Y-72275353D01*
X105584901Y-72285328D01*
X105588942Y-72294995D01*
X105593417Y-72304348D01*
X105598318Y-72313376D01*
X105603637Y-72322072D01*
X105609366Y-72330426D01*
X105615495Y-72338431D01*
X105622016Y-72346078D01*
X105628921Y-72353358D01*
X105636202Y-72360264D01*
X105643849Y-72366785D01*
X105651854Y-72372914D01*
X105660208Y-72378643D01*
X105668904Y-72383962D01*
X105677932Y-72388863D01*
X105687285Y-72393338D01*
X105696952Y-72397378D01*
X105706927Y-72400975D01*
X105717200Y-72404120D01*
X105727763Y-72406804D01*
X105738608Y-72409020D01*
X105749725Y-72410758D01*
X105761107Y-72412010D01*
X105772744Y-72412767D01*
X105784629Y-72413022D01*
X105796513Y-72412767D01*
X105808151Y-72412010D01*
X105819532Y-72410758D01*
X105830650Y-72409020D01*
X105841494Y-72406804D01*
X105852057Y-72404120D01*
X105862330Y-72400975D01*
X105872305Y-72397378D01*
X105881973Y-72393338D01*
X105891325Y-72388863D01*
X105900353Y-72383961D01*
X105909049Y-72378642D01*
X105917404Y-72372913D01*
X105925409Y-72366784D01*
X105933056Y-72360263D01*
X105940336Y-72353358D01*
X105947241Y-72346077D01*
X105953763Y-72338430D01*
X105959892Y-72330425D01*
X105965620Y-72322071D01*
X105970939Y-72313375D01*
X105975841Y-72304347D01*
X105980316Y-72294994D01*
X105984356Y-72285327D01*
X105987953Y-72275352D01*
X105991098Y-72265079D01*
X105993782Y-72254516D01*
X105995998Y-72243672D01*
X105997736Y-72232555D01*
X105998988Y-72221173D01*
X105999745Y-72209536D01*
X106000000Y-72197651D01*
X106000000Y-70786101D01*
X106256116Y-70786101D01*
X106256116Y-72226756D01*
X106255573Y-72252674D01*
X106253956Y-72278029D01*
X106251282Y-72302805D01*
X106247567Y-72326983D01*
X106242829Y-72350548D01*
X106237085Y-72373482D01*
X106230352Y-72395767D01*
X106222646Y-72417388D01*
X106213986Y-72438326D01*
X106204388Y-72458566D01*
X106193869Y-72478089D01*
X106182446Y-72496878D01*
X106170137Y-72514918D01*
X106156957Y-72532190D01*
X106142925Y-72548677D01*
X106128058Y-72564363D01*
X106112372Y-72579231D01*
X106095884Y-72593263D01*
X106078612Y-72606442D01*
X106060573Y-72618752D01*
X106041783Y-72630174D01*
X106022260Y-72640693D01*
X106002020Y-72650291D01*
X105981082Y-72658952D01*
X105959461Y-72666657D01*
X105937175Y-72673390D01*
X105914242Y-72679134D01*
X105890677Y-72683872D01*
X105866498Y-72687587D01*
X105841723Y-72690261D01*
X105816368Y-72691878D01*
X105790450Y-72692421D01*
X105778808Y-72692421D01*
X105753154Y-72691878D01*
X105728047Y-72690261D01*
X105703503Y-72687587D01*
X105679541Y-72683872D01*
X105656178Y-72679134D01*
X105633431Y-72673390D01*
X105611319Y-72666657D01*
X105589858Y-72658952D01*
X105569067Y-72650291D01*
X105548962Y-72640693D01*
X105529563Y-72630174D01*
X105510885Y-72618752D01*
X105492947Y-72606442D01*
X105475766Y-72593263D01*
X105459360Y-72579231D01*
X105443746Y-72564363D01*
X105428943Y-72548677D01*
X105414967Y-72532190D01*
X105401836Y-72514918D01*
X105389568Y-72496878D01*
X105378181Y-72478089D01*
X105367691Y-72458566D01*
X105358117Y-72438326D01*
X105349476Y-72417388D01*
X105341786Y-72395767D01*
X105335064Y-72373482D01*
X105329328Y-72350548D01*
X105324595Y-72326983D01*
X105320884Y-72302805D01*
X105318211Y-72278029D01*
X105316594Y-72252674D01*
X105316052Y-72226756D01*
X105316052Y-71330348D01*
X105315695Y-71312810D01*
X105314633Y-71295675D01*
X105312874Y-71278952D01*
X105310430Y-71262652D01*
X105307310Y-71246784D01*
X105303524Y-71231360D01*
X105299083Y-71216388D01*
X105293996Y-71201880D01*
X105288274Y-71187844D01*
X105281927Y-71174293D01*
X105274966Y-71161234D01*
X105267399Y-71148679D01*
X105259237Y-71136638D01*
X105250491Y-71125121D01*
X105241171Y-71114138D01*
X105231286Y-71103699D01*
X105220847Y-71093814D01*
X105209863Y-71084493D01*
X105198346Y-71075747D01*
X105186305Y-71067586D01*
X105173750Y-71060019D01*
X105160692Y-71053057D01*
X105147140Y-71046710D01*
X105133105Y-71040989D01*
X105118596Y-71035902D01*
X105103625Y-71031461D01*
X105088200Y-71027675D01*
X105072333Y-71024555D01*
X105056033Y-71022111D01*
X105039310Y-71020352D01*
X105022175Y-71019290D01*
X105004637Y-71018933D01*
X104908593Y-71018933D01*
X104908593Y-72692421D01*
X104629193Y-72692421D01*
X104629193Y-70739534D01*
X105027920Y-70739534D01*
X105058153Y-70740170D01*
G37*
G36*
X105449931Y-68422841D02*
G01*
X105494750Y-68423783D01*
X105538602Y-68426587D01*
X105581456Y-68431225D01*
X105623282Y-68437666D01*
X105664052Y-68445881D01*
X105703734Y-68455839D01*
X105742299Y-68467512D01*
X105779717Y-68480868D01*
X105815959Y-68495878D01*
X105850994Y-68512513D01*
X105884793Y-68530742D01*
X105917325Y-68550536D01*
X105948562Y-68571865D01*
X105978473Y-68594698D01*
X106007028Y-68619007D01*
X106034197Y-68644761D01*
X106059951Y-68671930D01*
X106084259Y-68700485D01*
X106107093Y-68730396D01*
X106128422Y-68761632D01*
X106148215Y-68794165D01*
X106166445Y-68827964D01*
X106183079Y-68862999D01*
X106198090Y-68899240D01*
X106211446Y-68936659D01*
X106223118Y-68975224D01*
X106233077Y-69014906D01*
X106241291Y-69055675D01*
X106247732Y-69097502D01*
X106252370Y-69140356D01*
X106255175Y-69184207D01*
X106256116Y-69229027D01*
X106256116Y-69729619D01*
X106255183Y-69774438D01*
X106252399Y-69818290D01*
X106247792Y-69861144D01*
X106241388Y-69902971D01*
X106233212Y-69943740D01*
X106223291Y-69983422D01*
X106211650Y-70021987D01*
X106198317Y-70059406D01*
X106183317Y-70095647D01*
X106166676Y-70130682D01*
X106148420Y-70164481D01*
X106128575Y-70197014D01*
X106107168Y-70228250D01*
X106084225Y-70258161D01*
X106059771Y-70286716D01*
X106033833Y-70313885D01*
X106006437Y-70339639D01*
X105977609Y-70363947D01*
X105947376Y-70386781D01*
X105915762Y-70408109D01*
X105882795Y-70427903D01*
X105848501Y-70446132D01*
X105812905Y-70462767D01*
X105776034Y-70477777D01*
X105737914Y-70491133D01*
X105698570Y-70502806D01*
X105658030Y-70512764D01*
X105616319Y-70520979D01*
X105573463Y-70527420D01*
X105529489Y-70532057D01*
X105484422Y-70534862D01*
X105438289Y-70535803D01*
X105392181Y-70534862D01*
X105347187Y-70532057D01*
X105303331Y-70527420D01*
X105260634Y-70520978D01*
X105219121Y-70512764D01*
X105178814Y-70502805D01*
X105139735Y-70491133D01*
X105101909Y-70477777D01*
X105065357Y-70462766D01*
X105030103Y-70446132D01*
X104996169Y-70427903D01*
X104963579Y-70408109D01*
X104932355Y-70386780D01*
X104902520Y-70363947D01*
X104874098Y-70339638D01*
X104847111Y-70313884D01*
X104821582Y-70286715D01*
X104797534Y-70258160D01*
X104774989Y-70228249D01*
X104753972Y-70197013D01*
X104734504Y-70164480D01*
X104716609Y-70130681D01*
X104700309Y-70095646D01*
X104685628Y-70059404D01*
X104672588Y-70021986D01*
X104661213Y-69983421D01*
X104651525Y-69943739D01*
X104643546Y-69902970D01*
X104637301Y-69861143D01*
X104632812Y-69818289D01*
X104630102Y-69774437D01*
X104629252Y-69732529D01*
X104629193Y-69729618D01*
X104629193Y-69231937D01*
X104908593Y-69231937D01*
X104908593Y-69732529D01*
X104909212Y-69761951D01*
X104911056Y-69790724D01*
X104914104Y-69818828D01*
X104918336Y-69846246D01*
X104923732Y-69872957D01*
X104930272Y-69898945D01*
X104937935Y-69924190D01*
X104946702Y-69948673D01*
X104956551Y-69972376D01*
X104967462Y-69995280D01*
X104979417Y-70017367D01*
X104992393Y-70038617D01*
X105006371Y-70059013D01*
X105021331Y-70078535D01*
X105037252Y-70097165D01*
X105054114Y-70114885D01*
X105071897Y-70131675D01*
X105090581Y-70147517D01*
X105110145Y-70162392D01*
X105130569Y-70176282D01*
X105151834Y-70189168D01*
X105173917Y-70201031D01*
X105196800Y-70211853D01*
X105220463Y-70221615D01*
X105244884Y-70230298D01*
X105270043Y-70237884D01*
X105295922Y-70244354D01*
X105322498Y-70249690D01*
X105349752Y-70253872D01*
X105377663Y-70256883D01*
X105406212Y-70258703D01*
X105435379Y-70259314D01*
X105460274Y-70258873D01*
X105484748Y-70257563D01*
X105508786Y-70255400D01*
X105532377Y-70252402D01*
X105555508Y-70248585D01*
X105578165Y-70243966D01*
X105600337Y-70238563D01*
X105622009Y-70232393D01*
X105643170Y-70225472D01*
X105663807Y-70217818D01*
X105683906Y-70209448D01*
X105703455Y-70200378D01*
X105722442Y-70190627D01*
X105740853Y-70180210D01*
X105758676Y-70169145D01*
X105775897Y-70157450D01*
X104959821Y-68984159D01*
X104954637Y-68995419D01*
X104948703Y-69009466D01*
X104943177Y-69023777D01*
X104938061Y-69038348D01*
X104933355Y-69053176D01*
X104929057Y-69068254D01*
X104925169Y-69083580D01*
X104921690Y-69099149D01*
X104918621Y-69114957D01*
X104915960Y-69130999D01*
X104913709Y-69147271D01*
X104911868Y-69163770D01*
X104910435Y-69180489D01*
X104909412Y-69197427D01*
X104908798Y-69214577D01*
X104908593Y-69231937D01*
X104629193Y-69231937D01*
X104629193Y-69229026D01*
X104630135Y-69184206D01*
X104632939Y-69140355D01*
X104637577Y-69097501D01*
X104644018Y-69055674D01*
X104652233Y-69014905D01*
X104662191Y-68975223D01*
X104673864Y-68936658D01*
X104687220Y-68899239D01*
X104702230Y-68862998D01*
X104718865Y-68827962D01*
X104737094Y-68794164D01*
X104743441Y-68783733D01*
X104743442Y-68783732D01*
X105135606Y-68783732D01*
X105135606Y-68783733D01*
X105938881Y-69942078D01*
X105947191Y-69917789D01*
X105954615Y-69892920D01*
X105957973Y-69880257D01*
X105961084Y-69867436D01*
X105963939Y-69854454D01*
X105966530Y-69841305D01*
X105968848Y-69827986D01*
X105970884Y-69814492D01*
X105972631Y-69800819D01*
X105974079Y-69786962D01*
X105975220Y-69772918D01*
X105976045Y-69758682D01*
X105976547Y-69744250D01*
X105976716Y-69729618D01*
X105976716Y-69229026D01*
X105976097Y-69199603D01*
X105974253Y-69170831D01*
X105971205Y-69142727D01*
X105966973Y-69115309D01*
X105961577Y-69088597D01*
X105955037Y-69062610D01*
X105947374Y-69037365D01*
X105938608Y-69012882D01*
X105928759Y-68989179D01*
X105917847Y-68966275D01*
X105905893Y-68944188D01*
X105892917Y-68922937D01*
X105878939Y-68902542D01*
X105863979Y-68883019D01*
X105848058Y-68864389D01*
X105831195Y-68846670D01*
X105813412Y-68829879D01*
X105794728Y-68814037D01*
X105775164Y-68799162D01*
X105754740Y-68785272D01*
X105733476Y-68772386D01*
X105711392Y-68760523D01*
X105688509Y-68749701D01*
X105664847Y-68739939D01*
X105640426Y-68731256D01*
X105615266Y-68723669D01*
X105589388Y-68717199D01*
X105562812Y-68711864D01*
X105535558Y-68707681D01*
X105507646Y-68704671D01*
X105479097Y-68702851D01*
X105449931Y-68702240D01*
X105435379Y-68702240D01*
X105413755Y-68702580D01*
X105392535Y-68703593D01*
X105371717Y-68705271D01*
X105351295Y-68707606D01*
X105331265Y-68710589D01*
X105311623Y-68714211D01*
X105292365Y-68718464D01*
X105273487Y-68723340D01*
X105254983Y-68728830D01*
X105236851Y-68734925D01*
X105219085Y-68741617D01*
X105201681Y-68748897D01*
X105184636Y-68756757D01*
X105167944Y-68765189D01*
X105151602Y-68774183D01*
X105135606Y-68783732D01*
X104743442Y-68783732D01*
X104756888Y-68761631D01*
X104778216Y-68730395D01*
X104801050Y-68700484D01*
X104825359Y-68671929D01*
X104851113Y-68644760D01*
X104878282Y-68619006D01*
X104906837Y-68594697D01*
X104936747Y-68571864D01*
X104967984Y-68550535D01*
X105000517Y-68530741D01*
X105034315Y-68512512D01*
X105069350Y-68495877D01*
X105105592Y-68480867D01*
X105143010Y-68467511D01*
X105181576Y-68455838D01*
X105221258Y-68445880D01*
X105262027Y-68437665D01*
X105303854Y-68431224D01*
X105346708Y-68426586D01*
X105390559Y-68423782D01*
X105435379Y-68422840D01*
X105449931Y-68422840D01*
X105449931Y-68422841D01*
G37*
G36*
X79608035Y-98245541D02*
G01*
X79610945Y-98248451D01*
X79610945Y-98280466D01*
X79608035Y-98283376D01*
X79608035Y-98289197D01*
X79605124Y-98295018D01*
X79602214Y-98303749D01*
X79602214Y-98300839D01*
X79587662Y-98327032D01*
X79570199Y-98353226D01*
X79549826Y-98385241D01*
X79526543Y-98414345D01*
X79500349Y-98449270D01*
X79468335Y-98481285D01*
X79436320Y-98516210D01*
X79404306Y-98551135D01*
X79331545Y-98623895D01*
X79255874Y-98696655D01*
X79104533Y-98839266D01*
X79322814Y-98574418D01*
X79479976Y-98379420D01*
X79538185Y-98309570D01*
X79555647Y-98283376D01*
X79564378Y-98268824D01*
X79567289Y-98263003D01*
X79570199Y-98260093D01*
X79573110Y-98257182D01*
X79576020Y-98254272D01*
X79578931Y-98251362D01*
X79578931Y-98248451D01*
X79581841Y-98245541D01*
X79584751Y-98242630D01*
X79587662Y-98239720D01*
X79605124Y-98239720D01*
X79608035Y-98245541D01*
G37*
D10*
X98000000Y-123000000D02*
X78000000Y-123000000D01*
D11*
G36*
X82042091Y-88978494D02*
G01*
X81914033Y-88978494D01*
X81914033Y-88541931D01*
X81230085Y-88541931D01*
X81230085Y-88402231D01*
X81914033Y-88402231D01*
X81914033Y-87965669D01*
X82042091Y-87965669D01*
X82042091Y-88978494D01*
G37*
D10*
X118000000Y-113000000D02*
X118000000Y-123000000D01*
X80500000Y-95500000D02*
X98000000Y-95500000D01*
D11*
G36*
X105494750Y-59835143D02*
G01*
X105538602Y-59837948D01*
X105581456Y-59842586D01*
X105623282Y-59849027D01*
X105664052Y-59857241D01*
X105703734Y-59867200D01*
X105742299Y-59878872D01*
X105779717Y-59892228D01*
X105815959Y-59907239D01*
X105850994Y-59923873D01*
X105884793Y-59942102D01*
X105917325Y-59961896D01*
X105948562Y-59983225D01*
X105978473Y-60006058D01*
X106007028Y-60030367D01*
X106034197Y-60056121D01*
X106059951Y-60083290D01*
X106084259Y-60111845D01*
X106107093Y-60141756D01*
X106128422Y-60172992D01*
X106148215Y-60205525D01*
X106166445Y-60239324D01*
X106183079Y-60274359D01*
X106198090Y-60310600D01*
X106211446Y-60348019D01*
X106223118Y-60386584D01*
X106233077Y-60426266D01*
X106241291Y-60467035D01*
X106247732Y-60508862D01*
X106252370Y-60551716D01*
X106255175Y-60595568D01*
X106256116Y-60640387D01*
X106256116Y-61350529D01*
X106255183Y-61395349D01*
X106252399Y-61439200D01*
X106247792Y-61482054D01*
X106241388Y-61523881D01*
X106233212Y-61564650D01*
X106223291Y-61604332D01*
X106211650Y-61642897D01*
X106198317Y-61680315D01*
X106183317Y-61716557D01*
X106166676Y-61751592D01*
X106148420Y-61785391D01*
X106128575Y-61817923D01*
X106107168Y-61849160D01*
X106084225Y-61879070D01*
X106059771Y-61907625D01*
X106033833Y-61934795D01*
X106006437Y-61960549D01*
X105977609Y-61984857D01*
X105947376Y-62007691D01*
X105915762Y-62029019D01*
X105882795Y-62048813D01*
X105848501Y-62067042D01*
X105812905Y-62083677D01*
X105776034Y-62098687D01*
X105737914Y-62112043D01*
X105698570Y-62123716D01*
X105658030Y-62133674D01*
X105616319Y-62141889D01*
X105573463Y-62148330D01*
X105529489Y-62152968D01*
X105484422Y-62155772D01*
X105438289Y-62156714D01*
X105392181Y-62155780D01*
X105347187Y-62152999D01*
X105303331Y-62148399D01*
X105260634Y-62142008D01*
X105219121Y-62133854D01*
X105178814Y-62123965D01*
X105139735Y-62112370D01*
X105101909Y-62099096D01*
X105065357Y-62084173D01*
X105030103Y-62067628D01*
X104996169Y-62049490D01*
X104963579Y-62029787D01*
X104932355Y-62008546D01*
X104902520Y-61985797D01*
X104874098Y-61961568D01*
X104847111Y-61935886D01*
X104821582Y-61908780D01*
X104797534Y-61880279D01*
X104774989Y-61850410D01*
X104753972Y-61819202D01*
X104734504Y-61786683D01*
X104716609Y-61752882D01*
X104700309Y-61717825D01*
X104685628Y-61681543D01*
X104672588Y-61644063D01*
X104661213Y-61605413D01*
X104651525Y-61565621D01*
X104643546Y-61524716D01*
X104637301Y-61482726D01*
X104632812Y-61439680D01*
X104630102Y-61395605D01*
X104629193Y-61350529D01*
X104629193Y-60640388D01*
X104905683Y-60640388D01*
X104908593Y-60640387D01*
X104908593Y-61350529D01*
X104909212Y-61379960D01*
X104911056Y-61408757D01*
X104914104Y-61436900D01*
X104918336Y-61464371D01*
X104923732Y-61491149D01*
X104930272Y-61517214D01*
X104937935Y-61542547D01*
X104946702Y-61567128D01*
X104956551Y-61590937D01*
X104967462Y-61613955D01*
X104979417Y-61636162D01*
X104992393Y-61657538D01*
X105006371Y-61678064D01*
X105021331Y-61697719D01*
X105037252Y-61716485D01*
X105054114Y-61734340D01*
X105071897Y-61751267D01*
X105090581Y-61767244D01*
X105110145Y-61782252D01*
X105130569Y-61796272D01*
X105151834Y-61809283D01*
X105173917Y-61821267D01*
X105196800Y-61832203D01*
X105220463Y-61842071D01*
X105244884Y-61850852D01*
X105270043Y-61858527D01*
X105295922Y-61865075D01*
X105322498Y-61870476D01*
X105349752Y-61874712D01*
X105377663Y-61877761D01*
X105406212Y-61879606D01*
X105435379Y-61880225D01*
X105464578Y-61879606D01*
X105493225Y-61877761D01*
X105521293Y-61874712D01*
X105548760Y-61870476D01*
X105575600Y-61865075D01*
X105601788Y-61858527D01*
X105627301Y-61850852D01*
X105652114Y-61842071D01*
X105676202Y-61832203D01*
X105699540Y-61821267D01*
X105722105Y-61809283D01*
X105743871Y-61796272D01*
X105764815Y-61782252D01*
X105784911Y-61767244D01*
X105804136Y-61751267D01*
X105822464Y-61734340D01*
X105839871Y-61716485D01*
X105856333Y-61697719D01*
X105871825Y-61678064D01*
X105886323Y-61657538D01*
X105899801Y-61636162D01*
X105912237Y-61613955D01*
X105923604Y-61590937D01*
X105933878Y-61567128D01*
X105943036Y-61542547D01*
X105951052Y-61517214D01*
X105957903Y-61491149D01*
X105963562Y-61464371D01*
X105968007Y-61436900D01*
X105971212Y-61408757D01*
X105973153Y-61379960D01*
X105973806Y-61350529D01*
X105973806Y-60640388D01*
X105973187Y-60610965D01*
X105971343Y-60582193D01*
X105968295Y-60554089D01*
X105964063Y-60526671D01*
X105958667Y-60499959D01*
X105952127Y-60473972D01*
X105944464Y-60448727D01*
X105935697Y-60424244D01*
X105925848Y-60400541D01*
X105914937Y-60377637D01*
X105902982Y-60355550D01*
X105890006Y-60334299D01*
X105876028Y-60313904D01*
X105861068Y-60294381D01*
X105845147Y-60275751D01*
X105828285Y-60258032D01*
X105810502Y-60241242D01*
X105791818Y-60225400D01*
X105772254Y-60210524D01*
X105751830Y-60196635D01*
X105730565Y-60183749D01*
X105708482Y-60171885D01*
X105685599Y-60161063D01*
X105661936Y-60151301D01*
X105637515Y-60142618D01*
X105612356Y-60135032D01*
X105586477Y-60128562D01*
X105559901Y-60123226D01*
X105532647Y-60119044D01*
X105504736Y-60116033D01*
X105476186Y-60114213D01*
X105447020Y-60113602D01*
X105432468Y-60113602D01*
X105403046Y-60114222D01*
X105374273Y-60116065D01*
X105346169Y-60119113D01*
X105318752Y-60123346D01*
X105292040Y-60128742D01*
X105266052Y-60135281D01*
X105240808Y-60142944D01*
X105216324Y-60151711D01*
X105192621Y-60161560D01*
X105169717Y-60172472D01*
X105147631Y-60184426D01*
X105126380Y-60197402D01*
X105105984Y-60211380D01*
X105086462Y-60226340D01*
X105067832Y-60242261D01*
X105050112Y-60259123D01*
X105033322Y-60276906D01*
X105017480Y-60295590D01*
X105002605Y-60315154D01*
X104988715Y-60335578D01*
X104975829Y-60356843D01*
X104963966Y-60378926D01*
X104953144Y-60401809D01*
X104943382Y-60425472D01*
X104934699Y-60449893D01*
X104927112Y-60475052D01*
X104920642Y-60500931D01*
X104915307Y-60527507D01*
X104911124Y-60554761D01*
X104908114Y-60582672D01*
X104906294Y-60611222D01*
X104905683Y-60640388D01*
X104629193Y-60640388D01*
X104629193Y-60640387D01*
X104630135Y-60595568D01*
X104632939Y-60551716D01*
X104637577Y-60508862D01*
X104644018Y-60467035D01*
X104652233Y-60426266D01*
X104662191Y-60386584D01*
X104673864Y-60348019D01*
X104687220Y-60310600D01*
X104702230Y-60274359D01*
X104718865Y-60239324D01*
X104737094Y-60205525D01*
X104756888Y-60172992D01*
X104778216Y-60141756D01*
X104801050Y-60111845D01*
X104825359Y-60083290D01*
X104851113Y-60056121D01*
X104878282Y-60030367D01*
X104906837Y-60006058D01*
X104936747Y-59983225D01*
X104967984Y-59961896D01*
X105000517Y-59942102D01*
X105034315Y-59923873D01*
X105069350Y-59907239D01*
X105105592Y-59892228D01*
X105143010Y-59878872D01*
X105181576Y-59867200D01*
X105221258Y-59857241D01*
X105262027Y-59849027D01*
X105303854Y-59842586D01*
X105346708Y-59837948D01*
X105390559Y-59835143D01*
X105435379Y-59834202D01*
X105449931Y-59834202D01*
X105494750Y-59835143D01*
G37*
D10*
X140500000Y-113000000D02*
X100500000Y-113000000D01*
D11*
G36*
X79114776Y-90134251D02*
G01*
X79129559Y-90135210D01*
X79143998Y-90136796D01*
X79158085Y-90138999D01*
X79171809Y-90141807D01*
X79185161Y-90145209D01*
X79198132Y-90149196D01*
X79210711Y-90153756D01*
X79222890Y-90158878D01*
X79234658Y-90164553D01*
X79246006Y-90170769D01*
X79256925Y-90177516D01*
X79267405Y-90184784D01*
X79277436Y-90192560D01*
X79287009Y-90200836D01*
X79296114Y-90209599D01*
X79304741Y-90218840D01*
X79312881Y-90228548D01*
X79320525Y-90238712D01*
X79327662Y-90249322D01*
X79334283Y-90260367D01*
X79340379Y-90271835D01*
X79345940Y-90283717D01*
X79350957Y-90296002D01*
X79355419Y-90308680D01*
X79359317Y-90321739D01*
X79362642Y-90335168D01*
X79365384Y-90348958D01*
X79367533Y-90363098D01*
X79369080Y-90377577D01*
X79370015Y-90392383D01*
X79370329Y-90407508D01*
X79370329Y-90864443D01*
X79370456Y-90870386D01*
X79370835Y-90876204D01*
X79371461Y-90881895D01*
X79372330Y-90887454D01*
X79373438Y-90892876D01*
X79374780Y-90898157D01*
X79376352Y-90903294D01*
X79378151Y-90908281D01*
X79380171Y-90913115D01*
X79382408Y-90917791D01*
X79384859Y-90922305D01*
X79387519Y-90926653D01*
X79390383Y-90930831D01*
X79393448Y-90934833D01*
X79396708Y-90938657D01*
X79400161Y-90942297D01*
X79403801Y-90945749D01*
X79407624Y-90949010D01*
X79411627Y-90952075D01*
X79415804Y-90954939D01*
X79420152Y-90957598D01*
X79424666Y-90960049D01*
X79429342Y-90962287D01*
X79434176Y-90964307D01*
X79439164Y-90966105D01*
X79444300Y-90967678D01*
X79449582Y-90969020D01*
X79455004Y-90970127D01*
X79460563Y-90970996D01*
X79466253Y-90971622D01*
X79472072Y-90972001D01*
X79478015Y-90972128D01*
X79483957Y-90972001D01*
X79489776Y-90971622D01*
X79495466Y-90970996D01*
X79501025Y-90970127D01*
X79506447Y-90969020D01*
X79511729Y-90967677D01*
X79516865Y-90966105D01*
X79521853Y-90964307D01*
X79526687Y-90962286D01*
X79531363Y-90960049D01*
X79535877Y-90957598D01*
X79540225Y-90954939D01*
X79544402Y-90952074D01*
X79548405Y-90949010D01*
X79552228Y-90945749D01*
X79555868Y-90942296D01*
X79559321Y-90938656D01*
X79562581Y-90934833D01*
X79565646Y-90930830D01*
X79568510Y-90926653D01*
X79571170Y-90922305D01*
X79573621Y-90917791D01*
X79575858Y-90913115D01*
X79577878Y-90908281D01*
X79579677Y-90903294D01*
X79581249Y-90898157D01*
X79582591Y-90892876D01*
X79583699Y-90887453D01*
X79584568Y-90881895D01*
X79585194Y-90876204D01*
X79585573Y-90870385D01*
X79585700Y-90864443D01*
X79585700Y-90157212D01*
X79713758Y-90157212D01*
X79713758Y-90876085D01*
X79713487Y-90889044D01*
X79712678Y-90901722D01*
X79711341Y-90914110D01*
X79709483Y-90926199D01*
X79707114Y-90937981D01*
X79704242Y-90949448D01*
X79700876Y-90960591D01*
X79697023Y-90971401D01*
X79692693Y-90981871D01*
X79687894Y-90991990D01*
X79682635Y-91001752D01*
X79676923Y-91011147D01*
X79670768Y-91020166D01*
X79664179Y-91028802D01*
X79657163Y-91037046D01*
X79649729Y-91044889D01*
X79641886Y-91052323D01*
X79633642Y-91059339D01*
X79625006Y-91065929D01*
X79615986Y-91072083D01*
X79606591Y-91077795D01*
X79596830Y-91083054D01*
X79586710Y-91087853D01*
X79576241Y-91092183D01*
X79565431Y-91096036D01*
X79554288Y-91099403D01*
X79542821Y-91102275D01*
X79531039Y-91104644D01*
X79518949Y-91106501D01*
X79506561Y-91107838D01*
X79493884Y-91108647D01*
X79480925Y-91108918D01*
X79475104Y-91108918D01*
X79462145Y-91108647D01*
X79449467Y-91107838D01*
X79437079Y-91106501D01*
X79424990Y-91104644D01*
X79413208Y-91102275D01*
X79401741Y-91099403D01*
X79390598Y-91096036D01*
X79379788Y-91092183D01*
X79369318Y-91087853D01*
X79359199Y-91083054D01*
X79349437Y-91077795D01*
X79340042Y-91072083D01*
X79331023Y-91065929D01*
X79322386Y-91059339D01*
X79314143Y-91052323D01*
X79306300Y-91044889D01*
X79298866Y-91037046D01*
X79291850Y-91028802D01*
X79285260Y-91020166D01*
X79279105Y-91011147D01*
X79273394Y-91001752D01*
X79268134Y-90991990D01*
X79263335Y-90981871D01*
X79259005Y-90971401D01*
X79255153Y-90960591D01*
X79251786Y-90949448D01*
X79248914Y-90937981D01*
X79246545Y-90926199D01*
X79244688Y-90914110D01*
X79243350Y-90901722D01*
X79242542Y-90889044D01*
X79242270Y-90876085D01*
X79242270Y-90427881D01*
X79242092Y-90419236D01*
X79241561Y-90410768D01*
X79240680Y-90402484D01*
X79239457Y-90394389D01*
X79237894Y-90386490D01*
X79235997Y-90378793D01*
X79233771Y-90371306D01*
X79231220Y-90364034D01*
X79228349Y-90356983D01*
X79225164Y-90350161D01*
X79221668Y-90343573D01*
X79217867Y-90337226D01*
X79213766Y-90331126D01*
X79209368Y-90325280D01*
X79204680Y-90319694D01*
X79199706Y-90314374D01*
X79194450Y-90309328D01*
X79188917Y-90304560D01*
X79183113Y-90300078D01*
X79177042Y-90295889D01*
X79170708Y-90291997D01*
X79164118Y-90288411D01*
X79157274Y-90285136D01*
X79150183Y-90282178D01*
X79142849Y-90279544D01*
X79135276Y-90277241D01*
X79127471Y-90275274D01*
X79119436Y-90273651D01*
X79111178Y-90272378D01*
X79102701Y-90271460D01*
X79094009Y-90270905D01*
X79085108Y-90270718D01*
X79038541Y-90270718D01*
X79038541Y-91108918D01*
X78898841Y-91108918D01*
X78898841Y-90133928D01*
X79099660Y-90133928D01*
X79114776Y-90134251D01*
G37*
D10*
X113000000Y-123000000D02*
X100500000Y-123000000D01*
X100500000Y-120500000D01*
X113000000Y-120500000D01*
X113000000Y-123000000D01*
G36*
X113000000Y-123000000D02*
G01*
X100500000Y-123000000D01*
X100500000Y-120500000D01*
X113000000Y-120500000D01*
X113000000Y-123000000D01*
G37*
X127000000Y-140500000D02*
X124500000Y-139000000D01*
X127000000Y-137500000D01*
X127000000Y-140500000D01*
G36*
X127000000Y-140500000D02*
G01*
X124500000Y-139000000D01*
X127000000Y-137500000D01*
X127000000Y-140500000D01*
G37*
X95500000Y-110500000D02*
X95500000Y-113000000D01*
X98000000Y-85500000D02*
X83000000Y-85500000D01*
X95500000Y-113000000D02*
X95500000Y-123000000D01*
X78000000Y-80500000D02*
X78000000Y-110500000D01*
X90500000Y-113000000D02*
X90500000Y-123000000D01*
D11*
G36*
X79564378Y-98385241D02*
G01*
X79561468Y-98396883D01*
X79558558Y-98408524D01*
X79555647Y-98423076D01*
X79549826Y-98440539D01*
X79546916Y-98458001D01*
X79546916Y-98469643D01*
X79544006Y-98478374D01*
X79544006Y-98542403D01*
X79546916Y-98551135D01*
X79546916Y-98562776D01*
X79555647Y-98600612D01*
X79558558Y-98629716D01*
X79561468Y-98650089D01*
X79564378Y-98661730D01*
X79564378Y-98673372D01*
X79561468Y-98670462D01*
X79558558Y-98667551D01*
X79555647Y-98664641D01*
X79552737Y-98661730D01*
X79546916Y-98658820D01*
X79544006Y-98655910D01*
X79538185Y-98650089D01*
X79535274Y-98650089D01*
X79532364Y-98647178D01*
X79529453Y-98644268D01*
X79526543Y-98644268D01*
X79523633Y-98641357D01*
X79520722Y-98641357D01*
X79517812Y-98638447D01*
X79503260Y-98638447D01*
X79500349Y-98635537D01*
X79497439Y-98638447D01*
X79491618Y-98638447D01*
X79485797Y-98641357D01*
X79474156Y-98644268D01*
X79462514Y-98652999D01*
X79450872Y-98658820D01*
X79433410Y-98670462D01*
X79418858Y-98682103D01*
X79398485Y-98696655D01*
X79381022Y-98714118D01*
X79372291Y-98725760D01*
X79360649Y-98734491D01*
X79351918Y-98746132D01*
X79340276Y-98757774D01*
X79331545Y-98769416D01*
X79319903Y-98783968D01*
X79311172Y-98798520D01*
X79299531Y-98813072D01*
X79290799Y-98827624D01*
X79279158Y-98845087D01*
X79267516Y-98862549D01*
X79258785Y-98880012D01*
X79247143Y-98897474D01*
X79238412Y-98917847D01*
X79229681Y-98938220D01*
X79218039Y-98961503D01*
X79200576Y-99005160D01*
X79186024Y-99048816D01*
X79171472Y-99092472D01*
X79159831Y-99136128D01*
X79151099Y-99179785D01*
X79142368Y-99220530D01*
X79136547Y-99258366D01*
X79130726Y-99296201D01*
X79130726Y-99398066D01*
X79136547Y-99427170D01*
X79142368Y-99453364D01*
X79148189Y-99476647D01*
X79159831Y-99497020D01*
X79168562Y-99511572D01*
X79171472Y-99514482D01*
X79174383Y-99517393D01*
X79177293Y-99517393D01*
X79180203Y-99520303D01*
X79186024Y-99520303D01*
X79188935Y-99523214D01*
X79197666Y-99526124D01*
X79273337Y-99526124D01*
X79287889Y-99523214D01*
X79459603Y-99549407D01*
X79456693Y-99555228D01*
X79453783Y-99563960D01*
X79447962Y-99575601D01*
X79439231Y-99601795D01*
X79433410Y-99616347D01*
X79430499Y-99622168D01*
X79427589Y-99630899D01*
X79424678Y-99639630D01*
X79418858Y-99651272D01*
X79413037Y-99660003D01*
X79407216Y-99671645D01*
X79389753Y-99703660D01*
X79369381Y-99738585D01*
X79343187Y-99770599D01*
X79314083Y-99805524D01*
X79282068Y-99837539D01*
X79247143Y-99869553D01*
X79212218Y-99898657D01*
X79171472Y-99927762D01*
X79154010Y-99939403D01*
X79130726Y-99951045D01*
X79110353Y-99962687D01*
X79089981Y-99971418D01*
X79069608Y-99980149D01*
X79049235Y-99988880D01*
X79025951Y-99994701D01*
X79005578Y-100000522D01*
X78985206Y-100003432D01*
X78961922Y-100006343D01*
X78897893Y-100006343D01*
X78877520Y-100000522D01*
X78857147Y-99994701D01*
X78836774Y-99988880D01*
X78816401Y-99977239D01*
X78798939Y-99968507D01*
X78781476Y-99956866D01*
X78766924Y-99942314D01*
X78752372Y-99927762D01*
X78737820Y-99913209D01*
X78726178Y-99895747D01*
X78714537Y-99878285D01*
X78702895Y-99857912D01*
X78694164Y-99837539D01*
X78688343Y-99817166D01*
X78682522Y-99793882D01*
X78676701Y-99770599D01*
X78670880Y-99747316D01*
X78670880Y-99724032D01*
X78667970Y-99697839D01*
X78667970Y-99645451D01*
X78670880Y-99619257D01*
X78673791Y-99590153D01*
X78679612Y-99563960D01*
X78685433Y-99534855D01*
X78694164Y-99505751D01*
X78699985Y-99476647D01*
X78711626Y-99447543D01*
X78723268Y-99415528D01*
X78734910Y-99386424D01*
X78749462Y-99357320D01*
X78764014Y-99325305D01*
X78778566Y-99296201D01*
X78796029Y-99267097D01*
X78816401Y-99235082D01*
X78880431Y-99139039D01*
X78941549Y-99054637D01*
X79002668Y-98978966D01*
X79060876Y-98909116D01*
X79116174Y-98850907D01*
X79171472Y-98795610D01*
X79223860Y-98749043D01*
X79273337Y-98705387D01*
X79363560Y-98623895D01*
X79407216Y-98588970D01*
X79445051Y-98551135D01*
X79479976Y-98513299D01*
X79511991Y-98472553D01*
X79541095Y-98428897D01*
X79552737Y-98405614D01*
X79564378Y-98382330D01*
X79570199Y-98370689D01*
X79564378Y-98385241D01*
G37*
D10*
X98000000Y-110500000D02*
X98000000Y-113000000D01*
D11*
G36*
X104885310Y-74374642D02*
G01*
X104885556Y-74386526D01*
X104886290Y-74398164D01*
X104887504Y-74409545D01*
X104889192Y-74420663D01*
X104891347Y-74431507D01*
X104893962Y-74442070D01*
X104897030Y-74452343D01*
X104900544Y-74462318D01*
X104904497Y-74471986D01*
X104908883Y-74481338D01*
X104913693Y-74490366D01*
X104918922Y-74499062D01*
X104924562Y-74507416D01*
X104930607Y-74515422D01*
X104937049Y-74523068D01*
X104943882Y-74530349D01*
X104951099Y-74537254D01*
X104958692Y-74543775D01*
X104966655Y-74549904D01*
X104974982Y-74555633D01*
X104983664Y-74560952D01*
X104992695Y-74565853D01*
X105002068Y-74570328D01*
X105011777Y-74574369D01*
X105021813Y-74577965D01*
X105032172Y-74581110D01*
X105042844Y-74583795D01*
X105053824Y-74586010D01*
X105065105Y-74587748D01*
X105076679Y-74589000D01*
X105088540Y-74589758D01*
X105100681Y-74590012D01*
X105112822Y-74589758D01*
X105124683Y-74589000D01*
X105136257Y-74587748D01*
X105147537Y-74586010D01*
X105158517Y-74583795D01*
X105169190Y-74581110D01*
X105179548Y-74577965D01*
X105189585Y-74574368D01*
X105199293Y-74570328D01*
X105208667Y-74565853D01*
X105217698Y-74560952D01*
X105226380Y-74555632D01*
X105234706Y-74549904D01*
X105242670Y-74543775D01*
X105250263Y-74537253D01*
X105257480Y-74530348D01*
X105264312Y-74523068D01*
X105270755Y-74515421D01*
X105276799Y-74507416D01*
X105282440Y-74499061D01*
X105287669Y-74490365D01*
X105292479Y-74481337D01*
X105296864Y-74471985D01*
X105300817Y-74462317D01*
X105304331Y-74452342D01*
X105307399Y-74442069D01*
X105310014Y-74431506D01*
X105312169Y-74420662D01*
X105313857Y-74409545D01*
X105315072Y-74398163D01*
X105315806Y-74386526D01*
X105316052Y-74374642D01*
X105316052Y-72963091D01*
X106256116Y-72963091D01*
X106256116Y-74729713D01*
X105976716Y-74729713D01*
X105976716Y-73242491D01*
X105569258Y-73242491D01*
X105569258Y-74403746D01*
X105568723Y-74429664D01*
X105567130Y-74455019D01*
X105564495Y-74479795D01*
X105560834Y-74503974D01*
X105556161Y-74527538D01*
X105550495Y-74550472D01*
X105543850Y-74572758D01*
X105536243Y-74594378D01*
X105527689Y-74615317D01*
X105518205Y-74635556D01*
X105507806Y-74655079D01*
X105496509Y-74673869D01*
X105484329Y-74691908D01*
X105471283Y-74709180D01*
X105457386Y-74725668D01*
X105442655Y-74741354D01*
X105427105Y-74756221D01*
X105410752Y-74770253D01*
X105393613Y-74783432D01*
X105375704Y-74795742D01*
X105357040Y-74807165D01*
X105337637Y-74817684D01*
X105317511Y-74827282D01*
X105296679Y-74835942D01*
X105275156Y-74843647D01*
X105252959Y-74850380D01*
X105230103Y-74856124D01*
X105206604Y-74860862D01*
X105182479Y-74864577D01*
X105157742Y-74867252D01*
X105132411Y-74868869D01*
X105106502Y-74869412D01*
X105094860Y-74869412D01*
X105068942Y-74868869D01*
X105043587Y-74867252D01*
X105018811Y-74864577D01*
X104994632Y-74860862D01*
X104971068Y-74856124D01*
X104948134Y-74850380D01*
X104925848Y-74843647D01*
X104904228Y-74835942D01*
X104883289Y-74827282D01*
X104863050Y-74817684D01*
X104843527Y-74807165D01*
X104824737Y-74795742D01*
X104806697Y-74783432D01*
X104789425Y-74770253D01*
X104772938Y-74756221D01*
X104757252Y-74741354D01*
X104742384Y-74725668D01*
X104728352Y-74709180D01*
X104715173Y-74691908D01*
X104702863Y-74673869D01*
X104691440Y-74655079D01*
X104680921Y-74635556D01*
X104671323Y-74615317D01*
X104662663Y-74594378D01*
X104654958Y-74572758D01*
X104648225Y-74550472D01*
X104642481Y-74527538D01*
X104637743Y-74503974D01*
X104634028Y-74479795D01*
X104631353Y-74455019D01*
X104629736Y-74429664D01*
X104629193Y-74403746D01*
X104629193Y-72963091D01*
X104885310Y-72963091D01*
X104885310Y-74374642D01*
G37*
D10*
X108000000Y-113000000D02*
X108000000Y-123000000D01*
X78000000Y-113000000D02*
X78000000Y-123000000D01*
D11*
G36*
X78901752Y-96283639D02*
G01*
X79358687Y-96283639D01*
X79400728Y-96284800D01*
X79440583Y-96288294D01*
X79478177Y-96294133D01*
X79513440Y-96302329D01*
X79530174Y-96307315D01*
X79546298Y-96312896D01*
X79561802Y-96319072D01*
X79576679Y-96325845D01*
X79590918Y-96333218D01*
X79604510Y-96341191D01*
X79617447Y-96349766D01*
X79629720Y-96358946D01*
X79641319Y-96368730D01*
X79652235Y-96379122D01*
X79662460Y-96390122D01*
X79671983Y-96401732D01*
X79680797Y-96413954D01*
X79688892Y-96426790D01*
X79696259Y-96440240D01*
X79702889Y-96454307D01*
X79708773Y-96468992D01*
X79713902Y-96484297D01*
X79718267Y-96500224D01*
X79721858Y-96516773D01*
X79724667Y-96533947D01*
X79726685Y-96551747D01*
X79727902Y-96570175D01*
X79728310Y-96589232D01*
X79727936Y-96608264D01*
X79726820Y-96626619D01*
X79724970Y-96644301D01*
X79722393Y-96661316D01*
X79719097Y-96677667D01*
X79715092Y-96693361D01*
X79710384Y-96708401D01*
X79704981Y-96722793D01*
X79698892Y-96736540D01*
X79692125Y-96749649D01*
X79684688Y-96762124D01*
X79676588Y-96773969D01*
X79667833Y-96785190D01*
X79658432Y-96795791D01*
X79648393Y-96805777D01*
X79637723Y-96815153D01*
X79626431Y-96823924D01*
X79614525Y-96832093D01*
X79602012Y-96839667D01*
X79588900Y-96846651D01*
X79575198Y-96853047D01*
X79560914Y-96858863D01*
X79546055Y-96864102D01*
X79530629Y-96868769D01*
X79514645Y-96872869D01*
X79498111Y-96876406D01*
X79481034Y-96879387D01*
X79463422Y-96881815D01*
X79426628Y-96885031D01*
X79387791Y-96886095D01*
X79224808Y-96886095D01*
X79201515Y-96886316D01*
X79179663Y-96887044D01*
X79159260Y-96888378D01*
X79140315Y-96890415D01*
X79122837Y-96893254D01*
X79106834Y-96896992D01*
X79092315Y-96901728D01*
X79085614Y-96904500D01*
X79079287Y-96907559D01*
X79073336Y-96910916D01*
X79067761Y-96914584D01*
X79062563Y-96918575D01*
X79057743Y-96922901D01*
X79053303Y-96927575D01*
X79049244Y-96932608D01*
X79045566Y-96938013D01*
X79042270Y-96943803D01*
X79039359Y-96949989D01*
X79036832Y-96956583D01*
X79034691Y-96963599D01*
X79032937Y-96971048D01*
X79031570Y-96978942D01*
X79030593Y-96987295D01*
X79030006Y-96996117D01*
X79029810Y-97005421D01*
X79029965Y-97013941D01*
X79030435Y-97022044D01*
X79031227Y-97029740D01*
X79032351Y-97037038D01*
X79033814Y-97043948D01*
X79035623Y-97050480D01*
X79037788Y-97056644D01*
X79040315Y-97062448D01*
X79043213Y-97067902D01*
X79046490Y-97073016D01*
X79050154Y-97077800D01*
X79054213Y-97082263D01*
X79058675Y-97086415D01*
X79063548Y-97090266D01*
X79068839Y-97093824D01*
X79074558Y-97097100D01*
X79080711Y-97100103D01*
X79087307Y-97102842D01*
X79094354Y-97105328D01*
X79101860Y-97107570D01*
X79109833Y-97109578D01*
X79118280Y-97111360D01*
X79127210Y-97112928D01*
X79136631Y-97114289D01*
X79146551Y-97115455D01*
X79156978Y-97116434D01*
X79179384Y-97117870D01*
X79203913Y-97118676D01*
X79230629Y-97118928D01*
X79384881Y-97118928D01*
X79422758Y-97119990D01*
X79458841Y-97123197D01*
X79493039Y-97128578D01*
X79525263Y-97136163D01*
X79540607Y-97140791D01*
X79555424Y-97145982D01*
X79569702Y-97151739D01*
X79583431Y-97158065D01*
X79596600Y-97164965D01*
X79609197Y-97172442D01*
X79621210Y-97180499D01*
X79632630Y-97189142D01*
X79643444Y-97198373D01*
X79653642Y-97208195D01*
X79663211Y-97218614D01*
X79672142Y-97229632D01*
X79680423Y-97241253D01*
X79688042Y-97253482D01*
X79694989Y-97266321D01*
X79701252Y-97279774D01*
X79706820Y-97293846D01*
X79711682Y-97308539D01*
X79715827Y-97323859D01*
X79719243Y-97339807D01*
X79721920Y-97356389D01*
X79723846Y-97373607D01*
X79725009Y-97391466D01*
X79725400Y-97409970D01*
X79724959Y-97429564D01*
X79723647Y-97448512D01*
X79721479Y-97466815D01*
X79718470Y-97484475D01*
X79714637Y-97501493D01*
X79709994Y-97517872D01*
X79704557Y-97533612D01*
X79698342Y-97548715D01*
X79691363Y-97563182D01*
X79683637Y-97577017D01*
X79675178Y-97590219D01*
X79666003Y-97602790D01*
X79656127Y-97614733D01*
X79645564Y-97626049D01*
X79634331Y-97636739D01*
X79622444Y-97646805D01*
X79609916Y-97656248D01*
X79596765Y-97665071D01*
X79583005Y-97673275D01*
X79568652Y-97680860D01*
X79553721Y-97687830D01*
X79538228Y-97694185D01*
X79522189Y-97699928D01*
X79505618Y-97705059D01*
X79488531Y-97709580D01*
X79470944Y-97713494D01*
X79452871Y-97716801D01*
X79434330Y-97719503D01*
X79415334Y-97721602D01*
X79395899Y-97723099D01*
X79355777Y-97724295D01*
X78898841Y-97724295D01*
X78898841Y-97584595D01*
X79355777Y-97584595D01*
X79383299Y-97584044D01*
X79409108Y-97582367D01*
X79433194Y-97579530D01*
X79455550Y-97575500D01*
X79476165Y-97570242D01*
X79495033Y-97563722D01*
X79503809Y-97559978D01*
X79512145Y-97555906D01*
X79520039Y-97551501D01*
X79527491Y-97546760D01*
X79534500Y-97541677D01*
X79541064Y-97536249D01*
X79547183Y-97530472D01*
X79552855Y-97524340D01*
X79558080Y-97517851D01*
X79562856Y-97510999D01*
X79567182Y-97503781D01*
X79571057Y-97496191D01*
X79574480Y-97488227D01*
X79577450Y-97479883D01*
X79579966Y-97471155D01*
X79582028Y-97462039D01*
X79583633Y-97452531D01*
X79584780Y-97442627D01*
X79585470Y-97432322D01*
X79585700Y-97421612D01*
X79585453Y-97410910D01*
X79584715Y-97400628D01*
X79583489Y-97390762D01*
X79581777Y-97381303D01*
X79579584Y-97372248D01*
X79576913Y-97363590D01*
X79573766Y-97355323D01*
X79570147Y-97347441D01*
X79566059Y-97339939D01*
X79561505Y-97332810D01*
X79556489Y-97326049D01*
X79551013Y-97319650D01*
X79545082Y-97313607D01*
X79538697Y-97307914D01*
X79531862Y-97302565D01*
X79524581Y-97297555D01*
X79516856Y-97292877D01*
X79508692Y-97288526D01*
X79500090Y-97284495D01*
X79491054Y-97280780D01*
X79481588Y-97277374D01*
X79471695Y-97274271D01*
X79461377Y-97271465D01*
X79450638Y-97268951D01*
X79439482Y-97266722D01*
X79427910Y-97264773D01*
X79403537Y-97261692D01*
X79377544Y-97259659D01*
X79349956Y-97258627D01*
X79198614Y-97258627D01*
X79165380Y-97257797D01*
X79133425Y-97255257D01*
X79102869Y-97250934D01*
X79073830Y-97244757D01*
X79046428Y-97236654D01*
X79033379Y-97231856D01*
X79020783Y-97226550D01*
X79008656Y-97220726D01*
X78997014Y-97214375D01*
X78985870Y-97207488D01*
X78975240Y-97200055D01*
X78965138Y-97192069D01*
X78955580Y-97183519D01*
X78946581Y-97174396D01*
X78938154Y-97164693D01*
X78930317Y-97154398D01*
X78923082Y-97143505D01*
X78916466Y-97132003D01*
X78910483Y-97119883D01*
X78905148Y-97107136D01*
X78900475Y-97093754D01*
X78896481Y-97079726D01*
X78893179Y-97065045D01*
X78890586Y-97049701D01*
X78888714Y-97033685D01*
X78887581Y-97016988D01*
X78887199Y-96999601D01*
X78887589Y-96982231D01*
X78888746Y-96965582D01*
X78890655Y-96949645D01*
X78893299Y-96934407D01*
X78896661Y-96919858D01*
X78900725Y-96905986D01*
X78905474Y-96892780D01*
X78910892Y-96880229D01*
X78916962Y-96868322D01*
X78923668Y-96857047D01*
X78930994Y-96846394D01*
X78938922Y-96836351D01*
X78947436Y-96826907D01*
X78956520Y-96818051D01*
X78966157Y-96809771D01*
X78976331Y-96802057D01*
X78987025Y-96794897D01*
X78998222Y-96788280D01*
X79009907Y-96782195D01*
X79022062Y-96776630D01*
X79034671Y-96771576D01*
X79047718Y-96767019D01*
X79061186Y-96762949D01*
X79075058Y-96759356D01*
X79089318Y-96756227D01*
X79103949Y-96753551D01*
X79134261Y-96749516D01*
X79165860Y-96747160D01*
X79198614Y-96746395D01*
X79349956Y-96746395D01*
X79377064Y-96745940D01*
X79402702Y-96744531D01*
X79426830Y-96742098D01*
X79449410Y-96738573D01*
X79470405Y-96733889D01*
X79489775Y-96727977D01*
X79507483Y-96720770D01*
X79515701Y-96716658D01*
X79523490Y-96712198D01*
X79530843Y-96707379D01*
X79537757Y-96702193D01*
X79544226Y-96696632D01*
X79550246Y-96690688D01*
X79555812Y-96684351D01*
X79560919Y-96677613D01*
X79565563Y-96670467D01*
X79569738Y-96662902D01*
X79573440Y-96654911D01*
X79576664Y-96646486D01*
X79579405Y-96637616D01*
X79581658Y-96628295D01*
X79583419Y-96618514D01*
X79584683Y-96608264D01*
X79585445Y-96597536D01*
X79585700Y-96586322D01*
X79585437Y-96575091D01*
X79584652Y-96564315D01*
X79583354Y-96553986D01*
X79581550Y-96544098D01*
X79579247Y-96534646D01*
X79576453Y-96525621D01*
X79573174Y-96517019D01*
X79569420Y-96508832D01*
X79565196Y-96501055D01*
X79560511Y-96493681D01*
X79555371Y-96486703D01*
X79549786Y-96480115D01*
X79543761Y-96473911D01*
X79537304Y-96468084D01*
X79530423Y-96462628D01*
X79523126Y-96457536D01*
X79515419Y-96452803D01*
X79507310Y-96448421D01*
X79498807Y-96444385D01*
X79489917Y-96440688D01*
X79480648Y-96437323D01*
X79471007Y-96434284D01*
X79461001Y-96431565D01*
X79450638Y-96429160D01*
X79439926Y-96427061D01*
X79428871Y-96425263D01*
X79405765Y-96422543D01*
X79381381Y-96420949D01*
X79355777Y-96420428D01*
X78898841Y-96420428D01*
X78898841Y-96280729D01*
X78901752Y-96283639D01*
G37*
D10*
X105500000Y-113000000D02*
X105500000Y-123000000D01*
X98000000Y-108000000D02*
X78000000Y-108000000D01*
X98000000Y-105500000D02*
X78000000Y-105500000D01*
X140500000Y-115500000D02*
X100500000Y-115500000D01*
X78000000Y-110500000D02*
X78000000Y-113000000D01*
X93000000Y-113000000D02*
X93000000Y-123000000D01*
X100500000Y-113000000D02*
X100500000Y-123000000D01*
D11*
G36*
X106256116Y-52744427D02*
G01*
X105540154Y-52744427D01*
X105540154Y-54208367D01*
X106256116Y-54208367D01*
X106256116Y-54487767D01*
X104629193Y-54487767D01*
X104629193Y-54208367D01*
X105284037Y-54208367D01*
X105284037Y-52744427D01*
X104629193Y-52744427D01*
X104629193Y-52465027D01*
X106256116Y-52465027D01*
X106256116Y-52744427D01*
G37*
D10*
X133500000Y-134000000D02*
X130500000Y-134000000D01*
X132000000Y-131500000D01*
X133500000Y-134000000D01*
G36*
X133500000Y-134000000D02*
G01*
X130500000Y-134000000D01*
X132000000Y-131500000D01*
X133500000Y-134000000D01*
G37*
G36*
X100500000Y-83000000D02*
G01*
X155000000Y-83000000D01*
X155000000Y-108000000D01*
X100500000Y-108000000D01*
X100500000Y-83000000D01*
G37*
X108500000Y-48500000D02*
X156000000Y-48500000D01*
D11*
G36*
X79114776Y-87896141D02*
G01*
X79129559Y-87897101D01*
X79143998Y-87898687D01*
X79158085Y-87900889D01*
X79171809Y-87903697D01*
X79185161Y-87907099D01*
X79198132Y-87911086D01*
X79210711Y-87915646D01*
X79222890Y-87920769D01*
X79234658Y-87926443D01*
X79246006Y-87932660D01*
X79256925Y-87939407D01*
X79267405Y-87946674D01*
X79277436Y-87954451D01*
X79287009Y-87962726D01*
X79296114Y-87971490D01*
X79304741Y-87980731D01*
X79312881Y-87990439D01*
X79320525Y-88000603D01*
X79327662Y-88011212D01*
X79334283Y-88022257D01*
X79340379Y-88033725D01*
X79345940Y-88045608D01*
X79350957Y-88057893D01*
X79355419Y-88070570D01*
X79359317Y-88083629D01*
X79362642Y-88097059D01*
X79365384Y-88110849D01*
X79367533Y-88124988D01*
X79369080Y-88139467D01*
X79370015Y-88154274D01*
X79370329Y-88169398D01*
X79370329Y-88626334D01*
X79370456Y-88632276D01*
X79370835Y-88638095D01*
X79371461Y-88643785D01*
X79372330Y-88649344D01*
X79373438Y-88654766D01*
X79374780Y-88660048D01*
X79376352Y-88665184D01*
X79378151Y-88670172D01*
X79380171Y-88675006D01*
X79382408Y-88679682D01*
X79384859Y-88684196D01*
X79387519Y-88688544D01*
X79390383Y-88692721D01*
X79393448Y-88696724D01*
X79396708Y-88700547D01*
X79400161Y-88704187D01*
X79403801Y-88707640D01*
X79407624Y-88710901D01*
X79411627Y-88713965D01*
X79415804Y-88716829D01*
X79420152Y-88719489D01*
X79424666Y-88721940D01*
X79429342Y-88724177D01*
X79434176Y-88726197D01*
X79439164Y-88727996D01*
X79444300Y-88729568D01*
X79449582Y-88730911D01*
X79455004Y-88732018D01*
X79460563Y-88732887D01*
X79466253Y-88733513D01*
X79472072Y-88733892D01*
X79478015Y-88734019D01*
X79483957Y-88733892D01*
X79489776Y-88733513D01*
X79495466Y-88732887D01*
X79501025Y-88732018D01*
X79506447Y-88730911D01*
X79511729Y-88729568D01*
X79516865Y-88727996D01*
X79521853Y-88726198D01*
X79526687Y-88724177D01*
X79531363Y-88721940D01*
X79535877Y-88719489D01*
X79540225Y-88716830D01*
X79544402Y-88713965D01*
X79548405Y-88710901D01*
X79552228Y-88707640D01*
X79555868Y-88704187D01*
X79559321Y-88700547D01*
X79562581Y-88696724D01*
X79565646Y-88692721D01*
X79568510Y-88688544D01*
X79571170Y-88684196D01*
X79573621Y-88679682D01*
X79575858Y-88675006D01*
X79577878Y-88670172D01*
X79579677Y-88665184D01*
X79581249Y-88660048D01*
X79582591Y-88654766D01*
X79583699Y-88649344D01*
X79584568Y-88643785D01*
X79585194Y-88638095D01*
X79585573Y-88632276D01*
X79585700Y-88626334D01*
X79585700Y-87919102D01*
X79713758Y-87919102D01*
X79713758Y-88637975D01*
X79713487Y-88650934D01*
X79712678Y-88663611D01*
X79711341Y-88675999D01*
X79709483Y-88688088D01*
X79707114Y-88699871D01*
X79704242Y-88711338D01*
X79700876Y-88722481D01*
X79697023Y-88733291D01*
X79692693Y-88743760D01*
X79687894Y-88753880D01*
X79682635Y-88763641D01*
X79676923Y-88773036D01*
X79670768Y-88782056D01*
X79664179Y-88790692D01*
X79657163Y-88798936D01*
X79649729Y-88806779D01*
X79641886Y-88814213D01*
X79633642Y-88821229D01*
X79625006Y-88827818D01*
X79615986Y-88833973D01*
X79606591Y-88839684D01*
X79596830Y-88844944D01*
X79586710Y-88849743D01*
X79576241Y-88854073D01*
X79565431Y-88857926D01*
X79554288Y-88861292D01*
X79542821Y-88864164D01*
X79531039Y-88866533D01*
X79518949Y-88868391D01*
X79506561Y-88869728D01*
X79493884Y-88870537D01*
X79480925Y-88870808D01*
X79475104Y-88870808D01*
X79462145Y-88870537D01*
X79449467Y-88869728D01*
X79437079Y-88868391D01*
X79424990Y-88866533D01*
X79413208Y-88864164D01*
X79401741Y-88861292D01*
X79390598Y-88857926D01*
X79379788Y-88854073D01*
X79369318Y-88849743D01*
X79359199Y-88844944D01*
X79349437Y-88839684D01*
X79340042Y-88833973D01*
X79331023Y-88827818D01*
X79322386Y-88821229D01*
X79314143Y-88814213D01*
X79306300Y-88806779D01*
X79298866Y-88798936D01*
X79291850Y-88790692D01*
X79285260Y-88782056D01*
X79279105Y-88773036D01*
X79273394Y-88763641D01*
X79268134Y-88753880D01*
X79263335Y-88743760D01*
X79259005Y-88733291D01*
X79255153Y-88722481D01*
X79251786Y-88711338D01*
X79248914Y-88699871D01*
X79246545Y-88688088D01*
X79244688Y-88675999D01*
X79243350Y-88663611D01*
X79242542Y-88650934D01*
X79242270Y-88637975D01*
X79242270Y-88189771D01*
X79242092Y-88181126D01*
X79241561Y-88172658D01*
X79240680Y-88164374D01*
X79239457Y-88156279D01*
X79237894Y-88148380D01*
X79235997Y-88140683D01*
X79233771Y-88133196D01*
X79231220Y-88125924D01*
X79228349Y-88118873D01*
X79225164Y-88112051D01*
X79221668Y-88105463D01*
X79217867Y-88099116D01*
X79213766Y-88093016D01*
X79209368Y-88087170D01*
X79204680Y-88081584D01*
X79199706Y-88076265D01*
X79194450Y-88071218D01*
X79188917Y-88066450D01*
X79183113Y-88061969D01*
X79177042Y-88057779D01*
X79170708Y-88053887D01*
X79164118Y-88050301D01*
X79157274Y-88047026D01*
X79150183Y-88044068D01*
X79142849Y-88041434D01*
X79135276Y-88039131D01*
X79127471Y-88037164D01*
X79119436Y-88035541D01*
X79111178Y-88034267D01*
X79102701Y-88033350D01*
X79094009Y-88032794D01*
X79085108Y-88032608D01*
X79038541Y-88032608D01*
X79038541Y-88870809D01*
X78898841Y-88870809D01*
X78898841Y-87895819D01*
X79099660Y-87895819D01*
X79114776Y-87896141D01*
G37*
D10*
X85500000Y-110500000D02*
X85500000Y-113000000D01*
X83000000Y-110500000D02*
X83000000Y-113000000D01*
X98000000Y-80500000D02*
X78000000Y-80500000D01*
X80500000Y-93000000D02*
X80500000Y-110500000D01*
D11*
G36*
X82042091Y-86760756D02*
G01*
X81914033Y-86760756D01*
X81914033Y-85890541D01*
X81698662Y-85890541D01*
X81698662Y-86527923D01*
X81570604Y-86527923D01*
X81570604Y-85890541D01*
X81355233Y-85890541D01*
X81355233Y-86760756D01*
X81227175Y-86760756D01*
X81227175Y-85750841D01*
X82042091Y-85750841D01*
X82042091Y-86760756D01*
G37*
D10*
X90500000Y-80500000D02*
X90500000Y-110500000D01*
X115500000Y-113000000D02*
X115500000Y-123000000D01*
D11*
G36*
X104885310Y-55000000D02*
G01*
X106000000Y-55000000D01*
X106000000Y-54720600D01*
X106256116Y-54720600D01*
X106256116Y-55558800D01*
X106000000Y-55558800D01*
X106000000Y-55279400D01*
X104885310Y-55279400D01*
X104885310Y-55558800D01*
X104629193Y-55558800D01*
X104629193Y-54720600D01*
X104885310Y-54720600D01*
X104885310Y-55000000D01*
G37*
D10*
X80500000Y-93000000D02*
X98000000Y-93000000D01*
D11*
G36*
X81822217Y-84613140D02*
G01*
X81834895Y-84613949D01*
X81847282Y-84615286D01*
X81859372Y-84617143D01*
X81871154Y-84619512D01*
X81882621Y-84622384D01*
X81893764Y-84625751D01*
X81904574Y-84629604D01*
X81915043Y-84633934D01*
X81925163Y-84638733D01*
X81934925Y-84643992D01*
X81944320Y-84649704D01*
X81953339Y-84655858D01*
X81961975Y-84662448D01*
X81970219Y-84669464D01*
X81978062Y-84676898D01*
X81985496Y-84684741D01*
X81992512Y-84692985D01*
X81999102Y-84701621D01*
X82005256Y-84710641D01*
X82010968Y-84720035D01*
X82016227Y-84729797D01*
X82021026Y-84739917D01*
X82025356Y-84750386D01*
X82029209Y-84761196D01*
X82032576Y-84772339D01*
X82035448Y-84783806D01*
X82037817Y-84795588D01*
X82039674Y-84807678D01*
X82041011Y-84820066D01*
X82041820Y-84832743D01*
X82042091Y-84845702D01*
X82042091Y-85599500D01*
X81914033Y-85599500D01*
X81914033Y-84857344D01*
X81913914Y-84851401D01*
X81913559Y-84845583D01*
X81912971Y-84839892D01*
X81912151Y-84834333D01*
X81911104Y-84828911D01*
X81909832Y-84823630D01*
X81908336Y-84818493D01*
X81906621Y-84813506D01*
X81904688Y-84808672D01*
X81902540Y-84803996D01*
X81900180Y-84799482D01*
X81897611Y-84795134D01*
X81894835Y-84790956D01*
X81891855Y-84786954D01*
X81888673Y-84783130D01*
X81885293Y-84779490D01*
X81881716Y-84776038D01*
X81877946Y-84772777D01*
X81873986Y-84769712D01*
X81869837Y-84766848D01*
X81865502Y-84764189D01*
X81860985Y-84761738D01*
X81856288Y-84759500D01*
X81851414Y-84757480D01*
X81846364Y-84755682D01*
X81841143Y-84754109D01*
X81835752Y-84752767D01*
X81830194Y-84751659D01*
X81824472Y-84750790D01*
X81818588Y-84750164D01*
X81812546Y-84749786D01*
X81806348Y-84749659D01*
X81800149Y-84749786D01*
X81794107Y-84750164D01*
X81788224Y-84750790D01*
X81782502Y-84751659D01*
X81776944Y-84752767D01*
X81771553Y-84754109D01*
X81766331Y-84755682D01*
X81761282Y-84757480D01*
X81756407Y-84759500D01*
X81751710Y-84761738D01*
X81747193Y-84764189D01*
X81742858Y-84766848D01*
X81738710Y-84769712D01*
X81734749Y-84772777D01*
X81730979Y-84776038D01*
X81727403Y-84779490D01*
X81724022Y-84783130D01*
X81720841Y-84786954D01*
X81717860Y-84790956D01*
X81715084Y-84795134D01*
X81712515Y-84799482D01*
X81710155Y-84803996D01*
X81708008Y-84808672D01*
X81706075Y-84813506D01*
X81704359Y-84818493D01*
X81702864Y-84823630D01*
X81701591Y-84828911D01*
X81700544Y-84834333D01*
X81699725Y-84839892D01*
X81699136Y-84845583D01*
X81698781Y-84851401D01*
X81698662Y-84857344D01*
X81698662Y-85389950D01*
X81698391Y-85402909D01*
X81697581Y-85415587D01*
X81696240Y-85427974D01*
X81694376Y-85440064D01*
X81691996Y-85451846D01*
X81689108Y-85463313D01*
X81685719Y-85474456D01*
X81681836Y-85485266D01*
X81677468Y-85495735D01*
X81672620Y-85505855D01*
X81667302Y-85515617D01*
X81661520Y-85525012D01*
X81655282Y-85534031D01*
X81648595Y-85542667D01*
X81641467Y-85550911D01*
X81633905Y-85558754D01*
X81625917Y-85566188D01*
X81617510Y-85573204D01*
X81608692Y-85579794D01*
X81599469Y-85585948D01*
X81589850Y-85591660D01*
X81579842Y-85596919D01*
X81569453Y-85601718D01*
X81558689Y-85606048D01*
X81547559Y-85609901D01*
X81536070Y-85613268D01*
X81524229Y-85616140D01*
X81512043Y-85618509D01*
X81499521Y-85620366D01*
X81486669Y-85621703D01*
X81473496Y-85622512D01*
X81460008Y-85622783D01*
X81446537Y-85622512D01*
X81433412Y-85621703D01*
X81420639Y-85620366D01*
X81408223Y-85618509D01*
X81396169Y-85616140D01*
X81384484Y-85613268D01*
X81373171Y-85609901D01*
X81362236Y-85606048D01*
X81351685Y-85601718D01*
X81341524Y-85596919D01*
X81331756Y-85591660D01*
X81322389Y-85585948D01*
X81313426Y-85579794D01*
X81304873Y-85573204D01*
X81296737Y-85566188D01*
X81289021Y-85558754D01*
X81281732Y-85550911D01*
X81274874Y-85542667D01*
X81268453Y-85534031D01*
X81262475Y-85525012D01*
X81256944Y-85515617D01*
X81251866Y-85505855D01*
X81247247Y-85495736D01*
X81243091Y-85485266D01*
X81239404Y-85474456D01*
X81236192Y-85463313D01*
X81233459Y-85451846D01*
X81231211Y-85440064D01*
X81229453Y-85427975D01*
X81228191Y-85415587D01*
X81227430Y-85402909D01*
X81227175Y-85389950D01*
X81227175Y-84636152D01*
X81355233Y-84636152D01*
X81355233Y-85378308D01*
X81355352Y-85384251D01*
X81355707Y-85390069D01*
X81356295Y-85395760D01*
X81357115Y-85401319D01*
X81358162Y-85406741D01*
X81359435Y-85412023D01*
X81360930Y-85417159D01*
X81362646Y-85422147D01*
X81364579Y-85426980D01*
X81366726Y-85431657D01*
X81369086Y-85436171D01*
X81371655Y-85440519D01*
X81374431Y-85444696D01*
X81377412Y-85448698D01*
X81380593Y-85452522D01*
X81383973Y-85456162D01*
X81387550Y-85459615D01*
X81391320Y-85462875D01*
X81395281Y-85465940D01*
X81399429Y-85468804D01*
X81403764Y-85471464D01*
X81408281Y-85473914D01*
X81412978Y-85476152D01*
X81417853Y-85478172D01*
X81422902Y-85479970D01*
X81428124Y-85481543D01*
X81433515Y-85482885D01*
X81439072Y-85483993D01*
X81444794Y-85484862D01*
X81450678Y-85485488D01*
X81456720Y-85485867D01*
X81462919Y-85485994D01*
X81469117Y-85485867D01*
X81475159Y-85485488D01*
X81481043Y-85484862D01*
X81486765Y-85483993D01*
X81492322Y-85482885D01*
X81497713Y-85481543D01*
X81502935Y-85479970D01*
X81507985Y-85478172D01*
X81512859Y-85476152D01*
X81517556Y-85473914D01*
X81522073Y-85471464D01*
X81526408Y-85468804D01*
X81530556Y-85465940D01*
X81534517Y-85462875D01*
X81538287Y-85459615D01*
X81541864Y-85456162D01*
X81545244Y-85452522D01*
X81548426Y-85448698D01*
X81551406Y-85444696D01*
X81554182Y-85440519D01*
X81556751Y-85436171D01*
X81559111Y-85431657D01*
X81561259Y-85426980D01*
X81563191Y-85422147D01*
X81564907Y-85417159D01*
X81566402Y-85412023D01*
X81567675Y-85406741D01*
X81568722Y-85401319D01*
X81569542Y-85395760D01*
X81570130Y-85390069D01*
X81570485Y-85384251D01*
X81570604Y-85378308D01*
X81570604Y-84845702D01*
X81570875Y-84832743D01*
X81571684Y-84820066D01*
X81573021Y-84807678D01*
X81574879Y-84795589D01*
X81577248Y-84783806D01*
X81580120Y-84772339D01*
X81583486Y-84761196D01*
X81587339Y-84750386D01*
X81591669Y-84739917D01*
X81596468Y-84729797D01*
X81601727Y-84720036D01*
X81607439Y-84710641D01*
X81613594Y-84701621D01*
X81620183Y-84692985D01*
X81627199Y-84684741D01*
X81634633Y-84676898D01*
X81642476Y-84669464D01*
X81650720Y-84662448D01*
X81659356Y-84655859D01*
X81668376Y-84649704D01*
X81677771Y-84643992D01*
X81687532Y-84638733D01*
X81697652Y-84633934D01*
X81708121Y-84629604D01*
X81718931Y-84625751D01*
X81730074Y-84622384D01*
X81741541Y-84619512D01*
X81753324Y-84617143D01*
X81765413Y-84615286D01*
X81777801Y-84613949D01*
X81790478Y-84613140D01*
X81803437Y-84612869D01*
X81809258Y-84612869D01*
X81822217Y-84613140D01*
G37*
G36*
X79713758Y-83841608D02*
G01*
X79585700Y-83841608D01*
X79585700Y-83405046D01*
X78901752Y-83405046D01*
X78901752Y-83265346D01*
X79585700Y-83265346D01*
X79585700Y-82828783D01*
X79713758Y-82828783D01*
X79713758Y-83841608D01*
G37*
G36*
X79029810Y-91952939D02*
G01*
X79029929Y-91958882D01*
X79030284Y-91964700D01*
X79030872Y-91970391D01*
X79031692Y-91975950D01*
X79032739Y-91981372D01*
X79034012Y-91986654D01*
X79035507Y-91991790D01*
X79037223Y-91996778D01*
X79039156Y-92001611D01*
X79041303Y-92006288D01*
X79043663Y-92010802D01*
X79046232Y-92015150D01*
X79049008Y-92019327D01*
X79051989Y-92023329D01*
X79055170Y-92027153D01*
X79058551Y-92030793D01*
X79062127Y-92034246D01*
X79065897Y-92037506D01*
X79069858Y-92040571D01*
X79074006Y-92043435D01*
X79078341Y-92046095D01*
X79082858Y-92048545D01*
X79087555Y-92050783D01*
X79092430Y-92052803D01*
X79097479Y-92054601D01*
X79102701Y-92056174D01*
X79108092Y-92057516D01*
X79113650Y-92058624D01*
X79119371Y-92059493D01*
X79125255Y-92060119D01*
X79131297Y-92060497D01*
X79137496Y-92060625D01*
X79143694Y-92060497D01*
X79149736Y-92060119D01*
X79155620Y-92059493D01*
X79161342Y-92058624D01*
X79166899Y-92057516D01*
X79172290Y-92056174D01*
X79177512Y-92054601D01*
X79182561Y-92052803D01*
X79187436Y-92050783D01*
X79192133Y-92048545D01*
X79196650Y-92046094D01*
X79200985Y-92043435D01*
X79205133Y-92040571D01*
X79209094Y-92037506D01*
X79212864Y-92034245D01*
X79216441Y-92030793D01*
X79219821Y-92027152D01*
X79223002Y-92023329D01*
X79225983Y-92019326D01*
X79228759Y-92015149D01*
X79231328Y-92010801D01*
X79233688Y-92006287D01*
X79235836Y-92001611D01*
X79237768Y-91996777D01*
X79239484Y-91991790D01*
X79240979Y-91986653D01*
X79242252Y-91981372D01*
X79243299Y-91975950D01*
X79244119Y-91970391D01*
X79244707Y-91964700D01*
X79245062Y-91958882D01*
X79245181Y-91952939D01*
X79245181Y-91245708D01*
X79716668Y-91245708D01*
X79716668Y-92127564D01*
X79576969Y-92127564D01*
X79576969Y-91385408D01*
X79373239Y-91385408D01*
X79373239Y-91964582D01*
X79372968Y-91977541D01*
X79372159Y-91990218D01*
X79370822Y-92002606D01*
X79368965Y-92014695D01*
X79366596Y-92026478D01*
X79363724Y-92037945D01*
X79360357Y-92049087D01*
X79356504Y-92059898D01*
X79352174Y-92070367D01*
X79347375Y-92080487D01*
X79342116Y-92090248D01*
X79336404Y-92099643D01*
X79330250Y-92108663D01*
X79323660Y-92117299D01*
X79316644Y-92125542D01*
X79309210Y-92133385D01*
X79301367Y-92140819D01*
X79293123Y-92147835D01*
X79284487Y-92154425D01*
X79275468Y-92160580D01*
X79266073Y-92166291D01*
X79256311Y-92171550D01*
X79246192Y-92176349D01*
X79235722Y-92180680D01*
X79224912Y-92184532D01*
X79213769Y-92187899D01*
X79202302Y-92190771D01*
X79190520Y-92193140D01*
X79178431Y-92194997D01*
X79166043Y-92196334D01*
X79153365Y-92197143D01*
X79140406Y-92197414D01*
X79134585Y-92197414D01*
X79121626Y-92197143D01*
X79108948Y-92196334D01*
X79096561Y-92194997D01*
X79084471Y-92193140D01*
X79072689Y-92190771D01*
X79061222Y-92187899D01*
X79050079Y-92184532D01*
X79039269Y-92180680D01*
X79028800Y-92176349D01*
X79018680Y-92171550D01*
X79008918Y-92166291D01*
X78999524Y-92160580D01*
X78990504Y-92154425D01*
X78981868Y-92147835D01*
X78973624Y-92140819D01*
X78965781Y-92133385D01*
X78958347Y-92125542D01*
X78951331Y-92117299D01*
X78944742Y-92108663D01*
X78938587Y-92099643D01*
X78932875Y-92090248D01*
X78927616Y-92080487D01*
X78922817Y-92070367D01*
X78918487Y-92059898D01*
X78914634Y-92049087D01*
X78911267Y-92037945D01*
X78908395Y-92026478D01*
X78906026Y-92014695D01*
X78904169Y-92002606D01*
X78902832Y-91990218D01*
X78902023Y-91977541D01*
X78901752Y-91964582D01*
X78901752Y-91245708D01*
X79029810Y-91245708D01*
X79029810Y-91952939D01*
G37*
D10*
X133000000Y-113000000D02*
X133000000Y-123000000D01*
D11*
G36*
X105058153Y-66266857D02*
G01*
X105087718Y-66268752D01*
X105116596Y-66271886D01*
X105144769Y-66276237D01*
X105172217Y-66281787D01*
X105198922Y-66288514D01*
X105224863Y-66296399D01*
X105250022Y-66305421D01*
X105274379Y-66315560D01*
X105297916Y-66326796D01*
X105320612Y-66339108D01*
X105342450Y-66352477D01*
X105363410Y-66366881D01*
X105383472Y-66382301D01*
X105402617Y-66398717D01*
X105420827Y-66416108D01*
X105438081Y-66434454D01*
X105454362Y-66453734D01*
X105469649Y-66473929D01*
X105483924Y-66495019D01*
X105497166Y-66516982D01*
X105509358Y-66539799D01*
X105520480Y-66563450D01*
X105530513Y-66587913D01*
X105539437Y-66613170D01*
X105547234Y-66639200D01*
X105553883Y-66665982D01*
X105559367Y-66693496D01*
X105563665Y-66721722D01*
X105566760Y-66750640D01*
X105568630Y-66780229D01*
X105569258Y-66810469D01*
X105569258Y-67724340D01*
X105569512Y-67736225D01*
X105570270Y-67747862D01*
X105571522Y-67759244D01*
X105573260Y-67770361D01*
X105575475Y-67781205D01*
X105578160Y-67791768D01*
X105581305Y-67802041D01*
X105584901Y-67812016D01*
X105588942Y-67821684D01*
X105593417Y-67831036D01*
X105598318Y-67840064D01*
X105603637Y-67848760D01*
X105609366Y-67857115D01*
X105615495Y-67865120D01*
X105622016Y-67872767D01*
X105628921Y-67880047D01*
X105636202Y-67886952D01*
X105643849Y-67893474D01*
X105651854Y-67899603D01*
X105660208Y-67905332D01*
X105668904Y-67910651D01*
X105677932Y-67915552D01*
X105687285Y-67920028D01*
X105696952Y-67924068D01*
X105706927Y-67927665D01*
X105717200Y-67930810D01*
X105727763Y-67933494D01*
X105738608Y-67935710D01*
X105749725Y-67937448D01*
X105761107Y-67938700D01*
X105772744Y-67939457D01*
X105784629Y-67939711D01*
X105796513Y-67939457D01*
X105808151Y-67938700D01*
X105819532Y-67937448D01*
X105830650Y-67935710D01*
X105841494Y-67933494D01*
X105852057Y-67930810D01*
X105862330Y-67927665D01*
X105872305Y-67924068D01*
X105881973Y-67920028D01*
X105891325Y-67915553D01*
X105900353Y-67910651D01*
X105909049Y-67905332D01*
X105917404Y-67899604D01*
X105925409Y-67893474D01*
X105933056Y-67886953D01*
X105940336Y-67880048D01*
X105947241Y-67872767D01*
X105953763Y-67865120D01*
X105959892Y-67857115D01*
X105965620Y-67848761D01*
X105970939Y-67840065D01*
X105975841Y-67831037D01*
X105980316Y-67821684D01*
X105984356Y-67812017D01*
X105987953Y-67802042D01*
X105991098Y-67791769D01*
X105993782Y-67781206D01*
X105995998Y-67770361D01*
X105997736Y-67759244D01*
X105998988Y-67747862D01*
X105999745Y-67736225D01*
X106000000Y-67724340D01*
X106000000Y-66312788D01*
X106256116Y-66312788D01*
X106256116Y-67753445D01*
X106255573Y-67779363D01*
X106253956Y-67804718D01*
X106251282Y-67829493D01*
X106247567Y-67853672D01*
X106242829Y-67877237D01*
X106237085Y-67900170D01*
X106230352Y-67922456D01*
X106222646Y-67944077D01*
X106213986Y-67965015D01*
X106204388Y-67985255D01*
X106193869Y-68004778D01*
X106182446Y-68023567D01*
X106170137Y-68041607D01*
X106156957Y-68058879D01*
X106142925Y-68075367D01*
X106128058Y-68091053D01*
X106112372Y-68105920D01*
X106095884Y-68119952D01*
X106078612Y-68133132D01*
X106060573Y-68145441D01*
X106041783Y-68156864D01*
X106022260Y-68167383D01*
X106002020Y-68176981D01*
X105981082Y-68185641D01*
X105959461Y-68193347D01*
X105937175Y-68200080D01*
X105914242Y-68205824D01*
X105890677Y-68210562D01*
X105866498Y-68214277D01*
X105841723Y-68216951D01*
X105816368Y-68218568D01*
X105790450Y-68219111D01*
X105778808Y-68219111D01*
X105753154Y-68218568D01*
X105728047Y-68216951D01*
X105703503Y-68214277D01*
X105679541Y-68210562D01*
X105656178Y-68205824D01*
X105633431Y-68200080D01*
X105611319Y-68193347D01*
X105589858Y-68185641D01*
X105569067Y-68176981D01*
X105548962Y-68167383D01*
X105529563Y-68156864D01*
X105510885Y-68145441D01*
X105492947Y-68133132D01*
X105475766Y-68119952D01*
X105459360Y-68105920D01*
X105443746Y-68091053D01*
X105428943Y-68075367D01*
X105414967Y-68058879D01*
X105401836Y-68041607D01*
X105389568Y-68023567D01*
X105378181Y-68004778D01*
X105367691Y-67985255D01*
X105358117Y-67965015D01*
X105349476Y-67944077D01*
X105341786Y-67922456D01*
X105335064Y-67900170D01*
X105329328Y-67877237D01*
X105324595Y-67853672D01*
X105320884Y-67829493D01*
X105318211Y-67804718D01*
X105316594Y-67779363D01*
X105316052Y-67753445D01*
X105316052Y-66857035D01*
X105315695Y-66839498D01*
X105314633Y-66822363D01*
X105312874Y-66805640D01*
X105310430Y-66789340D01*
X105307310Y-66773472D01*
X105303524Y-66758048D01*
X105299083Y-66743076D01*
X105293996Y-66728568D01*
X105288274Y-66714533D01*
X105281927Y-66700981D01*
X105274966Y-66687922D01*
X105267399Y-66675368D01*
X105259237Y-66663326D01*
X105250491Y-66651809D01*
X105241171Y-66640826D01*
X105231286Y-66630387D01*
X105220847Y-66620502D01*
X105209863Y-66611181D01*
X105198346Y-66602435D01*
X105186305Y-66594274D01*
X105173750Y-66586707D01*
X105160692Y-66579745D01*
X105147140Y-66573398D01*
X105133105Y-66567676D01*
X105118596Y-66562590D01*
X105103625Y-66558149D01*
X105088200Y-66554363D01*
X105072333Y-66551243D01*
X105056033Y-66548798D01*
X105039310Y-66547040D01*
X105022175Y-66545977D01*
X105004637Y-66545621D01*
X104908593Y-66545621D01*
X104908593Y-68219111D01*
X104629193Y-68219111D01*
X104629193Y-66266221D01*
X105027920Y-66266221D01*
X105058153Y-66266857D01*
G37*
D10*
X108000000Y-49000000D02*
X108000000Y-50000000D01*
X98000000Y-113000000D02*
X98000000Y-123000000D01*
D11*
G36*
X81579335Y-89688635D02*
G01*
X81916943Y-89688635D01*
X82042091Y-89688635D01*
X82042091Y-90448255D01*
X82041812Y-90461751D01*
X82040980Y-90474949D01*
X82039607Y-90487839D01*
X82037703Y-90500415D01*
X82035279Y-90512666D01*
X82032345Y-90524585D01*
X82028913Y-90536162D01*
X82024993Y-90547390D01*
X82020595Y-90558260D01*
X82015730Y-90568764D01*
X82010409Y-90578892D01*
X82004642Y-90588636D01*
X81998441Y-90597989D01*
X81991816Y-90606940D01*
X81984777Y-90615482D01*
X81977335Y-90623607D01*
X81969500Y-90631305D01*
X81961285Y-90638568D01*
X81952698Y-90645388D01*
X81943751Y-90651756D01*
X81934455Y-90657663D01*
X81924819Y-90663102D01*
X81914855Y-90668063D01*
X81904574Y-90672538D01*
X81893986Y-90676519D01*
X81883101Y-90679996D01*
X81871931Y-90682962D01*
X81860486Y-90685408D01*
X81848776Y-90687325D01*
X81836813Y-90688704D01*
X81824607Y-90689539D01*
X81812168Y-90689819D01*
X81800234Y-90689547D01*
X81788453Y-90688739D01*
X81776843Y-90687401D01*
X81765420Y-90685544D01*
X81754202Y-90683175D01*
X81743205Y-90680303D01*
X81732447Y-90676936D01*
X81721945Y-90673084D01*
X81711716Y-90668754D01*
X81701777Y-90663954D01*
X81692145Y-90658695D01*
X81682837Y-90652984D01*
X81673870Y-90646829D01*
X81665261Y-90640239D01*
X81657027Y-90633223D01*
X81649185Y-90625789D01*
X81641275Y-90634313D01*
X81632837Y-90642411D01*
X81623887Y-90650065D01*
X81614442Y-90657258D01*
X81604520Y-90663974D01*
X81594137Y-90670196D01*
X81583311Y-90675906D01*
X81572059Y-90681087D01*
X81560397Y-90685723D01*
X81548344Y-90689796D01*
X81535915Y-90693289D01*
X81523128Y-90696185D01*
X81509999Y-90698467D01*
X81496547Y-90700118D01*
X81482788Y-90701122D01*
X81468739Y-90701460D01*
X81455507Y-90701180D01*
X81442558Y-90700346D01*
X81429899Y-90698966D01*
X81417540Y-90697049D01*
X81405490Y-90694603D01*
X81393758Y-90691637D01*
X81382354Y-90688160D01*
X81371286Y-90684179D01*
X81360563Y-90679704D01*
X81350194Y-90674743D01*
X81340189Y-90669304D01*
X81330557Y-90663397D01*
X81321306Y-90657029D01*
X81312446Y-90650209D01*
X81303985Y-90642946D01*
X81295933Y-90635247D01*
X81288299Y-90627123D01*
X81281092Y-90618581D01*
X81274321Y-90609629D01*
X81267994Y-90600277D01*
X81262122Y-90590532D01*
X81256713Y-90580404D01*
X81251776Y-90569901D01*
X81247320Y-90559031D01*
X81243355Y-90547803D01*
X81239889Y-90536225D01*
X81236931Y-90524306D01*
X81234490Y-90512055D01*
X81232577Y-90499480D01*
X81231199Y-90486589D01*
X81230365Y-90473391D01*
X81230085Y-90459895D01*
X81230085Y-89828336D01*
X81358143Y-89828336D01*
X81358143Y-90445344D01*
X81358279Y-90451815D01*
X81358682Y-90458129D01*
X81359347Y-90464284D01*
X81360269Y-90470276D01*
X81361443Y-90476101D01*
X81362863Y-90481757D01*
X81364524Y-90487240D01*
X81366420Y-90492547D01*
X81368546Y-90497675D01*
X81370898Y-90502621D01*
X81373469Y-90507382D01*
X81376254Y-90511954D01*
X81379248Y-90516334D01*
X81382446Y-90520519D01*
X81385842Y-90524505D01*
X81389430Y-90528291D01*
X81393207Y-90531871D01*
X81397165Y-90535244D01*
X81401301Y-90538406D01*
X81405608Y-90541353D01*
X81410082Y-90544084D01*
X81414716Y-90546593D01*
X81419506Y-90548879D01*
X81424446Y-90550937D01*
X81429532Y-90552766D01*
X81434756Y-90554361D01*
X81440116Y-90555719D01*
X81445604Y-90556838D01*
X81451215Y-90557713D01*
X81456945Y-90558343D01*
X81462789Y-90558723D01*
X81468739Y-90558850D01*
X81474690Y-90558714D01*
X81480533Y-90558311D01*
X81486263Y-90557644D01*
X81491875Y-90556718D01*
X81497363Y-90555539D01*
X81502722Y-90554111D01*
X81507947Y-90552439D01*
X81513032Y-90550528D01*
X81517972Y-90548382D01*
X81522762Y-90546007D01*
X81527397Y-90543406D01*
X81531870Y-90540586D01*
X81536177Y-90537550D01*
X81540313Y-90534304D01*
X81544272Y-90530852D01*
X81548048Y-90527199D01*
X81551637Y-90523350D01*
X81555033Y-90519310D01*
X81558230Y-90515083D01*
X81561225Y-90510674D01*
X81564010Y-90506089D01*
X81566581Y-90501331D01*
X81568932Y-90496407D01*
X81571059Y-90491319D01*
X81572955Y-90486074D01*
X81574616Y-90480676D01*
X81576035Y-90475129D01*
X81577209Y-90469440D01*
X81578131Y-90463612D01*
X81578796Y-90457650D01*
X81579200Y-90451559D01*
X81579335Y-90445344D01*
X81579335Y-89828336D01*
X81358143Y-89828336D01*
X81230085Y-89828336D01*
X81230085Y-89828335D01*
X81707393Y-89828335D01*
X81707393Y-90433701D01*
X81707529Y-90440173D01*
X81707931Y-90446487D01*
X81708592Y-90452642D01*
X81709508Y-90458633D01*
X81710671Y-90464459D01*
X81712075Y-90470114D01*
X81713713Y-90475598D01*
X81715579Y-90480905D01*
X81717667Y-90486033D01*
X81719970Y-90490979D01*
X81722482Y-90495740D01*
X81725197Y-90500311D01*
X81728108Y-90504692D01*
X81731208Y-90508876D01*
X81734492Y-90512863D01*
X81737953Y-90516648D01*
X81741584Y-90520229D01*
X81745379Y-90523602D01*
X81749333Y-90526764D01*
X81753437Y-90529711D01*
X81757687Y-90532441D01*
X81762075Y-90534951D01*
X81766595Y-90537236D01*
X81771241Y-90539295D01*
X81776006Y-90541123D01*
X81780884Y-90542718D01*
X81785869Y-90544077D01*
X81790954Y-90545195D01*
X81796133Y-90546071D01*
X81801399Y-90546700D01*
X81806747Y-90547080D01*
X81812168Y-90547208D01*
X81817590Y-90547072D01*
X81822938Y-90546668D01*
X81828204Y-90546001D01*
X81833383Y-90545076D01*
X81838468Y-90543897D01*
X81843453Y-90542469D01*
X81848331Y-90540797D01*
X81853096Y-90538886D01*
X81857742Y-90536740D01*
X81862262Y-90534364D01*
X81866650Y-90531764D01*
X81870900Y-90528944D01*
X81875004Y-90525908D01*
X81878957Y-90522662D01*
X81882753Y-90519210D01*
X81886384Y-90515557D01*
X81889845Y-90511708D01*
X81893129Y-90507668D01*
X81896229Y-90503441D01*
X81899140Y-90499032D01*
X81901855Y-90494447D01*
X81904367Y-90489689D01*
X81906670Y-90484764D01*
X81908758Y-90479677D01*
X81910624Y-90474432D01*
X81912262Y-90469033D01*
X81913666Y-90463487D01*
X81914829Y-90457798D01*
X81915744Y-90451969D01*
X81916406Y-90446007D01*
X81916808Y-90439916D01*
X81916943Y-90433701D01*
X81916943Y-89828335D01*
X81707393Y-89828335D01*
X81230085Y-89828335D01*
X81230085Y-89688635D01*
X81579335Y-89688635D01*
G37*
G36*
X79334526Y-83853725D02*
G01*
X79356440Y-83855139D01*
X79377847Y-83857478D01*
X79398734Y-83860725D01*
X79419086Y-83864865D01*
X79438888Y-83869883D01*
X79458126Y-83875764D01*
X79476787Y-83882491D01*
X79494854Y-83890049D01*
X79512315Y-83898423D01*
X79529154Y-83907598D01*
X79545358Y-83917558D01*
X79560911Y-83928287D01*
X79575800Y-83939770D01*
X79590010Y-83951992D01*
X79603526Y-83964937D01*
X79616335Y-83978590D01*
X79628422Y-83992935D01*
X79639772Y-84007957D01*
X79650371Y-84023640D01*
X79660205Y-84039969D01*
X79669260Y-84056929D01*
X79677520Y-84074503D01*
X79684972Y-84092677D01*
X79691601Y-84111435D01*
X79697393Y-84130762D01*
X79702334Y-84150642D01*
X79706408Y-84171059D01*
X79709602Y-84191999D01*
X79711901Y-84213446D01*
X79713291Y-84235384D01*
X79713758Y-84257798D01*
X79713758Y-84889358D01*
X79574058Y-84889358D01*
X79574058Y-84257798D01*
X79573753Y-84243211D01*
X79572843Y-84228924D01*
X79571339Y-84214948D01*
X79569249Y-84201295D01*
X79566584Y-84187974D01*
X79563353Y-84174996D01*
X79559566Y-84162372D01*
X79555231Y-84150112D01*
X79550360Y-84138228D01*
X79544961Y-84126730D01*
X79539044Y-84115628D01*
X79532619Y-84104933D01*
X79525695Y-84094656D01*
X79518281Y-84084807D01*
X79510388Y-84075398D01*
X79502025Y-84066438D01*
X79493202Y-84057939D01*
X79483928Y-84049911D01*
X79474212Y-84042364D01*
X79464065Y-84035310D01*
X79453496Y-84028759D01*
X79442514Y-84022722D01*
X79431129Y-84017209D01*
X79419351Y-84012232D01*
X79407190Y-84007800D01*
X79394654Y-84003924D01*
X79381754Y-84000615D01*
X79368499Y-83997884D01*
X79354898Y-83995742D01*
X79340962Y-83994198D01*
X79326700Y-83993264D01*
X79312121Y-83992950D01*
X79306300Y-83992950D01*
X79291713Y-83993256D01*
X79277426Y-83994166D01*
X79263451Y-83995672D01*
X79249797Y-83997765D01*
X79236476Y-84000435D01*
X79223498Y-84003674D01*
X79210874Y-84007473D01*
X79198615Y-84011822D01*
X79186730Y-84016713D01*
X79175232Y-84022136D01*
X79164130Y-84028082D01*
X79153435Y-84034543D01*
X79143158Y-84041509D01*
X79133309Y-84048971D01*
X79123900Y-84056920D01*
X79114940Y-84065347D01*
X79106441Y-84074243D01*
X79098413Y-84083599D01*
X79090866Y-84093405D01*
X79083812Y-84103654D01*
X79077261Y-84114335D01*
X79071224Y-84125440D01*
X79065711Y-84136960D01*
X79060734Y-84148885D01*
X79056302Y-84161206D01*
X79052426Y-84173915D01*
X79049117Y-84187003D01*
X79046386Y-84200459D01*
X79044244Y-84214276D01*
X79042700Y-84228444D01*
X79041766Y-84242954D01*
X79041452Y-84257798D01*
X79041452Y-84889358D01*
X78901752Y-84889358D01*
X78901752Y-84257798D01*
X78902227Y-84235384D01*
X78903642Y-84213446D01*
X78905980Y-84191999D01*
X78909227Y-84171059D01*
X78913368Y-84150642D01*
X78918386Y-84130762D01*
X78924266Y-84111435D01*
X78930993Y-84092677D01*
X78938551Y-84074503D01*
X78946926Y-84056929D01*
X78956100Y-84039969D01*
X78966060Y-84023640D01*
X78976789Y-84007957D01*
X78988273Y-83992935D01*
X79000494Y-83978590D01*
X79013440Y-83964937D01*
X79027092Y-83951992D01*
X79041437Y-83939770D01*
X79056459Y-83928287D01*
X79072142Y-83917558D01*
X79088471Y-83907598D01*
X79105431Y-83898423D01*
X79123006Y-83890049D01*
X79141180Y-83882491D01*
X79159938Y-83875764D01*
X79179264Y-83869883D01*
X79199144Y-83864865D01*
X79219562Y-83860725D01*
X79240502Y-83857478D01*
X79261948Y-83855139D01*
X79283886Y-83853725D01*
X79306300Y-83853250D01*
X79312121Y-83853250D01*
X79334526Y-83853725D01*
G37*
G36*
X79309210Y-84924283D02*
G01*
X79312121Y-84924283D01*
X79334526Y-84924758D01*
X79356440Y-84926173D01*
X79377847Y-84928511D01*
X79398734Y-84931758D01*
X79419086Y-84935899D01*
X79438888Y-84940917D01*
X79458126Y-84946797D01*
X79476787Y-84953524D01*
X79494854Y-84961082D01*
X79512315Y-84969457D01*
X79529154Y-84978631D01*
X79545358Y-84988591D01*
X79560911Y-84999320D01*
X79575800Y-85010804D01*
X79590010Y-85023026D01*
X79603526Y-85035971D01*
X79616335Y-85049623D01*
X79628422Y-85063968D01*
X79639772Y-85078990D01*
X79650371Y-85094673D01*
X79660205Y-85111003D01*
X79669260Y-85127962D01*
X79677520Y-85145537D01*
X79684972Y-85163711D01*
X79691601Y-85182469D01*
X79697393Y-85201795D01*
X79702334Y-85221675D01*
X79706408Y-85242093D01*
X79709602Y-85263033D01*
X79711901Y-85284479D01*
X79713291Y-85306417D01*
X79713758Y-85328831D01*
X79713758Y-85683902D01*
X79713291Y-85706316D01*
X79711899Y-85728254D01*
X79709595Y-85749701D01*
X79706391Y-85770640D01*
X79702300Y-85791058D01*
X79697336Y-85810938D01*
X79691510Y-85830265D01*
X79684836Y-85849023D01*
X79677326Y-85867197D01*
X79668993Y-85884771D01*
X79659851Y-85901731D01*
X79649911Y-85918060D01*
X79639186Y-85933743D01*
X79627690Y-85948765D01*
X79615436Y-85963110D01*
X79602435Y-85976763D01*
X79588700Y-85989708D01*
X79574246Y-86001930D01*
X79559083Y-86013413D01*
X79543226Y-86024142D01*
X79526686Y-86034102D01*
X79509478Y-86043277D01*
X79491612Y-86051651D01*
X79473103Y-86059209D01*
X79453963Y-86065936D01*
X79434205Y-86071817D01*
X79413841Y-86076835D01*
X79392885Y-86080975D01*
X79371349Y-86084222D01*
X79349246Y-86086560D01*
X79326588Y-86087975D01*
X79303389Y-86088450D01*
X79280207Y-86087975D01*
X79257599Y-86086560D01*
X79235574Y-86084222D01*
X79214144Y-86080975D01*
X79193320Y-86076835D01*
X79173111Y-86071817D01*
X79153530Y-86065936D01*
X79134585Y-86059209D01*
X79116289Y-86051651D01*
X79098651Y-86043277D01*
X79081683Y-86034102D01*
X79065395Y-86024142D01*
X79049797Y-86013413D01*
X79034901Y-86001930D01*
X79020716Y-85989708D01*
X79007255Y-85976763D01*
X78994526Y-85963110D01*
X78982542Y-85948765D01*
X78971312Y-85933743D01*
X78960847Y-85918060D01*
X78951158Y-85901731D01*
X78942256Y-85884771D01*
X78934151Y-85867197D01*
X78926854Y-85849023D01*
X78920376Y-85830265D01*
X78914727Y-85810938D01*
X78909917Y-85791058D01*
X78905958Y-85770640D01*
X78902861Y-85749701D01*
X78900635Y-85728254D01*
X78899292Y-85706316D01*
X78898841Y-85683902D01*
X78898841Y-85328831D01*
X79041452Y-85328831D01*
X79041452Y-85683902D01*
X79041757Y-85698489D01*
X79042668Y-85712776D01*
X79044174Y-85726752D01*
X79046267Y-85740405D01*
X79048937Y-85753726D01*
X79052176Y-85766704D01*
X79055975Y-85779328D01*
X79060324Y-85791588D01*
X79065215Y-85803472D01*
X79070638Y-85814970D01*
X79076584Y-85826072D01*
X79083045Y-85836767D01*
X79090010Y-85847044D01*
X79097472Y-85856893D01*
X79105421Y-85866302D01*
X79113848Y-85875262D01*
X79122744Y-85883761D01*
X79132100Y-85891789D01*
X79141907Y-85899336D01*
X79152156Y-85906390D01*
X79162837Y-85912941D01*
X79173942Y-85918978D01*
X79185461Y-85924491D01*
X79197386Y-85929469D01*
X79209708Y-85933901D01*
X79222417Y-85937776D01*
X79235504Y-85941085D01*
X79248961Y-85943816D01*
X79262778Y-85945959D01*
X79276946Y-85947502D01*
X79291456Y-85948436D01*
X79306300Y-85948750D01*
X79321160Y-85948445D01*
X79335719Y-85947534D01*
X79349965Y-85946028D01*
X79363888Y-85943935D01*
X79377477Y-85941265D01*
X79390720Y-85938026D01*
X79403605Y-85934227D01*
X79416122Y-85929878D01*
X79428260Y-85924987D01*
X79440008Y-85919564D01*
X79451353Y-85913618D01*
X79462286Y-85907157D01*
X79472794Y-85900191D01*
X79482867Y-85892730D01*
X79492493Y-85884781D01*
X79501661Y-85876354D01*
X79510361Y-85867458D01*
X79518580Y-85858102D01*
X79526308Y-85848295D01*
X79533534Y-85838046D01*
X79540246Y-85827365D01*
X79546433Y-85816260D01*
X79552083Y-85804741D01*
X79557187Y-85792815D01*
X79561732Y-85780494D01*
X79565707Y-85767785D01*
X79569101Y-85754698D01*
X79571904Y-85741241D01*
X79574103Y-85727424D01*
X79575687Y-85713256D01*
X79576646Y-85698745D01*
X79576969Y-85683902D01*
X79576969Y-85328831D01*
X79576663Y-85314244D01*
X79575753Y-85299957D01*
X79574249Y-85285982D01*
X79572160Y-85272328D01*
X79569494Y-85259007D01*
X79566263Y-85246029D01*
X79562476Y-85233405D01*
X79558142Y-85221146D01*
X79553270Y-85209262D01*
X79547871Y-85197763D01*
X79541955Y-85186661D01*
X79535529Y-85175966D01*
X79528605Y-85165689D01*
X79521192Y-85155841D01*
X79513299Y-85146431D01*
X79504936Y-85137471D01*
X79496112Y-85128972D01*
X79486838Y-85120944D01*
X79477123Y-85113398D01*
X79466975Y-85106344D01*
X79456406Y-85099793D01*
X79445424Y-85093755D01*
X79434040Y-85088243D01*
X79422262Y-85083265D01*
X79410100Y-85078833D01*
X79397564Y-85074957D01*
X79384664Y-85071649D01*
X79371409Y-85068918D01*
X79357809Y-85066775D01*
X79343872Y-85065231D01*
X79329610Y-85064297D01*
X79315031Y-85063983D01*
X79309210Y-85063983D01*
X79294623Y-85064289D01*
X79280336Y-85065199D01*
X79266361Y-85066705D01*
X79252707Y-85068798D01*
X79239386Y-85071469D01*
X79226408Y-85074708D01*
X79213784Y-85078506D01*
X79201525Y-85082856D01*
X79189640Y-85087746D01*
X79178142Y-85093169D01*
X79167040Y-85099116D01*
X79156345Y-85105576D01*
X79146068Y-85112542D01*
X79136219Y-85120004D01*
X79126810Y-85127953D01*
X79117850Y-85136380D01*
X79109351Y-85145276D01*
X79101323Y-85154632D01*
X79093777Y-85164439D01*
X79086723Y-85174687D01*
X79080172Y-85185369D01*
X79074134Y-85196473D01*
X79068622Y-85207993D01*
X79063644Y-85219918D01*
X79059212Y-85232240D01*
X79055336Y-85244949D01*
X79052027Y-85258036D01*
X79049296Y-85271493D01*
X79047154Y-85285310D01*
X79045610Y-85299478D01*
X79044676Y-85313988D01*
X79044362Y-85328831D01*
X79041452Y-85328831D01*
X78898841Y-85328831D01*
X78899316Y-85306417D01*
X78900731Y-85284479D01*
X78903069Y-85263033D01*
X78906316Y-85242093D01*
X78910457Y-85221675D01*
X78915475Y-85201795D01*
X78921355Y-85182468D01*
X78928082Y-85163710D01*
X78935640Y-85145536D01*
X78944015Y-85127962D01*
X78953189Y-85111002D01*
X78963149Y-85094673D01*
X78973878Y-85078990D01*
X78985362Y-85063968D01*
X78997584Y-85049623D01*
X79010529Y-85035970D01*
X79024182Y-85023025D01*
X79038527Y-85010803D01*
X79053548Y-84999320D01*
X79069232Y-84988591D01*
X79085561Y-84978631D01*
X79102520Y-84969456D01*
X79120095Y-84961082D01*
X79138269Y-84953524D01*
X79157027Y-84946797D01*
X79176354Y-84940916D01*
X79196234Y-84935898D01*
X79216651Y-84931758D01*
X79237591Y-84928511D01*
X79259038Y-84926172D01*
X79280976Y-84924758D01*
X79303389Y-84924283D01*
X79309210Y-84924283D01*
G37*
D10*
X88000000Y-110500000D02*
X88000000Y-113000000D01*
X132000000Y-146500000D02*
X130500000Y-144000000D01*
X133500000Y-144000000D01*
X132000000Y-146500000D01*
G36*
X132000000Y-146500000D02*
G01*
X130500000Y-144000000D01*
X133500000Y-144000000D01*
X132000000Y-146500000D01*
G37*
X80500000Y-98000000D02*
X98000000Y-98000000D01*
X98000000Y-118000000D02*
X78000000Y-118000000D01*
D11*
G36*
X79334526Y-95105395D02*
G01*
X79356440Y-95106809D01*
X79377847Y-95109147D01*
X79398734Y-95112395D01*
X79419086Y-95116535D01*
X79438888Y-95121553D01*
X79458126Y-95127433D01*
X79476787Y-95134160D01*
X79494854Y-95141719D01*
X79512315Y-95150093D01*
X79529154Y-95159268D01*
X79545358Y-95169228D01*
X79560911Y-95179957D01*
X79575800Y-95191440D01*
X79590010Y-95203662D01*
X79603526Y-95216607D01*
X79616335Y-95230260D01*
X79628422Y-95244605D01*
X79639772Y-95259627D01*
X79650371Y-95275310D01*
X79660205Y-95291639D01*
X79669260Y-95308599D01*
X79677520Y-95326173D01*
X79684972Y-95344347D01*
X79691601Y-95363106D01*
X79697393Y-95382432D01*
X79702334Y-95402312D01*
X79706408Y-95422730D01*
X79709602Y-95443669D01*
X79711901Y-95465116D01*
X79713291Y-95487054D01*
X79713758Y-95509468D01*
X79713758Y-95748122D01*
X79713283Y-95770536D01*
X79711869Y-95792474D01*
X79709533Y-95813920D01*
X79706289Y-95834860D01*
X79702154Y-95855278D01*
X79697144Y-95875158D01*
X79691275Y-95894484D01*
X79684563Y-95913243D01*
X79677024Y-95931417D01*
X79668674Y-95948991D01*
X79659528Y-95965951D01*
X79649604Y-95982280D01*
X79638916Y-95997963D01*
X79627482Y-96012985D01*
X79615316Y-96027330D01*
X79602435Y-96040983D01*
X79588854Y-96053928D01*
X79574591Y-96066150D01*
X79559660Y-96077633D01*
X79544079Y-96088362D01*
X79527861Y-96098322D01*
X79511025Y-96107497D01*
X79493586Y-96115871D01*
X79475559Y-96123429D01*
X79456961Y-96130156D01*
X79437807Y-96136037D01*
X79418114Y-96141055D01*
X79397898Y-96145195D01*
X79377175Y-96148442D01*
X79355960Y-96150781D01*
X79334270Y-96152195D01*
X79312121Y-96152670D01*
X78901752Y-96152670D01*
X78901752Y-96012970D01*
X79137496Y-96012970D01*
X79137496Y-96010060D01*
X79262644Y-96010060D01*
X79309210Y-96010060D01*
X79323789Y-96009755D01*
X79338051Y-96008844D01*
X79351988Y-96007338D01*
X79365588Y-96005245D01*
X79378843Y-96002575D01*
X79391743Y-95999336D01*
X79404279Y-95995537D01*
X79416441Y-95991188D01*
X79428219Y-95986297D01*
X79439603Y-95980874D01*
X79450585Y-95974928D01*
X79461154Y-95968467D01*
X79471301Y-95961501D01*
X79481017Y-95954039D01*
X79490291Y-95946090D01*
X79499115Y-95937663D01*
X79507478Y-95928767D01*
X79515371Y-95919411D01*
X79522784Y-95909605D01*
X79529708Y-95899356D01*
X79536134Y-95888675D01*
X79542051Y-95877570D01*
X79547449Y-95866050D01*
X79552321Y-95854125D01*
X79556655Y-95841804D01*
X79560442Y-95829095D01*
X79563674Y-95816007D01*
X79566339Y-95802550D01*
X79568428Y-95788733D01*
X79569933Y-95774565D01*
X79570842Y-95760055D01*
X79571148Y-95745212D01*
X79571148Y-95506558D01*
X79570842Y-95491971D01*
X79569933Y-95477684D01*
X79568428Y-95463708D01*
X79566339Y-95450055D01*
X79563674Y-95436734D01*
X79560442Y-95423756D01*
X79556655Y-95411132D01*
X79552321Y-95398873D01*
X79547449Y-95386988D01*
X79542051Y-95375490D01*
X79536134Y-95364388D01*
X79529708Y-95353693D01*
X79522784Y-95343416D01*
X79515371Y-95333567D01*
X79507478Y-95324158D01*
X79499115Y-95315198D01*
X79490291Y-95306699D01*
X79481017Y-95298671D01*
X79471301Y-95291125D01*
X79461154Y-95284071D01*
X79450585Y-95277520D01*
X79439603Y-95271482D01*
X79428219Y-95265970D01*
X79416441Y-95260992D01*
X79404279Y-95256560D01*
X79391743Y-95252684D01*
X79378843Y-95249375D01*
X79365588Y-95246645D01*
X79351988Y-95244502D01*
X79338051Y-95242958D01*
X79323789Y-95242024D01*
X79309210Y-95241710D01*
X79262644Y-95241710D01*
X79262644Y-96010060D01*
X79137496Y-96010060D01*
X79137496Y-95247529D01*
X78901752Y-95247529D01*
X78901752Y-95107830D01*
X79262644Y-95107830D01*
X79312121Y-95107830D01*
X79312121Y-95104920D01*
X79334526Y-95105395D01*
G37*
D10*
X140500000Y-113000000D02*
X140500000Y-123000000D01*
X90500000Y-110500000D02*
X90500000Y-113000000D01*
X125500000Y-113000000D02*
X125500000Y-123000000D01*
X76500000Y-68000000D02*
X74500000Y-66000000D01*
X76500000Y-64000000D01*
X76500000Y-68000000D01*
G36*
X76500000Y-68000000D02*
G01*
X74500000Y-66000000D01*
X76500000Y-64000000D01*
X76500000Y-68000000D01*
G37*
X108500000Y-50500000D02*
G75*
G02*
X108000000Y-50000000I0J500000D01*
G01*
X98000000Y-83000000D02*
X83000000Y-83000000D01*
X78000000Y-100500000D02*
X98000000Y-100500000D01*
D11*
G36*
X79306300Y-88975583D02*
G01*
X79312121Y-88975583D01*
X79334526Y-88976058D01*
X79356440Y-88977473D01*
X79377847Y-88979811D01*
X79398734Y-88983058D01*
X79419086Y-88987198D01*
X79438888Y-88992216D01*
X79458126Y-88998097D01*
X79476787Y-89004824D01*
X79494854Y-89012382D01*
X79512315Y-89020756D01*
X79529154Y-89029931D01*
X79545358Y-89039891D01*
X79560911Y-89050620D01*
X79575800Y-89062103D01*
X79590010Y-89074325D01*
X79603526Y-89087270D01*
X79616335Y-89100923D01*
X79628422Y-89115268D01*
X79639772Y-89130290D01*
X79650371Y-89145973D01*
X79660205Y-89162302D01*
X79669260Y-89179262D01*
X79677520Y-89196836D01*
X79684972Y-89215010D01*
X79691601Y-89233768D01*
X79697393Y-89253095D01*
X79702334Y-89272975D01*
X79706408Y-89293392D01*
X79709602Y-89314332D01*
X79711901Y-89335779D01*
X79713291Y-89357717D01*
X79713758Y-89380131D01*
X79713758Y-89630427D01*
X79713291Y-89652841D01*
X79711899Y-89674779D01*
X79709595Y-89696226D01*
X79706391Y-89717165D01*
X79702300Y-89737583D01*
X79697336Y-89757463D01*
X79691510Y-89776789D01*
X79684836Y-89795548D01*
X79677326Y-89813722D01*
X79668993Y-89831296D01*
X79659851Y-89848256D01*
X79649911Y-89864585D01*
X79639186Y-89880268D01*
X79627690Y-89895290D01*
X79615436Y-89909635D01*
X79602435Y-89923287D01*
X79588700Y-89936232D01*
X79574246Y-89948454D01*
X79559083Y-89959938D01*
X79543226Y-89970667D01*
X79526686Y-89980626D01*
X79509478Y-89989801D01*
X79491612Y-89998175D01*
X79473103Y-90005734D01*
X79453963Y-90012461D01*
X79434205Y-90018341D01*
X79413841Y-90023359D01*
X79392885Y-90027499D01*
X79371349Y-90030746D01*
X79349246Y-90033085D01*
X79326588Y-90034499D01*
X79303389Y-90034974D01*
X79280207Y-90034499D01*
X79257599Y-90033085D01*
X79235574Y-90030746D01*
X79214144Y-90027499D01*
X79193320Y-90023359D01*
X79173111Y-90018341D01*
X79153530Y-90012461D01*
X79134585Y-90005734D01*
X79116289Y-89998175D01*
X79098651Y-89989801D01*
X79081683Y-89980626D01*
X79065395Y-89970667D01*
X79049797Y-89959938D01*
X79034901Y-89948454D01*
X79020716Y-89936232D01*
X79007255Y-89923287D01*
X78994526Y-89909635D01*
X78982542Y-89895290D01*
X78971312Y-89880268D01*
X78960847Y-89864585D01*
X78951158Y-89848256D01*
X78942256Y-89831296D01*
X78934151Y-89813722D01*
X78926854Y-89795548D01*
X78920376Y-89776789D01*
X78914727Y-89757463D01*
X78909917Y-89737583D01*
X78905958Y-89717165D01*
X78902861Y-89696226D01*
X78900635Y-89674779D01*
X78899292Y-89652841D01*
X78898841Y-89630427D01*
X78898841Y-89380131D01*
X79038541Y-89380131D01*
X79038541Y-89630428D01*
X79038847Y-89645015D01*
X79039757Y-89659302D01*
X79041263Y-89673277D01*
X79043356Y-89686931D01*
X79046026Y-89700252D01*
X79049266Y-89713230D01*
X79053064Y-89725854D01*
X79057413Y-89738113D01*
X79062304Y-89749997D01*
X79067727Y-89761496D01*
X79073673Y-89772598D01*
X79080134Y-89783293D01*
X79087100Y-89793570D01*
X79094562Y-89803418D01*
X79102511Y-89812828D01*
X79110938Y-89821787D01*
X79119834Y-89830287D01*
X79129190Y-89838315D01*
X79138997Y-89845861D01*
X79149245Y-89852915D01*
X79159926Y-89859466D01*
X79171031Y-89865503D01*
X79182551Y-89871016D01*
X79194476Y-89875994D01*
X79206797Y-89880426D01*
X79219506Y-89884301D01*
X79232594Y-89887610D01*
X79246051Y-89890341D01*
X79259867Y-89892484D01*
X79274036Y-89894027D01*
X79288546Y-89894961D01*
X79303389Y-89895275D01*
X79315837Y-89895070D01*
X79328071Y-89894456D01*
X79340083Y-89893433D01*
X79351866Y-89892001D01*
X79363409Y-89890159D01*
X79374706Y-89887908D01*
X79385746Y-89885248D01*
X79396522Y-89882178D01*
X79407026Y-89878699D01*
X79417248Y-89874811D01*
X79427180Y-89870514D01*
X79436814Y-89865807D01*
X79446140Y-89860691D01*
X79455152Y-89855166D01*
X79463839Y-89849231D01*
X79472193Y-89842887D01*
X79064735Y-89254983D01*
X79061563Y-89261633D01*
X79058596Y-89268478D01*
X79055833Y-89275511D01*
X79053275Y-89282723D01*
X79050922Y-89290106D01*
X79048773Y-89297651D01*
X79046829Y-89305349D01*
X79045090Y-89313192D01*
X79043555Y-89321171D01*
X79042225Y-89329279D01*
X79041099Y-89337505D01*
X79040178Y-89345843D01*
X79039462Y-89354283D01*
X79038951Y-89362817D01*
X79038644Y-89371436D01*
X79038541Y-89380131D01*
X78898841Y-89380131D01*
X78899316Y-89357717D01*
X78900731Y-89335779D01*
X78903069Y-89314332D01*
X78906316Y-89293392D01*
X78910457Y-89272975D01*
X78915475Y-89253095D01*
X78921355Y-89233768D01*
X78928082Y-89215010D01*
X78935640Y-89196836D01*
X78944015Y-89179262D01*
X78953189Y-89162302D01*
X78957016Y-89156028D01*
X79154958Y-89156028D01*
X79154958Y-89156029D01*
X79556596Y-89735202D01*
X79558710Y-89729165D01*
X79560688Y-89723060D01*
X79562530Y-89716887D01*
X79564235Y-89710645D01*
X79565804Y-89704336D01*
X79567237Y-89697958D01*
X79568533Y-89691511D01*
X79569693Y-89684997D01*
X79570716Y-89678415D01*
X79571603Y-89671764D01*
X79572353Y-89665045D01*
X79572967Y-89658258D01*
X79573444Y-89651402D01*
X79573785Y-89644479D01*
X79573990Y-89637487D01*
X79574058Y-89630427D01*
X79574058Y-89380131D01*
X79573753Y-89365544D01*
X79572843Y-89351257D01*
X79571339Y-89337281D01*
X79569249Y-89323628D01*
X79566584Y-89310307D01*
X79563353Y-89297329D01*
X79559566Y-89284705D01*
X79555231Y-89272445D01*
X79550360Y-89260561D01*
X79544961Y-89249063D01*
X79539044Y-89237961D01*
X79532619Y-89227266D01*
X79525695Y-89216989D01*
X79518281Y-89207140D01*
X79510388Y-89197731D01*
X79502025Y-89188771D01*
X79493202Y-89180272D01*
X79483928Y-89172244D01*
X79474212Y-89164697D01*
X79464065Y-89157643D01*
X79453496Y-89151092D01*
X79442514Y-89145055D01*
X79431129Y-89139542D01*
X79419351Y-89134565D01*
X79407190Y-89130132D01*
X79394654Y-89126257D01*
X79381754Y-89122948D01*
X79368499Y-89120217D01*
X79354898Y-89118074D01*
X79340962Y-89116531D01*
X79326700Y-89115597D01*
X79312121Y-89115283D01*
X79306300Y-89115283D01*
X79295488Y-89115453D01*
X79284875Y-89115959D01*
X79274459Y-89116799D01*
X79264235Y-89117966D01*
X79254199Y-89119457D01*
X79244346Y-89121269D01*
X79234671Y-89123395D01*
X79225172Y-89125833D01*
X79215843Y-89128578D01*
X79206681Y-89131625D01*
X79197680Y-89134971D01*
X79188837Y-89138611D01*
X79180148Y-89142542D01*
X79171608Y-89146757D01*
X79163213Y-89151254D01*
X79154958Y-89156028D01*
X78957016Y-89156028D01*
X78963149Y-89145973D01*
X78973878Y-89130290D01*
X78985362Y-89115268D01*
X78997584Y-89100923D01*
X79010529Y-89087270D01*
X79024182Y-89074325D01*
X79038527Y-89062103D01*
X79053548Y-89050620D01*
X79064735Y-89042967D01*
X79069232Y-89039891D01*
X79085561Y-89029931D01*
X79102520Y-89020756D01*
X79120095Y-89012382D01*
X79138269Y-89004824D01*
X79157027Y-88998097D01*
X79176354Y-88992216D01*
X79196234Y-88987198D01*
X79216651Y-88983058D01*
X79237591Y-88979811D01*
X79259038Y-88977473D01*
X79280976Y-88976058D01*
X79303389Y-88975583D01*
X79306300Y-88975583D01*
G37*
D10*
X135500000Y-113000000D02*
X135500000Y-123000000D01*
D11*
G36*
X79026900Y-82508638D02*
G01*
X79585700Y-82508638D01*
X79585700Y-82368938D01*
X79713758Y-82368938D01*
X79713758Y-82788038D01*
X79585700Y-82788038D01*
X79585700Y-82648338D01*
X79026900Y-82648338D01*
X79026900Y-82788038D01*
X78898842Y-82788038D01*
X78898842Y-82368938D01*
X79026900Y-82368938D01*
X79026900Y-82508638D01*
G37*
G36*
X107000000Y-110000000D02*
G01*
X108000000Y-110000000D01*
X108000000Y-110500000D01*
X100500000Y-110500000D01*
X100500000Y-109000000D01*
X101000000Y-109000000D01*
X101000000Y-110000000D01*
X102000000Y-110000000D01*
X102500000Y-110000000D01*
X103500000Y-110000000D01*
X104000000Y-110000000D01*
X105000000Y-110000000D01*
X105500000Y-110000000D01*
X106500000Y-110000000D01*
X106500000Y-109000000D01*
X105500000Y-109000000D01*
X105500000Y-110000000D01*
X105000000Y-110000000D01*
X105000000Y-109000000D01*
X104000000Y-109000000D01*
X104000000Y-110000000D01*
X103500000Y-110000000D01*
X103500000Y-109000000D01*
X102500000Y-109000000D01*
X102500000Y-110000000D01*
X102000000Y-110000000D01*
X102000000Y-109000000D01*
X101000000Y-109000000D01*
X100500000Y-109000000D01*
X100500000Y-108500000D01*
X108000000Y-108500000D01*
X108000000Y-109000000D01*
X107000000Y-109000000D01*
X107000000Y-110000000D01*
G37*
D10*
X80500000Y-110500000D02*
X80500000Y-113000000D01*
D11*
G36*
X101882881Y-71118384D02*
G01*
X101882881Y-71118384D01*
G75*
G02*
X102382881Y-71618384I19J-500016D01*
G01*
X102382881Y-74118384D01*
G75*
G03*
X104882881Y-76618384I2500019J-16D01*
G01*
X105882881Y-76618384D01*
G75*
G02*
X106382881Y-77118384I19J-500016D01*
G01*
X106382881Y-78118384D01*
G75*
G02*
X105882881Y-78618384I-499981J-16D01*
G01*
X104882881Y-78618384D01*
G75*
G02*
X100382881Y-74118384I19J4499984D01*
G01*
X100382881Y-71618384D01*
G75*
G02*
X100882881Y-71118384I500019J-16D01*
G01*
X101882881Y-71118384D01*
G37*
G36*
X147500000Y-82500000D02*
G01*
X155000000Y-82500000D01*
X155000000Y-83000000D01*
X100500000Y-83000000D01*
X103000000Y-80500000D01*
X147500000Y-80500000D01*
X147500000Y-82500000D01*
G37*
D10*
X98000000Y-88000000D02*
X83000000Y-88000000D01*
X85500000Y-113000000D02*
X85500000Y-123000000D01*
D11*
G36*
X81914033Y-82363117D02*
G01*
X82042091Y-82363117D01*
X82042091Y-83131467D01*
X82041811Y-83144963D01*
X82040977Y-83158161D01*
X82039597Y-83171051D01*
X82037680Y-83183627D01*
X82035235Y-83195878D01*
X82032269Y-83207797D01*
X82028791Y-83219375D01*
X82024811Y-83230603D01*
X82020336Y-83241473D01*
X82015375Y-83251976D01*
X82009936Y-83262104D01*
X82004029Y-83271849D01*
X81997661Y-83281201D01*
X81990841Y-83290153D01*
X81983577Y-83298695D01*
X81975879Y-83306819D01*
X81967755Y-83314517D01*
X81959213Y-83321781D01*
X81950261Y-83328600D01*
X81940909Y-83334968D01*
X81931164Y-83340876D01*
X81921036Y-83346315D01*
X81910533Y-83351276D01*
X81899663Y-83355751D01*
X81888435Y-83359731D01*
X81876857Y-83363209D01*
X81864938Y-83366174D01*
X81852687Y-83368620D01*
X81840112Y-83370537D01*
X81827221Y-83371917D01*
X81814023Y-83372751D01*
X81800527Y-83373031D01*
X81786510Y-83372758D01*
X81772838Y-83371940D01*
X81759516Y-83370576D01*
X81746548Y-83368666D01*
X81733937Y-83366210D01*
X81721690Y-83363209D01*
X81709809Y-83359662D01*
X81698298Y-83355569D01*
X81687163Y-83350930D01*
X81676408Y-83345746D01*
X81666036Y-83340016D01*
X81656052Y-83333741D01*
X81646460Y-83326919D01*
X81637265Y-83319552D01*
X81628470Y-83311640D01*
X81620081Y-83303181D01*
X81612204Y-83311160D01*
X81603863Y-83318717D01*
X81595070Y-83325839D01*
X81585838Y-83332513D01*
X81576180Y-83338727D01*
X81566107Y-83344467D01*
X81555635Y-83349722D01*
X81544774Y-83354477D01*
X81533538Y-83358721D01*
X81521940Y-83362441D01*
X81509992Y-83365624D01*
X81497707Y-83368256D01*
X81485098Y-83370326D01*
X81472178Y-83371820D01*
X81458960Y-83372726D01*
X81445456Y-83373031D01*
X81230085Y-83373031D01*
X81230085Y-83233331D01*
X81445456Y-83233331D01*
X81451663Y-83233196D01*
X81457729Y-83232792D01*
X81463652Y-83232125D01*
X81469427Y-83231200D01*
X81475051Y-83230021D01*
X81480519Y-83228593D01*
X81485829Y-83226921D01*
X81490977Y-83225009D01*
X81495958Y-83222864D01*
X81500769Y-83220488D01*
X81505406Y-83217888D01*
X81509866Y-83215067D01*
X81514145Y-83212032D01*
X81518238Y-83208785D01*
X81522143Y-83205333D01*
X81525856Y-83201681D01*
X81529373Y-83197832D01*
X81532690Y-83193791D01*
X81535803Y-83189564D01*
X81538709Y-83185156D01*
X81541403Y-83180571D01*
X81543884Y-83175813D01*
X81546145Y-83170888D01*
X81548185Y-83165801D01*
X81549998Y-83160555D01*
X81551582Y-83155157D01*
X81552932Y-83149611D01*
X81554045Y-83143921D01*
X81554917Y-83138093D01*
X81555545Y-83132131D01*
X81555924Y-83126040D01*
X81556052Y-83119825D01*
X81556052Y-82502817D01*
X81227175Y-82502817D01*
X81227175Y-82499906D01*
X81684110Y-82499906D01*
X81684110Y-83116915D01*
X81684246Y-83123386D01*
X81684649Y-83129700D01*
X81685316Y-83135855D01*
X81686242Y-83141846D01*
X81687421Y-83147672D01*
X81688849Y-83153327D01*
X81690521Y-83158811D01*
X81692432Y-83164118D01*
X81694578Y-83169246D01*
X81696953Y-83174192D01*
X81699554Y-83178953D01*
X81702374Y-83183524D01*
X81705410Y-83187904D01*
X81708656Y-83192089D01*
X81712108Y-83196076D01*
X81715761Y-83199861D01*
X81719610Y-83203442D01*
X81723650Y-83206815D01*
X81727877Y-83209977D01*
X81732285Y-83212924D01*
X81736871Y-83215654D01*
X81741628Y-83218164D01*
X81746553Y-83220449D01*
X81751641Y-83222508D01*
X81756886Y-83224337D01*
X81762284Y-83225932D01*
X81767830Y-83227290D01*
X81773520Y-83228409D01*
X81779348Y-83229284D01*
X81785310Y-83229913D01*
X81791401Y-83230293D01*
X81797616Y-83230421D01*
X81803840Y-83230285D01*
X81809955Y-83229882D01*
X81815956Y-83229215D01*
X81821838Y-83228289D01*
X81827593Y-83227110D01*
X81833217Y-83225682D01*
X81838704Y-83224010D01*
X81844047Y-83222099D01*
X81849240Y-83219953D01*
X81854279Y-83217578D01*
X81859157Y-83214977D01*
X81863868Y-83212157D01*
X81868406Y-83209121D01*
X81872766Y-83205875D01*
X81876942Y-83202423D01*
X81880927Y-83198770D01*
X81884716Y-83194921D01*
X81888303Y-83190881D01*
X81891683Y-83186654D01*
X81894848Y-83182245D01*
X81897794Y-83177660D01*
X81900515Y-83172902D01*
X81903004Y-83167978D01*
X81905256Y-83162890D01*
X81907265Y-83157645D01*
X81909026Y-83152247D01*
X81910531Y-83146700D01*
X81911776Y-83141011D01*
X81912755Y-83135183D01*
X81913461Y-83129221D01*
X81913889Y-83123130D01*
X81914033Y-83116915D01*
X81914033Y-82499906D01*
X81684110Y-82499906D01*
X81227175Y-82499906D01*
X81227175Y-82363117D01*
X81914033Y-82363117D01*
G37*
D10*
X128000000Y-113000000D02*
X128000000Y-123000000D01*
X108500000Y-50500000D02*
X156000000Y-50500000D01*
D12*
X135124202Y-142124200D02*
X136500000Y-143500000D01*
D10*
X108000000Y-77118384D02*
G75*
G02*
X108500000Y-76618400I500000J-16D01*
G01*
X123000000Y-113000000D02*
X123000000Y-123000000D01*
X88000000Y-80500000D02*
X88000000Y-110500000D01*
X98000000Y-113000000D02*
X78000000Y-113000000D01*
X85500000Y-80500000D02*
X85500000Y-110500000D01*
D11*
G36*
X79713758Y-93908738D02*
G01*
X79585700Y-93908738D01*
X79585700Y-93472176D01*
X78901752Y-93472176D01*
X78901752Y-93332476D01*
X79585700Y-93332476D01*
X79585700Y-92895914D01*
X79713758Y-92895914D01*
X79713758Y-93908738D01*
G37*
D10*
X140500000Y-123000000D02*
X100500000Y-123000000D01*
X88000000Y-113000000D02*
X88000000Y-123000000D01*
D11*
G36*
X105620366Y-62391930D02*
G01*
X105697134Y-62399063D01*
X105770219Y-62410919D01*
X105839381Y-62427474D01*
X105904382Y-62448701D01*
X105935248Y-62461058D01*
X105964984Y-62474575D01*
X105993560Y-62489246D01*
X106020947Y-62505070D01*
X106047114Y-62522043D01*
X106072032Y-62540161D01*
X106095672Y-62559422D01*
X106118002Y-62579823D01*
X106138994Y-62601360D01*
X106158617Y-62624029D01*
X106176842Y-62647829D01*
X106193639Y-62672754D01*
X106208977Y-62698804D01*
X106222828Y-62725973D01*
X106235161Y-62754260D01*
X106245947Y-62783660D01*
X106255155Y-62814171D01*
X106262756Y-62845789D01*
X106268719Y-62878512D01*
X106273016Y-62912335D01*
X106275616Y-62947257D01*
X106276489Y-62983272D01*
X106275708Y-63017165D01*
X106273381Y-63050078D01*
X106269530Y-63082007D01*
X106264177Y-63112945D01*
X106257344Y-63142885D01*
X106249055Y-63171821D01*
X106239331Y-63199747D01*
X106228194Y-63226656D01*
X106215668Y-63252541D01*
X106201775Y-63277397D01*
X106186536Y-63301218D01*
X106169975Y-63323995D01*
X106152113Y-63345724D01*
X106132973Y-63366398D01*
X106112578Y-63386011D01*
X106090950Y-63404555D01*
X106068111Y-63422025D01*
X106044083Y-63438414D01*
X106018890Y-63453716D01*
X105992553Y-63467925D01*
X105965095Y-63481034D01*
X105936537Y-63493036D01*
X105906904Y-63503926D01*
X105876216Y-63513696D01*
X105844496Y-63522341D01*
X105811767Y-63529854D01*
X105778052Y-63536229D01*
X105743371Y-63541459D01*
X105707749Y-63545538D01*
X105671206Y-63548459D01*
X105633766Y-63550217D01*
X105595452Y-63550804D01*
X105342245Y-63550804D01*
X105284323Y-63551898D01*
X105230569Y-63555187D01*
X105180926Y-63560684D01*
X105135333Y-63568403D01*
X105093730Y-63578356D01*
X105056058Y-63590555D01*
X105022257Y-63605014D01*
X105006790Y-63613095D01*
X104992268Y-63621745D01*
X104978684Y-63630967D01*
X104966030Y-63640762D01*
X104954299Y-63651131D01*
X104943484Y-63662076D01*
X104933577Y-63673599D01*
X104924571Y-63685701D01*
X104916457Y-63698384D01*
X104909230Y-63711650D01*
X104902881Y-63725499D01*
X104897402Y-63739935D01*
X104892787Y-63754957D01*
X104889027Y-63770568D01*
X104886117Y-63786770D01*
X104884047Y-63803564D01*
X104882399Y-63838935D01*
X104882835Y-63857001D01*
X104884145Y-63874632D01*
X104886335Y-63891819D01*
X104889408Y-63908552D01*
X104893371Y-63924823D01*
X104898227Y-63940622D01*
X104903982Y-63955940D01*
X104910640Y-63970768D01*
X104918206Y-63985098D01*
X104926685Y-63998919D01*
X104936081Y-64012224D01*
X104946400Y-64025003D01*
X104957647Y-64037247D01*
X104969825Y-64048946D01*
X104982940Y-64060093D01*
X104996997Y-64070677D01*
X105012000Y-64080690D01*
X105027955Y-64090123D01*
X105044866Y-64098966D01*
X105062737Y-64107211D01*
X105081574Y-64114848D01*
X105101382Y-64121869D01*
X105122165Y-64128264D01*
X105143928Y-64134024D01*
X105166675Y-64139141D01*
X105190413Y-64143604D01*
X105215144Y-64147406D01*
X105240875Y-64150537D01*
X105267610Y-64152988D01*
X105295354Y-64154750D01*
X105324111Y-64155814D01*
X105353887Y-64156170D01*
X106253206Y-64156170D01*
X106253206Y-64435570D01*
X105353887Y-64435570D01*
X105264398Y-64432641D01*
X105221712Y-64429023D01*
X105180405Y-64424008D01*
X105140481Y-64417624D01*
X105101945Y-64409901D01*
X105064802Y-64400866D01*
X105029057Y-64390550D01*
X104994715Y-64378980D01*
X104961780Y-64366185D01*
X104930258Y-64352194D01*
X104900152Y-64337037D01*
X104871468Y-64320741D01*
X104844211Y-64303336D01*
X104818385Y-64284849D01*
X104793996Y-64265311D01*
X104771047Y-64244750D01*
X104749544Y-64223194D01*
X104729492Y-64200673D01*
X104710895Y-64177214D01*
X104693759Y-64152848D01*
X104678087Y-64127602D01*
X104663885Y-64101506D01*
X104651158Y-64074588D01*
X104639910Y-64046877D01*
X104630146Y-64018402D01*
X104621871Y-63989192D01*
X104615090Y-63959275D01*
X104609808Y-63928679D01*
X104606029Y-63897435D01*
X104603758Y-63865571D01*
X104603000Y-63833115D01*
X104603772Y-63800784D01*
X104606072Y-63769284D01*
X104609877Y-63738629D01*
X104615164Y-63708831D01*
X104621909Y-63679902D01*
X104630089Y-63651856D01*
X104639679Y-63624705D01*
X104650658Y-63598462D01*
X104663000Y-63573140D01*
X104676684Y-63548752D01*
X104691685Y-63525310D01*
X104707979Y-63502827D01*
X104725544Y-63481317D01*
X104744357Y-63460791D01*
X104764392Y-63441263D01*
X104785628Y-63422745D01*
X104808041Y-63405251D01*
X104831607Y-63388792D01*
X104856302Y-63373383D01*
X104882104Y-63359035D01*
X104908989Y-63345761D01*
X104936933Y-63333574D01*
X104965913Y-63322487D01*
X104995906Y-63312513D01*
X105026888Y-63303665D01*
X105058835Y-63295955D01*
X105091725Y-63289396D01*
X105125533Y-63284001D01*
X105160237Y-63279782D01*
X105195812Y-63276753D01*
X105232236Y-63274926D01*
X105269485Y-63274314D01*
X105522691Y-63274314D01*
X105576908Y-63273414D01*
X105628182Y-63270659D01*
X105676439Y-63265969D01*
X105721600Y-63259262D01*
X105763589Y-63250458D01*
X105802330Y-63239475D01*
X105837745Y-63226232D01*
X105869758Y-63210649D01*
X105884465Y-63201955D01*
X105898293Y-63192645D01*
X105911231Y-63182709D01*
X105923271Y-63172138D01*
X105934403Y-63160920D01*
X105944618Y-63149047D01*
X105953905Y-63136507D01*
X105962255Y-63123291D01*
X105969659Y-63109389D01*
X105976107Y-63094790D01*
X105981589Y-63079485D01*
X105986095Y-63063463D01*
X105989617Y-63046714D01*
X105992145Y-63029228D01*
X105993669Y-63010994D01*
X105994179Y-62992004D01*
X105993760Y-62974945D01*
X105992500Y-62958159D01*
X105990392Y-62941665D01*
X105987431Y-62925479D01*
X105983611Y-62909619D01*
X105978927Y-62894103D01*
X105973371Y-62878949D01*
X105966939Y-62864173D01*
X105959624Y-62849794D01*
X105951421Y-62835828D01*
X105942324Y-62822295D01*
X105932327Y-62809211D01*
X105921423Y-62796593D01*
X105909608Y-62784460D01*
X105896875Y-62772829D01*
X105883219Y-62761717D01*
X105868633Y-62751143D01*
X105853112Y-62741124D01*
X105836650Y-62731676D01*
X105819241Y-62722819D01*
X105800879Y-62714569D01*
X105781558Y-62706945D01*
X105761273Y-62699963D01*
X105740017Y-62693641D01*
X105717785Y-62687997D01*
X105694571Y-62683049D01*
X105670369Y-62678814D01*
X105645173Y-62675309D01*
X105618977Y-62672552D01*
X105591776Y-62670562D01*
X105563563Y-62669354D01*
X105534333Y-62668948D01*
X104629193Y-62668948D01*
X104629193Y-62389548D01*
X105540154Y-62389548D01*
X105540154Y-62389547D01*
X105620366Y-62391930D01*
G37*
G36*
X152500000Y-110500000D02*
G01*
X108000000Y-110500000D01*
X108000000Y-108500000D01*
X100500000Y-108500000D01*
X100500000Y-108000000D01*
X155000000Y-108000000D01*
X152500000Y-110500000D01*
G37*
D10*
X108500000Y-78618384D02*
G75*
G02*
X108000016Y-78118384I0J499984D01*
G01*
X93000000Y-110500000D02*
X93000000Y-113000000D01*
D11*
G36*
X105494750Y-57693077D02*
G01*
X105538602Y-57695881D01*
X105581456Y-57700519D01*
X105623282Y-57706960D01*
X105664052Y-57715175D01*
X105703734Y-57725133D01*
X105742299Y-57736805D01*
X105779717Y-57750161D01*
X105815959Y-57765172D01*
X105850994Y-57781807D01*
X105884793Y-57800036D01*
X105917325Y-57819830D01*
X105948562Y-57841158D01*
X105978473Y-57863992D01*
X106007028Y-57888300D01*
X106034197Y-57914054D01*
X106059951Y-57941224D01*
X106084259Y-57969778D01*
X106107093Y-57999689D01*
X106128422Y-58030926D01*
X106148215Y-58063458D01*
X106166445Y-58097257D01*
X106183079Y-58132292D01*
X106198090Y-58168534D01*
X106211446Y-58205952D01*
X106223118Y-58244517D01*
X106233077Y-58284199D01*
X106241291Y-58324969D01*
X106247732Y-58366795D01*
X106252370Y-58409649D01*
X106255175Y-58453501D01*
X106256116Y-58498320D01*
X106256116Y-59758531D01*
X105976716Y-59758531D01*
X105976716Y-58498320D01*
X105976097Y-58468898D01*
X105974253Y-58440126D01*
X105971205Y-58412021D01*
X105966973Y-58384604D01*
X105961577Y-58357892D01*
X105955037Y-58331904D01*
X105947374Y-58306660D01*
X105938608Y-58282177D01*
X105928759Y-58258474D01*
X105917847Y-58235569D01*
X105905893Y-58213483D01*
X105892917Y-58192232D01*
X105878939Y-58171836D01*
X105863979Y-58152314D01*
X105848058Y-58133684D01*
X105831195Y-58115965D01*
X105813412Y-58099175D01*
X105794728Y-58083333D01*
X105775164Y-58068457D01*
X105754740Y-58054567D01*
X105733476Y-58041681D01*
X105711392Y-58029818D01*
X105688509Y-58018996D01*
X105664847Y-58009234D01*
X105640426Y-58000551D01*
X105615266Y-57992965D01*
X105589388Y-57986495D01*
X105562812Y-57981159D01*
X105535558Y-57976977D01*
X105507646Y-57973966D01*
X105479097Y-57972146D01*
X105449931Y-57971535D01*
X105435379Y-57971535D01*
X105405956Y-57972154D01*
X105377184Y-57973998D01*
X105349080Y-57977046D01*
X105321662Y-57981278D01*
X105294950Y-57986674D01*
X105268963Y-57993214D01*
X105243718Y-58000877D01*
X105219235Y-58009644D01*
X105195532Y-58019493D01*
X105172628Y-58030404D01*
X105150541Y-58042359D01*
X105129290Y-58055335D01*
X105108895Y-58069313D01*
X105089372Y-58084273D01*
X105070742Y-58100194D01*
X105053023Y-58117056D01*
X105036233Y-58134839D01*
X105020391Y-58153523D01*
X105005515Y-58173087D01*
X104991625Y-58193511D01*
X104978740Y-58214775D01*
X104966876Y-58236859D01*
X104956054Y-58259742D01*
X104946292Y-58283404D01*
X104937609Y-58307826D01*
X104930023Y-58332985D01*
X104923553Y-58358863D01*
X104918217Y-58385440D01*
X104914035Y-58412694D01*
X104911024Y-58440605D01*
X104909204Y-58469154D01*
X104908593Y-58498320D01*
X104908593Y-59758531D01*
X104629193Y-59758531D01*
X104629193Y-58498320D01*
X104630135Y-58453501D01*
X104632939Y-58409649D01*
X104637577Y-58366795D01*
X104644018Y-58324969D01*
X104652233Y-58284199D01*
X104662191Y-58244517D01*
X104673864Y-58205952D01*
X104687220Y-58168534D01*
X104702230Y-58132292D01*
X104718865Y-58097257D01*
X104737094Y-58063458D01*
X104756888Y-58030926D01*
X104778216Y-57999689D01*
X104801050Y-57969778D01*
X104825359Y-57941224D01*
X104851113Y-57914054D01*
X104878282Y-57888300D01*
X104906837Y-57863992D01*
X104936747Y-57841158D01*
X104967984Y-57819830D01*
X105000517Y-57800036D01*
X105034315Y-57781807D01*
X105069350Y-57765172D01*
X105105592Y-57750161D01*
X105143010Y-57736805D01*
X105181576Y-57725133D01*
X105221258Y-57715175D01*
X105262027Y-57706960D01*
X105303854Y-57700519D01*
X105346708Y-57695881D01*
X105390559Y-57693077D01*
X105435379Y-57692135D01*
X105449931Y-57692135D01*
X105494750Y-57693077D01*
G37*
G36*
X81687021Y-86865532D02*
G01*
X81684145Y-86865532D01*
X81684110Y-86865531D01*
X81687021Y-86865532D01*
G37*
D10*
X98000000Y-110500000D02*
X78000000Y-110500000D01*
D11*
G36*
X79713758Y-95008877D02*
G01*
X79585700Y-95008877D01*
X79585700Y-94138662D01*
X79370329Y-94138662D01*
X79370329Y-94776043D01*
X79242271Y-94776043D01*
X79242271Y-94138662D01*
X79026900Y-94138662D01*
X79026900Y-95008877D01*
X78898842Y-95008877D01*
X78898842Y-93998962D01*
X79713758Y-93998962D01*
X79713758Y-95008877D01*
G37*
D10*
X120500000Y-113000000D02*
X120500000Y-123000000D01*
D11*
G36*
X81914033Y-81239696D02*
G01*
X82042091Y-81239696D01*
X82042091Y-82010956D01*
X82041811Y-82024453D01*
X82040977Y-82037650D01*
X82039597Y-82050541D01*
X82037680Y-82063117D01*
X82035235Y-82075368D01*
X82032269Y-82087287D01*
X82028791Y-82098864D01*
X82024811Y-82110092D01*
X82020336Y-82120962D01*
X82015375Y-82131466D01*
X82009936Y-82141594D01*
X82004029Y-82151339D01*
X81997661Y-82160691D01*
X81990841Y-82169642D01*
X81983577Y-82178185D01*
X81975879Y-82186309D01*
X81967755Y-82194007D01*
X81959213Y-82201270D01*
X81950261Y-82208090D01*
X81940909Y-82214458D01*
X81931164Y-82220366D01*
X81921036Y-82225804D01*
X81910533Y-82230765D01*
X81899663Y-82235240D01*
X81888435Y-82239221D01*
X81876857Y-82242698D01*
X81864938Y-82245664D01*
X81852687Y-82248110D01*
X81840112Y-82250027D01*
X81827221Y-82251407D01*
X81814023Y-82252241D01*
X81800527Y-82252521D01*
X81787022Y-82252241D01*
X81773800Y-82251407D01*
X81760870Y-82250027D01*
X81748242Y-82248110D01*
X81735924Y-82245664D01*
X81723928Y-82242698D01*
X81712262Y-82239221D01*
X81700936Y-82235240D01*
X81689960Y-82230765D01*
X81679342Y-82225804D01*
X81669094Y-82220366D01*
X81659224Y-82214458D01*
X81649742Y-82208090D01*
X81640657Y-82201270D01*
X81631980Y-82194007D01*
X81623719Y-82186309D01*
X81615885Y-82178185D01*
X81608486Y-82169642D01*
X81601533Y-82160691D01*
X81595035Y-82151339D01*
X81589002Y-82141594D01*
X81583444Y-82131466D01*
X81578369Y-82120962D01*
X81573787Y-82110092D01*
X81569709Y-82098864D01*
X81566143Y-82087287D01*
X81563100Y-82075368D01*
X81560588Y-82063117D01*
X81558618Y-82050541D01*
X81557199Y-82037650D01*
X81556340Y-82024453D01*
X81556052Y-82010956D01*
X81556052Y-81379396D01*
X81684110Y-81379396D01*
X81684110Y-81996404D01*
X81684246Y-82002875D01*
X81684649Y-82009190D01*
X81685316Y-82015345D01*
X81686242Y-82021336D01*
X81687421Y-82027161D01*
X81688849Y-82032817D01*
X81690521Y-82038300D01*
X81692432Y-82043608D01*
X81694578Y-82048736D01*
X81696953Y-82053682D01*
X81699554Y-82058442D01*
X81702374Y-82063014D01*
X81705410Y-82067394D01*
X81708656Y-82071579D01*
X81712108Y-82075566D01*
X81715761Y-82079351D01*
X81719610Y-82082932D01*
X81723650Y-82086305D01*
X81727877Y-82089466D01*
X81732285Y-82092414D01*
X81736871Y-82095144D01*
X81741628Y-82097653D01*
X81746553Y-82099939D01*
X81751641Y-82101998D01*
X81756886Y-82103826D01*
X81762284Y-82105421D01*
X81767830Y-82106780D01*
X81773520Y-82107898D01*
X81779348Y-82108774D01*
X81785310Y-82109403D01*
X81791401Y-82109783D01*
X81797616Y-82109910D01*
X81803840Y-82109775D01*
X81809955Y-82109371D01*
X81815956Y-82108704D01*
X81821838Y-82107779D01*
X81827593Y-82106600D01*
X81833217Y-82105172D01*
X81838704Y-82103500D01*
X81844047Y-82101589D01*
X81849240Y-82099443D01*
X81854279Y-82097067D01*
X81859157Y-82094467D01*
X81863868Y-82091646D01*
X81868406Y-82088611D01*
X81872766Y-82085364D01*
X81876942Y-82081913D01*
X81880927Y-82078260D01*
X81884716Y-82074411D01*
X81888303Y-82070370D01*
X81891683Y-82066144D01*
X81894848Y-82061735D01*
X81897794Y-82057150D01*
X81900515Y-82052392D01*
X81903004Y-82047467D01*
X81905256Y-82042380D01*
X81907265Y-82037135D01*
X81909026Y-82031736D01*
X81910531Y-82026190D01*
X81911776Y-82020500D01*
X81912755Y-82014672D01*
X81913461Y-82008710D01*
X81913889Y-82002619D01*
X81914033Y-81996404D01*
X81914033Y-81379396D01*
X81684110Y-81379396D01*
X81556052Y-81379396D01*
X81227175Y-81379396D01*
X81227175Y-81239696D01*
X81914033Y-81239696D01*
G37*
G36*
X79713758Y-81379396D02*
G01*
X79355777Y-81379396D01*
X79355777Y-82109911D01*
X79713758Y-82109911D01*
X79713758Y-82249611D01*
X78901752Y-82249611D01*
X78901752Y-82109911D01*
X79230629Y-82109911D01*
X79230629Y-81379396D01*
X78901752Y-81379396D01*
X78901752Y-81239696D01*
X79713758Y-81239696D01*
X79713758Y-81379396D01*
G37*
D10*
X110500000Y-113000000D02*
X110500000Y-123000000D01*
X98000000Y-80500000D02*
X98000000Y-110500000D01*
D12*
G36*
X103367463Y-144225000D02*
G01*
X103093789Y-144225000D01*
X103093789Y-142747819D01*
X103367463Y-142747819D01*
X103658722Y-143557484D01*
X103961339Y-142747819D01*
X104235013Y-142747819D01*
X104235013Y-144225000D01*
X103961339Y-144225000D01*
X103961339Y-143606943D01*
X103752145Y-144225000D01*
X103583618Y-144225000D01*
X103367463Y-143606943D01*
X103367463Y-144225000D01*
G37*
G36*
X105439986Y-144225000D02*
G01*
X104431751Y-144225000D01*
X104431751Y-143000976D01*
X104705425Y-143000976D01*
X104705425Y-143971842D01*
X105166311Y-143971842D01*
X105166311Y-143000976D01*
X104705425Y-143000976D01*
X104431751Y-143000976D01*
X104431751Y-142747819D01*
X105439986Y-142747819D01*
X105439986Y-144225000D01*
G37*
G36*
X106654849Y-142877512D02*
G01*
X106654849Y-144095307D01*
X106546039Y-144225000D01*
X105646615Y-144225000D01*
X105646615Y-143000976D01*
X105920289Y-143000976D01*
X105920289Y-143971842D01*
X106381175Y-143971842D01*
X106381175Y-143000976D01*
X105920289Y-143000976D01*
X105646615Y-143000976D01*
X105646615Y-142747819D01*
X106544940Y-142747819D01*
X106654849Y-142877512D01*
G37*
G36*
X107135153Y-143000976D02*
G01*
X107135153Y-143357449D01*
X107869713Y-143357449D01*
X107869713Y-143610607D01*
X107135153Y-143610607D01*
X107135153Y-143971842D01*
X107869713Y-143971842D01*
X107869713Y-144225000D01*
X106861479Y-144225000D01*
X106861479Y-142747819D01*
X107869713Y-142747819D01*
X107869713Y-143000976D01*
X107135153Y-143000976D01*
G37*
G36*
X108367969Y-144225000D02*
G01*
X108085136Y-144225000D01*
X108602808Y-142747819D01*
X108886008Y-142747819D01*
X108367969Y-144225000D01*
G37*
G36*
X103093789Y-146130607D02*
G01*
X103093789Y-145267819D01*
X104102023Y-145267819D01*
X104102023Y-145520976D01*
X103367463Y-145520976D01*
X103367463Y-145877449D01*
X104102023Y-145877449D01*
X104102023Y-146745000D01*
X103093789Y-146745000D01*
X103093789Y-146491842D01*
X103828349Y-146491842D01*
X103828349Y-146130607D01*
X103093789Y-146130607D01*
G37*
G36*
X104582327Y-145520976D02*
G01*
X104582327Y-145877449D01*
X105316887Y-145877449D01*
X105316887Y-146130607D01*
X104582327Y-146130607D01*
X104582327Y-146491842D01*
X105316887Y-146491842D01*
X105316887Y-146745000D01*
X104308653Y-146745000D01*
X104308653Y-145267819D01*
X105316887Y-145267819D01*
X105316887Y-145520976D01*
X104582327Y-145520976D01*
G37*
G36*
X105906367Y-145520976D02*
G01*
X105523517Y-145520976D01*
X105523517Y-145267819D01*
X106531751Y-145267819D01*
X106531751Y-145520976D01*
X106180041Y-145520976D01*
X106180041Y-146745000D01*
X105906367Y-146745000D01*
X105906367Y-145520976D01*
G37*
G36*
X107121231Y-145520976D02*
G01*
X106738381Y-145520976D01*
X106738381Y-145267819D01*
X107746615Y-145267819D01*
X107746615Y-145520976D01*
X107394905Y-145520976D01*
X107394905Y-146745000D01*
X107121231Y-146745000D01*
X107121231Y-145520976D01*
G37*
G36*
X108226919Y-146745000D02*
G01*
X107953244Y-146745000D01*
X107953244Y-145267819D01*
X108226919Y-145267819D01*
X108226919Y-146745000D01*
G37*
G36*
X108714916Y-146745000D02*
G01*
X108441242Y-146745000D01*
X108441242Y-145267819D01*
X108714916Y-145267819D01*
X109175802Y-146095802D01*
X109175802Y-145267819D01*
X109449476Y-145267819D01*
X109449476Y-146745000D01*
X109175802Y-146745000D01*
X108714916Y-145892103D01*
X108714916Y-146745000D01*
G37*
G36*
X110098307Y-145877449D02*
G01*
X110664340Y-145877449D01*
X110664340Y-146745000D01*
X109656106Y-146745000D01*
X109656106Y-145267819D01*
X110664340Y-145267819D01*
X110664340Y-145520976D01*
X109929780Y-145520976D01*
X109929780Y-146491842D01*
X110390666Y-146491842D01*
X110390666Y-146130607D01*
X110098307Y-146130607D01*
X110098307Y-145877449D01*
G37*
G36*
X110870969Y-146130607D02*
G01*
X110870969Y-145267819D01*
X111879204Y-145267819D01*
X111879204Y-145520976D01*
X111144644Y-145520976D01*
X111144644Y-145877449D01*
X111879204Y-145877449D01*
X111879204Y-146745000D01*
X110870969Y-146745000D01*
X110870969Y-146491842D01*
X111605530Y-146491842D01*
X111605530Y-146130607D01*
X110870969Y-146130607D01*
G37*
G36*
X78602023Y-64860607D02*
G01*
X77867463Y-64860607D01*
X77867463Y-65475000D01*
X77593789Y-65475000D01*
X77593789Y-64250976D01*
X77867463Y-64250976D01*
X77867463Y-64607449D01*
X78328349Y-64607449D01*
X78328349Y-64250976D01*
X77867463Y-64250976D01*
X77593789Y-64250976D01*
X77593789Y-63997819D01*
X78602023Y-63997819D01*
X78602023Y-64860607D01*
G37*
G36*
X79816887Y-65475000D02*
G01*
X78808653Y-65475000D01*
X78808653Y-64250976D01*
X79082327Y-64250976D01*
X79082327Y-65221842D01*
X79543213Y-65221842D01*
X79543213Y-64250976D01*
X79082327Y-64250976D01*
X78808653Y-64250976D01*
X78808653Y-63997819D01*
X79816887Y-63997819D01*
X79816887Y-65475000D01*
G37*
G36*
X81031751Y-64860607D02*
G01*
X80678210Y-64860607D01*
X81031751Y-65475000D01*
X80758077Y-65475000D01*
X80396475Y-64860607D01*
X80297191Y-64860607D01*
X80297191Y-65475000D01*
X80023517Y-65475000D01*
X80023517Y-64250976D01*
X80297191Y-64250976D01*
X80297191Y-64607449D01*
X80758077Y-64607449D01*
X80758077Y-64250976D01*
X80297191Y-64250976D01*
X80023517Y-64250976D01*
X80023517Y-63997819D01*
X81031751Y-63997819D01*
X81031751Y-64860607D01*
G37*
G36*
X81621231Y-64250976D02*
G01*
X81238381Y-64250976D01*
X81238381Y-63997819D01*
X82246615Y-63997819D01*
X82246615Y-64250976D01*
X81894905Y-64250976D01*
X81894905Y-65475000D01*
X81621231Y-65475000D01*
X81621231Y-64250976D01*
G37*
G36*
X83981716Y-65475000D02*
G01*
X82973482Y-65475000D01*
X82973482Y-64250976D01*
X83247156Y-64250976D01*
X83247156Y-65221842D01*
X83708042Y-65221842D01*
X83708042Y-64250976D01*
X83247156Y-64250976D01*
X82973482Y-64250976D01*
X82973482Y-63997819D01*
X83981716Y-63997819D01*
X83981716Y-65475000D01*
G37*
G36*
X84462020Y-65475000D02*
G01*
X84188346Y-65475000D01*
X84188346Y-63997819D01*
X85196580Y-63997819D01*
X85196580Y-64250976D01*
X84462020Y-64250976D01*
X84462020Y-64607449D01*
X85196580Y-64607449D01*
X85196580Y-64860607D01*
X84462020Y-64860607D01*
X84462020Y-65475000D01*
G37*
G36*
X77867463Y-67995000D02*
G01*
X77593789Y-67995000D01*
X77593789Y-66517819D01*
X77867463Y-66517819D01*
X77867463Y-67995000D01*
G37*
G36*
X78355460Y-67995000D02*
G01*
X78081786Y-67995000D01*
X78081786Y-66517819D01*
X78355460Y-66517819D01*
X78816346Y-67345802D01*
X78816346Y-66517819D01*
X79090020Y-66517819D01*
X79090020Y-67995000D01*
X78816346Y-67995000D01*
X78355460Y-67142103D01*
X78355460Y-67995000D01*
G37*
G36*
X79570324Y-67995000D02*
G01*
X79296650Y-67995000D01*
X79296650Y-66517819D01*
X80304884Y-66517819D01*
X80304884Y-66770976D01*
X79570324Y-66770976D01*
X79570324Y-67127449D01*
X80304884Y-67127449D01*
X80304884Y-67380607D01*
X79570324Y-67380607D01*
X79570324Y-67995000D01*
G37*
G36*
X80785188Y-67995000D02*
G01*
X80511514Y-67995000D01*
X80511514Y-66517819D01*
X80785188Y-66517819D01*
X80785188Y-67995000D01*
G37*
G36*
X81273185Y-67995000D02*
G01*
X80999511Y-67995000D01*
X80999511Y-66517819D01*
X81273185Y-66517819D01*
X81734071Y-67345802D01*
X81734071Y-66517819D01*
X82007745Y-66517819D01*
X82007745Y-67995000D01*
X81734071Y-67995000D01*
X81273185Y-67142103D01*
X81273185Y-67995000D01*
G37*
G36*
X82488049Y-67995000D02*
G01*
X82214375Y-67995000D01*
X82214375Y-66517819D01*
X82488049Y-66517819D01*
X82488049Y-67995000D01*
G37*
G36*
X83085223Y-66770976D02*
G01*
X82702372Y-66770976D01*
X82702372Y-66517819D01*
X83710607Y-66517819D01*
X83710607Y-66770976D01*
X83358897Y-66770976D01*
X83358897Y-67995000D01*
X83085223Y-67995000D01*
X83085223Y-66770976D01*
G37*
G36*
X84190910Y-66770976D02*
G01*
X84190910Y-67127449D01*
X84925471Y-67127449D01*
X84925471Y-67380607D01*
X84190910Y-67380607D01*
X84190910Y-67741842D01*
X84925471Y-67741842D01*
X84925471Y-67995000D01*
X83917236Y-67995000D01*
X83917236Y-66517819D01*
X84925471Y-66517819D01*
X84925471Y-66770976D01*
X84190910Y-66770976D01*
G37*
G36*
X118102023Y-131300296D02*
G01*
X117974162Y-131489340D01*
X118102023Y-131679849D01*
X118102023Y-132225000D01*
X117093789Y-132225000D01*
X117093789Y-131610607D01*
X117367463Y-131610607D01*
X117367463Y-131971842D01*
X117828349Y-131971842D01*
X117828349Y-131610607D01*
X117367463Y-131610607D01*
X117093789Y-131610607D01*
X117093789Y-131000976D01*
X117367463Y-131000976D01*
X117367463Y-131357449D01*
X117828349Y-131357449D01*
X117828349Y-131000976D01*
X117367463Y-131000976D01*
X117093789Y-131000976D01*
X117093789Y-130747819D01*
X118102023Y-130747819D01*
X118102023Y-131300296D01*
G37*
G36*
X119316887Y-132225000D02*
G01*
X119043213Y-132225000D01*
X119043213Y-131610607D01*
X118582327Y-131610607D01*
X118582327Y-132225000D01*
X118308653Y-132225000D01*
X118308653Y-131000976D01*
X118582327Y-131000976D01*
X118582327Y-131357449D01*
X119043213Y-131357449D01*
X119043213Y-131000976D01*
X118582327Y-131000976D01*
X118308653Y-131000976D01*
X118308653Y-130747819D01*
X119316887Y-130747819D01*
X119316887Y-132225000D01*
G37*
G36*
X119797191Y-131971842D02*
G01*
X120531751Y-131971842D01*
X120531751Y-132225000D01*
X119523517Y-132225000D01*
X119523517Y-130747819D01*
X120531751Y-130747819D01*
X120531751Y-131000976D01*
X119797191Y-131000976D01*
X119797191Y-131971842D01*
G37*
G36*
X121012055Y-132225000D02*
G01*
X120738381Y-132225000D01*
X120738381Y-130747819D01*
X121012055Y-130747819D01*
X121012055Y-131365875D01*
X121474773Y-130747819D01*
X121740387Y-130747819D01*
X121246894Y-131467725D01*
X121740387Y-132225000D01*
X121474773Y-132225000D01*
X121012055Y-131606943D01*
X121012055Y-132225000D01*
G37*
G36*
X122244870Y-132225000D02*
G01*
X121962037Y-132225000D01*
X122479710Y-130747819D01*
X122762909Y-130747819D01*
X122244870Y-132225000D01*
G37*
G36*
X117367463Y-134745000D02*
G01*
X117093789Y-134745000D01*
X117093789Y-133267819D01*
X117367463Y-133267819D01*
X117367463Y-133877449D01*
X117828349Y-133877449D01*
X117828349Y-133267819D01*
X118102023Y-133267819D01*
X118102023Y-134745000D01*
X117828349Y-134745000D01*
X117828349Y-134130607D01*
X117367463Y-134130607D01*
X117367463Y-134745000D01*
G37*
G36*
X119316887Y-134745000D02*
G01*
X118308653Y-134745000D01*
X118308653Y-133520976D01*
X118582327Y-133520976D01*
X118582327Y-134491842D01*
X119043213Y-134491842D01*
X119043213Y-133520976D01*
X118582327Y-133520976D01*
X118308653Y-133520976D01*
X118308653Y-133267819D01*
X119316887Y-133267819D01*
X119316887Y-134745000D01*
G37*
G36*
X119797191Y-134745000D02*
G01*
X119523517Y-134745000D01*
X119523517Y-133267819D01*
X119797191Y-133267819D01*
X120088450Y-134077484D01*
X120391067Y-133267819D01*
X120664741Y-133267819D01*
X120664741Y-134745000D01*
X120391067Y-134745000D01*
X120391067Y-134126943D01*
X120181873Y-134745000D01*
X120013346Y-134745000D01*
X119797191Y-134126943D01*
X119797191Y-134745000D01*
G37*
G36*
X121135153Y-133520976D02*
G01*
X121135153Y-133877449D01*
X121869713Y-133877449D01*
X121869713Y-134130607D01*
X121135153Y-134130607D01*
X121135153Y-134491842D01*
X121869713Y-134491842D01*
X121869713Y-134745000D01*
X120861479Y-134745000D01*
X120861479Y-133267819D01*
X121869713Y-133267819D01*
X121869713Y-133520976D01*
X121135153Y-133520976D01*
G37*
G36*
X92102023Y-131300296D02*
G01*
X91974162Y-131489340D01*
X92102023Y-131679849D01*
X92102023Y-132225000D01*
X91093789Y-132225000D01*
X91093789Y-131610607D01*
X91367463Y-131610607D01*
X91367463Y-131971842D01*
X91828349Y-131971842D01*
X91828349Y-131610607D01*
X91367463Y-131610607D01*
X91093789Y-131610607D01*
X91093789Y-131000976D01*
X91367463Y-131000976D01*
X91367463Y-131357449D01*
X91828349Y-131357449D01*
X91828349Y-131000976D01*
X91367463Y-131000976D01*
X91093789Y-131000976D01*
X91093789Y-130747819D01*
X92102023Y-130747819D01*
X92102023Y-131300296D01*
G37*
G36*
X93316887Y-131610607D02*
G01*
X92963346Y-131610607D01*
X93316887Y-132225000D01*
X93043213Y-132225000D01*
X92681612Y-131610607D01*
X92582327Y-131610607D01*
X92582327Y-132225000D01*
X92308653Y-132225000D01*
X92308653Y-131000976D01*
X92582327Y-131000976D01*
X92582327Y-131357449D01*
X93043213Y-131357449D01*
X93043213Y-131000976D01*
X92582327Y-131000976D01*
X92308653Y-131000976D01*
X92308653Y-130747819D01*
X93316887Y-130747819D01*
X93316887Y-131610607D01*
G37*
G36*
X93797191Y-132225000D02*
G01*
X93523517Y-132225000D01*
X93523517Y-130747819D01*
X93797191Y-130747819D01*
X93797191Y-132225000D01*
G37*
G36*
X94453715Y-131357449D02*
G01*
X95019748Y-131357449D01*
X95019748Y-132225000D01*
X94011514Y-132225000D01*
X94011514Y-130747819D01*
X95019748Y-130747819D01*
X95019748Y-131000976D01*
X94285188Y-131000976D01*
X94285188Y-131971842D01*
X94746074Y-131971842D01*
X94746074Y-131610607D01*
X94453715Y-131610607D01*
X94453715Y-131357449D01*
G37*
G36*
X95500052Y-132225000D02*
G01*
X95226378Y-132225000D01*
X95226378Y-130747819D01*
X95500052Y-130747819D01*
X95500052Y-131357449D01*
X95960938Y-131357449D01*
X95960938Y-130747819D01*
X96234612Y-130747819D01*
X96234612Y-132225000D01*
X95960938Y-132225000D01*
X95960938Y-131610607D01*
X95500052Y-131610607D01*
X95500052Y-132225000D01*
G37*
G36*
X96824092Y-131000976D02*
G01*
X96441242Y-131000976D01*
X96441242Y-130747819D01*
X97449476Y-130747819D01*
X97449476Y-131000976D01*
X97097766Y-131000976D01*
X97097766Y-132225000D01*
X96824092Y-132225000D01*
X96824092Y-131000976D01*
G37*
G36*
X97929780Y-132225000D02*
G01*
X97656106Y-132225000D01*
X97656106Y-130747819D01*
X97929780Y-130747819D01*
X98390666Y-131575802D01*
X98390666Y-130747819D01*
X98664340Y-130747819D01*
X98664340Y-132225000D01*
X98390666Y-132225000D01*
X97929780Y-131372103D01*
X97929780Y-132225000D01*
G37*
G36*
X99144644Y-131000976D02*
G01*
X99144644Y-131357449D01*
X99879204Y-131357449D01*
X99879204Y-131610607D01*
X99144644Y-131610607D01*
X99144644Y-131971842D01*
X99879204Y-131971842D01*
X99879204Y-132225000D01*
X98870969Y-132225000D01*
X98870969Y-130747819D01*
X99879204Y-130747819D01*
X99879204Y-131000976D01*
X99144644Y-131000976D01*
G37*
G36*
X100085833Y-131610607D02*
G01*
X100085833Y-130747819D01*
X101094068Y-130747819D01*
X101094068Y-131000976D01*
X100359508Y-131000976D01*
X100359508Y-131357449D01*
X101094068Y-131357449D01*
X101094068Y-132225000D01*
X100085833Y-132225000D01*
X100085833Y-131971842D01*
X100820394Y-131971842D01*
X100820394Y-131610607D01*
X100085833Y-131610607D01*
G37*
G36*
X101300697Y-131610607D02*
G01*
X101300697Y-130747819D01*
X102308932Y-130747819D01*
X102308932Y-131000976D01*
X101574371Y-131000976D01*
X101574371Y-131357449D01*
X102308932Y-131357449D01*
X102308932Y-132225000D01*
X101300697Y-132225000D01*
X101300697Y-131971842D01*
X102035258Y-131971842D01*
X102035258Y-131610607D01*
X101300697Y-131610607D01*
G37*
G36*
X102807187Y-132225000D02*
G01*
X102524354Y-132225000D01*
X103042027Y-130747819D01*
X103325226Y-130747819D01*
X102807187Y-132225000D01*
G37*
G36*
X91093789Y-134130607D02*
G01*
X91093789Y-133267819D01*
X92102023Y-133267819D01*
X92102023Y-133520976D01*
X91367463Y-133520976D01*
X91367463Y-133877449D01*
X92102023Y-133877449D01*
X92102023Y-134745000D01*
X91093789Y-134745000D01*
X91093789Y-134491842D01*
X91828349Y-134491842D01*
X91828349Y-134130607D01*
X91093789Y-134130607D01*
G37*
G36*
X92691503Y-133520976D02*
G01*
X92308653Y-133520976D01*
X92308653Y-133267819D01*
X93316887Y-133267819D01*
X93316887Y-133520976D01*
X92965177Y-133520976D01*
X92965177Y-134745000D01*
X92691503Y-134745000D01*
X92691503Y-133520976D01*
G37*
G36*
X94531751Y-134745000D02*
G01*
X94258077Y-134745000D01*
X94258077Y-134130607D01*
X93797191Y-134130607D01*
X93797191Y-134745000D01*
X93523517Y-134745000D01*
X93523517Y-133520976D01*
X93797191Y-133520976D01*
X93797191Y-133877449D01*
X94258077Y-133877449D01*
X94258077Y-133520976D01*
X93797191Y-133520976D01*
X93523517Y-133520976D01*
X93523517Y-133267819D01*
X94531751Y-133267819D01*
X94531751Y-134745000D01*
G37*
G36*
X95012055Y-134745000D02*
G01*
X94738381Y-134745000D01*
X94738381Y-133267819D01*
X95012055Y-133267819D01*
X95472941Y-134095802D01*
X95472941Y-133267819D01*
X95746615Y-133267819D01*
X95746615Y-134745000D01*
X95472941Y-134745000D01*
X95012055Y-133892103D01*
X95012055Y-134745000D01*
G37*
G36*
X96961479Y-133397512D02*
G01*
X96961479Y-134615307D01*
X96852669Y-134745000D01*
X95953244Y-134745000D01*
X95953244Y-133520976D01*
X96226919Y-133520976D01*
X96226919Y-134491842D01*
X96687805Y-134491842D01*
X96687805Y-133520976D01*
X96226919Y-133520976D01*
X95953244Y-133520976D01*
X95953244Y-133267819D01*
X96851570Y-133267819D01*
X96961479Y-133397512D01*
G37*
G36*
X98176343Y-133820296D02*
G01*
X98048482Y-134009340D01*
X98176343Y-134199849D01*
X98176343Y-134745000D01*
X97168108Y-134745000D01*
X97168108Y-134130607D01*
X97441782Y-134130607D01*
X97441782Y-134491842D01*
X97902669Y-134491842D01*
X97902669Y-134130607D01*
X97441782Y-134130607D01*
X97168108Y-134130607D01*
X97168108Y-133520976D01*
X97441782Y-133520976D01*
X97441782Y-133877449D01*
X97902669Y-133877449D01*
X97902669Y-133520976D01*
X97441782Y-133520976D01*
X97168108Y-133520976D01*
X97168108Y-133267819D01*
X98176343Y-133267819D01*
X98176343Y-133820296D01*
G37*
G36*
X99031803Y-134006409D02*
G01*
X99031803Y-134745000D01*
X98758129Y-134745000D01*
X98758129Y-134006409D01*
X98401290Y-133267819D01*
X98684124Y-133267819D01*
X98907972Y-133736765D01*
X99137683Y-133267819D01*
X99403297Y-133267819D01*
X99031803Y-134006409D01*
G37*
G36*
X138102023Y-145745000D02*
G01*
X137093789Y-145745000D01*
X137093789Y-144520976D01*
X137367463Y-144520976D01*
X137367463Y-145491842D01*
X137828349Y-145491842D01*
X137828349Y-144520976D01*
X137367463Y-144520976D01*
X137093789Y-144520976D01*
X137093789Y-144267819D01*
X138102023Y-144267819D01*
X138102023Y-145745000D01*
G37*
G36*
X138582327Y-145745000D02*
G01*
X138308653Y-145745000D01*
X138308653Y-144267819D01*
X138582327Y-144267819D01*
X138582327Y-144885875D01*
X139045045Y-144267819D01*
X139310659Y-144267819D01*
X138817166Y-144987725D01*
X139310659Y-145745000D01*
X139045045Y-145745000D01*
X138582327Y-145126943D01*
X138582327Y-145745000D01*
G37*
D10*
G36*
X117242324Y-156030212D02*
G01*
X117424773Y-156030212D01*
X117424773Y-157015000D01*
X116752617Y-157015000D01*
X116752617Y-156030212D01*
X116935066Y-156030212D01*
X116935066Y-156846228D01*
X117242324Y-156846228D01*
X117242324Y-156030212D01*
G37*
G36*
X118234682Y-156198984D02*
G01*
X117744975Y-156198984D01*
X117744975Y-156436632D01*
X118234682Y-156436632D01*
X118234682Y-157015000D01*
X117562526Y-157015000D01*
X117562526Y-156846228D01*
X117744975Y-156846228D01*
X118052233Y-156846228D01*
X118052233Y-156605404D01*
X117744975Y-156605404D01*
X117744975Y-156846228D01*
X117562526Y-156846228D01*
X117562526Y-156030212D01*
X118234682Y-156030212D01*
X118234682Y-156198984D01*
G37*
X109983021Y-158499999D02*
X110221116Y-158499999D01*
X110125878Y-158738094D02*
X110221116Y-158499999D01*
X110221116Y-158499999D02*
X110125878Y-158261904D01*
X110411592Y-158642856D02*
X110221116Y-158499999D01*
X110221116Y-158499999D02*
X110411592Y-158357142D01*
X101148602Y-134299818D02*
X101148602Y-134537913D01*
X100910507Y-134442675D02*
X101148602Y-134537913D01*
X101148602Y-134537913D02*
X101386697Y-134442675D01*
X101005745Y-134728389D02*
X101148602Y-134537913D01*
X101148602Y-134537913D02*
X101291459Y-134728389D01*
G36*
X144599442Y-124516674D02*
G01*
X144599442Y-125328538D01*
X144526902Y-125415000D01*
X143927286Y-125415000D01*
X143927286Y-125246228D01*
X144109735Y-125246228D01*
X144416993Y-125246228D01*
X144416993Y-124598984D01*
X144109735Y-124598984D01*
X144109735Y-125246228D01*
X143927286Y-125246228D01*
X143927286Y-124430212D01*
X144526169Y-124430212D01*
X144599442Y-124516674D01*
G37*
G36*
X144919644Y-125415000D02*
G01*
X144737195Y-125415000D01*
X144737195Y-124430212D01*
X144919644Y-124430212D01*
X144919644Y-125415000D01*
G37*
G36*
X145734683Y-124598984D02*
G01*
X145244976Y-124598984D01*
X145244976Y-124836632D01*
X145734683Y-124836632D01*
X145734683Y-125415000D01*
X145062526Y-125415000D01*
X145062526Y-125246228D01*
X145244976Y-125246228D01*
X145552233Y-125246228D01*
X145552233Y-125005404D01*
X145244976Y-125005404D01*
X145244976Y-125246228D01*
X145062526Y-125246228D01*
X145062526Y-124430212D01*
X145734683Y-124430212D01*
X145734683Y-124598984D01*
G37*
G36*
X146054885Y-125415000D02*
G01*
X145872436Y-125415000D01*
X145872436Y-124430212D01*
X146054885Y-124430212D01*
X146054885Y-125415000D01*
G37*
D13*
%TO.C,J5*%
X132170000Y-35830000D02*
X132170000Y-34500000D01*
X133500000Y-35830000D02*
X132170000Y-35830000D01*
X134770000Y-33170000D02*
X139910000Y-33170000D01*
X134770000Y-35830000D02*
X134770000Y-33170000D01*
X134770000Y-35830000D02*
X139910000Y-35830000D01*
X139910000Y-35830000D02*
X139910000Y-33170000D01*
D14*
%TO.C,D112*%
X113785002Y-62000000D02*
G75*
G02*
X113685002Y-62000000I-50000J0D01*
G01*
X113685002Y-62000000D02*
G75*
G02*
X113785002Y-62000000I50000J0D01*
G01*
%TO.C,D21*%
X134785002Y-59000000D02*
G75*
G02*
X134685002Y-59000000I-50000J0D01*
G01*
X134685002Y-59000000D02*
G75*
G02*
X134785002Y-59000000I50000J0D01*
G01*
%TO.C,D22*%
X137785002Y-59000000D02*
G75*
G02*
X137685002Y-59000000I-50000J0D01*
G01*
X137685002Y-59000000D02*
G75*
G02*
X137785002Y-59000000I50000J0D01*
G01*
%TO.C,D124*%
X119785002Y-65000000D02*
G75*
G02*
X119685002Y-65000000I-50000J0D01*
G01*
X119685002Y-65000000D02*
G75*
G02*
X119785002Y-65000000I50000J0D01*
G01*
D13*
%TO.C,D160*%
X142400000Y-147600000D02*
X142400000Y-151500000D01*
X142400000Y-151500000D02*
X145600000Y-151500000D01*
X145600000Y-147600000D02*
X145600000Y-151500000D01*
D14*
%TO.C,D157*%
X128785002Y-74000000D02*
G75*
G02*
X128685002Y-74000000I-50000J0D01*
G01*
X128685002Y-74000000D02*
G75*
G02*
X128785002Y-74000000I50000J0D01*
G01*
%TO.C,D143*%
X116785002Y-71000000D02*
G75*
G02*
X116685002Y-71000000I-50000J0D01*
G01*
X116685002Y-71000000D02*
G75*
G02*
X116785002Y-71000000I50000J0D01*
G01*
%TO.C,D55*%
X146785002Y-68000000D02*
G75*
G02*
X146685002Y-68000000I-50000J0D01*
G01*
X146685002Y-68000000D02*
G75*
G02*
X146785002Y-68000000I50000J0D01*
G01*
D15*
%TO.C,SW3*%
X90875802Y-123875800D02*
X90875802Y-130124200D01*
X90875802Y-130124200D02*
X97124202Y-130124200D01*
X97124202Y-123875800D02*
X90875802Y-123875800D01*
X97124202Y-130124200D02*
X97124202Y-123875800D01*
D14*
%TO.C,D147*%
X128785002Y-71000000D02*
G75*
G02*
X128685002Y-71000000I-50000J0D01*
G01*
X128685002Y-71000000D02*
G75*
G02*
X128785002Y-71000000I50000J0D01*
G01*
%TO.C,D96*%
X125785002Y-56000000D02*
G75*
G02*
X125685002Y-56000000I-50000J0D01*
G01*
X125685002Y-56000000D02*
G75*
G02*
X125785002Y-56000000I50000J0D01*
G01*
%TO.C,D33*%
X140785002Y-62000000D02*
G75*
G02*
X140685002Y-62000000I-50000J0D01*
G01*
X140685002Y-62000000D02*
G75*
G02*
X140785002Y-62000000I50000J0D01*
G01*
%TO.C,D104*%
X119785002Y-59000000D02*
G75*
G02*
X119685002Y-59000000I-50000J0D01*
G01*
X119685002Y-59000000D02*
G75*
G02*
X119785002Y-59000000I50000J0D01*
G01*
%TO.C,D150*%
X107785002Y-74000000D02*
G75*
G02*
X107685002Y-74000000I-50000J0D01*
G01*
X107685002Y-74000000D02*
G75*
G02*
X107785002Y-74000000I50000J0D01*
G01*
%TO.C,D152*%
X113785002Y-74000000D02*
G75*
G02*
X113685002Y-74000000I-50000J0D01*
G01*
X113685002Y-74000000D02*
G75*
G02*
X113785002Y-74000000I50000J0D01*
G01*
D13*
%TO.C,D164*%
X108500000Y-32400000D02*
X108500000Y-35600000D01*
X112400000Y-32400000D02*
X108500000Y-32400000D01*
X112400000Y-35600000D02*
X108500000Y-35600000D01*
D14*
%TO.C,D51*%
X134785002Y-68000000D02*
G75*
G02*
X134685002Y-68000000I-50000J0D01*
G01*
X134685002Y-68000000D02*
G75*
G02*
X134785002Y-68000000I50000J0D01*
G01*
%TO.C,D71*%
X134785002Y-74000000D02*
G75*
G02*
X134685002Y-74000000I-50000J0D01*
G01*
X134685002Y-74000000D02*
G75*
G02*
X134785002Y-74000000I50000J0D01*
G01*
%TO.C,D113*%
X116785002Y-62000000D02*
G75*
G02*
X116685002Y-62000000I-50000J0D01*
G01*
X116685002Y-62000000D02*
G75*
G02*
X116785002Y-62000000I50000J0D01*
G01*
%TO.C,D77*%
X152785002Y-74000000D02*
G75*
G02*
X152685002Y-74000000I-50000J0D01*
G01*
X152685002Y-74000000D02*
G75*
G02*
X152785002Y-74000000I50000J0D01*
G01*
%TO.C,D43*%
X140785002Y-65000000D02*
G75*
G02*
X140685002Y-65000000I-50000J0D01*
G01*
X140685002Y-65000000D02*
G75*
G02*
X140785002Y-65000000I50000J0D01*
G01*
%TO.C,D153*%
X116785002Y-74000000D02*
G75*
G02*
X116685002Y-74000000I-50000J0D01*
G01*
X116685002Y-74000000D02*
G75*
G02*
X116785002Y-74000000I50000J0D01*
G01*
%TO.C,D110*%
X107785002Y-62000000D02*
G75*
G02*
X107685002Y-62000000I-50000J0D01*
G01*
X107685002Y-62000000D02*
G75*
G02*
X107785002Y-62000000I50000J0D01*
G01*
D13*
%TO.C,D166*%
X122500000Y-32400000D02*
X122500000Y-35600000D01*
X126400000Y-32400000D02*
X122500000Y-32400000D01*
X126400000Y-35600000D02*
X122500000Y-35600000D01*
D15*
%TO.C,U6*%
X110871102Y-152879100D02*
X110871102Y-157120900D01*
X110871102Y-157120900D02*
X111835772Y-157120900D01*
X111835772Y-152879100D02*
X110871102Y-152879100D01*
X112624232Y-157120900D02*
X114375772Y-157120900D01*
X114375772Y-152879100D02*
X112624232Y-152879100D01*
X115164232Y-157120900D02*
X116128902Y-157120900D01*
X116128902Y-152879100D02*
X115164232Y-152879100D01*
X116128902Y-157120900D02*
X116128902Y-152879100D01*
D14*
%TO.C,D01*%
X134785002Y-53000000D02*
G75*
G02*
X134685002Y-53000000I-50000J0D01*
G01*
X134685002Y-53000000D02*
G75*
G02*
X134785002Y-53000000I50000J0D01*
G01*
%TO.C,D136*%
X125785002Y-68000000D02*
G75*
G02*
X125685002Y-68000000I-50000J0D01*
G01*
X125685002Y-68000000D02*
G75*
G02*
X125785002Y-68000000I50000J0D01*
G01*
%TO.C,D56*%
X149785002Y-68000000D02*
G75*
G02*
X149685002Y-68000000I-50000J0D01*
G01*
X149685002Y-68000000D02*
G75*
G02*
X149785002Y-68000000I50000J0D01*
G01*
%TO.C,D05*%
X146785002Y-53000000D02*
G75*
G02*
X146685002Y-53000000I-50000J0D01*
G01*
X146685002Y-53000000D02*
G75*
G02*
X146785002Y-53000000I50000J0D01*
G01*
%TO.C,D154*%
X119785002Y-74000000D02*
G75*
G02*
X119685002Y-74000000I-50000J0D01*
G01*
X119685002Y-74000000D02*
G75*
G02*
X119785002Y-74000000I50000J0D01*
G01*
%TO.C,D16*%
X149785002Y-56000000D02*
G75*
G02*
X149685002Y-56000000I-50000J0D01*
G01*
X149685002Y-56000000D02*
G75*
G02*
X149785002Y-56000000I50000J0D01*
G01*
%TO.C,D151*%
X110785002Y-74000000D02*
G75*
G02*
X110685002Y-74000000I-50000J0D01*
G01*
X110685002Y-74000000D02*
G75*
G02*
X110785002Y-74000000I50000J0D01*
G01*
%TO.C,D66*%
X149785002Y-71000000D02*
G75*
G02*
X149685002Y-71000000I-50000J0D01*
G01*
X149685002Y-71000000D02*
G75*
G02*
X149785002Y-71000000I50000J0D01*
G01*
%TO.C,D12*%
X137785002Y-56000000D02*
G75*
G02*
X137685002Y-56000000I-50000J0D01*
G01*
X137685002Y-56000000D02*
G75*
G02*
X137785002Y-56000000I50000J0D01*
G01*
%TO.C,D76*%
X149785002Y-74000000D02*
G75*
G02*
X149685002Y-74000000I-50000J0D01*
G01*
X149685002Y-74000000D02*
G75*
G02*
X149785002Y-74000000I50000J0D01*
G01*
%TO.C,D155*%
X122785002Y-74000000D02*
G75*
G02*
X122685002Y-74000000I-50000J0D01*
G01*
X122685002Y-74000000D02*
G75*
G02*
X122785002Y-74000000I50000J0D01*
G01*
%TO.C,D75*%
X146785002Y-74000000D02*
G75*
G02*
X146685002Y-74000000I-50000J0D01*
G01*
X146685002Y-74000000D02*
G75*
G02*
X146785002Y-74000000I50000J0D01*
G01*
%TO.C,D67*%
X152785002Y-71000000D02*
G75*
G02*
X152685002Y-71000000I-50000J0D01*
G01*
X152685002Y-71000000D02*
G75*
G02*
X152785002Y-71000000I50000J0D01*
G01*
D13*
%TO.C,J7*%
X115670000Y-42730000D02*
X115670000Y-40130000D01*
X118330000Y-40130000D02*
X115670000Y-40130000D01*
X118330000Y-42730000D02*
X115670000Y-42730000D01*
X118330000Y-42730000D02*
X118330000Y-40130000D01*
X118330000Y-44000000D02*
X118330000Y-45330000D01*
X118330000Y-45330000D02*
X117000000Y-45330000D01*
%TO.C,J2*%
X117092500Y-144050000D02*
X117092500Y-146250000D01*
X117432500Y-144340000D02*
X117432500Y-146250000D01*
X117432500Y-144340000D02*
X125562500Y-144340000D01*
X117432500Y-146250000D02*
X117432500Y-151080000D01*
X118392500Y-144050000D02*
X117092500Y-144050000D01*
X118702500Y-142950000D02*
X124292500Y-142950000D01*
X118702500Y-143200000D02*
X124292500Y-143200000D01*
X118702500Y-144090000D02*
X124292500Y-144090000D01*
X118702500Y-144340000D02*
X118702500Y-142950000D01*
X121112500Y-150820000D02*
X121882500Y-150820000D01*
X121112500Y-151080000D02*
X117432500Y-151080000D01*
X121112500Y-151080000D02*
X121112500Y-150820000D01*
X121882500Y-150820000D02*
X121882500Y-151080000D01*
X121882500Y-151080000D02*
X125562500Y-151080000D01*
X124292500Y-144340000D02*
X124292500Y-142950000D01*
X125562500Y-144340000D02*
X125562500Y-146250000D01*
X125562500Y-151080000D02*
X125562500Y-146250000D01*
D14*
%TO.C,D95*%
X122785002Y-56000000D02*
G75*
G02*
X122685002Y-56000000I-50000J0D01*
G01*
X122685002Y-56000000D02*
G75*
G02*
X122785002Y-56000000I50000J0D01*
G01*
%TO.C,D134*%
X119785002Y-68000000D02*
G75*
G02*
X119685002Y-68000000I-50000J0D01*
G01*
X119685002Y-68000000D02*
G75*
G02*
X119785002Y-68000000I50000J0D01*
G01*
%TO.C,D145*%
X122785002Y-71000000D02*
G75*
G02*
X122685002Y-71000000I-50000J0D01*
G01*
X122685002Y-71000000D02*
G75*
G02*
X122785002Y-71000000I50000J0D01*
G01*
%TO.C,D125*%
X122785002Y-65000000D02*
G75*
G02*
X122685002Y-65000000I-50000J0D01*
G01*
X122685002Y-65000000D02*
G75*
G02*
X122785002Y-65000000I50000J0D01*
G01*
%TO.C,D13*%
X140785002Y-56000000D02*
G75*
G02*
X140685002Y-56000000I-50000J0D01*
G01*
X140685002Y-56000000D02*
G75*
G02*
X140785002Y-56000000I50000J0D01*
G01*
%TO.C,D44*%
X143785002Y-65000000D02*
G75*
G02*
X143685002Y-65000000I-50000J0D01*
G01*
X143685002Y-65000000D02*
G75*
G02*
X143785002Y-65000000I50000J0D01*
G01*
%TO.C,D34*%
X143785002Y-62000000D02*
G75*
G02*
X143685002Y-62000000I-50000J0D01*
G01*
X143685002Y-62000000D02*
G75*
G02*
X143785002Y-62000000I50000J0D01*
G01*
%TO.C,D114*%
X119785002Y-62000000D02*
G75*
G02*
X119685002Y-62000000I-50000J0D01*
G01*
X119685002Y-62000000D02*
G75*
G02*
X119785002Y-62000000I50000J0D01*
G01*
%TO.C,D14*%
X143785002Y-56000000D02*
G75*
G02*
X143685002Y-56000000I-50000J0D01*
G01*
X143685002Y-56000000D02*
G75*
G02*
X143785002Y-56000000I50000J0D01*
G01*
%TO.C,D103*%
X116785002Y-59000000D02*
G75*
G02*
X116685002Y-59000000I-50000J0D01*
G01*
X116685002Y-59000000D02*
G75*
G02*
X116785002Y-59000000I50000J0D01*
G01*
%TO.C,D53*%
X140785002Y-68000000D02*
G75*
G02*
X140685002Y-68000000I-50000J0D01*
G01*
X140685002Y-68000000D02*
G75*
G02*
X140785002Y-68000000I50000J0D01*
G01*
D13*
%TO.C,D163*%
X148000000Y-116400000D02*
X148000000Y-119600000D01*
X151900000Y-116400000D02*
X148000000Y-116400000D01*
X151900000Y-119600000D02*
X148000000Y-119600000D01*
D14*
%TO.C,D90*%
X107785002Y-56000000D02*
G75*
G02*
X107685002Y-56000000I-50000J0D01*
G01*
X107685002Y-56000000D02*
G75*
G02*
X107785002Y-56000000I50000J0D01*
G01*
%TO.C,D156*%
X125785002Y-74000000D02*
G75*
G02*
X125685002Y-74000000I-50000J0D01*
G01*
X125685002Y-74000000D02*
G75*
G02*
X125785002Y-74000000I50000J0D01*
G01*
D13*
%TO.C,D3*%
X144562500Y-143642500D02*
X144562500Y-145112500D01*
X144562500Y-145112500D02*
X147022500Y-145112500D01*
X147022500Y-143642500D02*
X144562500Y-143642500D01*
D14*
%TO.C,D62*%
X137785002Y-71000000D02*
G75*
G02*
X137685002Y-71000000I-50000J0D01*
G01*
X137685002Y-71000000D02*
G75*
G02*
X137785002Y-71000000I50000J0D01*
G01*
%TO.C,D20*%
X131785002Y-59000000D02*
G75*
G02*
X131685002Y-59000000I-50000J0D01*
G01*
X131685002Y-59000000D02*
G75*
G02*
X131785002Y-59000000I50000J0D01*
G01*
%TO.C,D36*%
X149785002Y-62000000D02*
G75*
G02*
X149685002Y-62000000I-50000J0D01*
G01*
X149685002Y-62000000D02*
G75*
G02*
X149785002Y-62000000I50000J0D01*
G01*
%TO.C,D93*%
X116785002Y-56000000D02*
G75*
G02*
X116685002Y-56000000I-50000J0D01*
G01*
X116685002Y-56000000D02*
G75*
G02*
X116785002Y-56000000I50000J0D01*
G01*
%TO.C,D60*%
X131785002Y-71000000D02*
G75*
G02*
X131685002Y-71000000I-50000J0D01*
G01*
X131685002Y-71000000D02*
G75*
G02*
X131785002Y-71000000I50000J0D01*
G01*
%TO.C,D111*%
X110785002Y-62000000D02*
G75*
G02*
X110685002Y-62000000I-50000J0D01*
G01*
X110685002Y-62000000D02*
G75*
G02*
X110785002Y-62000000I50000J0D01*
G01*
%TO.C,D32*%
X137785002Y-62000000D02*
G75*
G02*
X137685002Y-62000000I-50000J0D01*
G01*
X137685002Y-62000000D02*
G75*
G02*
X137785002Y-62000000I50000J0D01*
G01*
%TO.C,D115*%
X122785002Y-62000000D02*
G75*
G02*
X122685002Y-62000000I-50000J0D01*
G01*
X122685002Y-62000000D02*
G75*
G02*
X122785002Y-62000000I50000J0D01*
G01*
%TO.C,D30*%
X131785002Y-62000000D02*
G75*
G02*
X131685002Y-62000000I-50000J0D01*
G01*
X131685002Y-62000000D02*
G75*
G02*
X131785002Y-62000000I50000J0D01*
G01*
%TO.C,D37*%
X152785002Y-62000000D02*
G75*
G02*
X152685002Y-62000000I-50000J0D01*
G01*
X152685002Y-62000000D02*
G75*
G02*
X152785002Y-62000000I50000J0D01*
G01*
D13*
%TO.C,D167*%
X115500000Y-32400000D02*
X115500000Y-35600000D01*
X119400000Y-32400000D02*
X115500000Y-32400000D01*
X119400000Y-35600000D02*
X115500000Y-35600000D01*
D14*
%TO.C,D27*%
X152785002Y-59000000D02*
G75*
G02*
X152685002Y-59000000I-50000J0D01*
G01*
X152685002Y-59000000D02*
G75*
G02*
X152785002Y-59000000I50000J0D01*
G01*
%TO.C,D07*%
X152785002Y-53000000D02*
G75*
G02*
X152685002Y-53000000I-50000J0D01*
G01*
X152685002Y-53000000D02*
G75*
G02*
X152785002Y-53000000I50000J0D01*
G01*
%TO.C,D65*%
X146785002Y-71000000D02*
G75*
G02*
X146685002Y-71000000I-50000J0D01*
G01*
X146685002Y-71000000D02*
G75*
G02*
X146785002Y-71000000I50000J0D01*
G01*
%TO.C,D97*%
X128785002Y-56000000D02*
G75*
G02*
X128685002Y-56000000I-50000J0D01*
G01*
X128685002Y-56000000D02*
G75*
G02*
X128785002Y-56000000I50000J0D01*
G01*
%TO.C,D02*%
X137785002Y-53000000D02*
G75*
G02*
X137685002Y-53000000I-50000J0D01*
G01*
X137685002Y-53000000D02*
G75*
G02*
X137785002Y-53000000I50000J0D01*
G01*
%TO.C,D141*%
X110785002Y-71000000D02*
G75*
G02*
X110685002Y-71000000I-50000J0D01*
G01*
X110685002Y-71000000D02*
G75*
G02*
X110785002Y-71000000I50000J0D01*
G01*
D15*
%TO.C,SW6*%
X140875802Y-135875800D02*
X140875802Y-142124200D01*
X140875802Y-142124200D02*
X147124202Y-142124200D01*
X147124202Y-135875800D02*
X140875802Y-135875800D01*
X147124202Y-142124200D02*
X147124202Y-135875800D01*
D14*
%TO.C,D133*%
X116785002Y-68000000D02*
G75*
G02*
X116685002Y-68000000I-50000J0D01*
G01*
X116685002Y-68000000D02*
G75*
G02*
X116785002Y-68000000I50000J0D01*
G01*
D15*
%TO.C,SW1*%
X102875802Y-135875800D02*
X102875802Y-142124200D01*
X102875802Y-142124200D02*
X109124202Y-142124200D01*
X109124202Y-135875800D02*
X102875802Y-135875800D01*
X109124202Y-142124200D02*
X109124202Y-135875800D01*
D14*
%TO.C,D126*%
X125785002Y-65000000D02*
G75*
G02*
X125685002Y-65000000I-50000J0D01*
G01*
X125685002Y-65000000D02*
G75*
G02*
X125785002Y-65000000I50000J0D01*
G01*
%TO.C,D06*%
X149785002Y-53000000D02*
G75*
G02*
X149685002Y-53000000I-50000J0D01*
G01*
X149685002Y-53000000D02*
G75*
G02*
X149785002Y-53000000I50000J0D01*
G01*
%TO.C,D84*%
X119785002Y-53000000D02*
G75*
G02*
X119685002Y-53000000I-50000J0D01*
G01*
X119685002Y-53000000D02*
G75*
G02*
X119785002Y-53000000I50000J0D01*
G01*
%TO.C,D91*%
X110785002Y-56000000D02*
G75*
G02*
X110685002Y-56000000I-50000J0D01*
G01*
X110685002Y-56000000D02*
G75*
G02*
X110785002Y-56000000I50000J0D01*
G01*
%TO.C,D130*%
X107785002Y-68000000D02*
G75*
G02*
X107685002Y-68000000I-50000J0D01*
G01*
X107685002Y-68000000D02*
G75*
G02*
X107785002Y-68000000I50000J0D01*
G01*
%TO.C,D17*%
X152785002Y-56000000D02*
G75*
G02*
X152685002Y-56000000I-50000J0D01*
G01*
X152685002Y-56000000D02*
G75*
G02*
X152785002Y-56000000I50000J0D01*
G01*
%TO.C,D24*%
X143785002Y-59000000D02*
G75*
G02*
X143685002Y-59000000I-50000J0D01*
G01*
X143685002Y-59000000D02*
G75*
G02*
X143785002Y-59000000I50000J0D01*
G01*
D15*
%TO.C,SW2*%
X128875802Y-147875800D02*
X128875802Y-154124200D01*
X128875802Y-154124200D02*
X135124202Y-154124200D01*
X135124202Y-147875800D02*
X128875802Y-147875800D01*
X135124202Y-154124200D02*
X135124202Y-147875800D01*
D14*
%TO.C,D35*%
X146785002Y-62000000D02*
G75*
G02*
X146685002Y-62000000I-50000J0D01*
G01*
X146685002Y-62000000D02*
G75*
G02*
X146785002Y-62000000I50000J0D01*
G01*
%TO.C,D04*%
X143785002Y-53000000D02*
G75*
G02*
X143685002Y-53000000I-50000J0D01*
G01*
X143685002Y-53000000D02*
G75*
G02*
X143785002Y-53000000I50000J0D01*
G01*
%TO.C,D100*%
X107785002Y-59000000D02*
G75*
G02*
X107685002Y-59000000I-50000J0D01*
G01*
X107685002Y-59000000D02*
G75*
G02*
X107785002Y-59000000I50000J0D01*
G01*
%TO.C,D74*%
X143785002Y-74000000D02*
G75*
G02*
X143685002Y-74000000I-50000J0D01*
G01*
X143685002Y-74000000D02*
G75*
G02*
X143785002Y-74000000I50000J0D01*
G01*
%TO.C,D70*%
X131785002Y-74000000D02*
G75*
G02*
X131685002Y-74000000I-50000J0D01*
G01*
X131685002Y-74000000D02*
G75*
G02*
X131785002Y-74000000I50000J0D01*
G01*
%TO.C,D106*%
X125785002Y-59000000D02*
G75*
G02*
X125685002Y-59000000I-50000J0D01*
G01*
X125685002Y-59000000D02*
G75*
G02*
X125785002Y-59000000I50000J0D01*
G01*
%TO.C,D101*%
X110785002Y-59000000D02*
G75*
G02*
X110685002Y-59000000I-50000J0D01*
G01*
X110685002Y-59000000D02*
G75*
G02*
X110785002Y-59000000I50000J0D01*
G01*
%TO.C,D132*%
X113785002Y-68000000D02*
G75*
G02*
X113685002Y-68000000I-50000J0D01*
G01*
X113685002Y-68000000D02*
G75*
G02*
X113785002Y-68000000I50000J0D01*
G01*
%TO.C,D23*%
X140785002Y-59000000D02*
G75*
G02*
X140685002Y-59000000I-50000J0D01*
G01*
X140685002Y-59000000D02*
G75*
G02*
X140785002Y-59000000I50000J0D01*
G01*
%TO.C,D57*%
X152785002Y-68000000D02*
G75*
G02*
X152685002Y-68000000I-50000J0D01*
G01*
X152685002Y-68000000D02*
G75*
G02*
X152785002Y-68000000I50000J0D01*
G01*
%TO.C,D107*%
X128785002Y-59000000D02*
G75*
G02*
X128685002Y-59000000I-50000J0D01*
G01*
X128685002Y-59000000D02*
G75*
G02*
X128785002Y-59000000I50000J0D01*
G01*
%TO.C,D123*%
X116785002Y-65000000D02*
G75*
G02*
X116685002Y-65000000I-50000J0D01*
G01*
X116685002Y-65000000D02*
G75*
G02*
X116785002Y-65000000I50000J0D01*
G01*
%TO.C,D102*%
X113785002Y-59000000D02*
G75*
G02*
X113685002Y-59000000I-50000J0D01*
G01*
X113685002Y-59000000D02*
G75*
G02*
X113785002Y-59000000I50000J0D01*
G01*
%TO.C,D64*%
X143785002Y-71000000D02*
G75*
G02*
X143685002Y-71000000I-50000J0D01*
G01*
X143685002Y-71000000D02*
G75*
G02*
X143785002Y-71000000I50000J0D01*
G01*
%TO.C,D26*%
X149785002Y-59000000D02*
G75*
G02*
X149685002Y-59000000I-50000J0D01*
G01*
X149685002Y-59000000D02*
G75*
G02*
X149785002Y-59000000I50000J0D01*
G01*
D13*
%TO.C,D162*%
X148000000Y-120400000D02*
X148000000Y-123600000D01*
X151900000Y-120400000D02*
X148000000Y-120400000D01*
X151900000Y-123600000D02*
X148000000Y-123600000D01*
D14*
%TO.C,D42*%
X137785002Y-65000000D02*
G75*
G02*
X137685002Y-65000000I-50000J0D01*
G01*
X137685002Y-65000000D02*
G75*
G02*
X137785002Y-65000000I50000J0D01*
G01*
%TO.C,D46*%
X149785002Y-65000000D02*
G75*
G02*
X149685002Y-65000000I-50000J0D01*
G01*
X149685002Y-65000000D02*
G75*
G02*
X149785002Y-65000000I50000J0D01*
G01*
%TO.C,D131*%
X110785002Y-68000000D02*
G75*
G02*
X110685002Y-68000000I-50000J0D01*
G01*
X110685002Y-68000000D02*
G75*
G02*
X110785002Y-68000000I50000J0D01*
G01*
%TO.C,D50*%
X131785002Y-68000000D02*
G75*
G02*
X131685002Y-68000000I-50000J0D01*
G01*
X131685002Y-68000000D02*
G75*
G02*
X131785002Y-68000000I50000J0D01*
G01*
D13*
%TO.C,D161*%
X143100000Y-125900000D02*
X147000000Y-125900000D01*
X143100000Y-129100000D02*
X147000000Y-129100000D01*
X147000000Y-129100000D02*
X147000000Y-125900000D01*
D14*
%TO.C,D144*%
X119785002Y-71000000D02*
G75*
G02*
X119685002Y-71000000I-50000J0D01*
G01*
X119685002Y-71000000D02*
G75*
G02*
X119785002Y-71000000I50000J0D01*
G01*
%TO.C,D105*%
X122785002Y-59000000D02*
G75*
G02*
X122685002Y-59000000I-50000J0D01*
G01*
X122685002Y-59000000D02*
G75*
G02*
X122785002Y-59000000I50000J0D01*
G01*
%TO.C,D116*%
X125785002Y-62000000D02*
G75*
G02*
X125685002Y-62000000I-50000J0D01*
G01*
X125685002Y-62000000D02*
G75*
G02*
X125785002Y-62000000I50000J0D01*
G01*
%TO.C,D52*%
X137785002Y-68000000D02*
G75*
G02*
X137685002Y-68000000I-50000J0D01*
G01*
X137685002Y-68000000D02*
G75*
G02*
X137785002Y-68000000I50000J0D01*
G01*
D13*
%TO.C,J4*%
X90170000Y-35830000D02*
X90170000Y-34500000D01*
X91500000Y-35830000D02*
X90170000Y-35830000D01*
X92770000Y-33170000D02*
X97910000Y-33170000D01*
X92770000Y-35830000D02*
X92770000Y-33170000D01*
X92770000Y-35830000D02*
X97910000Y-35830000D01*
X97910000Y-35830000D02*
X97910000Y-33170000D01*
D14*
%TO.C,D00*%
X131785002Y-53000000D02*
G75*
G02*
X131685002Y-53000000I-50000J0D01*
G01*
X131685002Y-53000000D02*
G75*
G02*
X131785002Y-53000000I50000J0D01*
G01*
%TO.C,D85*%
X122785002Y-53000000D02*
G75*
G02*
X122685002Y-53000000I-50000J0D01*
G01*
X122685002Y-53000000D02*
G75*
G02*
X122785002Y-53000000I50000J0D01*
G01*
D15*
%TO.C,SW8*%
X128875802Y-123875800D02*
X128875802Y-130124200D01*
X128875802Y-130124200D02*
X135124202Y-130124200D01*
X135124202Y-123875800D02*
X128875802Y-123875800D01*
X135124202Y-130124200D02*
X135124202Y-123875800D01*
D14*
%TO.C,D142*%
X113785002Y-71000000D02*
G75*
G02*
X113685002Y-71000000I-50000J0D01*
G01*
X113685002Y-71000000D02*
G75*
G02*
X113785002Y-71000000I50000J0D01*
G01*
%TO.C,D63*%
X140785002Y-71000000D02*
G75*
G02*
X140685002Y-71000000I-50000J0D01*
G01*
X140685002Y-71000000D02*
G75*
G02*
X140785002Y-71000000I50000J0D01*
G01*
%TO.C,D140*%
X107785002Y-71000000D02*
G75*
G02*
X107685002Y-71000000I-50000J0D01*
G01*
X107685002Y-71000000D02*
G75*
G02*
X107785002Y-71000000I50000J0D01*
G01*
D15*
%TO.C,SW5*%
X128875802Y-135875800D02*
X128875802Y-142124200D01*
X128875802Y-142124200D02*
X135124202Y-142124200D01*
X135124202Y-135875800D02*
X128875802Y-135875800D01*
X135124202Y-142124200D02*
X135124202Y-135875800D01*
D14*
%TO.C,D82*%
X113785002Y-53000000D02*
G75*
G02*
X113685002Y-53000000I-50000J0D01*
G01*
X113685002Y-53000000D02*
G75*
G02*
X113785002Y-53000000I50000J0D01*
G01*
%TO.C,D47*%
X152785002Y-65000000D02*
G75*
G02*
X152685002Y-65000000I-50000J0D01*
G01*
X152685002Y-65000000D02*
G75*
G02*
X152785002Y-65000000I50000J0D01*
G01*
%TO.C,D83*%
X116785002Y-53000000D02*
G75*
G02*
X116685002Y-53000000I-50000J0D01*
G01*
X116685002Y-53000000D02*
G75*
G02*
X116785002Y-53000000I50000J0D01*
G01*
%TO.C,D15*%
X146785002Y-56000000D02*
G75*
G02*
X146685002Y-56000000I-50000J0D01*
G01*
X146685002Y-56000000D02*
G75*
G02*
X146785002Y-56000000I50000J0D01*
G01*
%TO.C,D92*%
X113785002Y-56000000D02*
G75*
G02*
X113685002Y-56000000I-50000J0D01*
G01*
X113685002Y-56000000D02*
G75*
G02*
X113785002Y-56000000I50000J0D01*
G01*
%TO.C,D41*%
X134785002Y-65000000D02*
G75*
G02*
X134685002Y-65000000I-50000J0D01*
G01*
X134685002Y-65000000D02*
G75*
G02*
X134785002Y-65000000I50000J0D01*
G01*
%TO.C,D122*%
X113785002Y-65000000D02*
G75*
G02*
X113685002Y-65000000I-50000J0D01*
G01*
X113685002Y-65000000D02*
G75*
G02*
X113785002Y-65000000I50000J0D01*
G01*
%TO.C,D94*%
X119785002Y-56000000D02*
G75*
G02*
X119685002Y-56000000I-50000J0D01*
G01*
X119685002Y-56000000D02*
G75*
G02*
X119785002Y-56000000I50000J0D01*
G01*
D15*
%TO.C,SW4*%
X116875802Y-135875800D02*
X116875802Y-142124200D01*
X116875802Y-142124200D02*
X123124202Y-142124200D01*
X123124202Y-135875800D02*
X116875802Y-135875800D01*
X123124202Y-142124200D02*
X123124202Y-135875800D01*
D14*
%TO.C,D25*%
X146785002Y-59000000D02*
G75*
G02*
X146685002Y-59000000I-50000J0D01*
G01*
X146685002Y-59000000D02*
G75*
G02*
X146785002Y-59000000I50000J0D01*
G01*
%TO.C,D80*%
X107785002Y-53000000D02*
G75*
G02*
X107685002Y-53000000I-50000J0D01*
G01*
X107685002Y-53000000D02*
G75*
G02*
X107785002Y-53000000I50000J0D01*
G01*
%TO.C,D135*%
X122785002Y-68000000D02*
G75*
G02*
X122685002Y-68000000I-50000J0D01*
G01*
X122685002Y-68000000D02*
G75*
G02*
X122785002Y-68000000I50000J0D01*
G01*
D13*
%TO.C,J3*%
X74670002Y-47670000D02*
X76000002Y-47670000D01*
X74670002Y-49000000D02*
X74670002Y-47670000D01*
X74670002Y-50270000D02*
X74670002Y-57950000D01*
X74670002Y-50270000D02*
X77330002Y-50270000D01*
X74670002Y-57950000D02*
X77330002Y-57950000D01*
X77330002Y-50270000D02*
X77330002Y-57950000D01*
%TO.C,R29*%
X148420000Y-145267621D02*
X148420000Y-144932379D01*
X149180000Y-145267621D02*
X149180000Y-144932379D01*
D14*
%TO.C,D40*%
X131785002Y-65000000D02*
G75*
G02*
X131685002Y-65000000I-50000J0D01*
G01*
X131685002Y-65000000D02*
G75*
G02*
X131785002Y-65000000I50000J0D01*
G01*
%TO.C,D120*%
X107785002Y-65000000D02*
G75*
G02*
X107685002Y-65000000I-50000J0D01*
G01*
X107685002Y-65000000D02*
G75*
G02*
X107785002Y-65000000I50000J0D01*
G01*
%TO.C,D11*%
X134785002Y-56000000D02*
G75*
G02*
X134685002Y-56000000I-50000J0D01*
G01*
X134685002Y-56000000D02*
G75*
G02*
X134785002Y-56000000I50000J0D01*
G01*
%TO.C,D87*%
X128785002Y-53000000D02*
G75*
G02*
X128685002Y-53000000I-50000J0D01*
G01*
X128685002Y-53000000D02*
G75*
G02*
X128785002Y-53000000I50000J0D01*
G01*
D13*
%TO.C,D165*%
X148000000Y-112400000D02*
X148000000Y-115600000D01*
X151900000Y-112400000D02*
X148000000Y-112400000D01*
X151900000Y-115600000D02*
X148000000Y-115600000D01*
D14*
%TO.C,D81*%
X110785002Y-53000000D02*
G75*
G02*
X110685002Y-53000000I-50000J0D01*
G01*
X110685002Y-53000000D02*
G75*
G02*
X110785002Y-53000000I50000J0D01*
G01*
%TO.C,D127*%
X128785002Y-65000000D02*
G75*
G02*
X128685002Y-65000000I-50000J0D01*
G01*
X128685002Y-65000000D02*
G75*
G02*
X128785002Y-65000000I50000J0D01*
G01*
%TO.C,D72*%
X137785002Y-74000000D02*
G75*
G02*
X137685002Y-74000000I-50000J0D01*
G01*
X137685002Y-74000000D02*
G75*
G02*
X137785002Y-74000000I50000J0D01*
G01*
%TO.C,D137*%
X128785002Y-68000000D02*
G75*
G02*
X128685002Y-68000000I-50000J0D01*
G01*
X128685002Y-68000000D02*
G75*
G02*
X128785002Y-68000000I50000J0D01*
G01*
%TO.C,D54*%
X143785002Y-68000000D02*
G75*
G02*
X143685002Y-68000000I-50000J0D01*
G01*
X143685002Y-68000000D02*
G75*
G02*
X143785002Y-68000000I50000J0D01*
G01*
%TO.C,D03*%
X140785002Y-53000000D02*
G75*
G02*
X140685002Y-53000000I-50000J0D01*
G01*
X140685002Y-53000000D02*
G75*
G02*
X140785002Y-53000000I50000J0D01*
G01*
%TO.C,D10*%
X131785002Y-56000000D02*
G75*
G02*
X131685002Y-56000000I-50000J0D01*
G01*
X131685002Y-56000000D02*
G75*
G02*
X131785002Y-56000000I50000J0D01*
G01*
%TO.C,D117*%
X128785002Y-62000000D02*
G75*
G02*
X128685002Y-62000000I-50000J0D01*
G01*
X128685002Y-62000000D02*
G75*
G02*
X128785002Y-62000000I50000J0D01*
G01*
%TO.C,D45*%
X146785002Y-65000000D02*
G75*
G02*
X146685002Y-65000000I-50000J0D01*
G01*
X146685002Y-65000000D02*
G75*
G02*
X146785002Y-65000000I50000J0D01*
G01*
%TO.C,D61*%
X134785002Y-71000000D02*
G75*
G02*
X134685002Y-71000000I-50000J0D01*
G01*
X134685002Y-71000000D02*
G75*
G02*
X134785002Y-71000000I50000J0D01*
G01*
D15*
%TO.C,SW7*%
X116875802Y-123875800D02*
X116875802Y-130124200D01*
X116875802Y-130124200D02*
X123124202Y-130124200D01*
X123124202Y-123875800D02*
X116875802Y-123875800D01*
X123124202Y-130124200D02*
X123124202Y-123875800D01*
D14*
%TO.C,D146*%
X125785002Y-71000000D02*
G75*
G02*
X125685002Y-71000000I-50000J0D01*
G01*
X125685002Y-71000000D02*
G75*
G02*
X125785002Y-71000000I50000J0D01*
G01*
%TO.C,D86*%
X125785002Y-53000000D02*
G75*
G02*
X125685002Y-53000000I-50000J0D01*
G01*
X125685002Y-53000000D02*
G75*
G02*
X125785002Y-53000000I50000J0D01*
G01*
%TO.C,D121*%
X110785002Y-65000000D02*
G75*
G02*
X110685002Y-65000000I-50000J0D01*
G01*
X110685002Y-65000000D02*
G75*
G02*
X110785002Y-65000000I50000J0D01*
G01*
%TO.C,D31*%
X134785002Y-62000000D02*
G75*
G02*
X134685002Y-62000000I-50000J0D01*
G01*
X134685002Y-62000000D02*
G75*
G02*
X134785002Y-62000000I50000J0D01*
G01*
%TO.C,D73*%
X140785002Y-74000000D02*
G75*
G02*
X140685002Y-74000000I-50000J0D01*
G01*
X140685002Y-74000000D02*
G75*
G02*
X140785002Y-74000000I50000J0D01*
G01*
%TD*%
%LPC*%
D16*
%TO.C,J5*%
X133500000Y-34500000D03*
D17*
X136040000Y-34500000D03*
X138580000Y-34500000D03*
%TD*%
D18*
%TO.C,D112*%
X114427502Y-62000000D03*
X115572502Y-62000000D03*
%TD*%
%TO.C,D21*%
X135427502Y-59000000D03*
X136572502Y-59000000D03*
%TD*%
%TO.C,D22*%
X138427502Y-59000000D03*
X139572502Y-59000000D03*
%TD*%
%TO.C,D124*%
X120427502Y-65000000D03*
X121572502Y-65000000D03*
%TD*%
D19*
%TO.C,D160*%
X144000000Y-150050000D03*
D20*
X144000000Y-147475000D03*
%TD*%
D18*
%TO.C,D157*%
X129427502Y-74000000D03*
X130572502Y-74000000D03*
%TD*%
%TO.C,D143*%
X117427502Y-71000000D03*
X118572502Y-71000000D03*
%TD*%
%TO.C,D55*%
X147427502Y-68000000D03*
X148572502Y-68000000D03*
%TD*%
D21*
%TO.C,SW3*%
X89402602Y-124749999D03*
X98597402Y-124749999D03*
X89402602Y-129250001D03*
X98597402Y-129250001D03*
%TD*%
D18*
%TO.C,D147*%
X129427502Y-71000000D03*
X130572502Y-71000000D03*
%TD*%
%TO.C,D96*%
X126427502Y-56000000D03*
X127572502Y-56000000D03*
%TD*%
%TO.C,D33*%
X141427502Y-62000000D03*
X142572502Y-62000000D03*
%TD*%
%TO.C,D104*%
X120427502Y-59000000D03*
X121572502Y-59000000D03*
%TD*%
%TO.C,D150*%
X108427502Y-74000000D03*
X109572502Y-74000000D03*
%TD*%
%TO.C,D152*%
X114427502Y-74000000D03*
X115572502Y-74000000D03*
%TD*%
D22*
%TO.C,D164*%
X109950000Y-34000000D03*
D23*
X112525000Y-34000000D03*
%TD*%
D18*
%TO.C,D51*%
X135427502Y-68000000D03*
X136572502Y-68000000D03*
%TD*%
%TO.C,D71*%
X135427502Y-74000000D03*
X136572502Y-74000000D03*
%TD*%
%TO.C,D113*%
X117427502Y-62000000D03*
X118572502Y-62000000D03*
%TD*%
%TO.C,D77*%
X153427502Y-74000000D03*
X154572502Y-74000000D03*
%TD*%
%TO.C,D43*%
X141427502Y-65000000D03*
X142572502Y-65000000D03*
%TD*%
%TO.C,D153*%
X117427502Y-74000000D03*
X118572502Y-74000000D03*
%TD*%
%TO.C,D110*%
X108427502Y-62000000D03*
X109572502Y-62000000D03*
%TD*%
D22*
%TO.C,D166*%
X123950000Y-34000000D03*
D23*
X126525000Y-34000000D03*
%TD*%
D24*
%TO.C,U6*%
X112230002Y-157900000D03*
X114770002Y-157900000D03*
X114770002Y-152100000D03*
X112230002Y-152100000D03*
%TD*%
D18*
%TO.C,D01*%
X135427502Y-53000000D03*
X136572502Y-53000000D03*
%TD*%
%TO.C,D136*%
X126427502Y-68000000D03*
X127572502Y-68000000D03*
%TD*%
%TO.C,D56*%
X150427502Y-68000000D03*
X151572502Y-68000000D03*
%TD*%
%TO.C,D05*%
X147427502Y-53000000D03*
X148572502Y-53000000D03*
%TD*%
%TO.C,D154*%
X120427502Y-74000000D03*
X121572502Y-74000000D03*
%TD*%
%TO.C,D16*%
X150427502Y-56000000D03*
X151572502Y-56000000D03*
%TD*%
%TO.C,D151*%
X111427502Y-74000000D03*
X112572502Y-74000000D03*
%TD*%
%TO.C,D66*%
X150427502Y-71000000D03*
X151572502Y-71000000D03*
%TD*%
%TO.C,D12*%
X138427502Y-56000000D03*
X139572502Y-56000000D03*
%TD*%
%TO.C,D76*%
X150427502Y-74000000D03*
X151572502Y-74000000D03*
%TD*%
%TO.C,D155*%
X123427502Y-74000000D03*
X124572502Y-74000000D03*
%TD*%
%TO.C,D75*%
X147427502Y-74000000D03*
X148572502Y-74000000D03*
%TD*%
%TO.C,D67*%
X153427502Y-71000000D03*
X154572502Y-71000000D03*
%TD*%
D16*
%TO.C,J7*%
X117000000Y-44000000D03*
D17*
X117000000Y-41460000D03*
%TD*%
D25*
%TO.C,J2*%
X119592500Y-146250000D03*
D26*
X123472500Y-146250000D03*
%TD*%
D18*
%TO.C,D95*%
X123427502Y-56000000D03*
X124572502Y-56000000D03*
%TD*%
%TO.C,D134*%
X120427502Y-68000000D03*
X121572502Y-68000000D03*
%TD*%
%TO.C,D145*%
X123427502Y-71000000D03*
X124572502Y-71000000D03*
%TD*%
%TO.C,D125*%
X123427502Y-65000000D03*
X124572502Y-65000000D03*
%TD*%
%TO.C,D13*%
X141427502Y-56000000D03*
X142572502Y-56000000D03*
%TD*%
%TO.C,D44*%
X144427502Y-65000000D03*
X145572502Y-65000000D03*
%TD*%
%TO.C,D34*%
X144427502Y-62000000D03*
X145572502Y-62000000D03*
%TD*%
%TO.C,D114*%
X120427502Y-62000000D03*
X121572502Y-62000000D03*
%TD*%
%TO.C,D14*%
X144427502Y-56000000D03*
X145572502Y-56000000D03*
%TD*%
%TO.C,D103*%
X117427502Y-59000000D03*
X118572502Y-59000000D03*
%TD*%
%TO.C,D53*%
X141427502Y-68000000D03*
X142572502Y-68000000D03*
%TD*%
D22*
%TO.C,D163*%
X149450000Y-118000000D03*
D23*
X152025000Y-118000000D03*
%TD*%
D18*
%TO.C,D90*%
X108427502Y-56000000D03*
X109572502Y-56000000D03*
%TD*%
%TO.C,D156*%
X126427502Y-74000000D03*
X127572502Y-74000000D03*
%TD*%
D27*
%TO.C,D3*%
X145347500Y-144377500D03*
X147097500Y-144377500D03*
%TD*%
D18*
%TO.C,D62*%
X138427502Y-71000000D03*
X139572502Y-71000000D03*
%TD*%
%TO.C,D20*%
X132427502Y-59000000D03*
X133572502Y-59000000D03*
%TD*%
%TO.C,D36*%
X150427502Y-62000000D03*
X151572502Y-62000000D03*
%TD*%
%TO.C,D93*%
X117427502Y-56000000D03*
X118572502Y-56000000D03*
%TD*%
%TO.C,D60*%
X132427502Y-71000000D03*
X133572502Y-71000000D03*
%TD*%
%TO.C,D111*%
X111427502Y-62000000D03*
X112572502Y-62000000D03*
%TD*%
%TO.C,D32*%
X138427502Y-62000000D03*
X139572502Y-62000000D03*
%TD*%
%TO.C,D115*%
X123427502Y-62000000D03*
X124572502Y-62000000D03*
%TD*%
%TO.C,D30*%
X132427502Y-62000000D03*
X133572502Y-62000000D03*
%TD*%
%TO.C,D37*%
X153427502Y-62000000D03*
X154572502Y-62000000D03*
%TD*%
D22*
%TO.C,D167*%
X116950000Y-34000000D03*
D23*
X119525000Y-34000000D03*
%TD*%
D18*
%TO.C,D27*%
X153427502Y-59000000D03*
X154572502Y-59000000D03*
%TD*%
%TO.C,D07*%
X153427502Y-53000000D03*
X154572502Y-53000000D03*
%TD*%
%TO.C,D65*%
X147427502Y-71000000D03*
X148572502Y-71000000D03*
%TD*%
%TO.C,D97*%
X129427502Y-56000000D03*
X130572502Y-56000000D03*
%TD*%
%TO.C,D02*%
X138427502Y-53000000D03*
X139572502Y-53000000D03*
%TD*%
%TO.C,D141*%
X111427502Y-71000000D03*
X112572502Y-71000000D03*
%TD*%
D21*
%TO.C,SW6*%
X139402602Y-136749999D03*
X148597402Y-136749999D03*
X139402602Y-141250001D03*
X148597402Y-141250001D03*
%TD*%
D18*
%TO.C,D133*%
X117427502Y-68000000D03*
X118572502Y-68000000D03*
%TD*%
D21*
%TO.C,SW1*%
X101402602Y-136749999D03*
X110597402Y-136749999D03*
X101402602Y-141250001D03*
X110597402Y-141250001D03*
%TD*%
D18*
%TO.C,D126*%
X126427502Y-65000000D03*
X127572502Y-65000000D03*
%TD*%
%TO.C,D06*%
X150427502Y-53000000D03*
X151572502Y-53000000D03*
%TD*%
%TO.C,D84*%
X120427502Y-53000000D03*
X121572502Y-53000000D03*
%TD*%
%TO.C,D91*%
X111427502Y-56000000D03*
X112572502Y-56000000D03*
%TD*%
%TO.C,D130*%
X108427502Y-68000000D03*
X109572502Y-68000000D03*
%TD*%
%TO.C,D17*%
X153427502Y-56000000D03*
X154572502Y-56000000D03*
%TD*%
%TO.C,D24*%
X144427502Y-59000000D03*
X145572502Y-59000000D03*
%TD*%
D21*
%TO.C,SW2*%
X127402602Y-148749999D03*
X136597402Y-148749999D03*
X127402602Y-153250001D03*
X136597402Y-153250001D03*
%TD*%
D18*
%TO.C,D35*%
X147427502Y-62000000D03*
X148572502Y-62000000D03*
%TD*%
%TO.C,D04*%
X144427502Y-53000000D03*
X145572502Y-53000000D03*
%TD*%
%TO.C,D100*%
X108427502Y-59000000D03*
X109572502Y-59000000D03*
%TD*%
%TO.C,D74*%
X144427502Y-74000000D03*
X145572502Y-74000000D03*
%TD*%
%TO.C,D70*%
X132427502Y-74000000D03*
X133572502Y-74000000D03*
%TD*%
%TO.C,D106*%
X126427502Y-59000000D03*
X127572502Y-59000000D03*
%TD*%
%TO.C,D101*%
X111427502Y-59000000D03*
X112572502Y-59000000D03*
%TD*%
%TO.C,D132*%
X114427502Y-68000000D03*
X115572502Y-68000000D03*
%TD*%
%TO.C,D23*%
X141427502Y-59000000D03*
X142572502Y-59000000D03*
%TD*%
%TO.C,D57*%
X153427502Y-68000000D03*
X154572502Y-68000000D03*
%TD*%
%TO.C,D107*%
X129427502Y-59000000D03*
X130572502Y-59000000D03*
%TD*%
%TO.C,D123*%
X117427502Y-65000000D03*
X118572502Y-65000000D03*
%TD*%
%TO.C,D102*%
X114427502Y-59000000D03*
X115572502Y-59000000D03*
%TD*%
%TO.C,D64*%
X144427502Y-71000000D03*
X145572502Y-71000000D03*
%TD*%
%TO.C,D26*%
X150427502Y-59000000D03*
X151572502Y-59000000D03*
%TD*%
D22*
%TO.C,D162*%
X149450000Y-122000000D03*
D23*
X152025000Y-122000000D03*
%TD*%
D18*
%TO.C,D42*%
X138427502Y-65000000D03*
X139572502Y-65000000D03*
%TD*%
%TO.C,D46*%
X150427502Y-65000000D03*
X151572502Y-65000000D03*
%TD*%
%TO.C,D131*%
X111427502Y-68000000D03*
X112572502Y-68000000D03*
%TD*%
%TO.C,D50*%
X132427502Y-68000000D03*
X133572502Y-68000000D03*
%TD*%
D22*
%TO.C,D161*%
X145550000Y-127500000D03*
D23*
X142975000Y-127500000D03*
%TD*%
D18*
%TO.C,D144*%
X120427502Y-71000000D03*
X121572502Y-71000000D03*
%TD*%
%TO.C,D105*%
X123427502Y-59000000D03*
X124572502Y-59000000D03*
%TD*%
%TO.C,D116*%
X126427502Y-62000000D03*
X127572502Y-62000000D03*
%TD*%
%TO.C,D52*%
X138427502Y-68000000D03*
X139572502Y-68000000D03*
%TD*%
D16*
%TO.C,J4*%
X91500000Y-34500000D03*
D17*
X94040000Y-34500000D03*
X96580000Y-34500000D03*
%TD*%
D18*
%TO.C,D00*%
X132427502Y-53000000D03*
X133572502Y-53000000D03*
%TD*%
%TO.C,D85*%
X123427502Y-53000000D03*
X124572502Y-53000000D03*
%TD*%
D21*
%TO.C,SW8*%
X127402602Y-124749999D03*
X136597402Y-124749999D03*
X127402602Y-129250001D03*
X136597402Y-129250001D03*
%TD*%
D18*
%TO.C,D142*%
X114427502Y-71000000D03*
X115572502Y-71000000D03*
%TD*%
%TO.C,D63*%
X141427502Y-71000000D03*
X142572502Y-71000000D03*
%TD*%
%TO.C,D140*%
X108427502Y-71000000D03*
X109572502Y-71000000D03*
%TD*%
D21*
%TO.C,SW5*%
X127402602Y-136749999D03*
X136597402Y-136749999D03*
X127402602Y-141250001D03*
X136597402Y-141250001D03*
%TD*%
D18*
%TO.C,D82*%
X114427502Y-53000000D03*
X115572502Y-53000000D03*
%TD*%
%TO.C,D47*%
X153427502Y-65000000D03*
X154572502Y-65000000D03*
%TD*%
%TO.C,D83*%
X117427502Y-53000000D03*
X118572502Y-53000000D03*
%TD*%
%TO.C,D15*%
X147427502Y-56000000D03*
X148572502Y-56000000D03*
%TD*%
%TO.C,D92*%
X114427502Y-56000000D03*
X115572502Y-56000000D03*
%TD*%
%TO.C,D41*%
X135427502Y-65000000D03*
X136572502Y-65000000D03*
%TD*%
%TO.C,D122*%
X114427502Y-65000000D03*
X115572502Y-65000000D03*
%TD*%
%TO.C,D94*%
X120427502Y-56000000D03*
X121572502Y-56000000D03*
%TD*%
D21*
%TO.C,SW4*%
X115402602Y-136749999D03*
X124597402Y-136749999D03*
X115402602Y-141250001D03*
X124597402Y-141250001D03*
%TD*%
D18*
%TO.C,D25*%
X147427502Y-59000000D03*
X148572502Y-59000000D03*
%TD*%
%TO.C,D80*%
X108427502Y-53000000D03*
X109572502Y-53000000D03*
%TD*%
%TO.C,D135*%
X123427502Y-68000000D03*
X124572502Y-68000000D03*
%TD*%
D16*
%TO.C,J3*%
X76000002Y-49000000D03*
D17*
X76000002Y-51540000D03*
X76000002Y-54080000D03*
X76000002Y-56620000D03*
%TD*%
D28*
%TO.C,R29*%
X148800000Y-145697500D03*
X148800000Y-144502500D03*
%TD*%
D18*
%TO.C,D40*%
X132427502Y-65000000D03*
X133572502Y-65000000D03*
%TD*%
%TO.C,D120*%
X108427502Y-65000000D03*
X109572502Y-65000000D03*
%TD*%
%TO.C,D11*%
X135427502Y-56000000D03*
X136572502Y-56000000D03*
%TD*%
%TO.C,D87*%
X129427502Y-53000000D03*
X130572502Y-53000000D03*
%TD*%
D22*
%TO.C,D165*%
X149450000Y-114000000D03*
D23*
X152025000Y-114000000D03*
%TD*%
D18*
%TO.C,D81*%
X111427502Y-53000000D03*
X112572502Y-53000000D03*
%TD*%
%TO.C,D127*%
X129427502Y-65000000D03*
X130572502Y-65000000D03*
%TD*%
%TO.C,D72*%
X138427502Y-74000000D03*
X139572502Y-74000000D03*
%TD*%
%TO.C,D137*%
X129427502Y-68000000D03*
X130572502Y-68000000D03*
%TD*%
%TO.C,D54*%
X144427502Y-68000000D03*
X145572502Y-68000000D03*
%TD*%
%TO.C,D03*%
X141427502Y-53000000D03*
X142572502Y-53000000D03*
%TD*%
%TO.C,D10*%
X132427502Y-56000000D03*
X133572502Y-56000000D03*
%TD*%
%TO.C,D117*%
X129427502Y-62000000D03*
X130572502Y-62000000D03*
%TD*%
%TO.C,D45*%
X147427502Y-65000000D03*
X148572502Y-65000000D03*
%TD*%
%TO.C,D61*%
X135427502Y-71000000D03*
X136572502Y-71000000D03*
%TD*%
D21*
%TO.C,SW7*%
X115402602Y-124749999D03*
X124597402Y-124749999D03*
X115402602Y-129250001D03*
X124597402Y-129250001D03*
%TD*%
D18*
%TO.C,D146*%
X126427502Y-71000000D03*
X127572502Y-71000000D03*
%TD*%
%TO.C,D86*%
X126427502Y-53000000D03*
X127572502Y-53000000D03*
%TD*%
%TO.C,D121*%
X111427502Y-65000000D03*
X112572502Y-65000000D03*
%TD*%
%TO.C,D31*%
X135427502Y-62000000D03*
X136572502Y-62000000D03*
%TD*%
%TO.C,D73*%
X141427502Y-74000000D03*
X142572502Y-74000000D03*
%TD*%
D29*
%TO.C,J1*%
X80810000Y-68900000D03*
X80810000Y-63100000D03*
D30*
X77130000Y-70330000D03*
D31*
X81310000Y-70330000D03*
D30*
X77130000Y-61670000D03*
D31*
X81310000Y-61670000D03*
%TD*%
D32*
%TO.C,BT1*%
X138450000Y-108550000D03*
%TD*%
%LPD*%
M02*
